<?xml version="1.0" encoding="UTF-8" standalone="no"?>
<!-- Created with Inkscape (http://www.inkscape.org/) -->

<svg
   xmlns:dc="http://purl.org/dc/elements/1.1/"
   xmlns:cc="http://creativecommons.org/ns#"
   xmlns:rdf="http://www.w3.org/1999/02/22-rdf-syntax-ns#"
   xmlns:svg="http://www.w3.org/2000/svg"
   xmlns="http://www.w3.org/2000/svg"
   xmlns:sodipodi="http://sodipodi.sourceforge.net/DTD/sodipodi-0.dtd"
   xmlns:inkscape="http://www.inkscape.org/namespaces/inkscape"
   width="1600"
   height="900"
   viewBox="0 0 423.33332 238.12501"
   version="1.1"
   id="svg5488"
   inkscape:version="0.92.4 5da689c313, 2019-01-14"
   sodipodi:docname="AboutUsBack.svg">
  <defs
     id="defs5482" />
  <sodipodi:namedview
     id="base"
     pagecolor="#ffffff"
     bordercolor="#666666"
     borderopacity="1.0"
     inkscape:pageopacity="0.0"
     inkscape:pageshadow="2"
     inkscape:zoom="0.24748737"
     inkscape:cx="352.22656"
     inkscape:cy="545.60533"
     inkscape:document-units="mm"
     inkscape:current-layer="g863"
     showgrid="false"
     units="px"
     inkscape:snap-global="false"
     inkscape:window-width="1366"
     inkscape:window-height="694"
     inkscape:window-x="0"
     inkscape:window-y="0"
     inkscape:window-maximized="1" />
  <metadata
     id="metadata5485">
    <rdf:RDF>
      <cc:Work
         rdf:about="">
        <dc:format>image/svg+xml</dc:format>
        <dc:type
           rdf:resource="http://purl.org/dc/dcmitype/StillImage" />
        <dc:title></dc:title>
      </cc:Work>
    </rdf:RDF>
  </metadata>
  <g
     inkscape:label="Layer 1"
     inkscape:groupmode="layer"
     id="layer1"
     transform="translate(0,-58.874983)">
    <g
       transform="matrix(0.36484137,0,0,0.36484137,116.04312,77.944524)"
       id="g863">
      <path
         inkscape:connector-curvature="0"
         class="st0"
         d="m 842.08314,403.82928 c 0,0 -67.03471,-57.17667 -179.52597,-57.17667 -112.49125,0 -137.5745,71.5256 -227.17319,71.5256 -89.59868,0 -157.40013,-80.06924 -157.40013,-216.00074 0,-135.931498 76.01649,-216.110271 203.18528,-216.110271 127.16879,0 109.20524,137.355441 231.33547,137.355441 91.67983,0 129.57854,-94.418174 129.57854,-94.418174 z"
         id="path857"
         style="fill:#ebdbec;fill-opacity:1;stroke-width:1.09533846;opacity:0.293" />
      <path
         inkscape:connector-curvature="0"
         class="st1"
         d="m 842.08314,540.96565 c 0,0 -75.57835,-69.55399 -202.41854,-69.55399 -126.84019,0 -155.09992,86.96987 -256.19966,86.96987 -101.09974,0 -177.44483,-97.37559 -177.44483,-262.55262 0,-165.17704 85.765,-262.552624 229.1448,-262.552624 143.3798,0 123.11604,166.929574 260.90962,166.929574 103.39995,0 146.00861,-114.791465 146.00861,-114.791465 z"
         id="path859"
         style="fill:#eae3f1;fill-opacity:1;stroke-width:1.09533846;opacity:0.293" />
      <path
         inkscape:connector-curvature="0"
         class="st2"
         d="m 842.08314,538.5559 c 0,0 -55.42412,-116.32494 -185.4408,-66.0489 -130.01667,50.27603 -238.01704,97.81372 -332.76381,29.02647 -94.74677,-68.78726 -26.39766,-199.57067 57.2862,-199.57067 83.68386,0 99.89486,86.53174 178.86876,86.53174 78.97391,0 282.04965,-150.1709 282.04965,-150.1709 z"
         id="path861"
         style="fill:#e1cfe2;fill-opacity:1;stroke-width:1.09533846;opacity:0.293" />
      <path
         inkscape:connector-curvature="0"
         class="st0"
         d="m -318.06459,374.70084 c 0,0 60.47994,-51.58585 161.97166,-51.58585 101.491674,0 124.122288,64.53172 204.959793,64.53172 80.837597,0 142.009357,-72.23993 142.009357,-194.87984 0,-122.639881 -68.58349,-194.9786522 -183.3175161,-194.9786522 -114.7340739,0 -98.5270289,123.9246022 -208.7151039,123.9246022 -82.71528,0 -116.90819,-85.185811 -116.90819,-85.185811 z"
         id="path857-5"
         style="opacity:0.293;fill:#ebdbec;fill-opacity:1;stroke-width:0.98823446" />
      <path
         inkscape:connector-curvature="0"
         class="st1"
         d="m -318.06459,387.744 c 0,0 70.54789,-47.38715 188.94559,-47.38715 118.39766,0 144.776485,59.2526 239.14697,59.2526 94.3705,0 165.63406,-66.34203 165.63406,-178.87719 0,-112.53518 -80.05647,-178.877197 -213.892895,-178.877197 -133.836424,0 -114.921478,113.729187 -243.543475,113.729187 -96.51759,0 -136.29025,-78.207477 -136.29025,-78.207477 z"
         id="path859-3"
         style="fill:#eae3f1;fill-opacity:1;stroke-width:0.87349576;opacity:0.293" />
      <path
         inkscape:connector-curvature="0"
         class="st2"
         d="m -318.06459,358.73596 c 0,0 46.38007,-97.34318 155.1808,-55.27112 108.800771,42.07204 199.177711,81.85259 278.46385,24.28996 79.28613,-57.56263 22.09007,-167.00497 -47.938317,-167.00497 -70.0284582,0 -83.594083,72.4116 -149.681118,72.4116 -66.087075,0 -236.025215,-125.66619 -236.025215,-125.66619 z"
         id="path861-5"
         style="opacity:0.293;fill:#e1cfe2;fill-opacity:1;stroke-width:0.91660243" />
    </g>
  </g>
</svg>
