<?xml version="1.0" encoding="UTF-8" standalone="no"?>
<!-- Created with Inkscape (http://www.inkscape.org/) -->

<svg
   xmlns:dc="http://purl.org/dc/elements/1.1/"
   xmlns:cc="http://creativecommons.org/ns#"
   xmlns:rdf="http://www.w3.org/1999/02/22-rdf-syntax-ns#"
   xmlns:svg="http://www.w3.org/2000/svg"
   xmlns="http://www.w3.org/2000/svg"
   xmlns:sodipodi="http://sodipodi.sourceforge.net/DTD/sodipodi-0.dtd"
   xmlns:inkscape="http://www.inkscape.org/namespaces/inkscape"
   width="80"
   height="80"
   viewBox="0 0 21.16667 21.166666"
   version="1.1"
   id="svg1928"
   inkscape:version="0.92.2 2405546, 2018-03-11"
   sodipodi:docname="Aparteman.svg">
  <defs
     id="defs1922" />
  <sodipodi:namedview
     id="base"
     pagecolor="#ffffff"
     bordercolor="#666666"
     borderopacity="1.0"
     inkscape:pageopacity="0.0"
     inkscape:pageshadow="2"
     inkscape:zoom="1.4"
     inkscape:cx="167.85714"
     inkscape:cy="144.03574"
     inkscape:document-units="mm"
     inkscape:current-layer="layer1"
     showgrid="false"
     units="px"
     showguides="false"
     inkscape:window-width="1366"
     inkscape:window-height="694"
     inkscape:window-x="0"
     inkscape:window-y="0"
     inkscape:window-maximized="1" />
  <metadata
     id="metadata1925">
    <rdf:RDF>
      <cc:Work
         rdf:about="">
        <dc:format>image/svg+xml</dc:format>
        <dc:type
           rdf:resource="http://purl.org/dc/dcmitype/StillImage" />
        <dc:title></dc:title>
      </cc:Work>
    </rdf:RDF>
  </metadata>
  <g
     inkscape:label="Layer 1"
     inkscape:groupmode="layer"
     id="layer1"
     transform="translate(0,-275.83317)">
    <g
       id="g4584-4-9"
       transform="matrix(0.04201694,0,0,0.04201694,0.5057998,276.5149)"
       style="fill:#ffffff;fill-opacity:1"
       inkscape:export-xdpi="300"
       inkscape:export-ydpi="300">
      <g
         id="g4514-9-9"
         style="fill:#ffffff;fill-opacity:1">
        <g
           id="g4512-3-5"
           style="fill:#ffffff;fill-opacity:1">
          <g
             id="g4510-1-2"
             style="fill:#ffffff;fill-opacity:1">
            <path
               id="path4484-3-0"
               d="M 472,464 H 424 V 200 c 0,-4.418 -3.582,-8 -8,-8 H 304 V 8 c 0,-4.418 -3.582,-8 -8,-8 H 88 C 83.582,0 80,3.582 80,8 V 464 H 8 c -4.418,0 -8,3.582 -8,8 0,4.418 3.582,8 8,8 h 464 c 4.418,0 8,-3.582 8,-8 0,-4.418 -3.582,-8 -8,-8 z m -304,0 h -32 v -72 c 0,-4.418 3.582,-8 8,-8 h 16 c 4.418,0 8,3.582 8,8 z m 32,-264 v 264 h -16 v -72 c 0,-13.255 -10.745,-24 -24,-24 h -16 c -13.255,0 -24,10.745 -24,24 v 72 H 96 V 16 h 192 v 176 h -80 c -4.418,0 -8,3.582 -8,8 z M 408,464 H 216 V 208 h 192 z"
               inkscape:connector-curvature="0"
               style="fill:#ffffff;fill-opacity:1" />
            <path
               id="path4486-8-8"
               d="m 256,112 h -48 c -4.418,0 -8,3.582 -8,8 v 48 c 0,4.418 3.582,8 8,8 h 48 c 4.418,0 8,-3.582 8,-8 v -48 c 0,-4.418 -3.582,-8 -8,-8 z m -8,48 h -32 v -32 h 32 z"
               inkscape:connector-curvature="0"
               style="fill:#ffffff;fill-opacity:1" />
            <path
               id="path4488-7-3"
               d="m 256,32 h -48 c -4.418,0 -8,3.582 -8,8 v 48 c 0,4.418 3.582,8 8,8 h 48 c 4.418,0 8,-3.582 8,-8 V 40 c 0,-4.418 -3.582,-8 -8,-8 z m -8,48 H 216 V 48 h 32 z"
               inkscape:connector-curvature="0"
               style="fill:#ffffff;fill-opacity:1" />
            <path
               id="path4490-9-5"
               d="m 176,112 h -48 c -4.418,0 -8,3.582 -8,8 v 48 c 0,4.418 3.582,8 8,8 h 48 c 4.418,0 8,-3.582 8,-8 v -48 c 0,-4.418 -3.582,-8 -8,-8 z m -8,48 h -32 v -32 h 32 z"
               inkscape:connector-curvature="0"
               style="fill:#ffffff;fill-opacity:1" />
            <path
               id="path4492-3-9"
               d="m 176,32 h -48 c -4.418,0 -8,3.582 -8,8 v 48 c 0,4.418 3.582,8 8,8 h 48 c 4.418,0 8,-3.582 8,-8 V 40 c 0,-4.418 -3.582,-8 -8,-8 z m -8,48 H 136 V 48 h 32 z"
               inkscape:connector-curvature="0"
               style="fill:#ffffff;fill-opacity:1" />
            <path
               id="path4494-8-6"
               d="m 176,192 h -48 c -4.418,0 -8,3.582 -8,8 v 48 c 0,4.418 3.582,8 8,8 h 48 c 4.418,0 8,-3.582 8,-8 v -48 c 0,-4.418 -3.582,-8 -8,-8 z m -8,48 h -32 v -32 h 32 z"
               inkscape:connector-curvature="0"
               style="fill:#ffffff;fill-opacity:1" />
            <path
               id="path4496-8-5"
               d="m 176,272 h -48 c -4.418,0 -8,3.582 -8,8 v 48 c 0,4.418 3.582,8 8,8 h 48 c 4.418,0 8,-3.582 8,-8 v -48 c 0,-4.418 -3.582,-8 -8,-8 z m -8,48 h -32 v -32 h 32 z"
               inkscape:connector-curvature="0"
               style="fill:#ffffff;fill-opacity:1" />
            <path
               id="path4498-4-6"
               d="m 328,368 h 48 c 4.418,0 8,-3.582 8,-8 v -48 c 0,-4.418 -3.582,-8 -8,-8 h -48 c -4.418,0 -8,3.582 -8,8 v 48 c 0,4.418 3.582,8 8,8 z m 8,-48 h 32 v 32 h -32 z"
               inkscape:connector-curvature="0"
               style="fill:#ffffff;fill-opacity:1" />
            <path
               id="path4500-0-3"
               d="m 328,288 h 48 c 4.418,0 8,-3.582 8,-8 v -48 c 0,-4.418 -3.582,-8 -8,-8 h -48 c -4.418,0 -8,3.582 -8,8 v 48 c 0,4.418 3.582,8 8,8 z m 8,-48 h 32 v 32 h -32 z"
               inkscape:connector-curvature="0"
               style="fill:#ffffff;fill-opacity:1" />
            <path
               id="path4502-0-0"
               d="m 328,448 h 48 c 4.418,0 8,-3.582 8,-8 v -48 c 0,-4.418 -3.582,-8 -8,-8 h -48 c -4.418,0 -8,3.582 -8,8 v 48 c 0,4.418 3.582,8 8,8 z m 8,-48 h 32 v 32 h -32 z"
               inkscape:connector-curvature="0"
               style="fill:#ffffff;fill-opacity:1" />
            <path
               id="path4504-8-2"
               d="m 248,368 h 48 c 4.418,0 8,-3.582 8,-8 v -48 c 0,-4.418 -3.582,-8 -8,-8 h -48 c -4.418,0 -8,3.582 -8,8 v 48 c 0,4.418 3.582,8 8,8 z m 8,-48 h 32 v 32 h -32 z"
               inkscape:connector-curvature="0"
               style="fill:#ffffff;fill-opacity:1" />
            <path
               id="path4506-6-0"
               d="m 248,288 h 48 c 4.418,0 8,-3.582 8,-8 v -48 c 0,-4.418 -3.582,-8 -8,-8 h -48 c -4.418,0 -8,3.582 -8,8 v 48 c 0,4.418 3.582,8 8,8 z m 8,-48 h 32 v 32 h -32 z"
               inkscape:connector-curvature="0"
               style="fill:#ffffff;fill-opacity:1" />
            <path
               id="path4508-8-7"
               d="m 248,448 h 48 c 4.418,0 8,-3.582 8,-8 v -48 c 0,-4.418 -3.582,-8 -8,-8 h -48 c -4.418,0 -8,3.582 -8,8 v 48 c 0,4.418 3.582,8 8,8 z m 8,-48 h 32 v 32 h -32 z"
               inkscape:connector-curvature="0"
               style="fill:#ffffff;fill-opacity:1" />
          </g>
        </g>
      </g>
      <g
         id="g4516-2-4"
         style="fill:#ffffff;fill-opacity:1" />
      <g
         id="g4518-3-7"
         style="fill:#ffffff;fill-opacity:1" />
      <g
         id="g4520-8-3"
         style="fill:#ffffff;fill-opacity:1" />
      <g
         id="g4522-5-0"
         style="fill:#ffffff;fill-opacity:1" />
      <g
         id="g4524-0-1"
         style="fill:#ffffff;fill-opacity:1" />
      <g
         id="g4526-5-6"
         style="fill:#ffffff;fill-opacity:1" />
      <g
         id="g4528-9-7"
         style="fill:#ffffff;fill-opacity:1" />
      <g
         id="g4530-2-5"
         style="fill:#ffffff;fill-opacity:1" />
      <g
         id="g4532-6-7"
         style="fill:#ffffff;fill-opacity:1" />
      <g
         id="g4534-8-8"
         style="fill:#ffffff;fill-opacity:1" />
      <g
         id="g4536-5-8"
         style="fill:#ffffff;fill-opacity:1" />
      <g
         id="g4538-2-9"
         style="fill:#ffffff;fill-opacity:1" />
      <g
         id="g4540-8-0"
         style="fill:#ffffff;fill-opacity:1" />
      <g
         id="g4542-3-7"
         style="fill:#ffffff;fill-opacity:1" />
      <g
         id="g4544-6-8"
         style="fill:#ffffff;fill-opacity:1" />
    </g>
  </g>
</svg>
