<?xml version="1.0" encoding="utf-8"?>
<!-- Generator: Adobe Illustrator 23.0.1, SVG Export Plug-In . SVG Version: 6.00 Build 0)  -->
<svg version="1.1" id="Layer_1" xmlns="http://www.w3.org/2000/svg" xmlns:xlink="http://www.w3.org/1999/xlink" x="0px" y="0px"
	 viewBox="0 0 291.9 945" style="enable-background:new 0 0 291.9 945;" xml:space="preserve">
<style type="text/css">
	.st0{fill:#FFFFFF;}
</style>
<g>
	<path class="st0" d="M166.1,794.5c0,2.3-0.2,4.4-0.7,6.5c-0.5,2-1.2,3.8-2.2,5.3c-1,1.5-2.3,2.7-3.9,3.6c-1.6,0.9-3.5,1.3-5.6,1.3
		c-1.5,0-3-0.3-4.3-0.8c-1.4-0.5-2.6-1.2-3.8-2.1c-1.2-0.9-2.3-1.8-3.3-2.9c-1-1.1-1.9-2.2-2.7-3.4c-0.8-1.2-1.5-2.3-2.1-3.4
		c-0.6-1.1-1.1-2.1-1.4-3l-4,0.5l-2.7-12.7c4.2-0.5,8-0.9,11.4-1.3c3.4-0.4,6.2-0.8,8.6-1.1c2.3-0.3,4.2-0.6,5.4-0.8
		c1.3-0.2,2-0.3,2-0.4c0.4-0.2,0.7-0.5,0.9-1c0.2-0.5,0.2-1.1,0.2-1.9v-0.7h12.8v0.9c0,2.6-0.4,4.9-1.2,7c-0.8,2-2,3.6-3.7,4.8
		c0.1,1,0.2,1.9,0.2,2.9C166.1,792.7,166.1,793.6,166.1,794.5z M153.1,801.4c0.2,0,0.4-0.4,0.7-1c0.2-0.6,0.4-1.3,0.6-2.2
		c0.1-0.9,0.2-1.8,0.2-2.8c0-1-0.1-1.9-0.3-2.7l-7.8,1.2c0.3,0.9,0.8,1.8,1.5,2.7s1.3,1.7,1.9,2.4c0.7,0.7,1.3,1.3,1.9,1.7
		C152.3,801.3,152.8,801.5,153.1,801.4z"/>
	<path class="st0" d="M157.8,777.4v-4c0-0.8,0-1.7-0.1-2.6c-0.1-1-0.3-1.9-0.5-2.8c-0.2-0.9-0.6-1.6-1-2.2c-0.4-0.6-0.9-0.9-1.5-0.9
		c-0.5,0-1.1,0.2-2.1,0.5c-0.9,0.4-2,0.8-3.2,1.4c-1.2,0.6-2.5,1.2-3.8,1.8c-1.4,0.7-2.7,1.3-4,2l-5.7-11.6c1.5-0.6,3-1.3,4.7-1.9
		c1.6-0.6,3.2-1.2,4.9-1.6c1.6-0.5,3.2-0.9,4.8-1.2c1.6-0.3,3.1-0.4,4.4-0.4c2.8,0,5.3,0.5,7.3,1.4c2,0.9,3.7,2.2,5,3.9
		c1.3,1.7,2.3,3.7,2.9,6c0.6,2.3,0.9,4.9,0.9,7.7v4.5H157.8z M132.9,767.1l-7.2,7.2l-7.2-7.2l7.2-7.2L132.9,767.1z"/>
	<path class="st0" d="M170.7,732.9c0,2.9-0.4,5.4-1.2,7.5c-0.8,2-1.9,3.7-3.3,5c-1.4,1.3-3,2.2-4.9,2.8c-1.9,0.6-4,0.9-6.2,0.9
		c-2.9,0-5.8,0-8.8-0.1c-2.9,0-5.9,0-8.9,0c-3,0-6,0.2-9,0.3c-3,0.2-6.1,0.5-9.2,1l-3.7-12.2c2.9-0.6,5.8-1,8.9-1.2
		c3.1-0.2,6.1-0.3,9.2-0.4c3.1,0,6.2,0,9.2,0.1c3,0.1,6,0.1,8.8,0.1c1,0,1.9,0,2.6,0c0.8,0,1.4-0.1,2-0.4c0.5-0.2,0.9-0.6,1.2-1.2
		c0.3-0.5,0.4-1.3,0.3-2.4V732h12.8V732.9z"/>
	<path class="st0" d="M157.8,709.1h12.8v0.7c0,2-0.3,3.9-1,5.5s-1.6,2.9-2.9,3.7c1.4,1.2,2.4,3,3,5.3c0.6,2.3,0.9,4.9,0.9,7.8v1.2
		h-12.8v-1.2c0-1.4,0-2.6-0.1-3.6c-0.1-1-0.2-1.8-0.5-2.4c-0.3-0.6-0.6-1.1-1.1-1.4c-0.5-0.3-1.2-0.4-2-0.5c-0.9,0-1.9,0.1-3.2,0.3
		c-1.3,0.2-2.8,0.5-4.7,0.9l-2.9-11.5c0.8-0.2,1.8-0.4,2.9-0.6c1.1-0.2,2.3-0.3,3.5-0.5c1.2-0.1,2.4-0.2,3.5-0.2
		c1.1,0,2.1,0,2.9,0.2c0.4-0.2,0.8-0.4,1-0.7c0.2-0.3,0.4-0.5,0.5-0.8c0.1-0.3,0.2-0.6,0.2-0.8c0-0.3,0-0.5,0-0.7V709.1z
		 M187.1,721.7l-7.2,7.2l-7.2-7.2l7.2-7.2L187.1,721.7z"/>
	<path class="st0" d="M157.8,709.7c0-1.4-0.4-2.5-1.1-3.5c-0.8-0.9-1.8-1.8-3.1-2.4c-1.3-0.7-2.8-1.3-4.5-1.8
		c-1.7-0.5-3.5-1-5.5-1.5l2-10.9c0.8,0.2,1.7,0.4,2.7,0.6c1,0.2,2,0.4,3,0.6c1,0.2,1.9,0.3,2.9,0.5c0.9,0.1,1.8,0.2,2.5,0.2
		c0.7,0,1.3-0.1,1.8-0.3c0.5-0.2,0.7-0.5,0.7-0.9c0-0.8-0.3-1.5-0.8-2.1c-0.5-0.6-1.2-1.2-2-1.7c-0.8-0.5-1.7-0.9-2.8-1.3
		c-1-0.4-2.1-0.7-3.2-1c-1.1-0.3-2.2-0.5-3.4-0.7c-1.1-0.2-2.2-0.4-3.2-0.6l1.6-9.7c0.7,0.1,1.5,0.2,2.5,0.3c1,0.1,2,0.2,3,0.3
		c1,0.1,2.1,0.1,3.1,0.1c1,0,1.9-0.1,2.7-0.3c0.8-0.2,1.5-0.5,2-1c0.5-0.4,0.7-1.1,0.7-1.9c0-1.1-0.2-2-0.6-2.7s-1-1.1-1.8-1.4
		c-0.7-0.3-1.6-0.4-2.6-0.4c-1,0-2,0.2-3,0.4c-1,0.2-2.1,0.6-3.2,0.9c-1.1,0.4-2.1,0.8-3,1.2c-1,0.4-1.8,0.8-2.6,1.2
		c-0.8,0.4-1.4,0.7-1.8,0.9l-5.4-9.6c1.3-0.6,2.7-1.2,4.3-1.8c1.6-0.6,3.3-1.2,5.1-1.8c1.8-0.5,3.6-1,5.4-1.3
		c1.8-0.4,3.6-0.5,5.3-0.5c2.4,0,4.5,0.3,6.4,0.9c1.9,0.6,3.5,1.6,4.8,2.9c1.3,1.3,2.4,2.9,3.1,4.8c0.7,1.9,1.1,4.2,1.1,6.9
		c0,1.1-0.2,2.1-0.5,3.1c-0.3,1-0.8,1.9-1.3,2.7c-0.5,0.8-1.1,1.5-1.7,2.1c-0.6,0.6-1.2,1.1-1.7,1.4c0.6,0.4,1.2,0.9,1.8,1.5
		c0.6,0.6,1.2,1.3,1.6,2.1c0.5,0.8,0.9,1.7,1.2,2.7c0.3,1,0.5,2.1,0.5,3.2c0,1-0.1,2-0.4,2.9c-0.3,0.9-0.7,1.8-1.1,2.5
		c-0.5,0.8-1,1.4-1.6,2c-0.6,0.6-1.2,1-1.8,1.4c0.6,0.3,1.3,0.8,1.8,1.4c0.6,0.6,1,1.3,1.4,2.2c0.4,0.9,0.7,1.8,1,2.9
		c0.2,1.1,0.4,2.3,0.4,3.6v1.2h-12.8V709.7z M128.5,680l6.1,6.1l-6.3,6.3l-6.3-6.2l6.2-6.2l-6.1-6.1l6.3-6.3l6.3,6.2L128.5,680z
		 M119,674.2l5.8,5.8l-5.8,5.8l-5.8-5.8L119,674.2z"/>
	<path class="st0" d="M137.3,607.1v-12.4h10.5v12.4h14.2v11.4h-14.2V631h-10.5v-12.5h-13.8v-11.4H137.3z"/>
	<path class="st0" d="M166.1,552.6c0,2.3-0.2,4.4-0.7,6.5c-0.5,2-1.2,3.8-2.2,5.3c-1,1.5-2.3,2.7-3.9,3.6c-1.6,0.9-3.5,1.3-5.6,1.3
		c-1.5,0-3-0.3-4.3-0.8c-1.4-0.5-2.6-1.2-3.8-2.1c-1.2-0.9-2.3-1.8-3.3-2.9c-1-1.1-1.9-2.2-2.7-3.4c-0.8-1.2-1.5-2.3-2.1-3.4
		c-0.6-1.1-1.1-2.1-1.4-3l-4,0.5l-2.7-12.7c4.2-0.5,8-0.9,11.4-1.3c3.4-0.4,6.2-0.8,8.6-1.1c2.3-0.3,4.2-0.6,5.4-0.8
		c1.3-0.2,2-0.3,2-0.4c0.4-0.2,0.7-0.5,0.9-1c0.2-0.5,0.2-1.1,0.2-1.9v-0.7h12.8v0.9c0,2.6-0.4,4.9-1.2,7c-0.8,2-2,3.6-3.7,4.8
		c0.1,1,0.2,1.9,0.2,2.9C166.1,550.8,166.1,551.7,166.1,552.6z M153.1,559.5c0.2,0,0.4-0.4,0.7-1c0.2-0.6,0.4-1.3,0.6-2.2
		c0.1-0.9,0.2-1.8,0.2-2.8c0-1-0.1-1.9-0.3-2.7l-7.8,1.2c0.3,0.9,0.8,1.8,1.5,2.7c0.6,0.9,1.3,1.7,1.9,2.4s1.3,1.3,1.9,1.7
		C152.3,559.4,152.8,559.6,153.1,559.5z"/>
	<path class="st0" d="M157.8,535.5v-4c0-0.8,0-1.7-0.1-2.6c-0.1-1-0.3-1.9-0.5-2.8c-0.2-0.9-0.6-1.6-1-2.2c-0.4-0.6-0.9-0.9-1.5-0.9
		c-0.5,0-1.1,0.2-2.1,0.5c-0.9,0.4-2,0.8-3.2,1.4c-1.2,0.6-2.5,1.2-3.8,1.8c-1.4,0.7-2.7,1.3-4,2l-5.7-11.6c1.5-0.6,3-1.3,4.7-1.9
		c1.6-0.6,3.2-1.2,4.9-1.6c1.6-0.5,3.2-0.9,4.8-1.2c1.6-0.3,3.1-0.4,4.4-0.4c2.8,0,5.3,0.5,7.3,1.4c2,0.9,3.7,2.2,5,3.9
		c1.3,1.7,2.3,3.7,2.9,6c0.6,2.3,0.9,4.9,0.9,7.7v4.5H157.8z M132.9,525.2l-7.2,7.2l-7.2-7.2l7.2-7.2L132.9,525.2z"/>
	<path class="st0" d="M169.7,507.4c-1.4-0.1-2.9-0.2-4.5-0.3c-1.6-0.1-3.2-0.2-4.8-0.2s-3.1-0.1-4.6-0.2c-1.5,0-2.9-0.1-4.2-0.1
		c-4,0-7.6,0.1-10.9,0.3c-3.3,0.2-6.3,0.4-9,0.6c-2.7,0.2-5,0.5-7,0.8c-2,0.3-3.7,0.5-5,0.7l-4.1-12.5c3.2-0.5,6.3-0.9,9.3-1.2
		c3-0.3,5.9-0.5,8.6-0.7c2.7-0.2,5.2-0.3,7.4-0.3c2.2-0.1,4.2-0.1,5.7-0.1c1.4,0,3,0,4.7,0c1.7,0,3.5,0,5.4,0.1s3.8,0.1,5.7,0.1
		s3.7,0.2,5.5,0.3L169.7,507.4z"/>
	<path class="st0" d="M145,472.9c1.5-0.5,3.1-1,4.7-1.6c1.7-0.5,3.3-1,5-1.4c1.7-0.4,3.4-0.8,5-1c1.7-0.3,3.2-0.4,4.8-0.4
		c3,0,6,0.5,8.8,1.6c2.8,1.1,5.4,2.6,7.9,4.5c2.5,1.9,4.8,4.2,6.9,6.9c2.1,2.6,4,5.5,5.6,8.6l-10.1,7.9c-1.2-2.3-2.6-4.6-4.1-6.7
		c-1.5-2.2-3.1-4.1-4.7-5.8c-1.6-1.7-3.3-3.1-5.1-4.1c-1.7-1.1-3.4-1.7-5.1-1.8c-1.2,0.4-2.5,0.8-3.7,1.2c-1.3,0.4-2.5,0.9-3.7,1.3
		c-1.2,0.4-2.4,0.9-3.5,1.3c-1.1,0.5-2.2,0.9-3.2,1.3L145,472.9z M139.2,479.5l-7.2,7.2l-7.2-7.2l7.2-7.2L139.2,479.5z"/>
	<path class="st0" d="M181,467c-0.6-2.7-1.2-5.1-2-7.4c-0.8-2.3-1.6-4.3-2.5-6.1c-0.9-1.8-1.8-3.4-2.8-4.6c-1-1.3-2-2.3-3-3
		c0,0.3,0,0.7,0,1.1c0,0.4,0,0.8,0,1.2c0,0.4,0,0.7,0,1.1c0,0.3,0,0.6,0,0.8c-0.2,2.3-0.6,4.4-1.3,6.3c-0.7,1.9-1.6,3.5-2.9,4.8
		c-1.2,1.3-2.7,2.4-4.5,3.1c-1.8,0.7-3.8,1.1-6.1,1.1c-1.4,0-2.9-0.2-4.3-0.5c-1.5-0.4-3-0.9-4.4-1.5c-1.4-0.6-2.8-1.4-4-2.3
		c-1.3-0.9-2.4-1.9-3.3-3c-1-1.1-1.7-2.2-2.3-3.5c-0.6-1.2-0.8-2.5-0.8-3.8c0-1.8,0.4-3.5,1.2-5.1c0.8-1.6,1.8-3,3.1-4.3
		c1.3-1.3,2.8-2.4,4.6-3.4c1.7-1,3.6-1.8,5.5-2.5c1.9-0.7,3.9-1.2,5.9-1.5c2-0.3,3.9-0.5,5.7-0.5c2.9,0,5.6,0.4,8,1.1
		c2.5,0.7,4.8,1.8,6.8,3.1c2.1,1.4,4,3,5.7,4.8c1.7,1.9,3.2,4,4.6,6.2c1.3,2.3,2.5,4.7,3.4,7.3c1,2.6,1.7,5.2,2.3,8L181,467z
		 M148.9,451c0,0.6,0.2,1.2,0.6,1.8c0.4,0.5,0.9,1,1.5,1.4c0.6,0.4,1.3,0.7,2,0.9c0.7,0.2,1.4,0.3,2,0.3c0.4,0,0.8-0.2,1.1-0.6
		c0.3-0.4,0.6-0.9,0.8-1.5c0.2-0.6,0.4-1.3,0.5-2.1c0.1-0.8,0.2-1.6,0.3-2.4c0.1-0.8,0.1-1.6,0.1-2.4c0-0.8,0-1.5,0-2.1
		c-1,0.1-2,0.4-3.1,0.7c-1.1,0.4-2,0.9-2.9,1.5c-0.9,0.6-1.6,1.3-2.1,2.1C149.2,449.3,148.9,450.1,148.9,451z"/>
	<path class="st0" d="M145,412.9c1.5-0.5,3.1-1,4.7-1.6c1.7-0.5,3.3-1,5-1.4c1.7-0.4,3.4-0.8,5-1c1.7-0.3,3.2-0.4,4.8-0.4
		c3,0,6,0.5,8.8,1.6c2.8,1.1,5.4,2.6,7.9,4.5c2.5,1.9,4.8,4.2,6.9,6.9c2.1,2.6,4,5.5,5.6,8.6l-10.1,7.9c-1.2-2.3-2.6-4.6-4.1-6.7
		c-1.5-2.2-3.1-4.1-4.7-5.8c-1.6-1.7-3.3-3.1-5.1-4.1c-1.7-1.1-3.4-1.7-5.1-1.8c-1.2,0.4-2.5,0.8-3.7,1.2c-1.3,0.4-2.5,0.9-3.7,1.3
		c-1.2,0.4-2.4,0.9-3.5,1.3c-1.1,0.5-2.2,0.9-3.2,1.3L145,412.9z"/>
	<path class="st0" d="M161.1,359.5c-2,0-4-0.3-6-0.8c-2-0.5-3.9-1.3-5.7-2.3c-1.8-1-3.5-2.2-5-3.6c-1.5-1.4-2.9-2.9-4-4.6
		c-1.1-1.7-2-3.5-2.7-5.5c-0.6-2-1-4-1-6.2c0-0.8,0-1.5,0.1-2.3c0.1-0.7,0.2-1.5,0.4-2.2c0.2-0.8,0.5-1.6,0.8-2.4
		c0.3-0.8,0.8-1.7,1.3-2.7l11.5,4.3c-0.6,1.3-0.9,2.5-1,3.8c-0.1,1.3,0,2.6,0.2,3.8c0.3,1.2,0.7,2.4,1.3,3.6
		c0.6,1.1,1.3,2.2,2.1,3.1c0.8,0.9,1.8,1.8,2.8,2.5c1,0.7,2.1,1.2,3.3,1.6c0.4-0.8,0.7-1.8,1.1-3.1c0.3-1.3,0.7-2.7,1.2-4.3
		c0.5-1.5,1-3.1,1.6-4.6s1.4-3,2.4-4.2c0.9-1.3,2.1-2.3,3.4-3.1c1.3-0.8,2.9-1.2,4.8-1.2c2.4,0,4.6,0.4,6.5,1.3c1.9,0.9,3.6,2,5,3.5
		c1.4,1.4,2.7,3.1,3.7,5.1c1,1.9,1.8,4,2.4,6.1c0.6,2.1,1.1,4.3,1.4,6.6c0.3,2.2,0.4,4.4,0.4,6.4c0,3.8-0.5,7.4-1.5,10.6
		c-1,3.2-2.5,6-4.4,8.4c-1.9,2.3-4.3,4.2-7.2,5.5c-2.9,1.3-6.2,2-9.9,2c-3.7,0-7.4-0.5-11.1-1.4c-3.7-1-7.4-2.2-11.1-3.7l4.4-10.5
		c1.5,0.6,2.9,1.2,4.4,1.7c1.4,0.6,2.9,1,4.3,1.5c1.4,0.4,2.9,0.8,4.3,1c1.4,0.3,2.9,0.4,4.3,0.4c2,0,3.7-0.4,5-1.3
		c1.3-0.9,2.4-2.1,3.2-3.5c0.8-1.4,1.4-3.1,1.7-4.9c0.3-1.8,0.5-3.7,0.5-5.6c0-4.5-0.4-8.4-1.2-11.6c-0.8-3.2-2.1-5.7-3.8-7.5
		c-0.5,2-0.9,4-1.3,5.8c-0.4,1.8-0.9,3.5-1.4,5c-0.5,1.5-1,2.9-1.7,4.1c-0.6,1.2-1.4,2.3-2.3,3.1c-0.9,0.9-1.9,1.5-3.2,2
		C164.3,359.3,162.8,359.5,161.1,359.5z"/>
	<path class="st0" d="M170.7,306.3c0,2.9-0.4,5.4-1.2,7.5c-0.8,2-1.9,3.7-3.3,5s-3,2.2-4.9,2.8c-1.9,0.6-4,0.9-6.2,0.9
		c-2.9,0-5.8,0-8.8-0.1c-2.9,0-5.9,0-8.9,0c-3,0-6,0.2-9,0.3c-3,0.2-6.1,0.5-9.2,1l-3.7-12.2c2.9-0.6,5.8-1,8.9-1.2
		c3.1-0.2,6.1-0.3,9.2-0.4c3.1,0,6.2,0,9.2,0.1c3,0.1,6,0.1,8.8,0.1c1,0,1.9,0,2.6,0c0.8,0,1.4-0.1,2-0.4c0.5-0.2,0.9-0.6,1.2-1.2
		c0.3-0.5,0.4-1.3,0.3-2.4v-0.9h12.8V306.3z"/>
	<path class="st0" d="M157.8,306.7l-0.1-4.2c-1.3,0.7-2.6,1.1-4,1.3c-1.3,0.2-2.6,0.3-3.9,0.1c-1.3-0.1-2.4-0.4-3.6-0.7
		c-1.1-0.4-2.1-0.8-3.1-1.3c-0.9-0.5-1.7-1-2.4-1.6c-0.7-0.6-1.2-1.1-1.5-1.6l-1.1,1.8l-11.6-6.8c1.7-3.3,3.3-6.6,4.8-9.8
		c1.5-3.3,2.9-6.4,4.3-9.4c0.7-1.5,1.4-3,2-4.3c0.6-1.3,1.3-2.6,2-3.7c0.7-1.1,1.4-2.2,2.2-3.1c0.8-1,1.6-1.8,2.6-2.7
		c1-0.8,2.2-1.5,3.4-2.1c1.3-0.6,2.6-1,3.9-1.3c1.3-0.3,2.7-0.4,4.1-0.3c1.4,0.1,2.7,0.4,3.9,0.9c2.9,1.3,5.2,3,6.9,5.1
		c1.7,2.2,2.8,4.6,3.4,7.4c0.6,2.8,0.7,5.8,0.3,9c-0.4,3.2-1.2,6.6-2.3,10c0.5,0.9,0.9,2,1.3,3.2c0.3,1.3,0.6,2.6,0.8,4
		s0.3,2.9,0.4,4.4c0.1,1.5,0.1,3,0.1,4.4v1.2H157.8z M144.4,288.2c0,0.6,0.3,1.2,0.7,1.9c0.4,0.7,1,1.3,1.7,1.9
		c0.7,0.6,1.4,1.1,2.2,1.5c0.8,0.4,1.5,0.5,2.2,0.5c0.6,0,1.2-0.2,1.8-0.5c0.6-0.3,1.2-0.7,1.7-1.2c0.5-0.5,0.9-1,1.3-1.5
		c0.4-0.5,0.6-1,0.8-1.5c-0.1-0.6-0.3-1.3-0.5-2c-0.3-0.7-0.7-1.4-1.2-1.9c-0.5-0.6-1.2-1.1-2-1.5c-0.8-0.4-1.7-0.6-2.9-0.6
		c-0.5,0-1.2,0.2-1.8,0.6c-0.7,0.4-1.3,0.9-1.9,1.4c-0.6,0.5-1.1,1.1-1.5,1.7C144.6,287.4,144.4,287.8,144.4,288.2z M155.5,266.8
		c-0.5-0.1-0.9,0-1.3,0.2c-0.4,0.2-0.9,0.5-1.3,0.9c-0.4,0.4-0.8,0.8-1.2,1.4c-0.4,0.5-0.7,1-1,1.6c-0.3,0.5-0.6,1-0.8,1.5
		c-0.2,0.5-0.4,0.9-0.5,1.2c0.7,0.1,1.6,0.3,2.5,0.5c0.9,0.2,1.8,0.5,2.7,0.8c0.9,0.3,1.8,0.7,2.6,1.1c0.8,0.4,1.6,0.9,2.1,1.4
		c0.1-1.1,0.2-2.2,0.1-3.4c0-1.2-0.2-2.2-0.5-3.2c-0.3-1-0.7-1.8-1.3-2.5C157.2,267.4,156.5,267,155.5,266.8z"/>
	<path class="st0" d="M166.1,238.4c0,2.3-0.2,4.4-0.7,6.5c-0.5,2-1.2,3.8-2.2,5.3c-1,1.5-2.3,2.7-3.9,3.6c-1.6,0.9-3.5,1.3-5.6,1.3
		c-1.5,0-3-0.3-4.3-0.8c-1.4-0.5-2.6-1.2-3.8-2.1c-1.2-0.9-2.3-1.8-3.3-2.9c-1-1.1-1.9-2.2-2.7-3.4c-0.8-1.2-1.5-2.3-2.1-3.4
		c-0.6-1.1-1.1-2.1-1.4-3l-4,0.5l-2.7-12.7c4.2-0.5,8-0.9,11.4-1.3c3.4-0.4,6.2-0.8,8.6-1.1c2.3-0.3,4.2-0.6,5.4-0.8
		c1.3-0.2,2-0.3,2-0.4c0.4-0.2,0.7-0.5,0.9-1c0.2-0.5,0.2-1.1,0.2-1.9v-0.7h12.8v0.9c0,2.6-0.4,4.9-1.2,7c-0.8,2-2,3.6-3.7,4.8
		c0.1,1,0.2,1.9,0.2,2.9C166.1,236.6,166.1,237.5,166.1,238.4z M153.1,245.3c0.2,0,0.4-0.4,0.7-1c0.2-0.6,0.4-1.3,0.6-2.2
		c0.1-0.9,0.2-1.8,0.2-2.8c0-1-0.1-1.9-0.3-2.7l-7.8,1.2c0.3,0.9,0.8,1.8,1.5,2.7c0.6,0.9,1.3,1.7,1.9,2.4s1.3,1.3,1.9,1.7
		C152.3,245.2,152.8,245.4,153.1,245.3z"/>
	<path class="st0" d="M157.8,192.4h12.8v0.7c0,1-0.1,2-0.3,3.1c-0.2,1-0.4,2-0.8,3c-0.3,0.9-0.7,1.8-1.2,2.5c-0.5,0.7-1,1.3-1.6,1.7
		c0.7,0.6,1.3,1.4,1.8,2.4c0.5,1,0.9,2.1,1.2,3.3c0.3,1.2,0.5,2.6,0.7,4c0.2,1.4,0.2,2.9,0.2,4.3v3.9h-12.8v-3.9
		c0-1.4,0-2.6-0.1-3.6c-0.1-1-0.2-1.9-0.5-2.6c-0.3-0.7-0.6-1.2-1.1-1.6c-0.5-0.4-1.2-0.6-2-0.7c-0.9-0.1-1.9-0.1-3.2,0.1
		c-1.3,0.2-2.8,0.5-4.7,0.8l-2.9-11.5c0.8-0.2,1.8-0.4,2.9-0.6c1.1-0.2,2.3-0.3,3.5-0.5c1.2-0.1,2.4-0.2,3.5-0.2
		c1.1,0,2.1,0,2.9,0.2c0.4-0.2,0.8-0.5,1-0.9c0.2-0.4,0.4-0.8,0.5-1.2c0.1-0.4,0.2-0.8,0.2-1.2c0-0.4,0-0.7,0-0.9V192.4z
		 M130.7,206.3l6.1,6.1l-6.3,6.3l-6.3-6.2l6.2-6.2l-6.1-6.1l6.3-6.3l6.3,6.2L130.7,206.3z"/>
	<path class="st0" d="M171.1,154.8c0,1.1-0.2,2.1-0.5,3.1c-0.3,1-0.8,1.9-1.3,2.7c-0.5,0.8-1.1,1.5-1.7,2.1s-1.2,1.1-1.7,1.4
		c0.6,0.4,1.2,0.9,1.8,1.5c0.6,0.6,1.2,1.3,1.6,2.1c0.5,0.8,0.9,1.7,1.2,2.7c0.3,1,0.5,2.1,0.5,3.2c0,1-0.1,2-0.4,2.9
		c-0.3,0.9-0.7,1.8-1.1,2.5c-0.5,0.8-1,1.4-1.6,2c-0.6,0.6-1.2,1-1.8,1.4c0.6,0.3,1.3,0.8,1.8,1.4c0.6,0.6,1,1.3,1.4,2.2
		c0.4,0.9,0.7,1.8,1,2.9c0.2,1.1,0.4,2.3,0.4,3.6v1.2h-12.8v-0.6c0-1.4-0.4-2.5-1.1-3.5c-0.8-0.9-1.8-1.8-3.1-2.4
		c-1.3-0.7-2.8-1.3-4.5-1.8c-1.7-0.5-3.5-1-5.5-1.5l2-10.9c0.8,0.2,1.7,0.4,2.7,0.6c1,0.2,2,0.4,3,0.6c1,0.2,1.9,0.3,2.9,0.5
		c0.9,0.1,1.8,0.2,2.5,0.2c0.7,0,1.3-0.1,1.8-0.3c0.5-0.2,0.7-0.5,0.7-0.9c0-0.8-0.3-1.5-0.7-2.1c-0.5-0.6-1.1-1.2-1.8-1.7
		c-0.7-0.5-1.6-0.9-2.5-1.3c-1-0.4-2-0.7-3-1c-1-0.3-2.1-0.5-3.2-0.7c-1.1-0.2-2.1-0.4-3.1-0.6l0.7-9.7c0.7,0.1,1.5,0.2,2.5,0.3
		c1,0.1,1.9,0.2,2.9,0.3c1,0.1,2,0.1,3,0.1c1,0,1.9-0.1,2.6-0.3c0.8-0.2,1.4-0.5,1.9-1c0.5-0.4,0.7-1.1,0.7-1.9
		c0-0.7-0.3-1.3-0.8-1.8c-0.5-0.5-1.1-0.9-1.9-1.3c-0.8-0.3-1.7-0.6-2.6-0.8c-1-0.2-2-0.4-3-0.4c-1-0.1-2-0.1-2.9-0.1
		s-1.7,0-2.4,0.1l-1.6-10.6c2.6-0.2,4.8-0.4,6.5-0.7c1.8-0.3,3.2-0.7,4.3-1.2c1.1-0.5,1.9-1,2.4-1.7c0.5-0.6,0.7-1.4,0.7-2.2v-1
		h12.8v1c0,2.1-0.3,4-1,5.8c-0.6,1.8-1.7,3.5-3.2,5c0.6,0.6,1.2,1.3,1.8,2.1c0.6,0.7,1,1.6,1.4,2.4c0.4,0.9,0.7,1.8,1,2.8
		C170.9,152.6,171.1,153.7,171.1,154.8z"/>
	<path class="st0" d="M157.8,133.7v-4c0-0.8,0-1.7-0.1-2.6c-0.1-1-0.3-1.9-0.5-2.8c-0.2-0.9-0.6-1.6-1-2.2c-0.4-0.6-0.9-0.9-1.5-0.9
		c-0.5,0-1.1,0.2-2.1,0.5c-0.9,0.4-2,0.8-3.2,1.4c-1.2,0.6-2.5,1.2-3.8,1.8c-1.4,0.7-2.7,1.3-4,2l-5.7-11.6c1.5-0.6,3-1.3,4.7-1.9
		c1.6-0.6,3.2-1.2,4.9-1.6c1.6-0.5,3.2-0.9,4.8-1.2c1.6-0.3,3.1-0.4,4.4-0.4c2.8,0,5.3,0.5,7.3,1.4c2,0.9,3.7,2.2,5,3.9
		c1.3,1.7,2.3,3.7,2.9,6c0.6,2.3,0.9,4.9,0.9,7.7v4.5H157.8z M187.1,123.2l-7.2,7.2l-7.2-7.2l7.2-7.2L187.1,123.2z"/>
</g>
</svg>
