<?xml version="1.0" encoding="utf-8"?>
<!-- Generator: Adobe Illustrator 23.0.1, SVG Export Plug-In . SVG Version: 6.00 Build 0)  -->
<svg version="1.1" id="Layer_1" xmlns="http://www.w3.org/2000/svg" xmlns:xlink="http://www.w3.org/1999/xlink" x="0px" y="0px"
	 viewBox="0 0 291.9 945" style="enable-background:new 0 0 291.9 945;" xml:space="preserve">
<style type="text/css">
	.st0{fill:#FFFFFF;}
</style>
<g>
	<path class="st0" d="M172,778.1c0,3.5-0.4,6.7-1.1,9.8c-0.7,3-1.8,5.7-3.4,8c-1.5,2.3-3.5,4-5.9,5.3c-2.4,1.3-5.2,2-8.5,2
		c-2.3,0-4.4-0.4-6.5-1.2c-2.1-0.8-4-1.8-5.8-3.1c-1.8-1.3-3.5-2.8-5-4.4c-1.5-1.7-2.9-3.4-4.1-5.1c-1.2-1.7-2.3-3.5-3.2-5.1
		c-0.9-1.7-1.6-3.2-2.2-4.5l-6,0.7l-4.1-19.1c6.4-0.7,12.1-1.4,17.2-2c5.1-0.6,9.4-1.2,12.9-1.7c3.5-0.5,6.3-0.9,8.2-1.2
		c1.9-0.3,2.9-0.5,3.1-0.6c0.7-0.3,1.1-0.8,1.3-1.5c0.2-0.7,0.3-1.6,0.3-2.9v-1.1h19.4v1.4c0,3.9-0.6,7.5-1.8,10.5
		c-1.2,3.1-3,5.5-5.6,7.3c0.2,1.5,0.3,2.9,0.4,4.3C172,775.4,172,776.8,172,778.1z M152.5,788.5c0.3-0.1,0.7-0.5,1-1.4
		c0.3-0.9,0.6-2,0.8-3.3c0.2-1.3,0.3-2.7,0.3-4.2c0-1.5-0.1-2.8-0.5-4l-11.8,1.8c0.5,1.3,1.3,2.7,2.2,4.1c0.9,1.4,1.9,2.6,2.9,3.7
		c1,1.1,2,1.9,2.9,2.6C151.3,788.3,152,788.6,152.5,788.5z"/>
	<path class="st0" d="M159.5,752.4v-6.1c0-1.2-0.1-2.5-0.2-4c-0.1-1.5-0.4-2.9-0.8-4.2c-0.4-1.3-0.9-2.4-1.5-3.3
		c-0.6-0.9-1.4-1.3-2.3-1.3c-0.7,0-1.7,0.3-3.1,0.8c-1.4,0.5-3,1.2-4.8,2.1c-1.8,0.8-3.7,1.8-5.8,2.8c-2.1,1-4.1,2-6.1,3l-8.6-17.5
		c2.2-1,4.6-1.9,7-2.9s4.9-1.8,7.3-2.5c2.4-0.7,4.9-1.3,7.2-1.7c2.4-0.4,4.6-0.7,6.7-0.7c4.3,0,7.9,0.7,11,2.1
		c3,1.4,5.5,3.4,7.5,5.9c2,2.5,3.4,5.5,4.3,9c0.9,3.5,1.4,7.4,1.4,11.6v6.8H159.5z M122.1,736.8l-10.9,10.9l-10.8-10.9l10.8-10.8
		L122.1,736.8z"/>
	<path class="st0" d="M177.4,710c-2.1-0.1-4.4-0.3-6.8-0.4c-2.4-0.1-4.8-0.3-7.2-0.4c-2.4-0.1-4.7-0.2-7-0.3
		c-2.3-0.1-4.4-0.1-6.3-0.1c-6,0-11.5,0.1-16.5,0.4c-5,0.3-9.6,0.6-13.6,1c-4,0.4-7.6,0.8-10.6,1.2c-3,0.4-5.6,0.7-7.6,1l-6.2-18.8
		c4.8-0.7,9.4-1.3,14-1.8c4.6-0.4,8.9-0.8,13-1c4.1-0.2,7.8-0.4,11.2-0.5c3.4-0.1,6.3-0.1,8.6-0.1c2.1,0,4.5,0,7.1,0
		c2.6,0,5.3,0.1,8.1,0.1s5.7,0.1,8.6,0.2s5.6,0.2,8.3,0.4L177.4,710z"/>
	<path class="st0" d="M140.2,658.1c2.2-0.8,4.6-1.6,7.1-2.3c2.5-0.8,5-1.5,7.6-2.1c2.5-0.6,5.1-1.1,7.5-1.5c2.5-0.4,4.9-0.6,7.2-0.6
		c4.6,0,9,0.8,13.2,2.4c4.2,1.6,8.2,3.9,11.9,6.8c3.7,2.9,7.2,6.4,10.4,10.3s6,8.3,8.5,13l-15.2,11.9c-1.9-3.5-3.9-6.9-6.2-10.1
		c-2.3-3.3-4.6-6.2-7.1-8.7c-2.5-2.6-5-4.6-7.6-6.2c-2.6-1.6-5.2-2.5-7.7-2.7c-1.9,0.6-3.7,1.2-5.6,1.8c-1.9,0.6-3.7,1.3-5.6,2
		c-1.8,0.7-3.6,1.3-5.3,2c-1.7,0.7-3.3,1.3-4.8,2L140.2,658.1z M131.5,668l-10.8,10.9L109.8,668l10.8-10.8L131.5,668z"/>
	<path class="st0" d="M194.4,649.2c-0.8-4-1.8-7.7-3-11.1c-1.1-3.4-2.4-6.5-3.7-9.2c-1.3-2.7-2.8-5-4.3-7c-1.5-1.9-3-3.4-4.6-4.5
		c0,0.5,0,1,0,1.6c0,0.6,0,1.2-0.1,1.7s-0.1,1.1-0.1,1.6c0,0.5,0,0.9-0.1,1.2c-0.3,3.5-1,6.6-2,9.5c-1,2.8-2.5,5.3-4.3,7.3
		c-1.8,2-4.1,3.6-6.7,4.7c-2.6,1.1-5.7,1.7-9.1,1.7c-2.1,0-4.3-0.3-6.5-0.8c-2.2-0.5-4.4-1.3-6.6-2.3c-2.1-1-4.2-2.1-6.1-3.5
		c-1.9-1.4-3.6-2.8-5-4.5c-1.4-1.6-2.6-3.4-3.4-5.2c-0.8-1.8-1.2-3.7-1.2-5.7c0-2.7,0.6-5.3,1.8-7.7c1.2-2.4,2.8-4.5,4.7-6.5
		c2-1.9,4.3-3.7,6.9-5.2c2.6-1.5,5.4-2.8,8.3-3.8c2.9-1,5.8-1.8,8.8-2.3c3-0.5,5.8-0.8,8.6-0.8c4.3,0,8.4,0.6,12.1,1.7
		c3.7,1.1,7.2,2.7,10.3,4.7c3.1,2,6,4.5,8.6,7.3c2.6,2.8,4.9,6,6.9,9.4c2,3.4,3.7,7.1,5.2,10.9c1.4,3.9,2.6,7.9,3.5,12L194.4,649.2z
		 M146.1,625.1c0,0.9,0.3,1.8,0.9,2.6c0.6,0.8,1.4,1.5,2.3,2.1c0.9,0.6,1.9,1.1,3,1.4c1.1,0.3,2,0.5,3,0.5c0.6,0,1.2-0.3,1.6-0.9
		c0.5-0.6,0.8-1.3,1.1-2.3c0.3-0.9,0.6-2,0.8-3.2c0.2-1.2,0.3-2.4,0.4-3.7c0.1-1.3,0.2-2.5,0.2-3.7c0-1.2,0-2.3,0-3.2
		c-1.5,0.2-3,0.5-4.6,1.1c-1.6,0.6-3,1.3-4.3,2.2c-1.3,0.9-2.3,1.9-3.2,3.1C146.5,622.5,146.1,623.7,146.1,625.1z"/>
	<path class="st0" d="M140.2,567.7c2.2-0.8,4.6-1.6,7.1-2.3c2.5-0.8,5-1.5,7.6-2.1c2.5-0.6,5.1-1.1,7.5-1.5c2.5-0.4,4.9-0.6,7.2-0.6
		c4.6,0,9,0.8,13.2,2.4c4.2,1.6,8.2,3.9,11.9,6.8c3.7,2.9,7.2,6.4,10.4,10.3s6,8.3,8.5,13l-15.2,11.9c-1.9-3.5-3.9-6.9-6.2-10.1
		c-2.3-3.3-4.6-6.2-7.1-8.7c-2.5-2.6-5-4.6-7.6-6.2c-2.6-1.6-5.2-2.5-7.7-2.7c-1.9,0.6-3.7,1.2-5.6,1.8c-1.9,0.6-3.7,1.3-5.6,2
		c-1.8,0.7-3.6,1.3-5.3,2c-1.7,0.7-3.3,1.3-4.8,2L140.2,567.7z"/>
	<path class="st0" d="M164.5,487.2c-3,0-6-0.4-9-1.2c-3-0.8-5.8-2-8.6-3.4c-2.7-1.5-5.2-3.3-7.6-5.3c-2.3-2.1-4.3-4.4-6-7
		c-1.7-2.6-3-5.3-4-8.3c-1-3-1.5-6.1-1.5-9.3c0-1.2,0.1-2.3,0.2-3.4c0.1-1.1,0.3-2.2,0.6-3.3s0.7-2.3,1.2-3.6c0.5-1.3,1.2-2.6,2-4.1
		l17.3,6.6c-0.9,1.9-1.4,3.8-1.6,5.7s0,3.8,0.3,5.7c0.4,1.9,1,3.7,1.9,5.4c0.9,1.7,2,3.3,3.2,4.7c1.3,1.4,2.7,2.7,4.2,3.7
		c1.6,1.1,3.2,1.8,4.9,2.4c0.6-1.2,1.1-2.8,1.6-4.7c0.5-2,1.1-4.1,1.8-6.4c0.7-2.3,1.5-4.6,2.4-7c0.9-2.4,2.1-4.5,3.5-6.4
		c1.4-1.9,3.1-3.5,5.1-4.7c2-1.2,4.4-1.8,7.2-1.8c3.7,0,7,0.6,9.8,1.9c2.9,1.3,5.4,3,7.6,5.2c2.2,2.2,4,4.7,5.5,7.6
		c1.5,2.9,2.7,6,3.7,9.2c0.9,3.2,1.6,6.5,2.1,9.9c0.4,3.4,0.6,6.6,0.6,9.7c0,5.8-0.8,11.1-2.2,16c-1.5,4.9-3.7,9.1-6.6,12.6
		c-2.9,3.5-6.5,6.3-10.8,8.3c-4.3,2-9.3,3-14.9,3c-5.6,0-11.2-0.7-16.8-2.2c-5.6-1.4-11.2-3.3-16.7-5.5l6.6-15.9
		c2.2,0.9,4.4,1.8,6.6,2.6c2.2,0.8,4.3,1.6,6.5,2.2c2.2,0.6,4.3,1.1,6.5,1.5c2.1,0.4,4.3,0.6,6.5,0.6c3,0,5.6-0.7,7.6-2
		c2-1.3,3.6-3.1,4.8-5.3c1.2-2.2,2.1-4.7,2.6-7.5c0.5-2.8,0.8-5.6,0.8-8.5c0-6.8-0.6-12.6-1.8-17.5c-1.2-4.9-3.1-8.6-5.8-11.3
		c-0.7,3.1-1.4,6-2,8.7c-0.6,2.7-1.3,5.3-2.1,7.6c-0.7,2.3-1.6,4.4-2.5,6.2c-0.9,1.8-2.1,3.4-3.4,4.7c-1.3,1.3-2.9,2.3-4.8,3
		C169.3,486.8,167.1,487.2,164.5,487.2z"/>
	<path class="st0" d="M178.9,407c0,4.4-0.6,8.2-1.8,11.3c-1.2,3.1-2.8,5.6-4.9,7.5c-2.1,1.9-4.6,3.3-7.4,4.2c-2.9,0.9-6,1.3-9.3,1.3
		c-4.4,0-8.8,0-13.2-0.1c-4.4-0.1-8.9-0.1-13.4,0c-4.5,0.1-9,0.2-13.5,0.5c-4.5,0.3-9.1,0.8-13.8,1.5l-5.6-18.3
		c4.3-0.8,8.8-1.4,13.4-1.8c4.6-0.3,9.3-0.5,13.9-0.6c4.7,0,9.3,0,13.9,0.1c4.6,0.1,9,0.2,13.2,0.2c1.5,0,2.8,0,4,0
		c1.2,0,2.2-0.2,3-0.5c0.8-0.3,1.4-0.9,1.8-1.7c0.4-0.8,0.5-2,0.4-3.6v-1.3h19.4V407z"/>
	<path class="st0" d="M159.5,407.6l-0.1-6.4c-2,1-4,1.7-6,2c-2,0.3-3.9,0.4-5.8,0.2c-1.9-0.2-3.7-0.6-5.4-1.1s-3.2-1.2-4.6-2
		c-1.4-0.7-2.6-1.5-3.6-2.4c-1-0.8-1.7-1.6-2.2-2.4l-1.7,2.6L112.7,388c2.6-5,5-9.9,7.3-14.8c2.2-4.9,4.4-9.6,6.5-14.1
		c1.1-2.3,2.1-4.5,3.1-6.5c1-2,2-3.9,3-5.6c1-1.7,2.1-3.3,3.2-4.7c1.1-1.4,2.4-2.8,3.9-4c1.6-1.2,3.3-2.2,5.2-3.1
		c1.9-0.9,3.8-1.5,5.9-1.9c2-0.4,4.1-0.5,6.1-0.4c2.1,0.1,4,0.6,5.9,1.4c4.4,1.9,7.8,4.5,10.3,7.7c2.5,3.2,4.2,6.9,5.1,11.1
		c0.9,4.2,1,8.7,0.4,13.6c-0.6,4.9-1.7,9.9-3.5,15c0.8,1.3,1.4,2.9,1.9,4.8c0.5,1.9,0.9,3.9,1.1,6.1c0.3,2.2,0.5,4.4,0.6,6.7
		c0.1,2.3,0.2,4.5,0.2,6.6v1.8H159.5z M139.4,379.7c0,0.8,0.4,1.8,1.1,2.8c0.7,1,1.5,2,2.5,2.9c1,0.9,2.1,1.6,3.2,2.2
		c1.2,0.6,2.3,0.8,3.3,0.7c0.9,0,1.9-0.3,2.8-0.8c0.9-0.5,1.8-1.1,2.5-1.8c0.8-0.7,1.4-1.5,2-2.3c0.6-0.8,0.9-1.6,1.2-2.3
		c-0.1-1-0.4-2-0.8-3.1c-0.4-1.1-1-2-1.8-2.9c-0.8-0.9-1.8-1.6-3-2.2c-1.2-0.6-2.6-0.9-4.3-0.9c-0.8,0-1.7,0.3-2.8,0.9
		c-1,0.6-2,1.3-2.9,2.1c-0.9,0.8-1.6,1.7-2.2,2.5C139.6,378.5,139.3,379.2,139.4,379.7z M156.1,347.5c-0.7-0.1-1.4,0-2,0.3
		s-1.3,0.8-1.9,1.3c-0.6,0.6-1.2,1.3-1.8,2.1c-0.6,0.8-1.1,1.6-1.5,2.3c-0.5,0.8-0.9,1.5-1.2,2.2c-0.3,0.7-0.6,1.3-0.8,1.8
		c1.1,0.2,2.3,0.4,3.7,0.7c1.4,0.3,2.7,0.7,4.1,1.1c1.4,0.5,2.7,1,4,1.6c1.3,0.6,2.3,1.3,3.2,2.1c0.2-1.6,0.3-3.3,0.2-5.1
		c0-1.7-0.3-3.4-0.7-4.9c-0.4-1.5-1.1-2.8-1.9-3.8C158.6,348.5,157.5,347.8,156.1,347.5z"/>
	<path class="st0" d="M172,304.8c0,3.5-0.4,6.7-1.1,9.8c-0.7,3-1.8,5.7-3.4,8c-1.5,2.3-3.5,4-5.9,5.3c-2.4,1.3-5.2,2-8.5,2
		c-2.3,0-4.4-0.4-6.5-1.2c-2.1-0.8-4-1.8-5.8-3.1c-1.8-1.3-3.5-2.8-5-4.4c-1.5-1.7-2.9-3.4-4.1-5.1c-1.2-1.7-2.3-3.5-3.2-5.1
		c-0.9-1.7-1.6-3.2-2.2-4.5l-6,0.7l-4.1-19.1c6.4-0.7,12.1-1.4,17.2-2c5.1-0.6,9.4-1.2,12.9-1.7c3.5-0.5,6.3-0.9,8.2-1.2
		c1.9-0.3,2.9-0.5,3.1-0.6c0.7-0.3,1.1-0.8,1.3-1.5c0.2-0.7,0.3-1.6,0.3-2.9v-1.1h19.4v1.4c0,3.9-0.6,7.5-1.8,10.5
		c-1.2,3.1-3,5.5-5.6,7.3c0.2,1.5,0.3,2.9,0.4,4.3C172,302,172,303.4,172,304.8z M152.5,315.2c0.3-0.1,0.7-0.5,1-1.4
		c0.3-0.9,0.6-2,0.8-3.3c0.2-1.3,0.3-2.7,0.3-4.2c0-1.5-0.1-2.8-0.5-4l-11.8,1.8c0.5,1.3,1.3,2.7,2.2,4.1s1.9,2.6,2.9,3.7
		c1,1.1,2,1.9,2.9,2.6C151.3,315,152,315.3,152.5,315.2z"/>
	<path class="st0" d="M159.5,235.5h19.4v1.1c0,1.5-0.1,3.1-0.4,4.6c-0.3,1.6-0.6,3-1.1,4.4c-0.5,1.4-1.1,2.7-1.9,3.8
		c-0.7,1.1-1.6,2-2.5,2.6c1,0.9,1.9,2.2,2.7,3.7c0.7,1.5,1.3,3.2,1.8,5c0.5,1.9,0.8,3.9,1,6c0.2,2.1,0.3,4.3,0.3,6.5v5.8h-19.4v-5.8
		c0-2.1,0-3.9-0.1-5.4c-0.1-1.5-0.3-2.9-0.7-3.9c-0.4-1.1-1-1.9-1.7-2.4c-0.7-0.6-1.8-0.9-3.1-1.1c-1.3-0.1-2.9-0.1-4.9,0.2
		c-1.9,0.3-4.3,0.7-7,1.3l-4.3-17.4c1.2-0.3,2.7-0.6,4.4-0.9c1.7-0.3,3.5-0.5,5.3-0.7c1.8-0.2,3.6-0.3,5.3-0.3
		c1.7,0,3.2,0.1,4.3,0.2c0.7-0.3,1.1-0.7,1.5-1.3c0.3-0.6,0.6-1.2,0.7-1.8c0.1-0.6,0.2-1.2,0.3-1.8c0-0.6,0-1,0-1.4V235.5z
		 M118.7,256.3l9.2,9.2l-9.4,9.5l-9.4-9.4l9.3-9.3l-9.2-9.2l9.4-9.5l9.4,9.4L118.7,256.3z"/>
	<path class="st0" d="M179.5,178.8c0,1.6-0.3,3.2-0.8,4.6c-0.5,1.5-1.1,2.8-1.9,4c-0.8,1.2-1.6,2.3-2.5,3.2
		c-0.9,0.9-1.8,1.7-2.6,2.2c0.9,0.6,1.9,1.4,2.8,2.3c0.9,0.9,1.7,2,2.5,3.2c0.7,1.2,1.3,2.5,1.8,4c0.5,1.5,0.7,3.1,0.7,4.9
		c0,1.5-0.2,3-0.6,4.4c-0.4,1.4-1,2.7-1.7,3.8c-0.7,1.2-1.5,2.2-2.4,3.1c-0.9,0.9-1.8,1.6-2.8,2.1c1,0.5,1.9,1.2,2.7,2.1
		c0.8,0.9,1.6,2,2.2,3.3c0.6,1.3,1.1,2.8,1.4,4.4c0.4,1.6,0.5,3.4,0.5,5.3v1.8h-19.4v-1c0-2.1-0.6-3.8-1.7-5.2
		c-1.1-1.4-2.7-2.6-4.6-3.7c-2-1-4.2-2-6.8-2.7c-2.6-0.8-5.3-1.5-8.2-2.3l3.1-16.4c1.2,0.3,2.5,0.6,4,1c1.5,0.3,3,0.7,4.4,0.9
		c1.5,0.3,2.9,0.5,4.4,0.7c1.4,0.2,2.7,0.3,3.8,0.2s2-0.2,2.7-0.4c0.7-0.3,1-0.7,1.1-1.3c-0.1-1.2-0.4-2.2-1.1-3.2
		c-0.7-0.9-1.6-1.8-2.7-2.5c-1.1-0.7-2.4-1.4-3.8-1.9c-1.4-0.6-2.9-1-4.5-1.4c-1.6-0.4-3.2-0.8-4.8-1.1c-1.6-0.3-3.2-0.6-4.7-0.9
		l1-14.7c1,0.1,2.3,0.2,3.7,0.4c1.4,0.2,2.9,0.4,4.4,0.5c1.5,0.1,3,0.2,4.5,0.2c1.5,0,2.8-0.2,4-0.5c1.2-0.3,2.1-0.8,2.8-1.4
		c0.7-0.7,1.1-1.6,1.1-2.8c-0.1-1-0.5-1.9-1.2-2.7c-0.7-0.8-1.7-1.4-2.9-1.9c-1.2-0.5-2.5-0.9-4-1.2c-1.5-0.3-2.9-0.5-4.4-0.7
		c-1.5-0.1-2.9-0.2-4.3-0.2c-1.4,0-2.6,0-3.6,0.1l-2.4-15.9c3.9-0.3,7.2-0.6,9.8-1.1c2.7-0.5,4.9-1.1,6.5-1.8
		c1.7-0.7,2.9-1.6,3.6-2.5c0.7-1,1.1-2.1,1.1-3.3V145h19.4v1.6c0,3.1-0.5,6-1.4,8.8c-1,2.8-2.6,5.3-4.8,7.5c1,1,1.9,2,2.7,3.2
		c0.8,1.1,1.5,2.3,2.2,3.7c0.6,1.3,1.1,2.7,1.4,4.3C179.3,175.5,179.5,177.1,179.5,178.8z"/>
	<path class="st0" d="M159.5,147v-6.1c0-1.2-0.1-2.5-0.2-4c-0.1-1.5-0.4-2.9-0.8-4.2c-0.4-1.3-0.9-2.4-1.5-3.3
		c-0.6-0.9-1.4-1.3-2.3-1.3c-0.7,0-1.7,0.3-3.1,0.8c-1.4,0.5-3,1.2-4.8,2.1c-1.8,0.8-3.7,1.8-5.8,2.8c-2.1,1-4.1,2-6.1,3l-8.6-17.5
		c2.2-1,4.6-1.9,7-2.9s4.9-1.8,7.3-2.5c2.4-0.7,4.9-1.3,7.2-1.7c2.4-0.4,4.6-0.7,6.7-0.7c4.3,0,7.9,0.7,11,2.1
		c3,1.4,5.5,3.4,7.5,5.9c2,2.5,3.4,5.5,4.3,9c0.9,3.5,1.4,7.4,1.4,11.6v6.8H159.5z M203.7,131.2l-10.8,10.8L182,131.2l10.9-10.9
		L203.7,131.2z"/>
</g>
</svg>
