<?xml version="1.0" encoding="utf-8"?>
<!-- Generator: Adobe Illustrator 23.0.1, SVG Export Plug-In . SVG Version: 6.00 Build 0)  -->
<svg version="1.1" id="Layer_1" xmlns="http://www.w3.org/2000/svg" xmlns:xlink="http://www.w3.org/1999/xlink" x="0px" y="0px"
	 viewBox="0 0 900 500" style="enable-background:new 0 0 900 500;" xml:space="preserve">
<style type="text/css">
	.st0{fill:#BC1D79;}
	.st1{fill:#E264A5;}
	.st2{fill:#D52983;}
	.st3{fill:#D968A7;}
	.st4{fill:#DC4598;}
	.st5{fill:#65C5B0;}
	.st6{fill:none;stroke:#D52883;stroke-width:5.0204;stroke-miterlimit:10;}
	.st7{fill:none;stroke:#D52883;stroke-width:2.7891;stroke-miterlimit:10;}
	.st8{fill:none;stroke:#D52883;stroke-width:5.0278;stroke-miterlimit:10;}
	.st9{fill:none;stroke:#D52883;stroke-width:2.7932;stroke-miterlimit:10;}
	.st10{fill:#FCFDF8;}
	.st11{fill:#0E103F;}
	.st12{fill:#A0226A;}
	.st13{fill:#3970B7;}
	.st14{fill:#FFFFFF;}
</style>
<rect x="0" y="0" class="st0" width="900" height="499.5"/>
<g id="layer1" transform="translate(0,-58.874983)">
	<path id="path42" class="st1" d="M899.6,307.7c0,0-44.8-32.1-120-32.1s-92,40.1-151.9,40.1s-105.2-44.9-105.2-121
		s50.8-121,135.9-121s73.1,77,154.7,77c61.3,0,86.6-52.9,86.6-52.9L899.6,307.7z"/>
	<path id="path44" class="st2" d="M405.3,60.3c19.8,31.8,48.8,90.3,125.8,77.1C690,110.1,656.6,65.1,824.7,94.9
		c27.4,4.9,52.5,11.5,75.3,19V60.3H457.1H405.3L405.3,60.3z"/>
	<path id="path46" class="st1" d="M432.7,60.3c18.7,25.3,46,71.8,118.7,61.3c149.9-21.7,118.5-57.5,277-33.8
		c25.8,3.9,49.4,9.1,71,15.1V60.3H481.6H432.7L432.7,60.3z"/>
	<path id="path48" class="st3" d="M899.6,288.7c0,0-29.3-24.1-78.5-24.1s-60.1,30.1-99.3,30.1c-39.2,0-68.8-33.7-68.8-91.1
		s33.2-91.1,88.8-91.1s47.8,57.9,101.1,57.9c40.1,0,56.6-39.8,56.6-39.8L899.6,288.7z"/>
	<path id="path50" class="st4" d="M899.6,337.5c0,0-25.8-53.2-86.3-30.3S702.5,352,658.4,320.5s-12.3-91.3,26.7-91.3
		s46.5,39.6,83.2,39.6c36.8,0,131.3-68.7,131.3-68.7L899.6,337.5L899.6,337.5z"/>
	<path id="path52" class="st5" d="M807.9,153.7c39.6,27.8,69.6,58.4,92.1,87.3V60.3H503.8C600.6,122,685.3,67.6,807.9,153.7z"/>
	<path id="path54" class="st2" d="M470.8,84.8c91.3,49.1,173.8,3.4,290.6,85.5c78.3,55,119,120.7,138.7,162.7V59.2H470.8L470.8,84.8
		L470.8,84.8z"/>
	<path id="path244" class="st4" d="M775.1,145.2c63.2,44.4,101.9,95.8,124.8,136V59.8H484.5C575.9,108.7,658.2,63.1,775.1,145.2z"/>
	<g id="g250" transform="matrix(0.71652828,0,0,0.71652828,0.46454632,46.104668)">
		<path id="path246" class="st2" d="M1141.3,77.2l58.2,42.4c6.7,4.9,8.2,14.3,3.2,20.9l0,0c-5,6.6-14.5,8-21.3,3.1l-58.2-42.4
			c-6.7-4.9-8.2-14.3-3.1-20.9l0,0C1124.9,73.6,1134.4,72.3,1141.3,77.2z"/>
		<path id="path248" class="st2" d="M1127.5,130.1l43.1-57.3c5-6.6,14.5-8,21.3-3.1l0,0c6.7,4.9,8.2,14.3,3.2,20.9l-43.1,57.3
			c-5,6.6-14.5,8-21.3,3.1l0,0C1123.9,146.1,1122.5,136.8,1127.5,130.1L1127.5,130.1z"/>
	</g>
	<g id="g256" transform="matrix(0.71652828,0,0,0.71652828,0.46454632,46.104668)">
		<path id="path252" class="st2" d="M756,191.7l-12.5,43.3c-1.5,5-6.7,8-11.9,6.5l0,0c-5.1-1.4-8.1-6.6-6.6-11.7l12.5-43.3
			c1.5-5,6.7-8,11.9-6.5l0,0C754.5,181.5,757.5,186.7,756,191.7z"/>
		<path id="path254" class="st2" d="M721.1,195.6l44,12.3c5.1,1.4,8.1,6.6,6.6,11.7l0,0c-1.5,5-6.7,8-11.9,6.5l-44-12.3
			c-5.1-1.4-8.1-6.6-6.6-11.7l0,0C710.7,197.1,716,194.1,721.1,195.6L721.1,195.6z"/>
	</g>
	<polygon id="polygon258" class="st6" points="762.5,254.9 806.9,243.9 794.4,287.2 	"/>
	<polygon id="polygon260" class="st6" points="529.8,285.1 531.2,255.2 556.8,271.3 	"/>
	<path id="path262" class="st3" d="M182.3,60.4c0,0,32.6,19.3,32.6,51.7s-40.7,39.7-40.7,65.4c0,25.8,45.6,45.4,123.1,45.4
		c77.4,0,123.1-21.9,123.1-58.6s-78.2-31.5-78.2-66.7c0-26.4,53.8-37.3,53.8-37.3L182.3,60.4L182.3,60.4z"/>
	<g id="g278" transform="matrix(0.71652828,0,0,0.71652828,0.46454632,46.633835)">
		<path id="path264" class="st1" d="M834.3,17.1c-27.6,44.4-68,126.1-175.6,107.6C437,86.6,483.5,23.8,248.9,65.4
			c-38.1,6.7-73.2,15.9-105.1,26.6V17.1H762H834.3L834.3,17.1z"/>
		<path id="path266" class="st4" d="M796,17.1c-26,35.3-64.2,100.2-165.6,85.6C421.2,72.4,465.1,22.5,243.8,55.5
			c-36,5.4-69,12.7-99.1,21.1V17.1h583.1L796,17.1L796,17.1z"/>
		<path id="path268" class="st2" d="M390.2,18.1c0,0,34.3,19.1,34.3,51.2s-42.8,39.2-42.8,64.8c0,25.6,47.9,44.9,129.3,44.9
			s129.3-21.7,129.3-58S558,89.9,558,55c0-26.2,56.5-37,56.5-37L390.2,18.1L390.2,18.1z"/>
		<path id="path270" class="st2" d="M186.6,17.2c0,0,75.5,35.4,42.9,118.4c-32.6,83.1-63.5,152.1-18.9,212.6
			c44.6,60.6,129.6,16.9,129.6-36.6S284,247.8,284,197.3s97.6-180.2,97.6-180.2L186.6,17.2L186.6,17.2z"/>
		<path id="path272" class="st1" d="M272.5,147.4c-55.3,38.9-156.1,27.8-258.1-130.3l0,0h682.5C561.6,103.3,443.5,27.3,272.5,147.4
			L272.5,147.4z"/>
		<path id="path274" class="st4" d="M742.9,52.8c-127.5,68.4-155.4,10.5-318.4,125c-109.2,76.7-223,7.3-280.6-160.7l0,0h599.1V52.8z
			"/>
		<path id="path276" class="st2" d="M420.3,126.1C332.2,188,238,107.8,144.1,17.9l0,0h579.5C596.2,86.2,583.3,11.6,420.3,126.1z"/>
	</g>
	<g id="g596" transform="matrix(0.71652828,0,0,0.71652828,0.46454632,46.104668)">
		<path id="path592" class="st2" d="M115,94.7l-58.2,42.4c-6.7,4.9-8.2,14.3-3.1,20.9l0,0c5,6.6,14.5,8,21.3,3.1l58.2-42.4
			c6.7-4.9,8.2-14.3,3.1-20.9l0,0C131.2,91.2,121.7,89.8,115,94.7z"/>
		<path id="path594" class="st2" d="M128.7,147.7L85.6,90.4c-5-6.6-14.5-8-21.3-3.1l0,0c-6.7,4.9-8.2,14.3-3.1,20.9l43,57.3
			c5,6.6,14.5,8,21.3,3.1l0,0C132.3,163.6,133.7,154.3,128.7,147.7L128.7,147.7z"/>
	</g>
	<g id="g602" transform="matrix(0.71652828,0,0,0.71652828,0.46454632,46.104668)">
		<path id="path598" class="st2" d="M438.1,401.3l12.5,43.3c1.5,5,6.7,8,11.9,6.5l0,0c5.1-1.4,8.1-6.6,6.6-11.7l-12.5-43.3
			c-1.5-5-6.7-8-11.9-6.5l0,0C439.7,391.1,436.7,396.3,438.1,401.3z"/>
		<path id="path600" class="st2" d="M473,405.2l-44,12.3c-5.1,1.4-8.1,6.6-6.6,11.7l0,0c1.5,5,6.7,8,11.9,6.5l44-12.3
			c5.1-1.4,8.1-6.6,6.6-11.7l0,0C483.5,406.7,478.1,403.7,473,405.2z"/>
	</g>
	<polygon id="polygon604" class="st7" points="162.9,375.1 118.5,364.1 131,407.4 	"/>
	<polygon id="polygon606" class="st7" points="397.1,332.9 395.8,303 370.1,319.1 	"/>
</g>
<g id="layer1_1_" transform="translate(0,-58.874983)">
	<path id="path42_1_" class="st1" d="M0.4,309.8c0,0,44.9,32.1,120.3,32.1s92.1-40.1,152.2-40.1S378.3,346.7,378.3,423
		s-50.9,121.2-136.2,121.2s-73.2-77.1-155-77.1C25.7,467.1,0.4,520,0.4,520L0.4,309.8z"/>
	<path id="path44_1_" class="st2" d="M495.7,557.5c-19.8-31.8-48.9-90.4-126-77.2c-159.2,27.4-125.8,72.4-294.2,42.6
		C48,518,22.9,511.4,0,503.8v53.7h443.7H495.7L495.7,557.5z"/>
	<path id="path46_1_" class="st1" d="M468.2,557.5c-18.7-25.3-46.1-71.9-118.9-61.4c-150.2,21.7-118.7,57.5-277.5,33.8
		c-25.9-3.9-49.5-9.1-71.2-15.1v42.6h418.6H468.2L468.2,557.5z"/>
	<path id="path48_1_" class="st3" d="M0.4,328.8c0,0,29.4,24.1,78.6,24.1s60.2-30.2,99.5-30.2c39.3,0,68.9,33.8,68.9,91.2
		s-33.3,91.2-89,91.2s-47.8-58-101.3-58C16.9,447.1,0.4,487,0.4,487L0.4,328.8z"/>
	<path id="path50_1_" class="st4" d="M0.4,279.9c0,0,25.8,53.3,86.4,30.3c60.6-23,111-44.8,155.2-13.3s12.3,91.4-26.7,91.4
		s-46.5-39.7-83.4-39.7S0.4,417.5,0.4,417.5L0.4,279.9L0.4,279.9z"/>
	<path id="path52_1_" class="st5" d="M92.3,464C52.6,436.1,22.6,405.5,0,376.5v180.9h397C299.9,495.6,215.1,550.1,92.3,464z"/>
	<path id="path54_1_" class="st2" d="M430.1,532.9c-91.5-49.1-174.1-3.4-291.1-85.6C60.5,392.3,19.7,326.5,0,284.5v274.1h430
		L430.1,532.9L430.1,532.9z"/>
	<path id="path244_1_" class="st4" d="M125.2,472.5c-63.3-44.4-102.1-95.9-125-136.2V558h416.1C324.7,509,242.2,554.7,125.2,472.5z"
		/>
	<g id="g250_1_" transform="matrix(0.71652828,0,0,0.71652828,0.46454632,46.104668)">
		<path id="path246_1_" class="st2" d="M113.7,656.2l-58.3-42.5c-6.8-4.9-8.2-14.3-3.2-20.9l0,0c5-6.6,14.5-8,21.3-3.1l58.3,42.4
			c6.8,4.9,8.2,14.3,3.2,20.9l0,0C130,659.8,120.5,661.1,113.7,656.2z"/>
		<path id="path248_1_" class="st2" d="M127.5,603.2l-43.2,57.3c-5,6.6-14.5,8-21.3,3.1l0,0c-6.8-4.9-8.2-14.3-3.2-20.9l43.2-57.3
			c5-6.6,14.5-8,21.3-3.1l0,0C131,587.2,132.5,596.6,127.5,603.2L127.5,603.2z"/>
	</g>
	<g id="g256_1_" transform="matrix(0.71652828,0,0,0.71652828,0.46454632,46.104668)">
		<path id="path252_1_" class="st2" d="M499.7,541.5l12.5-43.4c1.5-5,6.8-8,11.9-6.5l0,0c5.1,1.4,8.1,6.6,6.6,11.7l-12.5,43.4
			c-1.5,5-6.8,8-11.9,6.5l0,0C501.2,551.8,498.2,546.6,499.7,541.5z"/>
		<path id="path254_1_" class="st2" d="M534.7,537.6l-44.1-12.3c-5.1-1.4-8.1-6.6-6.6-11.7l0,0c1.5-5,6.8-8,11.9-6.5l44.1,12.3
			c5.1,1.4,8.1,6.6,6.6,11.7l0,0C545.1,536.2,539.7,539.1,534.7,537.6L534.7,537.6z"/>
	</g>
	<polygon id="polygon258_1_" class="st8" points="137.7,362.7 93.3,373.7 105.8,330.3 	"/>
	<polygon id="polygon260_1_" class="st8" points="370.9,332.4 369.5,362.4 343.8,346.2 	"/>
	<path id="path262_1_" class="st3" d="M719.1,557.4c0,0-32.7-19.3-32.7-51.8s40.8-39.7,40.8-65.5c0-25.9-45.7-45.4-123.3-45.4
		c-77.5,0-123.3,21.9-123.3,58.6s78.4,31.5,78.4,66.7c0,26.5-53.9,37.4-53.9,37.4L719.1,557.4L719.1,557.4z"/>
	<g id="g278_1_" transform="matrix(0.71652828,0,0,0.71652828,0.46454632,46.633835)">
		<path id="path264_1_" class="st1" d="M421.3,714.8c27.7-44.5,68.1-126.2,175.9-107.7c222.1,38.2,175.5,101,410.5,59.4
			c38.2-6.8,73.3-15.9,105.3-26.6v74.9H493.7H421.3L421.3,714.8z"/>
		<path id="path266_1_" class="st4" d="M459.6,714.8c26.1-35.3,64.3-100.3,165.9-85.7c209.6,30.3,165.6,80.3,387.3,47.2
			c36.1-5.4,69.1-12.7,99.3-21.1v59.5H527.9H459.6z"/>
		<path id="path268_1_" class="st2" d="M866.2,713.9c0,0-34.3-19.1-34.3-51.3c0-32.2,42.9-39.3,42.9-64.9c0-25.6-48-44.9-129.5-44.9
			s-129.5,21.7-129.5,58s82.3,31.2,82.3,66.1c0,26.2-56.6,37-56.6,37S866.2,713.9,866.2,713.9z"/>
		<path id="path270_1_" class="st2" d="M1070.2,714.8c0,0-75.7-35.4-43-118.6c32.7-83.2,63.6-152.2,18.9-212.8
			c-44.7-60.6-129.8-16.9-129.8,36.7s56.3,63.9,56.3,114.4s-97.8,180.4-97.8,180.4L1070.2,714.8L1070.2,714.8z"/>
		<path id="path272_1_" class="st1" d="M984.2,584.4c55.4-38.9,156.4-27.8,258.6,130.4l0,0H559C694.4,628.6,812.8,704.7,984.2,584.4
			L984.2,584.4z"/>
		<path id="path274_1_" class="st4" d="M512.9,679.1c127.8-68.5,155.7-10.5,319-125.2c109.4-76.8,223.4-7.3,281.2,160.9l0,0H512.9
			L512.9,679.1L512.9,679.1z"/>
		<path id="path276_1_" class="st2" d="M836,605.8c88.3-62,182.7,18.3,276.8,108.3l0,0H532.1C659.8,645.7,672.7,720.4,836,605.8z"/>
	</g>
	<g id="g596_1_" transform="matrix(0.71652828,0,0,0.71652828,0.46454632,46.104668)">
		<path id="path592_1_" class="st2" d="M1141.9,638.7l58.3-42.4c6.8-4.9,8.2-14.3,3.2-20.9l0,0c-5-6.6-14.5-8-21.3-3.1l-58.3,42.4
			c-6.8,4.9-8.2,14.3-3.2,20.9l0,0C1125.6,642.2,1135.2,643.6,1141.9,638.7z"/>
		<path id="path594_1_" class="st2" d="M1128.1,585.7l43.2,57.3c5,6.6,14.5,8,21.3,3.1l0,0c6.8-4.9,8.2-14.3,3.2-20.9l-43.1-57.3
			c-5-6.6-14.5-8-21.3-3.1l0,0C1124.6,569.7,1123.1,579,1128.1,585.7L1128.1,585.7z"/>
	</g>
	<g id="g602_1_" transform="matrix(0.71652828,0,0,0.71652828,0.46454632,46.104668)">
		<path id="path598_1_" class="st2" d="M818.1,331.7l-12.5-43.4c-1.5-5-6.8-8-11.9-6.5l0,0c-5.1,1.4-8.1,6.6-6.6,11.7l12.5,43.4
			c1.5,5,6.8,8,11.9,6.5l0,0C816.6,342,819.6,336.7,818.1,331.7z"/>
		<path id="path600_1_" class="st2" d="M783.2,327.9l44.1-12.3c5.1-1.4,8.1-6.6,6.6-11.7l0,0c-1.5-5-6.8-8-11.9-6.5l-44.1,12.3
			c-5.1,1.4-8.1,6.6-6.6,11.7l0,0C772.7,326.4,778,329.3,783.2,327.9z"/>
	</g>
	<polygon id="polygon604_1_" class="st9" points="738.5,242.3 782.9,253.4 770.4,210 	"/>
	<polygon id="polygon606_1_" class="st9" points="503.8,284.6 505.2,314.5 530.9,298.4 	"/>
</g>
<g>
	<g>
		<g>
			<g>
				<path class="st10" d="M321.1,128.7h7.7H168.2c-20.8,0-36.7,16.9-33.6,35.6l8.5,51.7l14.4,70h174.3l14.4-69.9l8.5-51.7
					C357.8,145.6,342,128.7,321.1,128.7z"/>
			</g>
			<g>
				<rect x="197.4" y="252.7" class="st11" width="59.9" height="37.8"/>
			</g>
			<g>
				<g>
					<polygon class="st12" points="164.8,346.5 151.9,426.4 160.4,426.4 181.3,347.6 					"/>
				</g>
			</g>
			<g>
				<g>
					<polygon class="st12" points="324.5,346.5 337.4,426.4 329,426.4 308.1,347.6 					"/>
				</g>
			</g>
			<g>
				<path class="st10" d="M398.6,202.6l-1.2-3.1c-6.9-17.9-29.3-23.7-44-11.5l0,0c-17.4,14.5-27.9,54.2-28.7,121.3
					c0,4.7-3.8,8.4-8.4,8.4h12.5H173.1c-4.7,0-8.4-3.8-8.4-8.4c-0.8-67.2-11.3-106.8-28.7-121.3l-0.5-0.4
					c-14.5-11.9-36.4-6.2-43.2,11.3l-1.4,3.7c-4.9,12.8-0.1,27.2,11.5,34.5c9.3,5.8,18.7,13,21.6,19.1c3.8,8.3,8.8,34.1,11.9,59.4
					c2.8,22.7,22.1,39.7,45,39.7h127.9c22.9,0,42.1-17,45-39.7c3.2-25.3,8.2-51.1,11.9-59.4c2.8-6.2,12.3-13.3,21.6-19.1
					C398.7,229.8,403.5,215.3,398.6,202.6z"/>
			</g>
			<g>
				<path class="st10" d="M324,273.1H165.3c-2.1,0-3.8,1.7-3.8,3.8v41.2h166.2v-41.2C327.8,274.8,326.1,273.1,324,273.1z"/>
			</g>
			<g>
				<path class="st11" d="M323.4,318.7H166c-0.4,0-0.7-0.3-0.7-0.7c0-0.4,0.3-0.7,0.7-0.7h157.5c0.4,0,0.7,0.3,0.7,0.7
					C324.1,318.5,323.8,318.7,323.4,318.7z"/>
			</g>
			<g>
				<path class="st11" d="M325.4,287.5c-0.3,0-0.6-0.2-0.7-0.5c-1.6-7.7-8.4-13.2-16.2-13.2H178.2c-5.7,0-10.9,2.9-14,7.7
					c-0.2,0.3-0.6,0.4-0.9,0.2s-0.4-0.6-0.2-0.9c3.3-5.2,8.9-8.4,15.1-8.4h130.3c8.5,0,15.8,6,17.5,14.2
					C326.1,287.1,325.8,287.4,325.4,287.5C325.5,287.5,325.4,287.5,325.4,287.5z"/>
			</g>
			<g>
				<path class="st11" d="M164.5,310c-0.4,0-0.7-0.3-0.7-0.7c-0.6-48.2-6.1-83.3-16.4-104.4c-0.2-0.3,0-0.8,0.3-0.9
					c0.4-0.2,0.8,0,0.9,0.3c10.4,21.3,16,56.6,16.6,105C165.1,309.7,164.8,310,164.5,310L164.5,310z"/>
			</g>
			<g>
				<path class="st11" d="M324.9,310L324.9,310c-0.4,0-0.7-0.3-0.7-0.7c0.6-48.4,6.2-83.7,16.6-105c0.2-0.4,0.6-0.5,0.9-0.3
					c0.4,0.2,0.5,0.6,0.3,0.9c-10.3,21.1-15.8,56.3-16.4,104.4C325.6,309.7,325.3,310,324.9,310z"/>
			</g>
			<g>
				<path class="st11" d="M371.6,216.9c-3.4,0-6.1-2.7-6.1-6.1c0-3.4,2.7-6,6.1-6s6,2.7,6,6C377.6,214.1,374.9,216.9,371.6,216.9z
					 M371.6,206.1c-2.6,0-4.7,2.1-4.7,4.7c0,2.6,2.1,4.7,4.7,4.7s4.7-2.1,4.7-4.7C376.3,208.2,374.2,206.1,371.6,206.1z"/>
			</g>
			<g>
				<path class="st11" d="M117.8,216.9c-3.4,0-6.1-2.7-6.1-6.1c0-3.4,2.7-6,6.1-6c3.4,0,6,2.7,6,6
					C123.9,214.1,121.2,216.9,117.8,216.9z M117.8,206.1c-2.6,0-4.7,2.1-4.7,4.7c0,2.6,2.1,4.7,4.7,4.7c2.6,0,4.7-2.1,4.7-4.7
					C122.5,208.2,120.4,206.1,117.8,206.1z"/>
			</g>
		</g>
	</g>
	<g>
		<polygon class="st10" points="202.8,131.6 228.9,117.2 254.4,129.6 268.4,258.6 196.1,248.4 		"/>
	</g>
	<g>
		<path class="st2" d="M212.3,120.4c0,0-33.2,12.3-39.4,16.6c-6.3,4.3-8.7,46.6-11.5,59.2c-3.3,15.5-6.8,22.9,2.1,30.6
			c8.9,7.8,43.5,20,43.5,20l3.8-15.7l-7.1-3.8l10-100.8L212.3,120.4z"/>
	</g>
	<g>
		<path class="st2" d="M293.4,255.6l-4.7-22.6c0,0,20-10.9,21.3-14.1c1.3-3.2-4.3-18.8-7.5-33.3c-3.2-14.5-11.6-50.2-17.4-55.8
			c-5.8-5.6-39.8-12.6-39.8-12.6l-1.2,11.5l13.5,99.7l-6.8,4.5l0.3,14.6l10.9-3.3l6.5,14.3L293.4,255.6z"/>
	</g>
	<g>
		<path class="st11" d="M227.6,117.2c-8.3,0-16.6-4.6-19.3-2.2c-2.7,2.4,6,24.2,10.6,24.2c2.4,0,7.7-5.9,9.4-11.5
			C229.7,122.3,227.6,117.2,227.6,117.2z"/>
	</g>
	<g>
		<path class="st11" d="M228.9,117.2c8.3,0,16.6-4.6,19.3-2.2c2.7,2.4-6,24.2-10.6,24.2c-2.4,0-7.7-5.9-9.4-11.5
			C226.7,122.3,228.9,117.2,228.9,117.2z"/>
	</g>
	<g>
		<path class="st10" d="M218.3,106.7h9.9h9.9c0,10.6,4.3,16.4,4.3,16.4s-5.5,4.5-14.2,4.5c-8.9,0-14.2-4.5-14.2-4.5
			S218.3,117.4,218.3,106.7z"/>
	</g>
	<g>
		<path class="st13" d="M237.2,105.7h-9h-9c0,1.7-0.1,3.2-0.2,4.7c2.6,3.8,5.6,5.2,9.3,5.2l0,0c3.6,0,6.7-1.4,9.3-5.2
			C237.3,108.9,237.2,107.3,237.2,105.7z"/>
	</g>
	<g>
		<path class="st11" d="M241.5,118.8c0,0-5,6.2-13.3,6.2s-13.3-6.2-13.3-6.2l-2.6,5.4l14.1,4.6l1.8-1.1l1.8,1.1l14.1-4.6
			L241.5,118.8z"/>
	</g>
	<g>
		<path class="st11" d="M200,226.5c-0.1,0-0.3,0-0.4-0.1l-17.4-12.1c-0.2-0.1-0.3-0.4-0.3-0.6l6.4-46.7c-1.2-1.9-9.1-14.6-10-21.5
			c0-0.4,0.2-0.7,0.6-0.8c0.4-0.1,0.7,0.2,0.8,0.6c0.9,7,9.8,20.9,9.9,21.1c0.1,0.1,0.1,0.3,0.1,0.4l-6.4,46.5l17.1,11.9
			c0.3,0.2,0.4,0.6,0.2,0.9C200.4,226.4,200.2,226.5,200,226.5z"/>
	</g>
	<g>
		<path class="st11" d="M181.8,164.4c-0.1,0-0.3,0-0.4-0.2c-1.4-1.2-2.5-2.7-3.2-4.5c-0.1-0.4,0-0.8,0.4-0.9c0.4-0.1,0.8,0,0.9,0.4
			c0.6,1.5,1.6,2.9,2.8,3.9c0.3,0.2,0.3,0.7,0.1,0.9C182.2,164.3,182,164.4,181.8,164.4z"/>
	</g>
	<g>
		<path class="st11" d="M260.6,226.7c-0.2,0-0.4-0.1-0.6-0.4c-0.2-0.3-0.1-0.8,0.3-0.9l23.7-13.4c0.5-1.4,3.3-8.2,10.9-12.3
			c0.3-0.2,0.8,0,0.9,0.3c0.2,0.3,0,0.7-0.3,0.9c-7.9,4.2-10.2,11.7-10.3,11.8c0,0.2-0.2,0.3-0.3,0.4L261,226.6
			C260.8,226.6,260.7,226.7,260.6,226.7z"/>
	</g>
	<g>
		<path class="st11" d="M287.6,211.5c-0.1,0-0.3,0-0.4-0.2c-0.3-0.2-0.3-0.7-0.1-0.9c1.6-1.9,6.5-3.4,8.8-2.7
			c0.4,0.1,0.5,0.5,0.4,0.9c-0.1,0.4-0.5,0.6-0.9,0.4c-1.7-0.5-6.1,0.9-7.3,2.3C288,211.4,287.8,211.5,287.6,211.5z"/>
	</g>
	<g>
		<path class="st11" d="M284.5,213.1c-0.3,0-0.6-0.2-0.7-0.6l-7.2-49.4c0-0.1,0-0.2,0-0.3c1.4-4.2,5.9-18.4,6-18.5
			c0.1-0.4,0.5-0.5,0.9-0.4c0.4,0.1,0.5,0.5,0.4,0.9c0,0.1-4.4,14-5.9,18.4l7.1,49.2C285.2,212.7,284.9,213.1,284.5,213.1
			C284.6,213.1,284.5,213.1,284.5,213.1z"/>
	</g>
	<g>
		<path class="st11" d="M179.1,212.3c-0.2,0-0.4-0.1-0.5-0.2c-2.6-2.7-6.2-4.5-9.9-4.8c-0.4,0-0.6-0.4-0.6-0.7
			c0-0.4,0.4-0.7,0.7-0.6c4.1,0.4,8,2.3,10.8,5.2c0.3,0.3,0.2,0.7,0,0.9C179.5,212.2,179.3,212.3,179.1,212.3z"/>
	</g>
	<g>
		<path class="st11" d="M180.8,209.3c-0.2,0-0.4-0.1-0.6-0.3c-1.4-2.1-3.1-4-5-5.7c-0.3-0.2-0.3-0.7-0.1-0.9s0.7-0.3,0.9-0.1
			c2,1.7,3.8,3.8,5.2,6c0.2,0.3,0.1,0.7-0.2,0.9C181.1,209.3,180.9,209.3,180.8,209.3z"/>
	</g>
	<g>
		<path class="st11" d="M236.3,195.7c-0.2,0-0.4-0.1-0.5-0.3c-7.9-9.9-13.7-21.7-16.9-34c-0.1-0.4,0.1-0.7,0.5-0.9
			c0.4-0.1,0.7,0.1,0.9,0.5c3.1,12.1,8.9,23.7,16.6,33.5c0.2,0.3,0.2,0.7-0.1,0.9C236.6,195.7,236.5,195.7,236.3,195.7z"/>
	</g>
	<g>
		<path class="st11" d="M204,60.7c-3.5,2.6-5.4,7.3-4.6,11.7c0.8,4.3,4.3,8.1,8.6,9c4.3,1,9.1-0.9,11.5-4.7c1.7-2.6,2.1-5.9,1.4-8.9
			c-0.6-2.7-3-7.3-5.5-8.8C212.2,57,206.8,58.6,204,60.7z"/>
	</g>
	<g>
		<path class="st10" d="M250.2,78.8c0,0,0.4-26.2-22-26.2l0,0l0,0l0,0l0,0c-22.4,0-22,26.2-22,26.2s-4.5,0-4.2,6.9s6.7,7,6.7,7
			c3.6,16,10.2,20.6,19.6,20.6l0,0l0,0l0,0l0,0c9.4,0,15.9-4.6,19.6-20.6c0,0,6.4-0.1,6.7-7C254.7,78.8,250.2,78.8,250.2,78.8z"/>
	</g>
	<g>
		<path class="st10" d="M250.2,78.8c0,0,0.4-26.2-22-26.2l0,0l0,0l0,0l0,0c-22.4,0-22,26.2-22,26.2s-4.5,0-4.2,6.9s6.7,7,6.7,7
			c3.6,16,10.2,20.6,19.6,20.6l0,0l0,0l0,0l0,0c9.4,0,15.9-4.6,19.6-20.6c0,0,6.4-0.1,6.7-7C254.7,78.8,250.2,78.8,250.2,78.8z"/>
	</g>
	<g>
		<g>
			<path class="st10" d="M224.7,406.1l4.7,20.4h41.7c0,0-0.4-17.1-18.7-20.7l-6.1-8.2L224.7,406.1z"/>
		</g>
		<g>
			<path class="st11" d="M183.8,248.6c30-3.6,51.4,111.6,53.7,119.5c2.3,7.9,13.9,6,11.3,15.7c-2.6,9.7,3.5,10.7,3.7,15.4
				l-31.9,13.3C220.6,412.5,131.4,254.8,183.8,248.6z"/>
		</g>
		<g>
			<path class="st10" d="M237.8,259.8c0,0-20.1,7.2-19.7,9.8c0.3,2.5,12.8,30,16.8,29.9c4-0.1,10.1-17,10.1-17L237.8,259.8z"/>
		</g>
		<g>
			<path class="st11" d="M171,192.5l12.5,61c0.8,3.6,3.9,6.2,7.6,6.2h88l12.1-69.4c0.9-4.8-2.9-9.2-7.8-9.1l-105,1.9
				C173.6,183.3,170,187.8,171,192.5z"/>
		</g>
		<g>
			<path class="st2" d="M236.9,224.5c-3.1,0-5.7-2.6-5.7-5.7c0-3.1,2.6-5.7,5.7-5.7c1,0,1.9,0.3,2.7,0.8c-1.6-2.1-4-3.7-6.8-3.7
				c-4.7,0-8.6,3.8-8.6,8.6c0,4.7,3.8,8.6,8.6,8.6c2.9,0,5.3-1.5,6.8-3.7C238.8,224.2,237.9,224.5,236.9,224.5z"/>
		</g>
		<g>
			<path class="st11" d="M237.8,259.8c0,0,5.1,22,7.1,22.6c2.1,0.6,12,7.2,16.2,0.6c4.1-6.6,9.4-5.8,20.5-7.6
				c11.1-1.8,66.1-21.3,62.2-49.9C339.9,197,237.8,259.8,237.8,259.8z"/>
		</g>
		<g>
			<path class="st10" d="M241.9,258c-0.2,0-0.5-0.1-0.6-0.4c-0.2-0.3,0-0.8,0.3-0.9l37.8-19.5c0.3-0.2,0.8,0,0.9,0.3
				c0.2,0.3,0,0.8-0.3,0.9l-37.8,19.5C242.1,258,242.1,258,241.9,258z"/>
		</g>
		<g>
			<path class="st10" d="M206.3,269c-0.2,0-0.5-0.1-0.6-0.4c-8.7-16.9-20.7-17.7-20.8-17.7c-0.4,0-0.7-0.3-0.6-0.7
				c0-0.4,0.3-0.6,0.7-0.6c0.5,0,12.9,0.7,22,18.4c0.2,0.3,0,0.8-0.3,0.9C206.4,269,206.4,269,206.3,269z"/>
		</g>
	</g>
	<g>
		<path class="st11" d="M204.9,74c0.3,6.5,2.3,12.9,5.9,18.4c-0.7-4.7-0.5-9.4,0.5-14c6.4-0.2,12.5-3.7,15.2-9.5
			c0.4,2.5,0,5-1.4,7.2c4.4-2.9,7.8-7.7,8.9-13c-0.9,6.2,1.7,13,6.7,16.7c5,3.8,12.4,4.3,17.6,0.8c5.2-3.5,7.6-10.8,5.1-16.6
			c-1.1-2.5-3-4.6-5.5-5.5c-2.5-1-5.5-0.6-7.6,1.1c0.8-3.6-0.8-7.5-3.8-9.6c-3.1-2.1-7.2-2.4-10.7-1.3c-5.2-2.5-11.6-3.6-17.1-1.7
			c-5.5,1.9-11.5,7.8-11.9,13.6L204.9,74z"/>
	</g>
	<g>
		<path class="st11" d="M246.4,91.8c1.1-2.8,2.3-5.6,3-8.6c0.3-1.1,0.5-2.3,0-3.4c-1.1-2.6-6-3.6-4.9,0.3
			C245.5,84.1,246.4,87.7,246.4,91.8z"/>
	</g>
	<g>
		<path class="st11" d="M240,304.7c-1.1,0-2.2-0.3-3.1-0.9c-2-1.3-3.3-3.4-4.3-5.1c-3.9-6.9-7.9-13.8-11.9-20.8
			c-0.2-0.3-0.1-0.8,0.3-0.9c0.3-0.2,0.7-0.1,0.9,0.3c3.9,6.9,7.9,13.8,11.9,20.8c1,1.7,2.1,3.6,3.8,4.7c1.5,0.9,3.8,1,4.9-0.5
			c0.8-1.1,0.6-2.6,0.4-4.2l-1.7-13.5c0-0.4,0.2-0.7,0.6-0.8c0.4-0.1,0.7,0.2,0.8,0.6l1.7,13.5c0.2,1.8,0.4,3.7-0.7,5.1
			C242.8,304.2,241.4,304.7,240,304.7z"/>
	</g>
</g>
<g>
	<path class="st14" d="M504.3,290.3c-3.7,0-7.2-0.3-10.6-0.8c-3.4-0.5-6.6-1.4-9.5-2.5c-3-1.1-5.6-2.6-8.1-4.4
		c-2.4-1.8-4.5-4-6.3-6.5c-1.8-2.5-3.1-5.4-4-8.7c-0.9-3.3-1.4-7-1.4-11.2c0-2.9,0.1-5.7,0.4-8.3c0.3-2.7,0.7-5.4,1.3-8.1
		c0.6-2.7,1.3-5.5,2.3-8.4c0.9-2.9,2.1-5.9,3.4-9.2l15.9,6.6c-1.1,2.5-2.1,5-3,7.5c-0.9,2.5-1.5,4.9-2.1,7.2c-0.5,2.3-1,4.6-1.2,6.7
		c-0.3,2.1-0.4,4.1-0.4,5.9c0,2.1,0.4,4,1.1,5.5c0.7,1.6,1.7,2.9,2.9,4c1.2,1.1,2.6,2,4.2,2.7c1.6,0.7,3.2,1.3,5,1.7
		c1.7,0.4,3.5,0.7,5.2,0.8c1.7,0.2,3.4,0.2,5,0.2c0.7,0,1.8,0,3.3-0.1c1.4-0.1,3-0.3,4.8-0.5c1.8-0.2,3.6-0.5,5.5-0.8
		c1.9-0.3,3.7-0.7,5.3-1.2c1.6-0.5,3-1,4.2-1.6c1.2-0.6,1.9-1.3,2.3-2.1c-2.3-1.5-5.7-2.9-10.1-4.1c-4.4-1.2-9.6-2.2-15.5-2.9
		l2.5-18.2h41.2v19.1h-6c0.4,0.8,0.8,1.7,1,2.7c0.2,1,0.4,1.9,0.4,2.6c0,3.1-0.6,5.9-1.9,8.4c-1.3,2.5-2.9,4.8-5,6.7
		c-2.1,2-4.5,3.6-7.2,5.1c-2.7,1.4-5.5,2.6-8.4,3.5c-2.9,0.9-5.7,1.6-8.6,2C509.3,290.1,506.7,290.3,504.3,290.3z"/>
	<path class="st14" d="M545.8,239.5h1.6l4.1-0.3c-0.8-1.2-1.5-2.7-2-4.4c-0.5-1.7-0.8-3.6-0.9-5.5c-0.1-2.1,0.2-4.1,0.7-6.2
		c0.5-2.1,1.2-4.1,2.2-6c1-1.9,2.2-3.7,3.6-5.3c1.4-1.6,3-3,4.7-4.2c1.7-1.2,3.6-2.1,5.6-2.8c2-0.7,4-1,6.2-0.9c2,0.1,4,0.5,5.8,1.2
		c1.9,0.7,3.6,1.6,5.2,2.7c1.6,1.1,3.1,2.5,4.4,4c1.3,1.5,2.4,3.2,3.3,5c0.9,1.8,1.6,3.6,2.1,5.6c0.5,2,0.7,4,0.7,6
		c0,1.9-0.3,3.8-0.8,5.6c-0.5,1.8-1.2,3.6-2,5.3c0.6,0.1,1.3,0.1,2.1,0.2c0.8,0.1,1.7,0.1,2.6,0.1h1v19.1H594c-2.1,0-4.1,0-6-0.1
		c-1.9-0.1-3.8-0.3-5.7-0.6c-1.8-0.3-3.7-0.7-5.4-1.3c-1.8-0.5-3.6-1.3-5.3-2.2c-1.2,0.8-2.7,1.5-4.6,2c-1.8,0.5-3.8,1-6,1.3
		c-2.2,0.3-4.4,0.6-6.7,0.7c-2.3,0.1-4.5,0.2-6.7,0.2h-1.9V239.5z M570.5,190.8l-9.1,9.1l-9.3-9.3l9.2-9.3l9.1,9.1l9.1-9.1l9.3,9.3
		l-9.2,9.3L570.5,190.8z M577.8,229.7c0-1.1-0.2-2.2-0.7-3.1c-0.5-0.9-1.1-1.8-1.8-2.5c-0.7-0.7-1.4-1.4-2.2-1.9
		c-0.8-0.5-1.4-0.8-2-1c-0.6,0.2-1.3,0.5-2.2,1c-0.9,0.5-1.7,1.1-2.4,1.9c-0.8,0.8-1.4,1.6-2,2.6c-0.5,1-0.8,2-0.8,3
		c0,0.9,0.2,1.7,0.7,2.6c0.5,0.8,1.1,1.6,1.8,2.3c0.7,0.7,1.5,1.4,2.4,2c0.9,0.6,1.7,1,2.6,1.3c0.8-0.3,1.5-0.7,2.3-1.3
		c0.8-0.5,1.5-1.1,2.1-1.8c0.6-0.7,1.1-1.5,1.5-2.3C577.6,231.6,577.8,230.7,577.8,229.7z"/>
	<path class="st14" d="M636.9,239.5v19.1h-1.1c-1.5,0-3-0.1-4.6-0.4c-1.5-0.3-3-0.6-4.4-1.1c-1.4-0.5-2.6-1.1-3.7-1.8
		c-1.1-0.7-2-1.5-2.6-2.4c-0.9,1-2.1,1.9-3.6,2.6c-1.5,0.7-3.1,1.3-5,1.8c-1.8,0.5-3.8,0.8-5.9,1c-2.1,0.2-4.3,0.3-6.4,0.3H594
		v-19.1h5.7c2.1,0,3.8,0,5.4-0.1c1.5-0.1,2.8-0.3,3.9-0.7c1-0.4,1.8-0.9,2.4-1.7c0.5-0.7,0.9-1.7,1-3c0.1-1.3,0.1-2.9-0.2-4.8
		c-0.3-1.9-0.7-4.2-1.3-6.9l17.1-4.2c0.3,1.2,0.6,2.7,0.8,4.4c0.3,1.7,0.5,3.4,0.7,5.2c0.2,1.8,0.3,3.5,0.3,5.2c0,1.7,0,3.1-0.2,4.3
		c0.3,0.6,0.7,1.1,1.3,1.5c0.6,0.3,1.1,0.6,1.8,0.7c0.6,0.1,1.2,0.2,1.8,0.3c0.6,0,1,0,1.4,0H636.9z M613.3,270.8l-9.1,9.1l-9.3-9.3
		l9.2-9.3l9.1,9.1l9.1-9.1l9.3,9.3l-9.2,9.3L613.3,270.8z"/>
	<path class="st14" d="M635,239.5h1.6l4.1-0.3c-0.8-1.2-1.5-2.7-2-4.4c-0.5-1.7-0.8-3.6-0.9-5.5c-0.1-2.1,0.2-4.1,0.6-6.2
		c0.5-2.1,1.2-4.1,2.2-6c1-1.9,2.2-3.7,3.6-5.3c1.4-1.6,3-3,4.7-4.2c1.7-1.2,3.6-2.1,5.6-2.8c2-0.7,4-1,6.2-0.9c2,0.1,4,0.5,5.8,1.2
		c1.9,0.7,3.6,1.6,5.2,2.7c1.6,1.1,3.1,2.5,4.4,4c1.3,1.5,2.4,3.2,3.3,5c0.9,1.8,1.6,3.6,2.1,5.6c0.5,2,0.7,4,0.7,6
		c0,1.9-0.3,3.8-0.8,5.6c-0.5,1.8-1.2,3.6-2,5.3c0.6,0.1,1.3,0.1,2.1,0.2c0.8,0.1,1.7,0.1,2.6,0.1h1v19.1h-1.9c-2.1,0-4.1,0-6-0.1
		c-1.9-0.1-3.8-0.3-5.7-0.6c-1.8-0.3-3.7-0.7-5.4-1.3c-1.8-0.5-3.6-1.3-5.3-2.2c-1.2,0.8-2.7,1.5-4.6,2c-1.8,0.5-3.8,1-6,1.3
		c-2.2,0.3-4.4,0.6-6.7,0.7c-2.3,0.1-4.5,0.2-6.7,0.2H635V239.5z M659.8,190.8l-9.1,9.1l-9.3-9.3l9.2-9.3l9.1,9.1l9.1-9.1l9.3,9.3
		l-9.2,9.3L659.8,190.8z M667,229.7c0-1.1-0.2-2.2-0.7-3.1c-0.5-0.9-1.1-1.8-1.8-2.5c-0.7-0.7-1.4-1.4-2.2-1.9c-0.8-0.5-1.4-0.8-2-1
		c-0.6,0.2-1.3,0.5-2.2,1c-0.9,0.5-1.7,1.1-2.4,1.9c-0.8,0.8-1.4,1.6-2,2.6c-0.5,1-0.8,2-0.8,3c0,0.9,0.2,1.7,0.7,2.6
		c0.5,0.8,1.1,1.6,1.8,2.3c0.7,0.7,1.5,1.4,2.4,2c0.9,0.6,1.7,1,2.6,1.3c0.8-0.3,1.5-0.7,2.3-1.3c0.8-0.5,1.5-1.1,2.1-1.8
		c0.6-0.7,1.1-1.5,1.5-2.3C666.8,231.6,667,230.7,667,229.7z"/>
	<path class="st14" d="M683.2,239.5h10.2c4.5,0,8.8-0.3,13-0.8c4.2-0.5,8.2-1.2,12-2.1c3.8-0.9,7.4-1.9,10.8-3
		c3.4-1.1,6.5-2.3,9.3-3.6c-1.6-0.6-3.5-1.3-5.5-2c-2-0.7-4.1-1.4-6.2-2c-2.1-0.6-4.2-1.1-6.4-1.6c-2.1-0.4-4.1-0.6-6-0.6
		c-1.3,0-2.6,0.3-4,0.9s-2.7,1.3-3.9,2c-1.2,0.8-2.2,1.5-3.1,2.3c-0.9,0.8-1.4,1.3-1.6,1.7l-13.6-8.8c1.4-2.5,3-4.8,4.9-6.9
		c1.9-2.1,3.9-3.9,6.1-5.4c2.2-1.5,4.6-2.7,7.2-3.6c2.6-0.9,5.2-1.3,8-1.3c2.5,0,5,0.3,7.6,1c2.6,0.7,5.1,1.5,7.6,2.5
		c2.5,1,5.1,2.1,7.6,3.3c2.5,1.2,5.1,2.3,7.6,3.4c2.5,1.1,5,2,7.4,2.7c2.4,0.8,4.8,1.2,7.2,1.3L758,237c-4.6,2.3-8.8,4.5-12.8,6.4
		c-4,2-7.7,3.8-11.3,5.4c-3.6,1.6-7,3-10.4,4.2c-3.3,1.2-6.6,2.2-9.9,3.1c-3.3,0.8-6.6,1.4-9.9,1.9c-3.3,0.4-6.8,0.6-10.4,0.6h-10.2
		V239.5z"/>
</g>
</svg>
