<?xml version="1.0" encoding="utf-8"?>
<!-- Generator: Adobe Illustrator 23.0.1, SVG Export Plug-In . SVG Version: 6.00 Build 0)  -->
<svg version="1.1" id="Layer_1" xmlns="http://www.w3.org/2000/svg" xmlns:xlink="http://www.w3.org/1999/xlink" x="0px" y="0px"
	 viewBox="0 0 900 500" style="enable-background:new 0 0 900 500;" xml:space="preserve">
<style type="text/css">
	.st0{fill:#502972;}
	.st1{opacity:0.59;}
	.st2{fill:#794C9F;}
	.st3{fill:#522972;}
	.st4{fill:#6A4192;}
	.st5{fill:#65C5B0;}
	.st6{fill:#3E215B;}
	.st7{fill:none;stroke:#522972;stroke-width:5.1202;stroke-miterlimit:10;}
	.st8{fill:#5F3489;}
	.st9{fill:#0E103F;}
	.st10{fill:#FCFDF8;}
	.st11{fill:#3970B7;}
	.st12{fill:#FFFFFF;}
</style>
<rect x="0.6" y="-1.3" class="st0" width="899.4" height="501.3"/>
<g id="layer1_1_" transform="translate(0,-58.874983)" class="st1">
	<path id="path42_1_" class="st2" d="M1,303.1c0,0,45.3,33,121.4,33s93-41.2,153.7-41.2S382.5,341,382.5,419.4
		S331.1,543.9,245,543.9s-73.9-79.2-156.5-79.2c-62,0-87.6,54.4-87.6,54.4L1,303.1z"/>
	<path id="path44_1_" class="st3" d="M500.9,557.5c-20-32.7-49.3-92.9-127.2-79.3c-160.7,28.1-127,74.4-297,43.7
		c-27.7-5-53.1-11.8-76.2-19.6v55.1h448H500.9L500.9,557.5z"/>
	<path id="path46_1_" class="st4" d="M473.2,557.5c-18.9-26-46.5-73.8-120-63C201.6,516.8,233.4,553.6,73,529.2
		c-26.1-4-50-9.3-71.9-15.5v43.8h422.6H473.2L473.2,557.5z"/>
	<path id="path48_1_" class="st3" d="M1,322.7c0,0,29.6,24.8,79.4,24.8s60.8-31,100.4-31c39.7,0,69.6,34.7,69.6,93.6
		s-33.6,93.6-89.8,93.6s-48.3-59.6-102.3-59.6c-40.6,0-57.3,41-57.3,41L1,322.7z"/>
	<path id="path50_1_" class="st4" d="M1,272.4c0,0,26.1,54.7,87.3,31.1c61.2-23.6,112.1-46,156.7-13.7s12.5,93.9-27,93.9
		s-47-40.7-84.2-40.7S0.9,413.7,0.9,413.7L1,272.4L1,272.4z"/>
	<path id="path52_1_" class="st5" d="M93.8,461.5c-40.1-28.6-70.4-60.1-93.2-89.8v185.9h400.7C303.4,494,217.7,550,93.8,461.5z"/>
	<path id="path54_1_" class="st6" d="M434.7,532.3c-92.4-50.5-175.7-3.5-293.9-87.9C61.6,387.9,20.4,320.3,0.6,277.1v281.6h434.1
		L434.7,532.3L434.7,532.3z"/>
	<path id="path244_1_" class="st4" d="M126.9,470.2C63,424.6,23.9,371.8,0.8,330.3v227.7h420C328.4,507.7,245.1,554.7,126.9,470.2z"
		/>
	<g id="g250_1_" transform="matrix(0.71652828,0,0,0.71652828,0.46454632,46.104668)">
		<path id="path246_1_" class="st3" d="M115.6,654.7l-58.8-43.6c-6.8-5.1-8.2-14.7-3.2-21.5l0,0c5.1-6.8,14.7-8.2,21.5-3.2
			l58.8,43.6c6.8,5.1,8.2,14.7,3.2,21.5l0,0C132.1,658.3,122.5,659.8,115.6,654.7z"/>
		<path id="path248_1_" class="st3" d="M129.5,600.3l-43.6,58.9c-5.1,6.8-14.7,8.2-21.5,3.2l0,0c-6.8-5.1-8.2-14.7-3.2-21.5
			l43.6-58.9c5.1-6.8,14.7-8.2,21.5-3.2l0,0C133.1,583.8,134.6,593.4,129.5,600.3L129.5,600.3z"/>
	</g>
	<g id="g256_1_" transform="matrix(0.71652828,0,0,0.71652828,0.46454632,46.104668)">
		<path id="path252_1_" class="st3" d="M505.2,536.9l12.6-44.5c1.5-5.2,6.8-8.2,12-6.7l0,0c5.2,1.5,8.2,6.8,6.7,12L524,542.2
			c-1.5,5.2-6.8,8.2-12,6.7l0,0C506.8,547.4,503.8,542.1,505.2,536.9z"/>
		<path id="path254_1_" class="st3" d="M540.6,532.9L496,520.3c-5.2-1.5-8.2-6.8-6.7-12l0,0c1.5-5.2,6.8-8.2,12-6.7l44.5,12.6
			c5.2,1.5,8.2,6.8,6.7,12l0,0C551.1,531.4,545.7,534.4,540.6,532.9L540.6,532.9z"/>
	</g>
	<polygon id="polygon258_1_" class="st7" points="223.4,337.3 178.5,348.6 191.2,304 	"/>
	<polygon id="polygon260_1_" class="st7" points="375,326.3 373.6,357.1 347.7,340.5 	"/>
	<path id="path262_1_" class="st2" d="M726.5,557.4c0,0-33-19.9-33-53.2s41.2-40.8,41.2-67.3c0-26.6-46.1-46.7-124.5-46.7
		c-78.3,0-124.5,22.5-124.5,60.2s79.1,32.4,79.1,68.6c0,27.2-54.4,38.4-54.4,38.4L726.5,557.4L726.5,557.4z"/>
	<g id="g278_1_" transform="matrix(0.71652828,0,0,0.71652828,0.46454632,46.633835)">
		<path id="path264_1_" class="st3" d="M426.1,715c27.9-45.7,68.8-129.7,177.6-110.7c224.3,39.2,177.2,103.8,414.5,61
			c38.6-6.9,74-16.4,106.3-27.3V715H499.2H426.1L426.1,715z"/>
		<path id="path266_1_" class="st4" d="M464.8,715c26.3-36.3,64.9-103.1,167.5-88c211.6,31.2,167.2,82.5,391,48.5
			c36.4-5.5,69.8-13,100.2-21.7V715H533.7H464.8z"/>
		<path id="path268_1_" class="st3" d="M875.3,714c0,0-34.6-19.6-34.6-52.7c0-33.1,43.3-40.3,43.3-66.7s-48.5-46.1-130.7-46.1
			s-130.7,22.3-130.7,59.6s83.1,32,83.1,67.9c0,26.9-57.1,38-57.1,38H875.3z"/>
		<path id="path270_1_" class="st3" d="M1081.2,714.9c0,0-76.4-36.4-43.4-121.8c33-85.5,64.2-156.4,19.1-218.6
			c-45.1-62.3-131.1-17.4-131.1,37.7s56.8,65.6,56.8,117.5S884,715,884,715L1081.2,714.9L1081.2,714.9z"/>
		<path id="path272_1_" class="st8" d="M994.3,581c55.9-40,157.9-28.6,261.1,134l0,0H565.1C701.9,626.4,821.3,704.6,994.3,581
			L994.3,581z"/>
		<path id="path274_1_" class="st4" d="M518.6,678.3c129-70.4,157.1-10.8,322.1-128.6c110.5-78.9,225.6-7.5,283.8,165.3l0,0H518.6
			V678.3z"/>
		<path id="path276_1_" class="st3" d="M844.8,603c89.1-63.7,184.4,18.8,279.4,111.3l0,0H538C666.9,644,679.9,720.7,844.8,603z"/>
	</g>
	<g id="g596_1_" transform="matrix(0.71652828,0,0,0.71652828,0.46454632,46.104668)">
		<path id="path592_1_" class="st3" d="M1153.6,636.7l58.9-43.6c6.8-5.1,8.2-14.7,3.2-21.5l0,0c-5.1-6.8-14.7-8.2-21.5-3.2
			l-58.9,43.6c-6.8,5.1-8.2,14.7-3.2,21.5l0,0C1137.1,640.3,1146.8,641.7,1153.6,636.7z"/>
		<path id="path594_1_" class="st3" d="M1139.7,582.2l43.6,58.9c5.1,6.8,14.7,8.2,21.5,3.2l0,0c6.8-5.1,8.2-14.7,3.2-21.5
			l-43.5-58.9c-5.1-6.8-14.7-8.2-21.5-3.2l0,0C1136.1,565.8,1134.6,575.4,1139.7,582.2L1139.7,582.2z"/>
	</g>
	<g id="g602_1_" transform="matrix(0.71652828,0,0,0.71652828,0.46454632,46.104668)">
		<path id="path598_1_" class="st3" d="M826.7,321.3l-12.6-44.5c-1.5-5.2-6.8-8.2-12-6.7l0,0c-5.2,1.5-8.2,6.8-6.7,12l12.6,44.5
			c1.5,5.2,6.8,8.2,12,6.7l0,0C825.2,331.9,828.2,326.5,826.7,321.3z"/>
		<path id="path600_1_" class="st3" d="M791.5,317.4l44.5-12.6c5.2-1.5,8.2-6.8,6.7-12l0,0c-1.5-5.2-6.8-8.2-12-6.7l-44.5,12.6
			c-5.2,1.5-8.2,6.8-6.7,12l0,0C780.9,315.9,786.3,318.9,791.5,317.4z"/>
	</g>
	<polygon id="polygon604_1_" class="st7" points="746.1,233.8 791,245.1 778.3,200.6 	"/>
	<polygon id="polygon606_1_" class="st7" points="509.2,277.2 510.6,307.9 536.5,291.4 	"/>
</g>
<g id="layer1_2_" transform="translate(0,-58.874983)" class="st1">
	<path id="path42_2_" class="st2" d="M899.3,313.4c0,0-45.3-33-121.4-33s-93,41.2-153.7,41.2c-60.6,0-106.4-46.1-106.4-124.5
		S569.2,72.6,655.2,72.6s73.9,79.2,156.5,79.2c62,0,87.6-54.4,87.6-54.4L899.3,313.4z"/>
	<path id="path44_2_" class="st3" d="M399.3,59c20,32.7,49.3,92.9,127.2,79.3c160.7-28.1,127-74.4,297-43.7
		c27.7,5,53.1,11.8,76.2,19.6V59h-448L399.3,59L399.3,59z"/>
	<path id="path46_2_" class="st4" d="M427.1,59c18.9,26,46.5,73.8,120,63c151.6-22.3,119.8-59.1,280.2-34.8c26.1,4,50,9.3,71.9,15.5
		V59H476.6L427.1,59L427.1,59z"/>
	<path id="path48_2_" class="st3" d="M899.3,293.8c0,0-29.6-24.8-79.4-24.8s-60.8,31-100.4,31c-39.7,0-69.6-34.7-69.6-93.6
		s33.6-93.6,89.8-93.6c56.2,0,48.3,59.6,102.3,59.6c40.6,0,57.3-41,57.3-41L899.3,293.8z"/>
	<path id="path50_2_" class="st4" d="M899.3,344.1c0,0-26.1-54.7-87.3-31.1c-61.2,23.6-112.1,46-156.7,13.7
		c-44.6-32.4-12.5-93.9,27-93.9c39.4,0,47,40.7,84.2,40.7c37.2,0,132.8-70.7,132.8-70.7L899.3,344.1L899.3,344.1z"/>
	<path id="path52_2_" class="st5" d="M806.5,155c40.1,28.6,70.4,60.1,93.2,89.8V59H499C596.9,122.5,682.6,66.5,806.5,155z"/>
	<path id="path54_2_" class="st6" d="M465.6,84.2c92.4,50.5,175.7,3.5,293.9,87.9c79.2,56.6,120.4,124.1,140.2,167.3V57.9H465.6
		L465.6,84.2L465.6,84.2z"/>
	<path id="path244_2_" class="st4" d="M773.4,146.3c63.9,45.6,103,98.5,126.2,139.9V58.4h-420C571.9,108.8,655.2,61.8,773.4,146.3z"
		/>
	<g id="g250_2_" transform="matrix(0.71652828,0,0,0.71652828,0.46454632,46.104668)">
		<path id="path246_2_" class="st3" d="M1139.6,77l58.8,43.6c6.8,5.1,8.2,14.7,3.2,21.5l0,0c-5.1,6.8-14.7,8.2-21.5,3.2l-58.8-43.6
			c-6.8-5.1-8.2-14.7-3.2-21.5l0,0C1123.1,73.4,1132.7,71.9,1139.6,77z"/>
		<path id="path248_2_" class="st3" d="M1125.6,131.5l43.6-58.9c5.1-6.8,14.7-8.2,21.5-3.2l0,0c6.8,5.1,8.2,14.7,3.2,21.5
			l-43.6,58.9c-5.1,6.8-14.7,8.2-21.5,3.2l0,0C1122.1,147.9,1120.6,138.3,1125.6,131.5L1125.6,131.5z"/>
	</g>
	<g id="g256_2_" transform="matrix(0.71652828,0,0,0.71652828,0.46454632,46.104668)">
		<path id="path252_2_" class="st3" d="M749.9,194.8l-12.6,44.5c-1.5,5.2-6.8,8.2-12,6.7l0,0c-5.2-1.5-8.2-6.8-6.7-12l12.6-44.5
			c1.5-5.2,6.8-8.2,12-6.7l0,0C748.4,184.3,751.4,189.6,749.9,194.8z"/>
		<path id="path254_2_" class="st3" d="M714.6,198.8l44.5,12.6c5.2,1.5,8.2,6.8,6.7,12l0,0c-1.5,5.2-6.8,8.2-12,6.7l-44.5-12.6
			c-5.2-1.5-8.2-6.8-6.7-12l0,0C704.1,200.3,709.5,197.3,714.6,198.8L714.6,198.8z"/>
	</g>
	<polygon id="polygon258_2_" class="st7" points="676.9,279.2 721.8,267.9 709.1,312.5 	"/>
	<polygon id="polygon260_2_" class="st7" points="525.3,290.2 526.7,259.4 552.6,276 	"/>
	<path id="path262_2_" class="st2" d="M173.8,59c0,0,33,19.9,33,53.2s-41.2,40.8-41.2,67.3c0,26.6,46.1,46.7,124.5,46.7
		c78.3,0,124.5-22.5,124.5-60.2s-79.1-32.4-79.1-68.6c0-27.2,54.4-38.4,54.4-38.4L173.8,59L173.8,59z"/>
	<g id="g278_2_" transform="matrix(0.71652828,0,0,0.71652828,0.46454632,46.633835)">
		<path id="path264_2_" class="st3" d="M829.1,15.3c-27.9,45.7-68.8,129.7-177.6,110.7c-224.3-39.2-177.2-103.8-414.5-61
			c-38.6,6.9-74,16.4-106.3,27.3V15.3H756H829.1L829.1,15.3z"/>
		<path id="path266_2_" class="st4" d="M790.4,15.3c-26.3,36.3-64.9,103.1-167.5,88c-211.6-31.2-167.2-82.5-391-48.5
			c-36.4,5.5-69.8,13-100.2,21.7V15.3h589.8H790.4z"/>
		<path id="path268_2_" class="st3" d="M379.9,16.2c0,0,34.6,19.6,34.6,52.7s-43.3,40.3-43.3,66.7s48.5,46.1,130.7,46.1
			s130.7-22.3,130.7-59.6s-83.1-32-83.1-67.9c0-26.9,57.1-38,57.1-38H379.9z"/>
		<path id="path270_2_" class="st3" d="M174,15.3c0,0,76.4,36.4,43.4,121.8c-33,85.5-64.2,156.4-19.1,218.6
			c45.1,62.3,131.1,17.4,131.1-37.7s-56.8-65.6-56.8-117.5s98.7-185.4,98.7-185.4L174,15.3L174,15.3z"/>
		<path id="path272_2_" class="st8" d="M260.8,149.2c-55.9,40-157.9,28.6-261.1-134l0,0H690C553.3,103.8,433.8,25.7,260.8,149.2
			L260.8,149.2z"/>
		<path id="path274_2_" class="st4" d="M736.6,52c-129,70.4-157.1,10.8-322.1,128.6C304.1,259.4,189,188,130.7,15.3l0,0h605.9V52z"
			/>
		<path id="path276_2_" class="st3" d="M410.4,127.3C321.3,190.9,226,108.4,131,16l0,0h586.2C588.3,86.3,575.3,9.5,410.4,127.3z"/>
	</g>
	<g id="g596_2_" transform="matrix(0.71652828,0,0,0.71652828,0.46454632,46.104668)">
		<path id="path592_2_" class="st3" d="M101.6,95l-58.9,43.6c-6.8,5.1-8.2,14.7-3.2,21.5l0,0c5.1,6.8,14.7,8.2,21.5,3.2l58.9-43.6
			c6.8-5.1,8.2-14.7,3.2-21.5l0,0C118,91.4,108.4,90,101.6,95z"/>
		<path id="path594_2_" class="st3" d="M115.5,149.5L71.9,90.6c-5.1-6.8-14.7-8.2-21.5-3.2l0,0c-6.8,5.1-8.2,14.7-3.2,21.5
			l43.5,58.9c5.1,6.8,14.7,8.2,21.5,3.2l0,0C119.1,165.9,120.5,156.3,115.5,149.5L115.5,149.5z"/>
	</g>
	<g id="g602_2_" transform="matrix(0.71652828,0,0,0.71652828,0.46454632,46.104668)">
		<path id="path598_2_" class="st3" d="M428.4,410.4l12.6,44.5c1.5,5.2,6.8,8.2,12,6.7l0,0c5.2-1.5,8.2-6.8,6.7-12l-12.6-44.5
			c-1.5-5.2-6.8-8.2-12-6.7l0,0C430,399.8,427,405.2,428.4,410.4z"/>
		<path id="path600_2_" class="st3" d="M463.7,414.3l-44.5,12.6c-5.2,1.5-8.2,6.8-6.7,12l0,0c1.5,5.2,6.8,8.2,12,6.7L469,433
			c5.2-1.5,8.2-6.8,6.7-12l0,0C474.3,415.9,468.9,412.8,463.7,414.3z"/>
	</g>
	<polygon id="polygon604_2_" class="st7" points="154.2,382.7 109.3,371.4 121.9,415.9 	"/>
	<polygon id="polygon606_2_" class="st7" points="391.1,339.3 389.7,308.6 363.8,325.1 	"/>
</g>
<g>
	<g>
		
			<rect x="205.5" y="329.2" transform="matrix(-1.836970e-16 1 -1 -1.836970e-16 647.1128 24.8483)" class="st9" width="211.3" height="13.5"/>
	</g>
	<g>
		
			<rect x="284.7" y="437.5" transform="matrix(-1 -1.224647e-16 1.224647e-16 -1 622.2643 879.1484)" class="st9" width="52.8" height="4.1"/>
	</g>
	<g>
		<path class="st9" d="M176.1,178.6c-0.2,0-0.5-0.1-0.6-0.4l-13.8-25.6c-0.2-0.3-0.1-0.7,0.3-0.9c0.3-0.2,0.7-0.1,0.9,0.3l13.8,25.6
			c0.2,0.3,0.1,0.7-0.3,0.9C176.3,178.5,176.2,178.6,176.1,178.6z"/>
	</g>
	<g>
		<g>
			
				<rect x="104.3" y="296.1" transform="matrix(-1 -1.224647e-16 1.224647e-16 -1 271.0187 605.444)" class="st9" width="62.5" height="13.2"/>
		</g>
		<g>
			<g>
				<polygon class="st9" points="109.2,304.7 96.5,441.6 101,441.6 117.7,305.4 				"/>
			</g>
			<g>
				<polygon class="st9" points="161.8,304.7 174.5,441.6 170,441.6 153.3,305.4 				"/>
			</g>
		</g>
		<g>
			<rect x="103.5" y="399" class="st9" width="64" height="5.8"/>
		</g>
	</g>
	<g>
		<polygon class="st10" points="293.2,223.9 294.8,220.4 334.6,220.4 367.6,138.6 372.7,140.4 340.1,223.9 		"/>
	</g>
	<g>
		<g>
			<path class="st4" d="M185.2,247c0,0,97.2,36,101,40.9c3.8,4.9-16.5,86.4-19.8,93c-3.3,6.6-3.6,25.1-4.8,30.2
				c-1.2,5.1-5.6,8.5-5.6,8.5l-24.1-5.5l17.6-96.9c0,0-111.3-17-120.3-21.2c-13.7-6.4-7.8-36-7.8-36l54.6-17.2L185.2,247z"/>
		</g>
		<g>
			<g>
				<path class="st10" d="M195.3,63.3c2.1,15.4-1.5,44.9-5.6,49.1c-4.2,4.3-15.3-1.3-15.3-1.3l-5.1,25.7l-22.1-7.7l11.5-71.7
					L195.3,63.3z"/>
			</g>
			<g>
				<path class="st11" d="M173.8,114.2l0.6-3.2c-6.2-2.4-12.3-5.5-12.3-5.5S166.6,109.8,173.8,114.2z"/>
			</g>
		</g>
		<g>
			<path class="st10" d="M168.6,117.6c25.2,14.8,25.2,133.3,25.2,133.3s-20.1-5.1-41,11.2c-19.5,15.1-43.3,12.3-43.3,12.3
				S123.4,91.1,168.6,117.6z"/>
		</g>
		<g>
			<path class="st4" d="M286.2,287.8c5.6,3,5,80.7,9.5,85.8c4.5,5.1,1.9,9.4,0.7,15.7c-1.2,6.3,7.1,21.8,1.3,26.4l-23.9,1
				l-10.2-76.6L286.2,287.8z"/>
		</g>
		<g>
			<path class="st9" d="M273.8,416.7l3.7,24.9H320c-4.8-6.5-19.6-10.6-19.6-10.6l-2.7-15.3L273.8,416.7z"/>
		</g>
		<g>
			<path class="st9" d="M231.9,414.1l-5.9,27.6h43.9c0,0-0.7-8.4-17.3-9.6l3.4-12.5L231.9,414.1z"/>
		</g>
		<g>
			<path class="st9" d="M271.1,368.9c0,0-0.1,0-0.1,0c-0.4-0.1-0.6-0.4-0.5-0.8c4.2-19.5,15.1-70.6,15.1-72.7c0-0.4,0.3-0.7,0.7-0.7
				l0,0c0.4,0,0.7,0.3,0.7,0.7c0,2.5-13.6,65.8-15.1,73C271.7,368.7,271.4,368.9,271.1,368.9z"/>
		</g>
		<g>
			<path class="st9" d="M252.6,432.7c-0.2,0-0.4-0.1-0.5-0.2c-0.2-0.2-0.3-0.6-0.1-0.8c1.1-1.7,6.5-9.9,9.4-10.1
				c0.6-0.1,1,0.2,1.3,0.6c0.3,0.4,0.4,0.9,0.3,1.5c-0.6,3.2-9.1,8.4-10.1,8.9C252.8,432.6,252.7,432.7,252.6,432.7z M261.4,422.9
				C261.4,422.9,261.4,422.9,261.4,422.9c-1.3,0.1-4.1,3.4-6.5,6.7c3.1-2.1,6.4-4.8,6.7-6.3c0-0.2,0-0.3-0.1-0.4
				C261.5,422.9,261.5,422.9,261.4,422.9z"/>
		</g>
		<g>
			<path class="st9" d="M300.4,431.7c0,0-0.1,0-0.1,0c-0.3-0.1-0.5-0.3-0.5-0.6c-0.1-1.3-0.4-13.2,2.5-15.7c0.5-0.4,1.1-0.6,1.8-0.5
				c0.7,0.1,1.2,0.5,1.5,1.1c1.6,3.4-3.8,14.2-4.5,15.4C300.9,431.5,300.7,431.7,300.4,431.7z M303.6,416.1c-0.2,0-0.3,0.1-0.5,0.2
				c-1.5,1.3-2,7.1-2,11.8c2-4.3,4-9.9,3.2-11.6c-0.1-0.2-0.3-0.3-0.5-0.4C303.7,416.1,303.7,416.1,303.6,416.1z"/>
		</g>
		<g>
			<path class="st9" d="M300.4,431.7c-0.2,0-0.4-0.1-0.5-0.3c-0.2-0.2-0.2-0.6,0-0.8c1.4-1.8,8.5-10.4,12-8.3
				c0.8,0.4,0.8,1.1,0.8,1.4c-0.2,2.6-9.2,6.7-12,7.9C300.6,431.7,300.5,431.7,300.4,431.7z M310.6,423.3c-1.8,0-5,2.8-7.7,5.8
				c4.8-2.3,8.6-4.7,8.4-5.5l0,0c0,0,0,0-0.1-0.1C311,423.4,310.8,423.3,310.6,423.3z"/>
		</g>
		<g>
			<path class="st9" d="M210.4,58c-1.3-1.8-3.3-3.1-5.5-3.2c-3.9-0.2-8.1,2.6-8.1,2.6c-7.6-3.2-15.2-6.5-22.8-9.7
				c-5.9-2.5-12.9-5.5-19.1-1.7c-3.1,1.9-5,6-3.5,9.3c-3.1,0.8-6.8,4.6-7.7,7.7c-1,3.1-0.8,6.4-0.3,9.6c1.4,9.3,4.6,19.2,8,29.9
				c0,0,6-5.4,8.1-7.6c2.1-2.2,9.7-3.3,9.7-3.3c-2.1-1.7-4.3-3.5-5.5-6c-1.2-2.4-1.3-5.7,0.5-7.7c1.8-1.9,4.9-2.1,7.3-1.1
				c2.4,1,4.3,2.9,6,4.9c2.6,2.9,1.1,5.2,1.6,9.1c2.5-3.7,3.8-7.8,3.6-12.2c7.5,0.4,14.9-2.8,21.2-6.9c2.4-1.5,4.8-3.3,6.3-5.8
				C211.8,63.7,212.1,60.3,210.4,58z"/>
		</g>
	</g>
	<g>
		<path class="st10" d="M168.6,117.7c9.7,2.3,29,35.1,39.3,53.5L175,184.4C175,184.4,141.7,111.3,168.6,117.7z"/>
	</g>
	<g>
		<path class="st10" d="M293,215.8c-2.8-0.2-20.4,4.6-20.4,4.6l-47-12.9l-22.7-34.3l-23.6,9.5l31.3,41.2h92.7
			C303.3,223.9,295.8,216,293,215.8z"/>
	</g>
	<g>
		
			<rect x="205.6" y="223.6" transform="matrix(-1 -1.224647e-16 1.224647e-16 -1 622.2645 460.6468)" class="st9" width="211.1" height="13.5"/>
	</g>
	<g>
		<path class="st9" d="M172.2,182.3c-0.2,0-0.5-0.1-0.6-0.4c-0.8-1.6-20.4-39.7-22.3-46.4c-1.9-7,5.9-13.1,6.2-13.3
			c0.3-0.2,0.7-0.2,1,0.1c0.2,0.3,0.2,0.7-0.1,1c-0.1,0.1-7.4,5.8-5.7,11.9c1.8,6.5,22,45.7,22.2,46.1c0.2,0.3,0,0.7-0.3,0.9
			C172.4,182.3,172.3,182.3,172.2,182.3z"/>
	</g>
	<g>
		<path class="st9" d="M175,185.1c-0.3,0-0.5-0.2-0.6-0.4c-0.1-0.4,0-0.7,0.4-0.9l24.1-9.7c0.4-0.1,0.8,0,0.9,0.4
			c0.1,0.4,0,0.7-0.4,0.9l-24.1,9.7C175.2,185.1,175.1,185.1,175,185.1z"/>
	</g>
	<g>
		<path class="st9" d="M210.6,224.6c-0.2,0-0.4-0.1-0.5-0.3l-31.3-41.2c-0.2-0.3-0.2-0.7,0.1-1c0.3-0.2,0.7-0.2,1,0.1l31.3,41.2
			c0.2,0.3,0.2,0.7-0.1,1C210.9,224.5,210.7,224.6,210.6,224.6z"/>
	</g>
</g>
<g>
	<path class="st12" d="M520,303.8c-3.4,0-6.6-0.3-9.8-0.8c-3.1-0.5-6.1-1.3-8.8-2.3c-2.7-1.1-5.2-2.4-7.5-4.1
		c-2.2-1.7-4.2-3.7-5.8-6c-1.6-2.3-2.9-5-3.7-8.1c-0.9-3.1-1.3-6.5-1.3-10.3c0-2.7,0.1-5.2,0.4-7.7c0.3-2.5,0.6-5,1.2-7.5
		c0.5-2.5,1.2-5.1,2.1-7.7c0.9-2.6,1.9-5.5,3.1-8.5l14.7,6.1c-1,2.3-2,4.6-2.7,6.9c-0.8,2.3-1.4,4.5-1.9,6.7
		c-0.5,2.2-0.9,4.2-1.1,6.2c-0.3,2-0.4,3.8-0.4,5.5c0,2,0.3,3.7,1,5.1c0.7,1.5,1.6,2.7,2.7,3.7c1.1,1,2.4,1.9,3.9,2.5
		c1.5,0.7,3,1.2,4.6,1.5c1.6,0.4,3.2,0.6,4.8,0.8c1.6,0.1,3.2,0.2,4.6,0.2c0.7,0,1.7,0,3-0.1c1.3-0.1,2.8-0.2,4.5-0.4
		c1.6-0.2,3.3-0.5,5.1-0.8c1.8-0.3,3.4-0.7,4.9-1.1c1.5-0.4,2.8-1,3.9-1.5c1.1-0.6,1.8-1.2,2.1-2c-2.1-1.4-5.2-2.7-9.3-3.8
		c-4.1-1.1-8.9-2-14.4-2.7l2.3-16.9h38.1v17.6h-5.5c0.4,0.7,0.7,1.6,1,2.5c0.2,0.9,0.3,1.7,0.3,2.4c0,2.9-0.6,5.4-1.7,7.8
		c-1.2,2.3-2.7,4.4-4.6,6.2c-1.9,1.8-4.1,3.4-6.6,4.7c-2.5,1.3-5.1,2.4-7.7,3.2c-2.7,0.8-5.3,1.5-8,1.9
		C524.6,303.6,522.2,303.8,520,303.8z"/>
	<path class="st12" d="M559.9,256.8c0.5,0,1.3,0,2.5,0c1.1,0,2.4,0,3.9,0c1.5,0,3-0.1,4.7-0.1c1.7,0,3.3-0.1,4.9-0.2
		c1.6-0.1,3-0.2,4.4-0.3s2.4-0.3,3.3-0.5c-3.4-0.1-6.5-0.4-9.3-0.9c-2.9-0.5-5.3-1.4-7.4-2.6c-2.1-1.2-3.7-2.8-4.9-4.8
		c-1.2-2-1.8-4.5-1.8-7.5c0-1.8,0.2-3.5,0.5-5.4c0.4-1.8,0.9-3.6,1.6-5.4c0.7-1.7,1.6-3.4,2.6-4.9c1-1.5,2.2-2.9,3.6-4.1
		c1.3-1.2,2.8-2.1,4.5-2.8c1.6-0.7,3.4-1,5.4-1c2.3,0,4.5,0.5,6.4,1.4c2,0.9,3.8,2.1,5.4,3.7c1.6,1.6,3.1,3.4,4.3,5.4
		c1.2,2,2.3,4.2,3.1,6.5c0.8,2.3,1.5,4.7,1.9,7.1c0.4,2.4,0.7,4.8,0.7,7c0,4.2-0.5,7.8-1.5,10.7c-1,3-2.4,5.4-4.2,7.4
		c-1.8,2-3.9,3.6-6.4,4.8c-2.5,1.2-5.2,2.1-8.2,2.7c-3,0.6-6.2,1-9.6,1.2c-3.4,0.2-6.9,0.3-10.4,0.3h-1.6v-17.6H559.9z M578,204.3
		l-8.4,8.4l-8.6-8.6l8.6-8.6l8.5,8.5l8.4-8.4l8.6,8.6l-8.6,8.6L578,204.3z M578.1,231.2c-1-0.1-1.8,0.1-2.5,0.5
		c-0.7,0.4-1.4,1-1.9,1.7c-0.5,0.7-0.9,1.5-1.2,2.3c-0.3,0.8-0.4,1.6-0.4,2.3c0,0.3,0.3,0.7,0.8,1c0.5,0.3,1.2,0.7,2,1
		c0.8,0.3,1.7,0.6,2.8,0.8c1,0.3,2,0.4,3.1,0.6c1,0.1,2,0.2,2.9,0.2c0.9,0,1.7-0.1,2.3-0.3c-0.3-1-0.7-2.1-1.2-3.3
		c-0.5-1.2-1.1-2.2-1.8-3.2c-0.7-1-1.4-1.8-2.2-2.5C579.8,231.6,579,231.3,578.1,231.2z"/>
	<path class="st12" d="M602.1,288.6c3.7-0.8,7-1.7,10.2-2.7c3.1-1,5.9-2.2,8.4-3.4c2.5-1.2,4.6-2.5,6.4-3.9c1.8-1.4,3.1-2.8,4.1-4.2
		c-0.4,0-0.9,0-1.5,0c-0.5,0-1.1,0-1.6-0.1c-0.5,0-1-0.1-1.5-0.1c-0.5,0-0.8,0-1.1-0.1c-3.2-0.3-6.1-0.9-8.6-1.8
		c-2.6-1-4.8-2.3-6.6-3.9c-1.8-1.7-3.3-3.7-4.3-6.1c-1-2.4-1.5-5.2-1.5-8.3c0-1.9,0.2-3.9,0.7-6c0.5-2,1.2-4.1,2.1-6
		c0.9-2,2-3.8,3.2-5.5c1.2-1.7,2.6-3.2,4.1-4.5c1.5-1.3,3.1-2.3,4.7-3.1c1.7-0.8,3.4-1.1,5.2-1.1c2.1,0,4.2,0.4,6.1,1.2
		c1.9,0.8,3.7,1.9,5.3,3.3c1.6,1.4,3.1,3,4.4,4.9c1.3,1.9,2.5,3.9,3.5,6.1c1,2.2,1.9,4.4,2.5,6.7c0.7,2.3,1.2,4.6,1.6,6.9h2.7v17.6
		h-3.7c-1.2,4.2-3.2,8.1-5.8,11.5c-2.6,3.4-5.7,6.4-9.3,9c-3.6,2.6-7.5,4.8-11.8,6.6c-4.3,1.8-8.8,3.2-13.5,4.2L602.1,288.6z
		 M624,244.6c-0.9,0-1.7,0.3-2.4,0.8c-0.7,0.6-1.4,1.3-1.9,2.1c-0.5,0.8-1,1.8-1.3,2.7c-0.3,1-0.5,1.9-0.5,2.7
		c0,0.6,0.3,1.1,0.8,1.5c0.5,0.4,1.2,0.8,2.1,1c0.9,0.3,1.8,0.5,2.9,0.7c1.1,0.2,2.2,0.3,3.4,0.4c1.1,0.1,2.3,0.1,3.3,0.2
		c1.1,0,2.1,0,2.9,0c-0.1-1.4-0.5-2.8-1-4.2c-0.5-1.5-1.2-2.8-2-3.9c-0.8-1.2-1.8-2.1-2.8-2.9C626.5,244.9,625.3,244.6,624,244.6z"
		/>
	<path class="st12" d="M648.6,256.8h1.5l3.8-0.3c-0.8-1.1-1.4-2.5-1.9-4.1c-0.5-1.6-0.8-3.3-0.8-5.1c-0.1-1.9,0.1-3.8,0.6-5.7
		c0.5-1.9,1.2-3.8,2.1-5.5c0.9-1.8,2-3.4,3.3-4.9c1.3-1.5,2.7-2.8,4.3-3.9c1.6-1.1,3.3-2,5.1-2.6c1.8-0.6,3.7-0.9,5.7-0.8
		c1.9,0.1,3.7,0.5,5.4,1.1c1.7,0.6,3.3,1.5,4.8,2.5c1.5,1,2.8,2.3,4,3.7c1.2,1.4,2.2,3,3.1,4.6c0.8,1.6,1.5,3.4,2,5.2
		c0.5,1.8,0.7,3.7,0.7,5.5c0,1.8-0.2,3.5-0.7,5.2c-0.5,1.7-1.1,3.3-1.9,4.9c0.5,0.1,1.2,0.1,2,0.2c0.8,0.1,1.6,0.1,2.4,0.1h0.9v17.6
		h-1.7c-1.9,0-3.8,0-5.6-0.1c-1.8-0.1-3.5-0.3-5.2-0.6c-1.7-0.3-3.4-0.7-5-1.2c-1.6-0.5-3.3-1.2-4.9-2c-1.1,0.7-2.5,1.4-4.2,1.8
		c-1.7,0.5-3.5,0.9-5.5,1.2c-2,0.3-4,0.5-6.2,0.6c-2.1,0.1-4.2,0.2-6.2,0.2h-1.7V256.8z M671.5,211.7l-8.4,8.4l-8.6-8.6l8.6-8.6
		l8.5,8.5l8.4-8.4l8.6,8.6l-8.6,8.6L671.5,211.7z M678.2,247.7c0-1-0.2-2-0.7-2.9c-0.4-0.9-1-1.7-1.6-2.3c-0.7-0.7-1.3-1.3-2-1.7
		c-0.7-0.5-1.3-0.8-1.8-1c-0.6,0.2-1.2,0.5-2,1c-0.8,0.5-1.5,1-2.2,1.7c-0.7,0.7-1.3,1.5-1.8,2.4c-0.5,0.9-0.8,1.8-0.8,2.8
		c0,0.8,0.2,1.6,0.6,2.4c0.4,0.8,1,1.5,1.7,2.2c0.7,0.7,1.4,1.3,2.2,1.8s1.6,1,2.4,1.2c0.7-0.3,1.4-0.7,2.2-1.2
		c0.7-0.5,1.4-1.1,2-1.7c0.6-0.6,1.1-1.4,1.4-2.1C678,249.5,678.2,248.6,678.2,247.7z"/>
	<path class="st12" d="M693.1,256.8h9.4c4.1,0,8.1-0.2,12-0.7c3.9-0.5,7.6-1.1,11.1-1.9s6.8-1.7,10-2.8c3.1-1,6-2.1,8.6-3.3
		c-1.5-0.6-3.2-1.2-5.1-1.8c-1.9-0.7-3.8-1.3-5.7-1.8c-2-0.6-3.9-1.1-5.9-1.4c-2-0.4-3.8-0.6-5.6-0.6c-1.2,0-2.4,0.3-3.7,0.8
		c-1.3,0.5-2.5,1.2-3.6,1.9c-1.1,0.7-2.1,1.4-2.9,2.1c-0.8,0.7-1.3,1.2-1.5,1.6l-12.6-8.1c1.3-2.3,2.8-4.4,4.5-6.4
		c1.7-1.9,3.6-3.6,5.7-5c2.1-1.4,4.3-2.5,6.6-3.3c2.4-0.8,4.8-1.2,7.4-1.2c2.3,0,4.7,0.3,7,0.9c2.4,0.6,4.7,1.4,7.1,2.3
		c2.3,0.9,4.7,2,7,3.1c2.3,1.1,4.7,2.2,7,3.1c2.3,1,4.6,1.8,6.9,2.5c2.3,0.7,4.5,1.1,6.7,1.2l-1.3,16.6c-4.2,2.1-8.2,4.1-11.8,5.9
		c-3.7,1.8-7.2,3.5-10.5,5c-3.3,1.5-6.5,2.8-9.6,3.9c-3.1,1.1-6.1,2.1-9.1,2.8c-3,0.8-6.1,1.3-9.2,1.7c-3.1,0.4-6.3,0.6-9.6,0.6
		h-9.4V256.8z"/>
</g>
</svg>
