<?xml version="1.0" encoding="utf-8"?>
<!-- Generator: Adobe Illustrator 23.0.1, SVG Export Plug-In . SVG Version: 6.00 Build 0)  -->
<svg version="1.1"
	 id="svg2043" inkscape:version="0.92.4 5da689c313, 2019-01-14" sodipodi:docname="RegisterBackTop.svg" xmlns:cc="http://creativecommons.org/ns#" xmlns:dc="http://purl.org/dc/elements/1.1/" xmlns:inkscape="http://www.inkscape.org/namespaces/inkscape" xmlns:rdf="http://www.w3.org/1999/02/22-rdf-syntax-ns#" xmlns:sodipodi="http://sodipodi.sourceforge.net/DTD/sodipodi-0.dtd" xmlns:svg="http://www.w3.org/2000/svg"
	 xmlns="http://www.w3.org/2000/svg" xmlns:xlink="http://www.w3.org/1999/xlink" x="0px" y="0px" viewBox="0 0 1600 663.9"
	 style="enable-background:new 0 0 1600 663.9;" xml:space="preserve">
<style type="text/css">
	.st0{fill:#9CD2C5;}
	.st1{fill:#63C4AF;}
	.st2{fill:#42BC9A;}
	.st3{fill:#4EBE9A;}
	.st4{fill:#41B28F;}
	.st5{fill:none;stroke:#40B28F;stroke-width:11;stroke-miterlimit:10;}
	.st6{fill:none;stroke:#40B28F;stroke-width:5;stroke-miterlimit:10;}
	.st7{fill:none;stroke:#40B28F;stroke-width:3;stroke-miterlimit:10;}
</style>
<sodipodi:namedview  bordercolor="#666666" borderopacity="1.0" id="base" inkscape:current-layer="layer1" inkscape:cx="710" inkscape:cy="442.85714" inkscape:document-units="mm" inkscape:pageopacity="0.0" inkscape:pageshadow="2" inkscape:window-height="694" inkscape:window-maximized="1" inkscape:window-width="1366" inkscape:window-x="0" inkscape:window-y="0" inkscape:zoom="0.35" pagecolor="#ffffff" showgrid="false" units="px">
	</sodipodi:namedview>
<g id="layer1" transform="translate(0,-58.874983)" inkscape:groupmode="layer" inkscape:label="Layer 1">
	<path id="path42" inkscape:connector-curvature="0" class="st0" d="M1.1,273.4c0,0,79.6,58,213.4,58s163.5-72.4,270.1-72.4
		s187.1,81.1,187.1,218.8s-90.4,218.8-241.6,218.8S300.2,557.4,155,557.4c-109,0-154,95.6-154,95.6L1.1,273.4z"/>
	<path id="path44" inkscape:connector-curvature="0" class="st1" d="M879.9,720.6c-35.2-57.5-86.7-163.3-223.6-139.4
		c-282.5,49.4-223.2,130.7-522,76.9C85.6,649.3,41,637.4,0.4,623.7v96.9h787.4L879.9,720.6L879.9,720.6z"/>
	<path id="path46" inkscape:connector-curvature="0" class="st2" d="M831.2,720.6c-33.2-45.7-81.8-129.8-211-110.8
		C353.7,649,409.6,713.7,127.7,670.9c-45.9-7-87.9-16.4-126.3-27.3v77h742.8L831.2,720.6L831.2,720.6z"/>
	<path id="path48" inkscape:connector-curvature="0" class="st1" d="M1.1,307.8c0,0,52.1,43.6,139.5,43.6s106.9-54.5,176.5-54.5
		c69.7,0,122.3,61,122.3,164.6s-59.1,164.6-157.9,164.6s-84.9-104.7-179.8-104.7c-71.3,0-100.7,72-100.7,72L1.1,307.8z"/>
	<path id="path50" inkscape:connector-curvature="0" class="st3" d="M1.1,219.5c0,0,45.8,96.2,153.4,54.7s197-80.9,275.4-24
		s21.9,165.1-47.4,165.1c-69.3,0-82.6-71.6-148-71.6S1,467.9,1,467.9L1.1,219.5L1.1,219.5z"/>
	<path id="path52" inkscape:connector-curvature="0" class="st1" d="M164.2,551.8C93.8,501.5,40.4,446.2,0.4,393.9v326.7h704.4
		C532.6,609,382.1,707.4,164.2,551.8z"/>
	<path id="path54" inkscape:connector-curvature="0" class="st2" d="M763.5,676.3c-162.4-88.7-308.9-6.1-516.6-154.5
		C107.7,422.4,35.3,303.6,0.4,227.7v494.9h763V676.3z"/>
	<path id="path244" inkscape:connector-curvature="0" class="st4" d="M222.5,567.2C110.2,487,41.4,394.1,0.7,321.3v400.3H739
		C576.6,633.1,430.2,715.6,222.5,567.2z"/>
	<g id="g250" transform="matrix(0.71652828,0,0,0.71652828,0.46454632,46.104668)">
		<path id="path246" inkscape:connector-curvature="0" class="st1" d="M202.8,837.6L99.4,760.9c-12-8.9-14.5-25.8-5.6-37.8l0,0
			c8.9-12,25.8-14.5,37.8-5.6L235,794.1c12,8.9,14.5,25.8,5.6,37.8l0,0C231.8,844,214.9,846.5,202.8,837.6z"/>
		<path id="path248" inkscape:connector-curvature="0" class="st1" d="M227.3,741.9l-76.6,103.5c-8.9,12-25.8,14.5-37.8,5.6l0,0
			c-12-8.9-14.5-25.8-5.6-37.8l76.6-103.5c8.9-12,25.8-14.5,37.8-5.6l0,0C233.6,713,236.2,729.9,227.3,741.9L227.3,741.9z"/>
	</g>
	<g id="g256" transform="matrix(0.71652828,0,0,0.71652828,0.46454632,46.104668)">
		<path id="path252" inkscape:connector-curvature="0" class="st1" d="M887.7,630.5l22.2-78.3c2.6-9.1,12-14.4,21.1-11.8l0,0
			c9.1,2.6,14.4,12,11.8,21.1l-22.2,78.3c-2.6,9.1-12,14.4-21.1,11.8l0,0C890.4,649,885.1,639.6,887.7,630.5z"/>
		<path id="path254" inkscape:connector-curvature="0" class="st1" d="M949.8,623.5l-78.3-22.2c-9.1-2.6-14.4-12-11.8-21.1l0,0
			c2.6-9.1,12-14.4,21.1-11.8l78.3,22.2c9.1,2.6,14.4,12,11.8,21.1l0,0C968.3,620.9,958.8,626.2,949.8,623.5L949.8,623.5z"/>
	</g>
	<polygon id="polygon258" class="st5" points="244.8,368.9 165.9,388.8 188.2,310.5 	"/>
	<polygon id="polygon260" class="st5" points="658.5,314.2 656.1,368.3 610.5,339.2 	"/>
	<path id="path262" inkscape:connector-curvature="0" class="st0" d="M1276.4,720.5c0,0-58-34.9-58-93.5
		c0-58.6,72.4-71.7,72.4-118.3c0-46.7-81.1-82-218.8-82c-137.6,0-218.8,39.6-218.8,105.9s139.1,56.9,139.1,120.5
		c0,47.8-95.6,67.5-95.6,67.5L1276.4,720.5L1276.4,720.5z"/>
	<g id="g278" transform="matrix(0.71652828,0,0,0.71652828,0.46454632,46.633835)">
		<path id="path264" inkscape:connector-curvature="0" class="st1" d="M748.6,944.1c49.1-80.3,120.9-227.9,312.1-194.5
			c394.2,68.9,311.5,182.4,728.5,107.3c67.8-12.2,130.1-28.8,186.8-48v135.2H877.1L748.6,944.1L748.6,944.1z"/>
		<path id="path266" inkscape:connector-curvature="0" class="st2" d="M816.6,944.1c46.3-63.8,114.1-181.2,294.4-154.7
			c371.9,54.8,293.9,145,687.3,85.3c64-9.7,122.7-22.9,176.2-38.1v107.5H937.8L816.6,944.1z"/>
		<path id="path268" inkscape:connector-curvature="0" class="st1" d="M1538.1,942.4c0,0-60.9-34.5-60.9-92.6s76.1-70.9,76.1-117.2
			s-85.2-81.1-229.8-81.1s-229.8,39.2-229.8,104.8s146.1,56.3,146.1,119.3c0,47.3-100.4,66.8-100.4,66.8L1538.1,942.4z"/>
		<path id="path270" inkscape:connector-curvature="0" class="st3" d="M1900.1,944c0,0-134.3-64-76.3-214.1
			c58-150.2,112.9-274.9,33.6-384.3c-79.3-109.5-230.4-30.5-230.4,66.2s99.9,115.3,99.9,206.6s-173.5,325.8-173.5,325.8L1900.1,944
			L1900.1,944z"/>
		<path id="path272" inkscape:connector-curvature="0" class="st1" d="M1747.4,708.6c98.3-70.3,277.5-50.2,458.9,235.5l0,0H993
			C1233.3,788.4,1443.3,925.8,1747.4,708.6L1747.4,708.6z"/>
		<path id="path274" inkscape:connector-curvature="0" class="st2" d="M911.1,879.6c226.7-123.7,276.2-18.9,566.1-226
			c194.2-138.7,396.5-13.2,498.9,290.5l0,0H911.1V879.6z"/>
		<path id="path276" inkscape:connector-curvature="0" class="st4" d="M1484.5,747.2c156.7-111.9,324.2,33.1,491.1,195.6l0,0H945.3
			C1171.8,819.3,1194.7,954.2,1484.5,747.2z"/>
	</g>
	<g id="g596" transform="matrix(0.71652828,0,0,0.71652828,0.46454632,46.104668)">
		<path id="path592" inkscape:connector-curvature="0" class="st1" d="M2027.3,805.9l103.5-76.6c12-8.9,14.5-25.8,5.6-37.8l0,0
			c-8.9-12-25.8-14.5-37.8-5.6l-103.5,76.6c-12,8.9-14.5,25.8-5.6,37.8l0,0C1998.4,812.3,2015.4,814.8,2027.3,805.9z"/>
		<path id="path594" inkscape:connector-curvature="0" class="st1" d="M2002.9,710.2l76.6,103.5c8.9,12,25.8,14.5,37.8,5.6l0,0
			c12-8.9,14.5-25.8,5.6-37.8L2046.4,678c-8.9-12-25.8-14.5-37.8-5.6l0,0C1996.6,681.3,1994,698.2,2002.9,710.2L2002.9,710.2z"/>
	</g>
	<g id="g602" transform="matrix(0.71652828,0,0,0.71652828,0.46454632,46.104668)">
		<path id="path598" inkscape:connector-curvature="0" class="st1" d="M1452.8,251.6l-22.2-78.3c-2.6-9.1-12-14.4-21.1-11.8l0,0
			c-9.1,2.6-14.4,12-11.8,21.1l22.2,78.3c2.6,9.1,12,14.4,21.1,11.8l0,0C1450.1,270.2,1455.4,260.7,1452.8,251.6z"/>
		<path id="path600" inkscape:connector-curvature="0" class="st1" d="M1390.8,244.7l78.3-22.2c9.1-2.6,14.4-12,11.8-21.1l0,0
			c-2.6-9.1-12-14.4-21.1-11.8l-78.3,22.2c-9.1,2.6-14.4,12-11.8,21.1l0,0C1372.2,242,1381.7,247.3,1390.8,244.7z"/>
	</g>
	<polygon id="polygon604" class="st6" points="1310.8,151.6 1389.7,171.5 1367.5,93.2 	"/>
	<polygon id="polygon606" class="st7" points="894.4,227.9 896.8,281.9 942.4,252.8 	"/>
</g>
</svg>
