<?xml version="1.0" encoding="utf-8"?>
<!-- Generator: Adobe Illustrator 23.0.1, SVG Export Plug-In . SVG Version: 6.00 Build 0)  -->
<svg version="1.1"
	 id="svg2043" xmlns:cc="http://creativecommons.org/ns#" xmlns:dc="http://purl.org/dc/elements/1.1/" xmlns:inkscape="http://www.inkscape.org/namespaces/inkscape" xmlns:rdf="http://www.w3.org/1999/02/22-rdf-syntax-ns#" xmlns:sodipodi="http://sodipodi.sourceforge.net/DTD/sodipodi-0.dtd" xmlns:svg="http://www.w3.org/2000/svg"
	 xmlns="http://www.w3.org/2000/svg" xmlns:xlink="http://www.w3.org/1999/xlink" x="0px" y="0px" viewBox="0 0 1600 663.9"
	 style="enable-background:new 0 0 1600 663.9;" xml:space="preserve">
<style type="text/css">
	.st0{fill:#9CD2C5;}
	.st1{fill:#63C4AF;}
	.st2{fill:#42BC9A;}
	.st3{fill:#4EBE9A;}
	.st4{fill:#41B28F;}
	.st5{fill:none;stroke:#40B28F;stroke-width:11;stroke-miterlimit:10;}
	.st6{fill:none;stroke:#40B28F;stroke-width:5;stroke-miterlimit:10;}
	.st7{fill:none;stroke:#40B28F;stroke-width:3;stroke-miterlimit:10;}
</style>
<sodipodi:namedview  bordercolor="#666666" borderopacity="1.0" id="base" inkscape:current-layer="layer1" inkscape:cx="710" inkscape:cy="442.85714" inkscape:document-units="mm" inkscape:pageopacity="0.0" inkscape:pageshadow="2" inkscape:window-height="694" inkscape:window-maximized="1" inkscape:window-width="1366" inkscape:window-x="0" inkscape:window-y="0" inkscape:zoom="0.35" pagecolor="#ffffff" showgrid="false" units="px">
	</sodipodi:namedview>
<g id="layer1" transform="translate(0,-58.874983)" inkscape:groupmode="layer" inkscape:label="Layer 1">
	<path id="path42" inkscape:connector-curvature="0" class="st0" d="M1599.3,508.2c0,0-79.6-58-213.4-58s-163.5,72.4-270.1,72.4
		s-187.1-81.1-187.1-218.8S1019.1,85,1170.3,85s129.9,139.2,275.1,139.2c109,0,154-95.6,154-95.6L1599.3,508.2z"/>
	<path id="path44" inkscape:connector-curvature="0" class="st1" d="M720.5,61c35.2,57.5,86.7,163.3,223.6,139.4
		c282.5-49.4,223.2-130.7,522-76.9c48.7,8.8,93.3,20.7,133.9,34.4V61H812.6L720.5,61L720.5,61z"/>
	<path id="path46" inkscape:connector-curvature="0" class="st2" d="M769.2,61c33.2,45.7,81.8,129.8,211,110.8
		c266.5-39.2,210.6-103.9,492.5-61.1c45.9,7,87.9,16.4,126.3,27.3V61H856.2L769.2,61L769.2,61z"/>
	<path id="path48" inkscape:connector-curvature="0" class="st1" d="M1599.3,473.8c0,0-52.1-43.6-139.5-43.6
		c-87.4,0-106.9,54.5-176.5,54.5c-69.7,0-122.3-61-122.3-164.6s59.1-164.6,157.9-164.6c98.8,0,84.9,104.7,179.8,104.7
		c71.3,0,100.7-72,100.7-72L1599.3,473.8z"/>
	<path id="path50" inkscape:connector-curvature="0" class="st3" d="M1599.3,562.1c0,0-45.8-96.2-153.4-54.7s-197,80.9-275.4,24
		c-78.4-56.9-21.9-165.1,47.4-165.1c69.3,0,82.6,71.6,148,71.6s233.5-124.2,233.5-124.2L1599.3,562.1L1599.3,562.1z"/>
	<path id="path52" inkscape:connector-curvature="0" class="st1" d="M1436.2,229.8c70.4,50.3,123.8,105.6,163.8,157.9V61H895.6
		C1067.8,172.6,1218.3,74.2,1436.2,229.8z"/>
	<path id="path54" inkscape:connector-curvature="0" class="st2" d="M836.9,105.3c162.4,88.7,308.9,6.1,516.6,154.5
		c139.2,99.4,211.6,218.2,246.5,294.1V59H837L836.9,105.3L836.9,105.3z"/>
	<path id="path244" inkscape:connector-curvature="0" class="st4" d="M1377.9,214.4c112.3,80.2,181.1,173.1,221.8,245.9V60H861.4
		C1023.8,148.5,1170.2,66,1377.9,214.4z"/>
	<g id="g250" transform="matrix(0.71652828,0,0,0.71652828,0.46454632,46.104668)">
		<path id="path246" inkscape:connector-curvature="0" class="st1" d="M2029.5,124.6l103.4,76.7c12,8.9,14.5,25.8,5.6,37.8l0,0
			c-8.9,12-25.8,14.5-37.8,5.6l-103.4-76.6c-12-8.9-14.5-25.8-5.6-37.8l0,0C2000.5,118.2,2017.4,115.7,2029.5,124.6z"/>
		<path id="path248" inkscape:connector-curvature="0" class="st1" d="M2005,220.3l76.6-103.5c8.9-12,25.8-14.5,37.8-5.6l0,0
			c12,8.9,14.5,25.8,5.6,37.8l-76.6,103.5c-8.9,12-25.8,14.5-37.8,5.6l0,0C1998.7,249.2,1996.1,232.3,2005,220.3L2005,220.3z"/>
	</g>
	<g id="g256" transform="matrix(0.71652828,0,0,0.71652828,0.46454632,46.104668)">
		<path id="path252" inkscape:connector-curvature="0" class="st1" d="M1344.6,331.7l-22.2,78.3c-2.6,9.1-12,14.4-21.1,11.8l0,0
			c-9.1-2.6-14.4-12-11.8-21.1l22.2-78.3c2.6-9.1,12-14.4,21.1-11.8l0,0C1341.9,313.2,1347.2,322.6,1344.6,331.7z"/>
		<path id="path254" inkscape:connector-curvature="0" class="st1" d="M1282.5,338.7l78.3,22.2c9.1,2.6,14.4,12,11.8,21.1l0,0
			c-2.6,9.1-12,14.4-21.1,11.8l-78.3-22.2c-9.1-2.6-14.4-12-11.8-21.1l0,0C1264,341.3,1273.5,336,1282.5,338.7L1282.5,338.7z"/>
	</g>
	<polygon id="polygon258" class="st5" points="1355.6,412.7 1434.5,392.8 1412.2,471.1 	"/>
	<polygon id="polygon260" class="st5" points="941.9,467.4 944.3,413.3 989.9,442.4 	"/>
	<path id="path262" inkscape:connector-curvature="0" class="st0" d="M324,61.1c0,0,58,34.9,58,93.5s-72.4,71.7-72.4,118.3
		c0,46.7,81.1,82,218.8,82c137.6,0,218.8-39.6,218.8-105.9s-139.1-56.9-139.1-120.5c0-47.8,95.6-67.5,95.6-67.5L324,61.1L324,61.1z"
		/>
	<g id="g278" transform="matrix(0.71652828,0,0,0.71652828,0.46454632,46.633835)">
		<path id="path264" inkscape:connector-curvature="0" class="st1" d="M1483.7,16.6c-49.1,80.3-120.9,227.9-312.1,194.5
			C777.4,142.2,860.1,28.7,443.1,103.8c-67.8,12.2-130.1,28.8-186.8,48V16.6h1098.9H1483.7L1483.7,16.6z"/>
		<path id="path266" inkscape:connector-curvature="0" class="st2" d="M1415.7,16.6c-46.3,63.8-114.1,181.2-294.4,154.7
			C749.4,116.5,827.4,26.3,434,86c-64,9.7-122.7,22.9-176.2,38.1V16.6h1036.7H1415.7z"/>
		<path id="path268" inkscape:connector-curvature="0" class="st1" d="M694.2,18.3c0,0,60.9,34.5,60.9,92.6S679,181.8,679,228.1
			s85.2,81.1,229.8,81.1s229.8-39.2,229.8-104.8S992.5,148.1,992.5,85.1c0-47.3,100.4-66.8,100.4-66.8H694.2z"/>
		<path id="path270" inkscape:connector-curvature="0" class="st3" d="M332.2,16.7c0,0,134.3,64,76.3,214.1
			c-58,150.2-112.9,274.9-33.6,384.3c79.3,109.5,230.4,30.5,230.4-66.2s-99.9-115.3-99.9-206.6S678.9,16.5,678.9,16.5L332.2,16.7
			L332.2,16.7z"/>
		<path id="path272" inkscape:connector-curvature="0" class="st1" d="M484.9,252.1C386.6,322.4,207.4,302.3,26,16.6l0,0h1213.3
			C999,172.3,789,34.9,484.9,252.1L484.9,252.1z"/>
		<path id="path274" inkscape:connector-curvature="0" class="st2" d="M1321.2,81.1c-226.7,123.7-276.2,18.9-566.1,226
			C560.9,445.8,358.6,320.3,256.2,16.6l0,0h1065V81.1z"/>
		<path id="path276" inkscape:connector-curvature="0" class="st4" d="M747.8,213.5C591.1,325.4,423.6,180.4,256.7,17.9l0,0H1287
			C1060.5,141.4,1037.6,6.5,747.8,213.5z"/>
	</g>
	<g id="g596" transform="matrix(0.71652828,0,0,0.71652828,0.46454632,46.104668)">
		<path id="path592" inkscape:connector-curvature="0" class="st1" d="M205,156.3l-103.5,76.6c-12,8.9-14.5,25.8-5.6,37.8l0,0
			c8.9,12,25.8,14.5,37.8,5.6l103.5-76.6c12-8.9,14.5-25.8,5.6-37.8l0,0C233.9,149.9,216.9,147.4,205,156.3z"/>
		<path id="path594" inkscape:connector-curvature="0" class="st1" d="M229.4,252l-76.6-103.5c-8.9-12-25.8-14.5-37.8-5.6l0,0
			c-12,8.9-14.5,25.8-5.6,37.8l76.5,103.5c8.9,12,25.8,14.5,37.8,5.6l0,0C235.7,280.9,238.3,264,229.4,252L229.4,252z"/>
	</g>
	<g id="g602" transform="matrix(0.71652828,0,0,0.71652828,0.46454632,46.104668)">
		<path id="path598" inkscape:connector-curvature="0" class="st1" d="M779.5,710.6l22.2,78.3c2.6,9.1,12,14.4,21.1,11.8l0,0
			c9.1-2.6,14.4-12,11.8-21.1l-22.2-78.3c-2.6-9.1-12-14.4-21.1-11.8l0,0C782.2,692,776.9,701.5,779.5,710.6z"/>
		<path id="path600" inkscape:connector-curvature="0" class="st1" d="M841.5,717.5l-78.3,22.2c-9.1,2.6-14.4,12-11.8,21.1l0,0
			c2.6,9.1,12,14.4,21.1,11.8l78.3-22.2c9.1-2.6,14.4-12,11.8-21.1l0,0C860.1,720.2,850.6,714.9,841.5,717.5z"/>
	</g>
	<polygon id="polygon604" class="st6" points="289.6,630 210.7,610.1 232.9,688.4 	"/>
	<polygon id="polygon606" class="st7" points="706,553.7 703.6,499.7 658,528.8 	"/>
</g>
</svg>
