<?xml version="1.0" encoding="utf-8"?>
<!-- Generator: Adobe Illustrator 23.0.1, SVG Export Plug-In . SVG Version: 6.00 Build 0)  -->
<svg version="1.1"
	 id="Layer_1" inkscape:version="0.92.4 5da689c313, 2019-01-14" sodipodi:docname="Register.svg" xmlns:cc="http://creativecommons.org/ns#" xmlns:dc="http://purl.org/dc/elements/1.1/" xmlns:inkscape="http://www.inkscape.org/namespaces/inkscape" xmlns:rdf="http://www.w3.org/1999/02/22-rdf-syntax-ns#" xmlns:sodipodi="http://sodipodi.sourceforge.net/DTD/sodipodi-0.dtd" xmlns:svg="http://www.w3.org/2000/svg"
	 xmlns="http://www.w3.org/2000/svg" xmlns:xlink="http://www.w3.org/1999/xlink" x="0px" y="0px" viewBox="0 0 1480 300"
	 style="enable-background:new 0 0 1480 300;" xml:space="preserve">
<style type="text/css">
	.st0{fill:#42BC9A;}
	.st1{fill:#41B28F;}
	.st2{fill:#63C4AF;}
	.st3{fill:#4EBE9A;}
	.st4{fill:#9CD2C5;}
	.st5{fill:#B42577;}
	.st6{fill:#E2D0E3;}
	.st7{fill:#FBBC95;}
	.st8{fill:#EAE2F0;}
	.st9{fill:#F8A37D;}
	.st10{fill:#8E3C27;}
	.st11{fill:#191919;}
	.st12{fill:#110F10;}
	.st13{fill:#303030;}
	.st14{fill:#BCD0EC;}
	.st15{fill:#3B1B1D;}
	.st16{fill:#732D1E;}
	.st17{fill:#D0DEF2;}
	.st18{fill:#3C1A50;}
	.st19{fill:#4B2668;}
	.st20{fill:#04243E;}
	.st21{fill:#321747;}
	.st22{fill:#D42982;}
	.st23{fill:none;stroke:#40B28F;stroke-width:11;stroke-miterlimit:10;}
	.st24{fill:#B8DFEA;}
	.st25{fill:#069B75;}
	.st26{fill:#48BD9B;}
	.st27{fill:#FFFFFF;}
	.st28{fill:#FEC65C;}
	.st29{fill:#F8981D;}
	.st30{fill:#FFD955;}
	.st31{enable-background:new    ;}
	.st32{fill:#572B7A;}
	.st33{fill:#009E89;}
	.st34{fill:#3F3763;}
	.st35{fill:#8C2063;}
	.st36{fill:#F9B6A6;}
	.st37{fill:#F5928B;}
	.st38{fill:#5F3490;}
	.st39{fill:#545287;}
	.st40{fill:#E9E8E8;}
	.st41{fill:#FED9BA;}
	.st42{fill:none;stroke:#40B28F;stroke-width:5;stroke-miterlimit:10;}
	.st43{fill:none;stroke:#40B28F;stroke-width:3;stroke-miterlimit:10;}
	.st44{opacity:0.38;fill:#D7E6E8;enable-background:new    ;}
	.st45{opacity:0.32;fill:#2E3641;enable-background:new    ;}
	.st46{fill:#D7E6E8;}
	.st47{fill:#546478;}
	.st48{fill:#00A890;}
	.st49{opacity:0.5;fill:#010101;enable-background:new    ;}
	.st50{fill:#BECACD;}
	.st51{fill:#00816C;}
	.st52{fill:#606161;}
	.st53{fill:#FBFCFD;}
	.st54{fill:#B3B3B3;}
	.st55{fill:#A09F9F;}
	.st56{opacity:0.7;fill:#005357;enable-background:new    ;}
	.st57{fill:#5B3277;}
	.st58{fill:#6B418C;}
	.st59{fill:#7D52A1;}
	.st60{fill:#CCCCCB;}
	.st61{fill:#C0C0C0;}
	.st62{fill:#EBEBEB;}
	.st63{fill:#DC4F9C;}
	.st64{fill:#B12070;}
	.st65{opacity:0.37;fill:#FFFFFF;enable-background:new    ;}
	.st66{fill:#2A3238;}
	.st67{opacity:0.5;}
	.st68{fill:#DBDADA;}
	.st69{fill:#DAAA78;}
	.st70{opacity:0.2;fill:#333333;enable-background:new    ;}
	.st71{fill:#FEDDBA;}
	.st72{fill:#EF3E3E;}
	.st73{opacity:0.6;}
	.st74{fill:#54422F;}
	.st75{fill:#F8FAFD;}
	.st76{fill:#F8FAFD;stroke:#54422F;stroke-width:1.2423;stroke-miterlimit:10;}
</style>
<sodipodi:namedview  bordercolor="#666666" borderopacity="1" gridtolerance="10" guidetolerance="10" id="namedview1207" inkscape:current-layer="Layer_1" inkscape:cx="479.44487" inkscape:cy="297.64001" inkscape:pageopacity="0" inkscape:pageshadow="2" inkscape:window-height="694" inkscape:window-maximized="1" inkscape:window-width="1366" inkscape:window-x="0" inkscape:window-y="0" inkscape:zoom="0.35752889" objecttolerance="10" pagecolor="#ffffff" showgrid="false">
	</sodipodi:namedview>
<g id="g8" transform="translate(2,-47.943049)">
	<path id="path4" inkscape:connector-curvature="0" class="st0" d="M282,349.4H0.2V166.7c12.9,28,39.6,71.9,91,108.6
		c76.7,54.8,130.8,24.3,190.8,57V349.4z"/>
	<path id="path6" inkscape:connector-curvature="0" class="st1" d="M82.3,292.1c76.7,54.8,130.8,24.3,190.7,57H0.3V201.3
		C15.4,228.1,40.8,262.4,82.3,292.1L82.3,292.1z"/>
</g>
<g id="g24" transform="translate(2,-47.943049)">
	<path id="path10" inkscape:connector-curvature="0" class="st2" d="M339,349.5h34h290.8v-35.8c-15,5.1-31.5,9.5-49.4,12.7
		c-110.3,19.9-88.5-10.1-192.8-28.4C371,289.2,352,328.3,339,349.5L339,349.5z"/>
	<path id="path12" inkscape:connector-curvature="0" class="st0" d="M389,349.5h274.3v-28.4c-14.2,4-29.7,7.5-46.6,10.1
		c-104.1,15.8-83.5-8.1-181.8-22.6c-47.7-7-65.6,24-77.9,40.9H389z"/>
	<path id="path14" inkscape:connector-curvature="0" class="st2" d="M442.4,349.1c0,0,26.6-5.2,26.6-17.7
		c0-16.7-38.7-14.2-38.7-31.6s22.5-27.7,60.8-27.7s60.8,9.2,60.8,21.5s-20.1,15.6-20.1,31s16.1,24.5,16.1,24.5L442.4,349.1z"/>
	<path id="path16" inkscape:connector-curvature="0" class="st3" d="M402.8,349.5h-91.7c0,0,45.9-62,45.9-86.2s-26.4-29.1-26.4-54.7
		s40-46.5,61-17.5s6.5,61.9-8.9,101.7C367.3,332.6,402.8,349.5,402.8,349.5L402.8,349.5z"/>
	<path id="path18" inkscape:connector-curvature="0" class="st2" d="M603.2,287.2c-80.4,57.5-136,21.1-199.6,62.3h321l0,0
		C676.6,273.9,629.3,268.6,603.2,287.2L603.2,287.2z"/>
	<path id="path20" inkscape:connector-curvature="0" class="st0" d="M382,349.5h281.8l0,0c-27.1-80.3-80.6-113.6-132-76.9
		c-76.7,54.8-89.8,27.1-149.8,59.8V349.5z"/>
	<path id="path22" inkscape:connector-curvature="0" class="st1" d="M533.7,297.4c-76.7,54.8-82.7,19.1-142.7,51.8h272.6l0,0
		C619.5,306.2,575.1,267.8,533.7,297.4L533.7,297.4z"/>
</g>
<g id="g40" transform="translate(2,-47.943049)">
	<path id="path26" inkscape:connector-curvature="0" class="st2" d="M985.3,349.5h-34H660.5v-35.8c15,5.1,31.5,9.5,49.4,12.7
		c110.3,19.9,88.5-10.1,192.8-28.4C953.3,289.2,972.3,328.3,985.3,349.5L985.3,349.5z"/>
	<path id="path28" inkscape:connector-curvature="0" class="st0" d="M935.2,349.5H660.9v-28.4c14.2,4,29.7,7.5,46.6,10.1
		c104.1,15.8,83.5-8.1,181.9-22.6c47.7-7,65.6,24,77.9,40.9H935.2z"/>
	<path id="path30" inkscape:connector-curvature="0" class="st2" d="M881.8,349.1c0,0-26.6-5.2-26.6-17.7
		c0-16.7,38.7-14.2,38.7-31.6s-22.5-27.7-60.8-27.7s-60.8,9.2-60.8,21.5s20.1,15.6,20.1,31s-16.1,24.5-16.1,24.5L881.8,349.1z"/>
	<path id="path32" inkscape:connector-curvature="0" class="st3" d="M680.6,349.5h91.7c0,0-45.9-62-45.9-86.2s26.4-29.1,26.4-54.7
		s-40-46.5-61-17.5s-6.5,61.9,8.9,101.7C716.2,332.6,680.6,349.5,680.6,349.5L680.6,349.5z"/>
	<path id="path34" inkscape:connector-curvature="0" class="st2" d="M920.6,349.5h-321l0,0c48-75.6,95.4-80.9,121.4-62.3
		C801.5,344.7,857,308.3,920.6,349.5z"/>
	<path id="path36" inkscape:connector-curvature="0" class="st0" d="M942.3,349.5H660.5l0,0c27.1-80.3,80.6-113.6,132-76.9
		c76.7,54.8,89.8,27.1,149.8,59.8V349.5z"/>
	<path id="path38" inkscape:connector-curvature="0" class="st1" d="M933.3,349.2H660.6l0,0c44.2-43,88.5-81.4,130-51.8
		C867.3,352.2,873.3,316.5,933.3,349.2z"/>
</g>
<path id="path42" inkscape:connector-curvature="0" class="st4" d="M1480.1,275.7c0,0-16.6-35.3-56.9-35.3
	c-53.6,0-45.7,51.4-101.6,51.4c-55.8,0-89.2-30-89.2-80.8s29.7-80.8,69.1-80.8s50.3,26.8,99.7,26.8c49.4,0,78.8-21.4,78.8-21.4
	V275.7z"/>
<path id="path44" inkscape:connector-curvature="0" class="st2" d="M1155.6,301.4h34h290.8v-35.8c-15,5.1-31.5,9.5-49.4,12.7
	c-110.3,19.9-88.5-10.1-192.8-28.4C1187.6,241.1,1168.6,280.2,1155.6,301.4L1155.6,301.4z"/>
<path id="path46" inkscape:connector-curvature="0" class="st0" d="M1173.6,301.4h32.1h274.3V273c-14.2,4-29.7,7.5-46.6,10.1
	c-104.1,15.8-83.5-8.1-181.8-22.6C1203.8,253.5,1185.8,284.5,1173.6,301.4L1173.6,301.4z"/>
<path id="path48" inkscape:connector-curvature="0" class="st2" d="M1480.1,253.7c0,0-10.8-26.6-37.2-26.6
	c-35,0-29.9,38.6-66.4,38.6s-58.3-22.5-58.3-60.8s19.4-60.8,45.2-60.8c25.7,0,32.9,20.1,65.2,20.1s51.5-16.1,51.5-16.1V253.7z"/>
<path id="path50" inkscape:connector-curvature="0" class="st3" d="M1480.1,116.4v91.7c0,0-62.1-45.9-86.2-45.9
	s-29.1,26.4-54.7,26.4c-25.6,0-46.5-40-17.5-61c28.9-21,61.9-6.5,101.7,8.9S1480.1,116.4,1480.1,116.4L1480.1,116.4z"/>
<path id="path52" inkscape:connector-curvature="0" class="st2" d="M1220.2,301.4h260.1V180.8c-14.8,19.3-34.5,39.7-60.5,58.3
	C1339.4,296.5,1283.8,260.2,1220.2,301.4z"/>
<path id="path54" inkscape:connector-curvature="0" class="st0" d="M1198.6,301.4h281.8V118.7c-12.9,28-39.6,71.9-91,108.6
	c-76.7,54.8-130.8,24.3-190.8,57.1V301.4z"/>
<g id="g242" transform="translate(2,-47.943049)">
	<g id="g138">
		<polygon id="polygon56" class="st5" points="1283.5,237 1271.3,235.1 1267.7,212.4 1279.9,214.2 		"/>
		<path id="path58" inkscape:connector-curvature="0" class="st6" d="M1266.2,205.9c-5.8-6.8-9.7-14.5-9.7-14.5l2.7-2.3
			c0,0,7.1,6.2,9.3,8.5c2.2,2.4,6.5,7.4,3.9,9.2C1269.8,208.8,1266.8,206.6,1266.2,205.9z"/>
		<path id="path60" inkscape:connector-curvature="0" class="st7" d="M1258.6,193c0,0-1.4-1.1-1.9-0.9s-3.5-2.3-3.9-2.5
			c-0.4-0.2-3-1.2-3-1.5c0.1-0.5,2.6,0.4,2.7,0.2c0.2-0.3-3.6-2.3-3.2-2.8c0.3-0.5,3.8,1.9,4,1.7c0.2-0.2-3.3-3.4-2.7-3.8
			c0.5-0.3,3.4,3.1,3.8,2.7c0.2-0.2-2.8-3.4-2.2-3.7c0.4-0.2,4.6,4.5,4.9,4.3s-0.9-2.2-0.7-2.9c0.1-0.6,0.8-0.9,0.8-0.6
			c0,0.4,0.6,2.2,1.3,3.1c0.7,0.8,1.1,3.1,1,3.7c-0.1,0.7,0.8,2.3,0.8,2.3L1258.6,193z"/>
		<polygon id="polygon62" class="st8" points="1258.1,194.3 1256,192 1259.7,188.7 1261.7,191.3 		"/>
		<path id="path64" inkscape:connector-curvature="0" class="st6" d="M1291.2,210c0.2-3.4-2.9-4.7-5.2-5.4
			c-2.3-0.7-15.2-3.1-16.5-2.7c-1.3,0.4-2.1,4.5-1.6,5.3c0.5,0.8,14.8,5.8,17.7,6.1S1291,212.9,1291.2,210L1291.2,210z"/>
		<path id="path66" inkscape:connector-curvature="0" class="st7" d="M1293.3,194.9c0,0-0.6,7.6-0.7,8.2c-0.1,0.5-4.8,2-5.7,3.1
			c-0.4,0.6-0.4,2-0.5,2.9s-1.2,4.1-0.3,8.1c0.1,0.6,0.8,9.9,0.8,12.6c0,2.7-0.7,13.1,0.1,14.4c0.8,1.3,4.9,5.1,5.4,5.1
			c0.5,0,13.2-5,12.5-9.1s-2.6-10.4-1.7-14.6s8-16.7,6.7-19.5c-1.1-2.3-6.9-3.4-8.5-4.7c-0.5-0.4-0.9-9.2-0.9-9.2L1293.3,194.9z"/>
		<path id="path68" inkscape:connector-curvature="0" class="st8" d="M1301.4,201.4c0,0,5.1,2.2,6.6,3c1.5,0.8,2.5,2.1,2.5,4.1
			s-6.3,17.3-6.5,18.2c-0.2,0.9,1.8,9.6,0.8,10.5c-0.2,0.2-6,0.2-11.1,0.5c-4.4,0.2-6.8,0.4-7,0.1c-1.1-1.8,0-7.4-0.3-10.4
			c-0.3-3.5-0.3-6.2-0.5-8.3c-0.4-3.5-0.3-7.6-0.1-8.5c0.2-0.9,0.5-3.2,1.2-4.4c0.7-1.1,5.7-3.1,5.7-3.1l1.1,3L1301.4,201.4
			L1301.4,201.4z"/>
		<path id="path70" inkscape:connector-curvature="0" class="st6" d="M1307.3,204.9c0,0,1.9,3.5,1.9,5.1c0,1.6-3.7,12.4-4.5,14.5
			c-0.8,2.1,1.7,13.3-0.4,12.9l-17.3,0.4c0,0-1.1-0.4-0.7-6.8c0.5-7.1-0.7-10.7,3.5-10.3c13.9,1.4,6.7-7.9,11.8-14
			C1304.2,203.8,1307.3,204.9,1307.3,204.9L1307.3,204.9z"/>
		<polygon id="polygon72" class="st9" points="1293,198.2 1298.6,201.4 1301,200 1300.8,195.4 1293.3,194.9 		"/>
		<path id="path74" inkscape:connector-curvature="0" class="st7" d="M1295.5,182.7c-2.8,1.3-2.8,4.9-2.8,5.3c0,0.3-1.4,3.1-1.5,3.6
			c-0.1,0.3,0.3,0.7,0.5,0.8c0.2,0-0.7,4.2-0.2,4.6c0.7,0.5,5,1.1,5.5,1c2.5-0.3,3.9-0.9,5.6-2.3c2.2-1.8,4.5-4.9,2.9-9.4
			C1303.9,181.7,1297.9,181.5,1295.5,182.7L1295.5,182.7z"/>
		<path id="path76" inkscape:connector-curvature="0" class="st10" d="M1293.8,184.1c2-3.3,5.3-2.5,6.5-2.4c1.1,0.1,5.5,1.9,5.8,6.7
			c0.2,4.7-4.5,8.9-5.5,8.6c-0.3-0.1-0.9-2.5,1.4-5.9c0.2-0.3-3.4,1.4-3.6,1.1c-0.1-0.4,2.4-3.1,1.8-4.1
			C1297.4,183.3,1293.8,184.1,1293.8,184.1L1293.8,184.1z"/>
		<path id="path78" inkscape:connector-curvature="0" class="st7" d="M1301.6,190.4c0.6,0.4,0.5,1.6-0.3,2.6
			c-0.7,1.1-1.8,1.6-2.4,1.2c-0.6-0.4,0.1-1.9,0.8-3C1300.5,190.2,1301,190,1301.6,190.4z"/>
		<g id="g84">
			<rect id="rect80" x="1293.2" y="311.4" class="st11" width="5" height="0.9"/>
			<path id="path82" inkscape:connector-curvature="0" class="st12" d="M1292.9,305c0,0-2.5,0.9-6.4,4.4c-1.5,1.4-6.2,2.5-6.3,3
				c-0.1,0.6,2.5,0.7,4,0.7c5,0,5.7-1.1,7.6-1.4c1.9-0.3,4.2-0.3,6.1-0.3c0.6,0,1.2-2.1,1.2-3c-0.1-0.8-0.5-2.6-1.2-3.5
				C1297.8,304.7,1292.9,305,1292.9,305z"/>
		</g>
		<path id="path86" inkscape:connector-curvature="0" class="st11" d="M1301.9,241.7c0,0-15.2-4.4-15.2-3.5c0,1.4-0.4,9.1-0.2,12.4
			c0.5,10.4,2,23.1,2.2,25c0.3,2.9,2.2,29.9,2.2,29.9s1.7,2.1,4,1.8s3.8-0.9,3.8-0.9s0.9-12.1,1.2-16.7c0.3-4.6-1.9-11.6-2.1-13.3
			s0.4-3.2,1.3-10.5c1-7.3,3.8-16.5,3.5-19.4C1302.2,243.7,1301.9,241.7,1301.9,241.7L1301.9,241.7z"/>
		<g id="g92">
			<polygon id="polygon88" class="st11" points="1304.8,313.7 1299.8,314 1299.8,313.1 1304.7,312.8 			"/>
			<path id="path90" inkscape:connector-curvature="0" class="st11" d="M1304.1,306c-0.2-0.2-5,0.5-5,0.5s-2.5,1-6.1,4.9
				c-1.4,1.5-6,2.9-6.1,3.5c0,0.6,2.6,0.5,4,0.5c4.9-0.3,5.6-1.5,7.5-1.9c1.9-0.4,4.2-0.6,6-0.7c0.7,0,1.1-2.2,1-3.2
				C1305.4,308.7,1304.8,307,1304.1,306L1304.1,306z"/>
		</g>
		<path id="path94" inkscape:connector-curvature="0" class="st13" d="M1288.1,238.4c0,0,0.8,3.2,1.4,7.1c0.2,1.1,0.6,3.8,0.7,4.6
			c1.2,9.1,1.2,22.4,2.9,26.7c1.1,2.7,3.9,29.8,3.9,29.8s1.4,1,3.8,0.8s3.8-1.5,3.8-1.5s1.2-11.4,1.5-16c0.3-4.6-2-11.9-2.3-13.6
			c-0.2-1.7-0.2-8.5,0.8-15.8c1-7.3,1.8-12.6,1.9-15.5c0.1-3.6-1.6-7.9-1.6-7.9L1288.1,238.4z"/>
		<polygon id="polygon96" class="st14" points="1293.7,206 1294.1,204.2 1297.8,203.6 		"/>
		<polygon id="polygon98" class="st14" points="1293.1,203.8 1293.7,206 1292.1,204.6 		"/>
		<polygon id="polygon100" class="st8" points="1291.4,205.7 1293.1,203.8 1292.6,202.3 1291.2,203.7 		"/>
		<path id="path102" inkscape:connector-curvature="0" class="st15" d="M1305.6,238.7c0,0-3,0.5-8.3,0.8c-5.4,0.3-10.6,0.2-10.6,0.2
			l0-2c0,0,3.1-0.1,8.2-0.3s10.2-0.5,10.2-0.5L1305.6,238.7z"/>
		<path id="path104" inkscape:connector-curvature="0" class="st16" d="M1289.9,239.5v-1.7c0-0.1-0.1-0.2-0.2-0.2h-2.4
			c-0.1,0-0.2,0.1-0.2,0.2v1.7c0,0.1,0.1,0.2,0.2,0.2h2.4C1289.7,239.8,1289.9,239.7,1289.9,239.5z"/>
		<polygon id="polygon106" class="st13" points="1292.3,204.9 1294.6,205.5 1293.4,207.6 1292.1,207.2 		"/>
		<path id="path108" inkscape:connector-curvature="0" class="st13" d="M1292.1,207.3c0,0-2,5.5-3.1,10.6c-1.1,5-2,19.1-2,19.1
			l1.3,3.3l2.4-3.1c0,0-0.3-14.2,0.2-18.9s2.5-10.7,2.5-10.7L1292.1,207.3z"/>
		<polygon id="polygon110" class="st8" points="1301,200 1302.5,201.9 1295.2,206.7 1294.1,204.2 		"/>
		<path id="path112" inkscape:connector-curvature="0" class="st8" d="M1306.1,204.8c-3.5,0.8-3.8,4.6-3.9,7.3s1.3,17.6,2,18.9
			s5.1,1,5.7,0.2s1.4-18,1-21.3C1310.5,206.6,1309,204.1,1306.1,204.8L1306.1,204.8z"/>
		<path id="path114" inkscape:connector-curvature="0" class="st8" d="M1310,231.5c-0.1-3.4-4.1-4.4-5.1-4.5
			c-9.8-0.5-19.1,1.1-19.1,1.1l-0.2,3.6c0,0,10.2,2,13.7,2.4S1310.1,234.8,1310,231.5L1310,231.5z"/>
		<g id="g126">
			<path id="path116" inkscape:connector-curvature="0" class="st9" d="M1279.6,232.7l2.9-0.4c0.4-0.1,0.6-0.4,0.6-0.7l0,0
				c-0.1-0.4-0.4-0.6-0.8-0.6l-2.9,0.4c-0.4,0-0.6,0.4-0.6,0.7l0,0C1278.8,232.5,1279.2,232.7,1279.6,232.7z"/>
			<path id="path118" inkscape:connector-curvature="0" class="st9" d="M1279.3,231.5l2.9-0.4c0.4-0.1,0.6-0.4,0.6-0.7l0,0
				c-0.1-0.4-0.4-0.6-0.8-0.6l-2.9,0.4c-0.4,0-0.6,0.4-0.6,0.7l0,0C1278.5,231.3,1278.9,231.5,1279.3,231.5z"/>
			<path id="path120" inkscape:connector-curvature="0" class="st9" d="M1279.1,230.3l2.9-0.4c0.4-0.1,0.6-0.4,0.6-0.7l0,0
				c-0.1-0.4-0.4-0.6-0.8-0.6l-2.9,0.4c-0.4,0-0.6,0.4-0.6,0.7l0,0C1278.3,230.1,1278.7,230.4,1279.1,230.3z"/>
			<path id="path122" inkscape:connector-curvature="0" class="st9" d="M1279,229.2l2.9-0.4c0.4-0.1,0.6-0.4,0.6-0.7l0,0
				c0-0.4-0.4-0.6-0.8-0.6l-2.9,0.4c-0.4,0-0.6,0.4-0.6,0.7l0,0C1278.2,229,1278.6,229.2,1279,229.2z"/>
			<path id="path124" inkscape:connector-curvature="0" class="st9" d="M1287,231.9c0,0-1.4,0.6-2.8,0.9c-1.4,0.3-4.6-0.1-4.6-0.1
				s0.2-2.1,0.2-2.8c0-0.8-1.3-1.8-1.3-1.8s3.5-1.1,4.4-1.1c0.9,0,5.6,1.2,5.6,1.2L1287,231.9z"/>
		</g>
		<polygon id="polygon128" class="st8" points="1289.4,232.6 1285.8,232.5 1286,227.4 1289.5,227.5 		"/>
		<path id="path130" inkscape:connector-curvature="0" class="st17" d="M1302.5,188.7c0,0-1.2-1.4-1-0.3c0.2,1.1,0.9,3.1,1.6,4
			c0.7,0.9,1.6,1.3,1.6,1.3l0.5-0.8c0,0-0.8-0.3-1.5-1.1C1303,191,1302.5,188.7,1302.5,188.7L1302.5,188.7z"/>
		<path id="path132" inkscape:connector-curvature="0" class="st8" d="M1293.9,182.6c0.9,1.9,5.8,4.8,7.3,5.5c1.5,0.7,6,1.9,6,1.9
			s0.8-2.3,0.6-4.5c-0.2-2-1.8-5.1-5.4-6C1297.2,178.2,1293.9,182.6,1293.9,182.6L1293.9,182.6z"/>
		<path id="path134" inkscape:connector-curvature="0" class="st6" d="M1291.9,182.4c0.2-0.6,2.4-0.3,2.4-0.3s0,1.4,3.4,3.7
			c3.4,2.2,9.2,4.1,9.5,4.2c0.4,0.1,0.5,0.3,0.3,0.5s-0.9,0.4-7.2-2.7C1292.9,184.2,1291.7,182.8,1291.9,182.4L1291.9,182.4z"/>
		<path id="path136" inkscape:connector-curvature="0" class="st6" d="M1300.8,187.7c4.8,2.4,6.4,2.3,6.4,2.3s0.8-2.3,0.6-4.5
			c-0.1-1.8-1.2-4.1-4-5.5c1.9,1.6,2.2,3.6,2,4.9C1305.5,186.8,1303.3,188.2,1300.8,187.7z"/>
	</g>
	<g id="g240">
		<g id="g144">
			<polygon id="polygon140" class="st11" points="1357.3,313.9 1352.5,315.1 1352.3,314.2 1357,313 			"/>
			<path id="path142" inkscape:connector-curvature="0" class="st13" d="M1355.2,306.6c-0.2-0.1-4.8,1.4-4.8,1.4s-2.2,1.5-5,5.9
				c-1.1,1.7-5-0.5-5,3.5c0,0.6,2.1,0.7,3.8,0.7c4.9,0,5.1-2.5,6.9-3.2c1.8-0.7,3.9-1.4,5.7-1.8c0.6-0.2,0.6-2.3,0.3-3.3
				C1356.9,309,1356,307.4,1355.2,306.6L1355.2,306.6z"/>
		</g>
		<path id="path146" inkscape:connector-curvature="0" class="st18" d="M1316.4,200.6c-1.8-2.9-0.7-4.9,1.6-6.4c7.9-5.4,16-9,16-9
			l2.2,3c0,0-7.1,7-9.7,9.1C1323.8,199.4,1318.2,203.5,1316.4,200.6L1316.4,200.6z"/>
		<g id="g158">
			<path id="path148" inkscape:connector-curvature="0" class="st9" d="M1337.4,181.6l-1.9,1.8c-0.2,0.2-0.3,0.6,0,0.9l0,0
				c0.2,0.2,0.6,0.3,0.9,0l2-1.8c0.2-0.2,0.3-0.6,0-0.9l0,0C1338.1,181.4,1337.7,181.4,1337.4,181.6z"/>
			<path id="path150" inkscape:connector-curvature="0" class="st9" d="M1338.3,182.4l-1.9,1.8c-0.2,0.2-0.3,0.6,0,0.9l0,0
				c0.2,0.2,0.6,0.3,0.9,0l2-1.8c0.2-0.2,0.3-0.6,0-0.9l0,0C1338.9,182.2,1338.5,182.2,1338.3,182.4z"/>
			<path id="path152" inkscape:connector-curvature="0" class="st9" d="M1339.1,183.2l-2,1.8c-0.2,0.2-0.3,0.6,0,0.9l0,0
				c0.2,0.2,0.6,0.3,0.9,0l1.9-1.8c0.2-0.2,0.3-0.6,0-0.9l0,0C1339.7,183,1339.3,183,1339.1,183.2z"/>
			<path id="path154" inkscape:connector-curvature="0" class="st9" d="M1339.8,184l-1.9,1.8c-0.2,0.2-0.3,0.6,0,0.9l0,0
				c0.2,0.2,0.6,0.3,0.9,0l2-1.8c0.2-0.2,0.3-0.6,0-0.9l0,0C1340.4,183.8,1340,183.8,1339.8,184z"/>
			<path id="path156" inkscape:connector-curvature="0" class="st9" d="M1332.3,186.1c0,0,0.7-1.2,1.6-2.1c0.9-1,3.5-2.3,3.5-2.3
				s1,1.7,1.4,2.4c0.4,0.6,1.9,0.8,1.9,0.8s-2,2.7-2.7,3.2c-0.7,0.5-4.8,1.9-4.8,1.9L1332.3,186.1z"/>
		</g>
		<polygon id="polygon160" class="st19" points="1330.8,186.5 1333.4,184.5 1336.5,188.7 1333.7,190.6 		"/>
		<path id="path162" inkscape:connector-curvature="0" class="st18" d="M1334.7,205.8c-1.9-1.7-13.1-9.8-14.5-10
			c-1.4-0.3-4.1,3.4-4,4.3c0.1,1,11.6,12.2,14.1,13.9c2.6,1.7,5.3,2.1,6.8-0.6C1338.9,210.2,1336.5,207.6,1334.7,205.8z"/>
		<path id="path164" inkscape:connector-curvature="0" class="st7" d="M1340.7,197.1c0,0-1,7.8-1.1,8.3c-0.1,0.6-5.1,1.8-6,2.9
			c-0.5,0.5-0.5,2-0.7,2.9c-0.2,0.9-1.4,4.1-0.8,8.3c0.1,0.6,0.3,10.2,0.1,12.9s-1.4,13.3-0.7,14.7c0.7,1.4,4.8,5.5,5.2,5.6
			c0.5,0,13.8-4.4,13.3-8.6c-0.4-4.2-2.1-10.8-1-15c1.2-4.2,9.1-16.6,7.9-19.6c-1-2.4-6.8-3.8-8.4-5.3c-0.5-0.5-0.5-9.4-0.5-9.4
			L1340.7,197.1z"/>
		<path id="path166" inkscape:connector-curvature="0" class="st18" d="M1348.6,204.2c0,0,5.1,2.6,6.6,3.4c1.5,0.8,2.5,2.2,2.3,4.3
			c-0.2,2-7.4,17.4-7.7,18.3s1.6,9.3,0.5,10c-0.2,0.2-6.4,0.6-11.7,0.6c-4.6,0-7.5-0.3-7.5-0.3s0.7-7.6,0.6-10.7
			c-0.2-3.6,0-6.4-0.1-8.5c-0.2-3.6,0.2-7.8,0.4-8.7c0.3-0.9,1.7-4.7,2.4-5.8c0.7-1.1,5-1.5,5-1.5l1,3.1L1348.6,204.2L1348.6,204.2z
			"/>
		<path id="path168" inkscape:connector-curvature="0" class="st20" d="M1354.1,207.2c0,0,1.9,4.5,2.1,6.1
			c0.3,3.1-4.5,12.5-5.4,14.6c-0.9,2.2,1.3,12.8-0.8,12.2l-16.2,0.4c0,0,7-2,7.4-3.6c1.1-4.3-4.2-10,3-11.9c2-0.5,8.1-9,9.9-11.2
			C1355.9,211.8,1354.1,207.2,1354.1,207.2L1354.1,207.2z"/>
		<polygon id="polygon170" class="st9" points="1348.3,198 1340.2,200.4 1345.8,204 1348.3,202.7 		"/>
		<path id="path172" inkscape:connector-curvature="0" class="st7" d="M1339.6,190.6c0,0.4-1.5,3.1-1.6,3.6
			c-0.1,0.3,0.3,0.7,0.4,0.8c0.2,0-0.8,4.3-0.3,4.7c0.7,0.6,5.1,1.2,5.6,1.2c2.6-0.2,4-0.8,5.8-2.2c2.2-1.7,4.7-5,3.2-9.6
			c-1.5-4.6-7.6-4.9-10.1-3.8C1339.7,186.5,1339.6,190.2,1339.6,190.6z"/>
		<path id="path174" inkscape:connector-curvature="0" class="st10" d="M1340.8,186.7c2.1-3.3,5.5-2.4,6.7-2.3
			c1.2,0.1,5.6,2.1,5.8,7c0.1,4.8-4.9,9.1-5.9,8.6c-0.3-0.1-0.9-2.6,1.5-6c0.2-0.3-3.5,1.4-3.7,1c-0.1-0.4,2.6-3.1,2-4.1
			C1344.6,186,1340.8,186.7,1340.8,186.7L1340.8,186.7z"/>
		<path id="path176" inkscape:connector-curvature="0" class="st7" d="M1346.8,194.2c0.8-1.1,1.3-1.2,1.9-0.8
			c0.6,0.4,0.4,1.6-0.3,2.7s-1.9,1.6-2.5,1.2C1345.3,196.9,1346,195.3,1346.8,194.2L1346.8,194.2z"/>
		<g id="g182">
			
				<rect id="rect178" x="1334.1" y="313.9" transform="matrix(0.999 -4.440061e-02 4.440061e-02 0.999 -12.6416 59.654)" class="st11" width="4.9" height="0.9"/>
			<path id="path180" inkscape:connector-curvature="0" class="st11" d="M1338.5,307.4c-0.1-0.2-5,0.4-5,0.4s-1.7,0.2-5.3,3.8
				c-1.4,1.4-6.8-0.6-6.8,3.5c0,0.6,2.6,1,4,1c4.9-0.2,5.5-1.3,7.4-1.7c1.9-0.3,4.1-0.5,5.9-0.6c0.6,0,1.1-2.1,1-3
				C1339.7,310,1339.2,308.3,1338.5,307.4L1338.5,307.4z"/>
		</g>
		<path id="path184" inkscape:connector-curvature="0" class="st21" d="M1330.5,240.2c-0.1,1.4-0.9,10.8-0.9,14.1
			c-0.2,10.2-0.2,23.3-0.2,25.1c0.1,2.8,1.7,29.5,1.7,29.5s2.1,1,4.5,1.1c2.3,0.1,4.2-0.9,4.2-0.9s1-11.3,1.1-15.9
			c0.1-4.6-1.2-11.2-1.3-12.9c-0.1-1.7,0.5-3.1,1.9-10.2s4.7-16,4.6-18.8c-0.1-2.9,0.2-10,0.2-10L1330.5,240.2z"/>
		<path id="path186" inkscape:connector-curvature="0" class="st18" d="M1336.3,238c0,0-1.6,5.9-1.1,10.4c0.5,4,0.2,4,0.6,6
			c1.8,9,1,22.7,3.4,26.5c1.5,2.4,8.6,29.1,8.6,29.1s2.2,0.1,4.5-0.6c2.3-0.7,3.9-2.2,3.9-2.2s-1.4-11.4-2-16
			c-0.6-4.6-4.2-11.3-4.7-12.9c-0.6-1.6,1.3-7.8,1.8-15.1c0.5-7.3,0.9-12.7,0.8-15.5c-0.2-3.6-0.4-4.7-0.4-4.7L1336.3,238z"/>
		<polygon id="polygon188" class="st20" points="1340.5,208.5 1341,206.7 1344.8,206.3 		"/>
		<polygon id="polygon190" class="st20" points="1340,206.2 1340.5,208.5 1339,206.9 		"/>
		<path id="path192" inkscape:connector-curvature="0" class="st22" d="M1338.8,205.6c0,0-1,2.9-1.3,4.6c-0.7,4-0.6,8.8-0.6,8.8
			l-3.9,19l-0.4,7.5l-4.1-0.7c0,0,2.1-24.3,2.3-27.9c0.3-3.6,2.1-8.9,4.2-10.5C1335.8,205.7,1338.8,205.6,1338.8,205.6L1338.8,205.6
			z"/>
		<path id="path194" inkscape:connector-curvature="0" class="st17" d="M1348.2,191.4c0.2,1.1,1,3.1,1.7,4c0.7,0.9,1.6,1.3,1.6,1.3
			l0.5-0.9c0,0-0.8-0.3-1.6-1.1c-0.7-0.8-1.3-3.1-1.3-3.1S1348,190.3,1348.2,191.4z"/>
		<path id="path196" inkscape:connector-curvature="0" class="st22" d="M1340.4,185.7c1,1.9,6,4.7,7.5,5.3c1.5,0.7,6.1,1.7,6.1,1.7
			s0.7-2.4,0.5-4.5c-0.2-2-1.1-5.4-5.2-6.3C1343.6,180.6,1340.4,185.7,1340.4,185.7L1340.4,185.7z"/>
		<path id="path198" inkscape:connector-curvature="0" class="st5" d="M1340.8,185.2c0,0,0,1.4,3.6,3.6s9.3,3.9,9.7,3.9
			s0.5,0.2,0.4,0.5c-0.1,0.2-1.1,0.7-7.5-2.2c-7.6-3.5-8.5-5.8-8.3-6.1C1338.7,184.3,1340.8,185.2,1340.8,185.2z"/>
		<path id="path200" inkscape:connector-curvature="0" class="st5" d="M1347.5,190.6c4.9,2.3,6.5,2.1,6.5,2.1s0.7-2.4,0.5-4.5
			c-0.2-1.8-0.9-4.5-3.8-5.8c1.9,1.6,1.9,4,1.8,5.3C1352.2,189.6,1350,191,1347.5,190.6z"/>
		<polygon id="polygon202" class="st19" points="1348.3,202.7 1349.7,204.7 1342,209.3 1341,206.7 		"/>
		<polygon id="polygon204" class="st19" points="1338.2,208 1340,206.2 1339.5,204.6 1338.2,205.6 		"/>
		<g id="g212">
			<polygon id="polygon206" class="st22" points="1350.7,258.9 1339.6,258.9 1340.5,245.5 1350.7,245.7 1351.8,258.2 1351,258.5 			
				"/>
			<polygon id="polygon208" class="st21" points="1351.8,258.2 1340.7,258.2 1340.7,245.5 1351.2,245.5 			"/>
			<polygon id="polygon210" class="st5" points="1350.7,258.9 1339.6,258.9 1340.5,245.5 1340.4,258.5 1351,258.5 			"/>
		</g>
		<path id="path214" inkscape:connector-curvature="0" class="st18" d="M1353.1,216.9c1.7,2.2,11.9,13.2,13.3,13.8
			c1.4,0.6,4.7-2.4,4.8-3.5c0-1-10-15.3-12.4-17.6c-2.4-2.3-5.1-3.4-7.1-1C1349.4,211.4,1351.4,214.6,1353.1,216.9z"/>
		<path id="path216" inkscape:connector-curvature="0" class="st22" d="M1355.4,207.7c0,0-2.2,3.7-2.8,7.1c-0.7,4.1,1.4,6,1.4,6
			s-1.3,6.6-1.4,8c-0.1,3.8,0.6,17,0.6,17s-5.1,0.6-12.3,0.3c-3.7-0.1-8.4-0.7-8.4-0.7l0.4-7.5l3.9-19c0,0,2.6-4.4,6.7-8.6
			c2.3-2.4,6.6-5.4,6.6-5.4L1355.4,207.7L1355.4,207.7z"/>
		<path id="path218" inkscape:connector-curvature="0" class="st5" d="M1342.7,228c-1.8,0.7-1.9,13.6-1.9,18.2c0,0,0.1,0,0.1,0
			c7.2,0.2,12.3-0.3,12.3-0.3s-0.7-13.2-0.6-17c0.1-1.4,1.4-8,1.4-8s-2.1-2-1.4-6c0.6-3.5,3.5-7.3,3.5-7.3l-3.6-1.4l1.5,1.1
			c0,0-3.5,2.1-5,8.9C1347.6,222.9,1344.9,227.1,1342.7,228L1342.7,228z"/>
		<path id="path220" inkscape:connector-curvature="0" class="st17" d="M1352.9,241c0,0-4.1,0.8-12.8,0.4s-11.3-1-11.3-1l0.2-2.6
			c0,0,1.1,0.6,8.8,1s14.9-0.2,14.9-0.2L1352.9,241z"/>
		<path id="path222" inkscape:connector-curvature="0" class="st17" d="M1352.8,236c0,0-4.1,0.8-12.8,0.4s-10.8-0.9-10.8-0.9
			l0.3-2.5c0,0,0.6,0.4,8.3,0.8s14.9-0.2,14.9-0.2L1352.8,236z"/>
		<path id="path224" inkscape:connector-curvature="0" class="st18" d="M1371.1,227c-2.2-2.6-5.9-1.1-6.7-0.5
			c-7.7,5.5-13.8,12.4-13.8,12.4l2.2,3c0,0,9-4.5,11.9-6.4C1367.6,233.7,1373.3,229.6,1371.1,227L1371.1,227z"/>
		<g id="g236">
			<path id="path226" inkscape:connector-curvature="0" class="st7" d="M1348.8,246.4l1.9-2c0.2-0.3,0.2-0.7,0-0.9l0,0
				c-0.3-0.2-0.7-0.2-0.9,0l-1.9,2c-0.2,0.3-0.2,0.7,0,0.9l0,0C1348.2,246.6,1348.6,246.6,1348.8,246.4z"/>
			<path id="path228" inkscape:connector-curvature="0" class="st7" d="M1347.9,245.6l1.9-2c0.2-0.3,0.2-0.7,0-0.9l0,0
				c-0.3-0.2-0.7-0.2-0.9,0l-1.9,2c-0.2,0.3-0.2,0.7,0,0.9l0,0C1347.2,245.9,1347.6,245.8,1347.9,245.6z"/>
			<path id="path230" inkscape:connector-curvature="0" class="st7" d="M1347,244.8l1.9-2c0.2-0.3,0.2-0.7,0-0.9l0,0
				c-0.3-0.2-0.7-0.2-0.9,0l-1.9,2c-0.2,0.3-0.2,0.7,0,0.9l0,0C1346.3,245.1,1346.7,245,1347,244.8z"/>
			<path id="path232" inkscape:connector-curvature="0" class="st7" d="M1346.2,243.9l1.9-2c0.2-0.3,0.2-0.7,0-0.9l0,0
				c-0.3-0.2-0.7-0.2-0.9,0l-1.9,2c-0.2,0.3-0.2,0.7,0,0.9l0,0C1345.5,244.2,1345.9,244.2,1346.2,243.9z"/>
			<path id="path234" inkscape:connector-curvature="0" class="st7" d="M1354,241.2c0,0-0.7,1.3-1.6,2.4c-0.9,1.1-3.6,2.7-3.6,2.7
				s-1.2-1.8-1.7-2.4s-2.1-0.7-2.1-0.7s1.9-3,2.6-3.6c0.7-0.6,5-2.4,5-2.4L1354,241.2z"/>
		</g>
		
			<rect id="rect238" x="1351.5" y="236.7" transform="matrix(0.7983 -0.6023 0.6023 0.7983 128.8381 863.3216)" class="st19" width="3.4" height="5.2"/>
	</g>
</g>
<path id="path244" inkscape:connector-curvature="0" class="st1" d="M1398.3,244c-76.7,54.8-130.8,24.3-190.7,57h272.6V153.2
	C1465.2,180.1,1439.8,214.4,1398.3,244L1398.3,244z"/>
<g id="g250" transform="translate(2,-47.943049)">
	<path id="path246" inkscape:connector-curvature="0" class="st2" d="M1414.6,320.4L1414.6,320.4c-2.4-3.2-1.7-7.7,1.5-10l27.4-20.3
		c3.2-2.4,7.7-1.7,10,1.5l0,0c2.3,3.2,1.7,7.7-1.5,10l-27.4,20.3C1421.5,324.3,1417,323.6,1414.6,320.4z"/>
	<path id="path248" inkscape:connector-curvature="0" class="st2" d="M1419.7,286.6L1419.7,286.6c3.2-2.4,7.7-1.7,10,1.5l20.3,27.4
		c2.3,3.2,1.7,7.7-1.5,10l0,0c-3.2,2.4-7.7,1.7-10-1.5l-20.3-27.4C1415.8,293.4,1416.5,288.9,1419.7,286.6z"/>
</g>
<g id="g256" transform="translate(2,-47.943049)">
	<path id="path252" inkscape:connector-curvature="0" class="st2" d="M1240.3,272.7L1240.3,272.7c-2.4,0.7-4.9-0.7-5.6-3.1
		l-5.9-20.7c-0.7-2.4,0.7-4.9,3.1-5.6l0,0c2.4-0.7,4.9,0.7,5.6,3.1l5.9,20.7C1244.1,269.5,1242.7,272,1240.3,272.7z"/>
	<path id="path254" inkscape:connector-curvature="0" class="st2" d="M1227,265.3c-2.4,0.7-4.9-0.7-5.6-3.1l0,0
		c-0.7-2.4,0.7-4.9,3.1-5.6l20.7-5.9c2.4-0.7,4.9,0.7,5.6,3.1l0,0c0.7,2.4-0.7,4.9-3.1,5.6L1227,265.3L1227,265.3z"/>
</g>
<polygon id="polygon258" class="st23" points="1419.2,178.9 1390.1,171.5 1411,150 "/>
<polygon id="polygon260" class="st23" points="1238.2,171.3 1237.3,151.4 1255,160.6 "/>
<path id="path262" inkscape:connector-curvature="0" class="st4" d="M1009.2,301.4h140.2c0,0-35.3-7.3-35.3-24.9
	c0-23.5,51.4-20.1,51.4-44.5s-30-39.1-80.8-39.1c-50.8,0-80.8,13-80.8,30.3s26.8,22.1,26.8,43.7S1009.2,301.4,1009.2,301.4
	L1009.2,301.4z"/>
<g id="g278" transform="translate(2,-47.943049)">
	<path id="path264" inkscape:connector-curvature="0" class="st2" d="M1280.2,349.5h-34H955.5v-35.8c15,5.1,31.5,9.5,49.4,12.7
		c110.3,19.9,88.5-10.1,192.8-28.4C1248.2,289.2,1267.2,328.3,1280.2,349.5L1280.2,349.5z"/>
	<path id="path266" inkscape:connector-curvature="0" class="st0" d="M1230.2,349.6H955.9v-28.4c14.2,4,29.7,7.5,46.6,10.1
		c104.1,15.8,83.5-8.1,181.9-22.6c47.7-7,65.6,24,77.9,40.9L1230.2,349.6z"/>
	<path id="path268" inkscape:connector-curvature="0" class="st2" d="M1176.8,349.1c0,0-26.6-5.2-26.6-17.7
		c0-16.7,38.7-14.2,38.7-31.6s-22.5-27.7-60.8-27.7s-60.8,9.2-60.8,21.5s20.1,15.6,20.1,31s-16.1,24.5-16.1,24.5L1176.8,349.1z"/>
	<path id="path270" inkscape:connector-curvature="0" class="st3" d="M975.6,349.5h91.7c0,0-45.9-62.1-45.9-86.2
		c0-24.1,26.4-29.1,26.4-54.7s-40-46.5-61-17.5c-21,28.9-6.5,61.9,8.9,101.7C1011.1,332.6,975.6,349.5,975.6,349.5L975.6,349.5z"/>
	<path id="path272" inkscape:connector-curvature="0" class="st2" d="M1016,287.2c80.5,57.5,136,21.1,199.6,62.3h-321l0,0
		C942.6,274,990,268.6,1016,287.2L1016,287.2z"/>
	<path id="path274" inkscape:connector-curvature="0" class="st0" d="M1237.2,349.5H955.5l0,0c27.1-80.3,80.6-113.6,132-76.9
		c76.7,54.8,89.8,27.1,149.8,59.8V349.5z"/>
	<path id="path276" inkscape:connector-curvature="0" class="st1" d="M1228.2,349.2H955.6l0,0c44.2-43,88.5-81.4,129.9-51.8
		C1162.2,352.2,1168.3,316.5,1228.2,349.2z"/>
</g>
<g id="g590" transform="translate(2,-47.943049)">
	<g id="g286">
		<path id="path280" inkscape:connector-curvature="0" class="st24" d="M1042,317.2c66,0,119.4,6.2,119.4,6.2s-53.5,6.2-119.4,6.2
			s-119.4-6.2-119.4-6.2S976.1,317.2,1042,317.2z"/>
		<path id="path282" inkscape:connector-curvature="0" class="st24" d="M1088.9,329.9c14,0,25.3,3.1,25.3,3.1s-11.3,3.1-25.3,3.1
			s-25.3-3.1-25.3-3.1S1074.9,329.9,1088.9,329.9z"/>
		<path id="path284" inkscape:connector-curvature="0" class="st24" d="M950.5,326.7c17.4,0,31.5,2.7,31.5,2.7s-14.1,2.7-31.5,2.7
			s-31.5-2.7-31.5-2.7S933.1,326.7,950.5,326.7z"/>
	</g>
	<g id="g292">
		<path id="path288" inkscape:connector-curvature="0" class="st25" d="M936.3,218.1c-2-5.1,2.1-10.6,3.9-15.9c0.3-1,0.6-2,0.7-3
			c0.2-1.6,0.1-3.1-0.7-4.6c-1.1-2.4-3.5-3.9-5-6.1c-2.3-3.4-2.2-7.9-0.7-11.7c0.4-1,0.9-1.9,1.5-2.8c0,0,0-0.1,0.1-0.1
			c0-0.1,0.1-0.1,0.1-0.1c2.8-4.3,6.9-7.4,11.4-9.2c1-0.4,2-0.7,3-0.9c3-0.7,6.2-0.9,9.4-0.4c0.3,0,0.7,0.1,1,0.2c0.1,0,0.1,0,0.2,0
			c0.6,0.1,1.2,0.3,1.8,0.5c4.4,1.4,8.3,4.7,9.2,9.2c0.5,2.6-0.1,5.3,0.8,7.8c0.4,1.2,1.1,2.1,2,3c0.7,0.7,1.6,1.3,2.6,1.9
			c5.1,2.8,12.5,3.6,14.9,8.9c0.2,0.6,0.4,1.1,0.5,1.7c0.8,3.9-1.2,8-2,12.2c-0.3,1.6-0.5,3.3-0.1,4.9c0.9,4.9,5.6,8.1,9.8,10.9
			c0.2,0.1,0.4,0.2,0.5,0.4c0.6,0.4,1.3,0.9,2,1.4c3.6,2.9,6.7,6.7,6,11.1c-1.2,6.9-11.1,10.2-11,17.2c0,1.7,0.7,3.3,1.6,4.8
			c0.5,1,1.2,2,1.7,3c0.1,0.2,0.2,0.3,0.2,0.5c0.3,0.6,0.5,1.2,0.7,1.8c2.1,6.2-0.4,11.3-4.5,14.2c-0.9,0.6-1.8,1.1-2.7,1.5
			c-5.6,2.4-12.8,1.1-16.3-5.9c-0.3-0.6-0.5-1.2-0.8-1.8c-0.1-0.2-0.1-0.4-0.2-0.6c-0.3-1-0.6-2.1-0.9-3.2c-0.5-1.7-1.1-3.3-2.3-4.6
			c-4.8-5-14.2-0.3-19.9-4.3c-4.2-3-4.3-9.1-3.4-14.2c0-0.1,0-0.2,0-0.3c0.2-0.9,0.3-1.8,0.5-2.8c0.8-4.4,1.2-8.9-1.3-12.5
			c-0.6-0.9-1.3-1.6-2.1-2.2c-3-2.5-7.1-3.9-9.9-6.4C937.7,220.6,936.8,219.5,936.3,218.1L936.3,218.1z"/>
		<path id="path290" inkscape:connector-curvature="0" class="st26" d="M938.8,221.5c12.4,3.9,24.8,7.8,37.1,11.8
			c-3.4-8.4-6.9-16.7-10.3-25.1c-0.1,0-0.1,0-0.2,0c-2.2,0.1-4.5-0.9-6.6-1.4c-4.5-1.1-9-2.3-13.5-3.4c-1.7-0.4-3.4-0.9-5.2-1.3
			c0.3-1,0.6-2,0.7-3c5,1.2,9.9,2.5,14.9,3.7c2.1,0.5,4.1,1,6.2,1.6c0.7,0.2,1.5,0.4,2.3,0.6c-2.7-6.5-5.4-13-8-19.5
			c-0.4-1-0.8-1.9-1.2-2.9c-6.8-2-13.6-3.9-20.5-5.9c0.4-1,0.9-1.9,1.5-2.8c5.9,1.7,11.7,3.4,17.5,5c-2-4.8-4-9.6-5.9-14.4
			c1-0.4,2-0.7,3-0.9c1.9,4.6,3.8,9.2,5.7,13.8c1.2-4.8,2.5-9.5,3.7-14.2c0.3,0,0.7,0.1,1,0.2c0.1,0,0.1,0,0.2,0
			c0.6,0.1,1.2,0.3,1.8,0.5c-1.5,5.9-3.1,11.9-4.6,17.8c0,0.1-0.1,0.3-0.1,0.4c2.9,7,5.8,14,8.6,21c1.6-3.8,3.2-7.5,4.7-11.3l3.4-8
			c0.7,0.7,1.6,1.3,2.6,1.9c-2.7,6.4-5.4,12.9-8.1,19.3c-0.3,0.6-0.6,1.2-1,1.7c0.2,0.4,0.3,0.8,0.5,1.2c3.2,7.8,6.5,15.7,9.7,23.6
			c4.3-11.9,9.2-23.7,14.4-35.3c0.8,3.9-1.2,8-2,12.2c-3.8,9-7.4,18.2-10.7,27.4c1.8,4.3,3.5,8.6,5.3,12.9c5-8.2,10-16.3,15-24.5
			c0.2,0.1,0.4,0.2,0.5,0.4c0.7,0.4,1.3,0.9,2,1.4c-5.4,8.7-10.7,17.4-16.1,26.2c1.4,3.3,2.7,6.6,4.1,9.9l2.3,5.7
			c0.3-0.3,0.6-0.7,0.9-1.1c1.2-1.5,2.2-3.1,3.3-4.7c0.7-1,1.4-1.9,2-2.9c0.5,1,1.2,2,1.7,3l-1.8,2.6c-1.5,2.1-2.9,4.6-4.9,6.2
			c1,2.6,2.1,5.1,3.2,7.7c-0.8,0.6-1.8,1.1-2.7,1.5c-1.1-2.6-2.1-5.2-3.2-7.8c0,0,0,0,0,0c-2,0.5-4,0.3-6,0.1
			c-2.2-0.2-4.4-0.4-6.6-0.5c-0.5,0-1-0.1-1.4-0.1c-0.3-1-0.6-2.1-0.9-3.2c0.6,0,1.2,0.1,1.8,0.1c2,0.2,4.1,0.3,6.1,0.5
			c1.9,0.1,3.9,0.5,5.7,0.2c0,0,0.1,0,0.1,0c-2.3-5.7-4.7-11.4-7-17.1c-10.8-2.3-21.6-4.6-32.4-6.8c0-0.1,0-0.2,0-0.3
			c0.2-0.9,0.3-1.8,0.5-2.8c10.1,2.1,20.3,4.3,30.4,6.4c-1.3-3.1-2.6-6.2-3.8-9.4c-0.4-0.9-0.7-1.8-1.1-2.7
			c-9.6-3-19.2-6.1-28.8-9.1C945.6,225.4,941.5,224,938.8,221.5L938.8,221.5z"/>
	</g>
	<g id="g298">
		<path id="path294" inkscape:connector-curvature="0" class="st25" d="M1124.5,258.2c2.6-2.9,7.5-2.2,11.5-2.8
			c0.8-0.1,1.5-0.3,2.1-0.5c1.1-0.4,2-1,2.7-1.9c1.1-1.5,1.3-3.5,2.2-5.2c1.4-2.6,4.3-4,7.3-4.3c0.8-0.1,1.5-0.1,2.3,0
			c0,0,0.1,0,0.1,0c0,0,0.1,0,0.1,0c3.6,0.4,7,1.9,9.6,4.3c0.5,0.5,1.1,1,1.6,1.6c1.5,1.7,2.6,3.7,3.4,5.8c0.1,0.2,0.2,0.5,0.2,0.7
			c0,0,0,0.1,0,0.1c0.1,0.4,0.2,0.9,0.3,1.3c0.6,3.3-0.3,6.9-2.9,8.9c-1.5,1.2-3.4,1.7-4.7,3.1c-0.6,0.7-1,1.4-1.2,2.2
			c-0.2,0.7-0.3,1.5-0.3,2.3c-0.1,4.2,1.8,9.2-0.8,12.5c-0.3,0.3-0.6,0.6-0.9,0.9c-2.2,1.8-5.5,1.9-8.4,2.8
			c-1.2,0.3-2.2,0.8-3.2,1.5c-2.8,2.2-3.3,6.2-3.8,9.8c0,0.1,0,0.3-0.1,0.5c-0.1,0.6-0.2,1.2-0.3,1.7c-0.7,3.2-2.1,6.5-5.1,7.5
			c-4.8,1.5-10.2-3.7-14.6-1.3c-1.1,0.6-1.8,1.6-2.5,2.6c-0.5,0.7-0.9,1.4-1.3,2.1c-0.1,0.1-0.2,0.2-0.2,0.3
			c-0.3,0.4-0.6,0.7-0.9,1.1c-3.2,3.4-7.3,3.5-10.6,1.8c-0.7-0.3-1.3-0.8-1.9-1.2c-3.4-2.8-4.9-7.8-1.6-12.3
			c0.3-0.4,0.6-0.7,0.9-1.1c0.1-0.1,0.2-0.2,0.3-0.3c0.6-0.5,1.2-1.1,1.7-1.6c0.9-0.9,1.7-1.8,2.2-3c1.6-4.7-4.5-9.2-3.8-14.1
			c0.5-3.7,4.4-5.7,8-6.9c0.1,0,0.1,0,0.2-0.1c0.6-0.2,1.3-0.4,1.9-0.6c3-1,6.1-2.2,7.6-4.9c0.3-0.6,0.6-1.4,0.7-2.1
			c0.6-2.7,0.1-5.8,0.8-8.4C1123.4,259.9,1123.8,259,1124.5,258.2L1124.5,258.2z"/>
		<path id="path296" inkscape:connector-curvature="0" class="st26" d="M1123.1,260.9c1.6,9.2,3.2,18.4,4.8,27.6
			c4.2-5,8.4-9.9,12.6-14.9c0,0,0-0.1-0.1-0.1c-0.8-1.4-0.9-3.2-1.3-4.7c-0.8-3.2-1.5-6.5-2.3-9.8c-0.3-1.2-0.6-2.5-0.9-3.7
			c0.8-0.1,1.5-0.3,2.2-0.5c0.8,3.6,1.7,7.2,2.5,10.8c0.4,1.5,0.7,3,1.1,4.5c0.1,0.5,0.2,1.1,0.4,1.6c3.3-3.9,6.6-7.7,9.8-11.6
			c0.5-0.6,1-1.1,1.4-1.7c-1-5-2-10-3-15c0.8-0.1,1.5-0.1,2.3,0c0.9,4.3,1.7,8.6,2.6,12.9c2.4-2.9,4.8-5.7,7.3-8.6
			c0.5,0.5,1.1,1,1.6,1.6c-2.3,2.7-4.6,5.4-6.9,8.2c3.4-0.8,6.9-1.6,10.3-2.3c0.1,0.2,0.2,0.5,0.2,0.7c0,0,0,0.1,0,0.1
			c0.1,0.4,0.2,0.9,0.3,1.3c-4.3,1-8.6,2-12.9,3c-0.1,0-0.2,0-0.3,0c-3.5,4.2-7,8.3-10.6,12.5c2.9-0.2,5.8-0.5,8.8-0.7l6.2-0.5
			c-0.2,0.7-0.3,1.5-0.3,2.3c-5,0.4-10,0.8-15,1.2c-0.5,0-1,0-1.4-0.1c-0.2,0.2-0.4,0.5-0.6,0.7c-3.9,4.7-7.9,9.3-11.8,14
			c9.1-1.2,18.2-2,27.3-2.5c-2.2,1.8-5.5,1.9-8.4,2.8c-7,0.5-14,1.3-21,2.2c-2.2,2.5-4.3,5.1-6.5,7.6c6.9,0.5,13.7,1,20.6,1.5
			c0,0.1,0,0.3-0.1,0.5c-0.1,0.6-0.2,1.2-0.3,1.7c-7.3-0.5-14.7-1.1-22-1.6c-1.7,2-3.3,3.9-5,5.9l-2.9,3.4c0.3,0.1,0.6,0.2,1,0.2
			c1.4,0.2,2.7,0.4,4.1,0.6c0.8,0.1,1.7,0.2,2.5,0.3c-0.5,0.7-0.9,1.4-1.3,2.1l-2.2-0.3c-1.8-0.2-3.9-0.3-5.6-1.1
			c-1.3,1.5-2.6,3-3.9,4.6c-0.7-0.3-1.3-0.8-1.9-1.2c1.3-1.5,2.6-3.1,3.9-4.6c0,0,0,0,0,0c-1-1.1-1.5-2.5-2.1-3.8
			c-0.6-1.4-1.2-2.9-1.8-4.4c-0.1-0.3-0.3-0.6-0.4-0.9c0.6-0.5,1.2-1.1,1.7-1.6c0.2,0.4,0.3,0.8,0.5,1.2c0.6,1.4,1.1,2.7,1.7,4.1
			c0.5,1.2,1,2.6,1.8,3.7c0,0,0,0.1,0.1,0.1c2.8-3.4,5.7-6.7,8.6-10.1c-2.1-7.6-4.2-15.3-6.3-22.9c0.1,0,0.1,0,0.2-0.1
			c0.6-0.2,1.3-0.4,1.9-0.6c2,7.2,4,14.4,5.9,21.5c1.6-1.8,3.1-3.7,4.7-5.5c0.4-0.5,0.9-1,1.3-1.6c-1.2-7.1-2.5-14.3-3.7-21.4
			C1122.9,266.6,1122.4,263.5,1123.1,260.9L1123.1,260.9z"/>
	</g>
	<g id="g304">
		<path id="path300" inkscape:connector-curvature="0" class="st26" d="M940.9,280.9c-2.7-2.8-1.6-7.5-1.9-11.4
			c-0.1-0.8-0.2-1.5-0.4-2.1c-0.3-1.1-0.8-2-1.7-2.8c-1.4-1.2-3.3-1.6-4.9-2.6c-2.5-1.5-3.6-4.5-3.7-7.4c0-0.8,0-1.5,0.2-2.2
			c0,0,0-0.1,0-0.1c0,0,0-0.1,0-0.1c0.7-3.6,2.4-6.7,4.9-9.2c0.5-0.5,1.1-1,1.7-1.4c1.8-1.3,3.8-2.3,6-2.9c0.2-0.1,0.5-0.1,0.7-0.2
			c0,0,0.1,0,0.1,0c0.4-0.1,0.9-0.2,1.3-0.2c3.2-0.3,6.7,0.8,8.5,3.4c1,1.6,1.4,3.5,2.7,4.8c0.6,0.6,1.3,1.1,2.1,1.4
			c0.7,0.3,1.4,0.4,2.2,0.5c4.1,0.4,9.1-1.2,12.2,1.6c0.3,0.3,0.6,0.6,0.8,0.9c1.6,2.3,1.5,5.5,2.1,8.5c0.2,1.1,0.6,2.2,1.3,3.2
			c2,2.9,5.9,3.7,9.4,4.4c0.2,0,0.3,0.1,0.5,0.1c0.5,0.1,1.1,0.2,1.7,0.4c3.1,0.9,6.2,2.5,7,5.5c1.2,4.8-4.4,9.8-2.3,14.2
			c0.5,1.1,1.4,1.9,2.4,2.7c0.6,0.5,1.3,1,1.9,1.5c0.1,0.1,0.2,0.2,0.3,0.2c0.3,0.3,0.7,0.6,1,1c3.1,3.4,2.9,7.4,1,10.5
			c-0.4,0.6-0.8,1.2-1.4,1.8c-3,3.1-8,4.3-12.2,0.7c-0.3-0.3-0.7-0.6-1-1c-0.1-0.1-0.2-0.2-0.3-0.3c-0.5-0.6-1-1.2-1.5-1.8
			c-0.8-1-1.7-1.8-2.8-2.3c-4.5-1.9-9.3,3.8-14.2,2.8c-3.6-0.8-5.3-4.7-6.2-8.3c0-0.1,0-0.1,0-0.2c-0.2-0.6-0.3-1.3-0.5-1.9
			c-0.7-3.1-1.7-6.1-4.3-7.8c-0.6-0.4-1.3-0.7-2-0.9c-2.6-0.8-5.7-0.5-8.2-1.4C942.5,282.1,941.6,281.6,940.9,280.9L940.9,280.9z"/>
		<path id="path302" inkscape:connector-curvature="0" class="st25" d="M943.4,282.4c9.1-0.9,18.3-1.8,27.4-2.8
			c-4.6-4.5-9.1-8.9-13.7-13.4c0,0-0.1,0-0.1,0c-1.4,0.6-3.2,0.7-4.7,0.9c-3.2,0.5-6.5,1-9.7,1.6c-1.2,0.2-2.5,0.4-3.7,0.6
			c-0.1-0.8-0.2-1.5-0.4-2.1c3.6-0.6,7.2-1.2,10.7-1.7c1.5-0.2,3-0.5,4.5-0.7c0.5-0.1,1.1-0.1,1.6-0.2c-3.6-3.5-7.1-7-10.7-10.5
			c-0.5-0.5-1-1-1.6-1.5c-5,0.6-10,1.3-14.9,1.9c0-0.8,0-1.5,0.2-2.2c4.3-0.5,8.5-1.1,12.8-1.6c-2.6-2.6-5.3-5.1-7.9-7.7
			c0.5-0.5,1.1-1,1.7-1.4c2.5,2.5,5,4.9,7.5,7.4c-0.5-3.4-1-6.9-1.6-10.3c0.2-0.1,0.5-0.1,0.7-0.2c0,0,0.1,0,0.1,0
			c0.4-0.1,0.9-0.2,1.3-0.2c0.7,4.3,1.3,8.6,2,12.9c0,0.1,0,0.2,0,0.3c3.8,3.8,7.6,7.5,11.5,11.2c0-2.9,0-5.8-0.1-8.6l0-6.1
			c0.7,0.3,1.4,0.4,2.2,0.5c0,5,0.1,9.9,0.1,14.9c0,0.5,0,1-0.2,1.4c0.2,0.2,0.5,0.4,0.7,0.7c4.3,4.2,8.6,8.4,12.9,12.6
			c-0.5-9-0.7-18-0.5-27c1.6,2.3,1.5,5.5,2.1,8.5c0,6.9,0.3,13.9,0.7,20.8c2.3,2.3,4.7,4.6,7,6.9c1-6.7,2-13.4,3-20.1
			c0.2,0,0.3,0.1,0.5,0.1c0.5,0.1,1.1,0.2,1.7,0.4c-1,7.2-2.1,14.3-3.2,21.5c1.8,1.8,3.6,3.5,5.4,5.3l3.1,3.1c0.1-0.3,0.2-0.6,0.3-1
			c0.3-1.3,0.6-2.7,0.8-4c0.2-0.8,0.3-1.6,0.5-2.5c0.6,0.5,1.3,1,1.9,1.5l-0.4,2.2c-0.4,1.8-0.6,3.8-1.5,5.4
			c1.4,1.4,2.8,2.8,4.2,4.1c-0.4,0.6-0.8,1.2-1.4,1.8c-1.4-1.4-2.8-2.8-4.2-4.2c0,0,0,0,0,0c-1.1,0.9-2.5,1.3-3.9,1.8
			c-1.5,0.5-3,1-4.4,1.5c-0.3,0.1-0.6,0.2-1,0.3c-0.5-0.6-1-1.2-1.5-1.8c0.4-0.1,0.8-0.3,1.2-0.4c1.4-0.5,2.7-0.9,4.1-1.4
			c1.2-0.4,2.7-0.7,3.8-1.5c0,0,0,0,0.1-0.1c-3.1-3-6.2-6.1-9.3-9.1c-7.7,1.5-15.3,3.1-23,4.6c0-0.1,0-0.1,0-0.2
			c-0.2-0.6-0.3-1.3-0.5-1.9c7.2-1.4,14.4-2.9,21.6-4.3c-1.7-1.7-3.4-3.3-5.1-5c-0.5-0.5-1-1-1.5-1.4c-7.1,0.7-14.2,1.4-21.3,2.1
			C949,283,945.9,283.3,943.4,282.4L943.4,282.4z"/>
	</g>
	<g id="g310">
		<path id="path306" inkscape:connector-curvature="0" class="st26" d="M1116.2,192.4c2.2-4.7,8.5-5.6,13.3-7.8
			c0.9-0.4,1.7-0.9,2.5-1.5c1.2-0.9,2.1-2,2.7-3.4c0.9-2.3,0.4-4.9,0.9-7.3c0.8-3.8,3.8-6.7,7.5-8.1c0.9-0.4,1.9-0.7,2.8-0.9
			c0,0,0.1,0,0.1,0c0,0,0.1,0,0.1,0c4.7-0.9,9.5-0.2,13.7,1.7c0.9,0.4,1.7,0.9,2.6,1.4c2.5,1.6,4.7,3.6,6.4,6
			c0.2,0.3,0.4,0.5,0.6,0.8c0,0,0.1,0.1,0.1,0.1c0.3,0.5,0.6,1,0.9,1.5c1.9,3.9,2.2,8.7-0.2,12.2c-1.4,2-3.6,3.4-4.7,5.7
			c-0.5,1.1-0.7,2.1-0.7,3.3c0,1,0.2,2,0.4,3c1.4,5.2,5.8,10.8,3.8,15.9c-0.2,0.5-0.5,1-0.8,1.4c-2.1,3.1-6.2,4.4-9.5,6.6
			c-1.3,0.8-2.5,1.8-3.4,3.1c-2.7,3.9-1.8,9-1,13.7c0,0.2,0.1,0.4,0.1,0.6c0.1,0.7,0.2,1.5,0.3,2.3c0.4,4.3-0.2,8.9-3.6,11.3
			c-5.4,3.7-14.2-0.8-18.8,3.9c-1.1,1.2-1.7,2.6-2.2,4.2c-0.3,1-0.6,2.1-0.9,3.1c-0.1,0.2-0.1,0.3-0.2,0.5c-0.2,0.6-0.5,1.1-0.7,1.7
			c-2.8,5.4-7.9,7.1-12.5,6.2c-1-0.2-1.9-0.5-2.8-0.9c-5.3-2.3-9.1-7.9-6.7-14.8c0.2-0.6,0.4-1.1,0.7-1.7c0.1-0.2,0.2-0.4,0.3-0.5
			c0.5-0.9,1-1.8,1.6-2.7c0.8-1.4,1.5-2.9,1.6-4.6c0.2-6.6-9.1-9.8-10.1-16.3c-0.8-4.8,3.3-8.8,7.4-11.6c0.1,0,0.1-0.1,0.2-0.1
			c0.7-0.5,1.4-1,2.2-1.5c3.4-2.4,6.8-5.1,7.6-9c0.2-0.9,0.2-1.9,0.1-2.9c-0.3-3.6-2-7.3-2.2-10.8
			C1115.4,195,1115.6,193.7,1116.2,192.4L1116.2,192.4z"/>
		<path id="path308" inkscape:connector-curvature="0" class="st25" d="M1115.5,196.3c5.5,10.9,10.9,21.8,16.3,32.8
			c3.4-7.8,6.8-15.5,10.2-23.3c0,0-0.1-0.1-0.1-0.1c-1.4-1.4-2.3-3.6-3.3-5.4c-2.2-3.8-4.4-7.6-6.6-11.3c-0.8-1.4-1.7-2.9-2.5-4.3
			c0.9-0.4,1.7-0.9,2.5-1.5c2.4,4.2,4.8,8.3,7.2,12.5c1,1.7,2,3.5,3,5.2c0.4,0.6,0.7,1.3,1.1,1.9c2.6-6.1,5.3-12.1,7.9-18.2
			c0.4-0.9,0.8-1.8,1.2-2.7c-3.1-5.9-6.3-11.8-9.4-17.6c0.9-0.4,1.9-0.7,2.8-0.9c2.7,5,5.4,10.1,8.1,15.1c2-4.5,3.9-9,5.9-13.4
			c0.9,0.4,1.7,0.9,2.6,1.4c-1.9,4.3-3.7,8.6-5.6,12.9c4-2.3,8-4.5,12-6.8c0.2,0.3,0.4,0.5,0.6,0.8c0,0,0.1,0.1,0.1,0.1
			c0.3,0.5,0.6,1,0.9,1.5c-5,2.9-10,5.7-15,8.6c-0.1,0.1-0.2,0.1-0.3,0.2c-2.9,6.5-5.7,13-8.5,19.6c3.6-1.4,7.1-2.8,10.7-4.2
			l7.6-2.9c0,1,0.2,2,0.4,3c-6.1,2.4-12.2,4.8-18.4,7.1c-0.6,0.2-1.2,0.4-1.8,0.4c-0.2,0.4-0.3,0.8-0.5,1.1
			c-3.2,7.3-6.4,14.6-9.6,21.9c10.9-4.9,22-9.3,33.3-13.3c-2.1,3.1-6.2,4.4-9.5,6.6c-8.6,3.3-17.1,6.9-25.5,10.7
			c-1.7,4-3.5,8-5.2,12c8.8-1.9,17.6-3.9,26.3-5.8c0,0.2,0.1,0.4,0.1,0.6c0.1,0.7,0.2,1.5,0.3,2.3c-9.4,2.1-18.8,4.2-28.2,6.2
			c-1.3,3.1-2.7,6.2-4,9.3l-2.3,5.3c0.4,0,0.9,0,1.3-0.1c1.8-0.2,3.6-0.5,5.3-0.8c1.1-0.2,2.2-0.4,3.3-0.5c-0.3,1-0.6,2.1-0.9,3.1
			l-2.9,0.5c-2.3,0.4-4.9,1-7.4,0.7c-1,2.4-2.1,4.8-3.1,7.2c-1-0.2-1.9-0.5-2.8-0.9c1.1-2.4,2.1-4.8,3.2-7.2c0,0,0,0,0,0
			c-1.6-1-2.8-2.5-4-4c-1.3-1.6-2.6-3.2-3.9-4.8c-0.3-0.3-0.6-0.7-0.8-1c0.5-0.9,1-1.8,1.6-2.7c0.4,0.4,0.7,0.9,1.1,1.3
			c1.2,1.5,2.4,3,3.7,4.4c1.1,1.4,2.2,3,3.6,4c0,0,0.1,0.1,0.1,0.1c2.3-5.3,4.6-10.6,6.9-15.9c-5.5-8.8-11-17.5-16.5-26.3
			c0.1,0,0.1-0.1,0.2-0.1c0.7-0.5,1.5-1,2.2-1.5c5.2,8.2,10.4,16.5,15.5,24.7c1.3-2.9,2.5-5.8,3.8-8.7c0.4-0.8,0.7-1.7,1.1-2.5
			c-4.2-8.5-8.4-16.9-12.7-25.4C1117.4,203.5,1115.6,199.8,1115.5,196.3L1115.5,196.3z"/>
	</g>
	<g id="g424">
		<g id="g318">
			<polygon id="polygon312" class="st22" points="982.2,321 975.8,134 1127.4,138 1121.5,323.4 			"/>
			<polygon id="polygon314" class="st5" points="987.3,316.3 981.4,138.8 1121.8,142.6 1116.3,318.6 			"/>
			<polygon id="polygon316" class="st22" points="994.9,149.6 1107.8,152.9 1104,309.4 998.9,305.6 			"/>
		</g>
		<polygon id="polygon320" class="st27" points="991.8,145.3 1111.4,148.6 1107.4,305.1 996.1,301.3 		"/>
		<g id="g336">
			<path id="path322" inkscape:connector-curvature="0" class="st28" d="M1024.7,129.6l1.5,21.4l0.2,2.4h51.9l2.3-21.1l-2.8-0.1
				l-8.9-0.4c-0.3-6.1-4-11.3-9.2-13.8c-2.1-1-4.4-1.6-6.9-1.6c-8.1,0-14.8,6-16,13.8l0,0L1024.7,129.6z M1043.5,130.5
				c1.1-3.4,4.8-5.9,9.2-5.9c4.8,0,8.7,2.9,9.4,6.8L1043.5,130.5z"/>
			<g id="g334">
				<path id="path324" inkscape:connector-curvature="0" class="st29" d="M1026.2,151c44.6,3,50.8-12.3,51.5-18.9l2.8,0.1l-2.3,21.1
					h-51.9L1026.2,151L1026.2,151z"/>
				<g id="g330">
					<path id="path326" inkscape:connector-curvature="0" class="st30" d="M1039.8,144c9.1-0.5,22.1-2.4,27.8-9.1l-28.6-1.1
						L1039.8,144z"/>
					<path id="path328" inkscape:connector-curvature="0" class="st30" d="M1029.1,133.4l0.7,10.6c0,0,2.5,0.2,6.1,0.1l-2-10.6
						L1029.1,133.4z"/>
				</g>
				<path id="path332" inkscape:connector-curvature="0" class="st30" d="M1036.6,130.1c1.2-7.8,7.9-13.8,16-13.8
					c2.5,0,4.8,0.6,6.9,1.6C1042.7,116.8,1036.8,129.7,1036.6,130.1L1036.6,130.1z"/>
			</g>
		</g>
		<g id="g340" class="st31">
			<path id="path338" inkscape:connector-curvature="0" class="st32" d="M1078.8,190.4v-18h20.6l-0.9,18H1078.8L1078.8,190.4z
				 M1096,175.7h-13.8v11.4h13.2L1096,175.7z"/>
		</g>
		<g id="g344" class="st31">
			<path id="path342" inkscape:connector-curvature="0" class="st32" d="M1078,222.3v-18h20.6l-0.9,18H1078L1078,222.3z
				 M1095.1,207.5h-13.8V219h13.2L1095.1,207.5z"/>
		</g>
		<g id="g348" class="st31">
			<path id="path346" inkscape:connector-curvature="0" class="st32" d="M1077.1,254.1v-18h20.6l-0.9,18H1077.1L1077.1,254.1z
				 M1094.2,239.4h-13.8v11.4h13.2L1094.2,239.4z"/>
		</g>
		<g id="g356">
			<g id="g354">
				<g id="g352">
					<polygon id="polygon350" class="st33" points="1087.5,183.8 1093.7,177.3 1088.6,174.4 1086.2,179.2 1077.8,169.7 
						1074.2,174.9 					"/>
				</g>
			</g>
		</g>
		<g id="g364">
			<g id="g362">
				<g id="g360">
					<polygon id="polygon358" class="st33" points="1087.5,215.7 1093.7,209.2 1088.6,206.3 1086.2,211.1 1077.8,201.6 
						1074.2,206.8 					"/>
				</g>
			</g>
		</g>
		<g id="g422">
			<g id="g420">
				<g id="g370">
					<g id="g368">
						
							<rect id="rect366" x="1043.3" y="149.5" transform="matrix(2.440006e-02 -0.9997 0.9997 2.440006e-02 846.0737 1213.8242)" class="st34" width="3.3" height="47.8"/>
					</g>
				</g>
				<g id="g376">
					<g id="g374">
						
							<rect id="rect372" x="1033.8" y="147.4" transform="matrix(1.890040e-02 -0.9998 0.9998 1.890040e-02 835.212 1212.6428)" class="st34" width="3.3" height="66.7"/>
					</g>
				</g>
				<g id="g382">
					<g id="g380">
						<rect id="rect378" x="1034.3" y="187.1" class="st34" width="34.6" height="3.3"/>
					</g>
				</g>
				<g id="g388">
					<g id="g386">
						<rect id="rect384" x="1020.6" y="204.2" class="st34" width="48.2" height="3.3"/>
					</g>
				</g>
				<g id="g394">
					<g id="g392">
						<rect id="rect390" x="1039.3" y="210.8" class="st34" width="29.6" height="3.3"/>
					</g>
				</g>
				<g id="g400">
					<g id="g398">
						<rect id="rect396" x="1008.1" y="216.8" class="st34" width="60.8" height="3.3"/>
					</g>
				</g>
				<g id="g406">
					<g id="g404">
						<rect id="rect402" x="1038.8" y="235.6" class="st34" width="30.1" height="3.3"/>
					</g>
				</g>
				<g id="g412">
					<g id="g410">
						
							<rect id="rect408" x="1036" y="220" transform="matrix(8.204725e-03 -1 1 8.204725e-03 778.0013 1286.7679)" class="st34" width="3.3" height="62.3"/>
					</g>
				</g>
				<g id="g418">
					<g id="g416">
						<rect id="rect414" x="1024.5" y="242.7" class="st34" width="44.4" height="3.3"/>
					</g>
				</g>
			</g>
		</g>
	</g>
	<g id="g438">
		<g id="g428">
			
				<rect id="rect426" x="1029" y="273.2" transform="matrix(0.7311 -0.6823 0.6823 0.7311 74.2778 783.1846)" class="st34" width="3.3" height="48.2"/>
		</g>
		<g id="g432">
			
				<rect id="rect430" x="1024.8" y="281.6" transform="matrix(0.7393 -0.6734 0.6734 0.7393 62.9637 770.3943)" class="st34" width="3.3" height="44.5"/>
		</g>
		<g id="g436">
			
				<rect id="rect434" x="1014" y="272.5" transform="matrix(0.7311 -0.6823 0.6823 0.7311 66.4777 774.3752)" class="st34" width="3.3" height="60.8"/>
		</g>
	</g>
	<g id="g450">
		<polygon id="polygon440" class="st22" points="1090.6,335.1 1071.2,331.8 1071.2,315.1 1090.6,318.4 		"/>
		<polygon id="polygon442" class="st5" points="1104,331.8 1090.6,335.1 1090.6,318.4 1104,315.1 		"/>
		<polygon id="polygon444" class="st35" points="1086.3,311.9 1104,315.1 1090.6,318.4 1071.2,315.1 		"/>
		<polygon id="polygon446" class="st22" points="1108.9,320 1104,315.1 1090.6,318.4 1095.8,324.1 		"/>
		<polygon id="polygon448" class="st5" points="1086.8,324.1 1090.6,318.4 1071.2,315.1 1067.1,320.4 		"/>
	</g>
	<g id="g588">
		<g id="g578">
			<path id="path452" inkscape:connector-curvature="0" class="st36" d="M1159.8,254c0,0-3.7-0.3-4-1.7"/>
			<g id="g576">
				<path id="path454" inkscape:connector-curvature="0" class="st24" d="M1140.7,327.1c19.6,0,35.4,2.5,35.4,2.5
					s-15.9,2.5-35.4,2.5c-19.6,0-35.5-2.5-35.5-2.5S1121.1,327.1,1140.7,327.1z"/>
				<g id="g500">
					<g id="g460">
						<g id="g458">
							<path id="path456" inkscape:connector-curvature="0" class="st28" d="M1154.1,329.9l-8.3-115c-0.1-1.1-1-2-2.1-2l0,0
								c-1.2,0-2.2,1-2.1,2.3l8.2,114.7H1154.1z"/>
						</g>
					</g>
					<g id="g494">
						<g id="g464">
							<path id="path462" inkscape:connector-curvature="0" class="st29" d="M1118.3,229.1c-1.1,0-2.1-0.9-2.1-2
								c-0.1-1.2,0.8-2.2,2-2.3l25.4-1.8c1.2-0.1,2.2,0.8,2.3,2s-0.8,2.2-2,2.3l-25.4,1.8C1118.4,229.1,1118.4,229.1,1118.3,229.1
								L1118.3,229.1z"/>
						</g>
						<g id="g468">
							<path id="path466" inkscape:connector-curvature="0" class="st29" d="M1119.2,242.2c-1.1,0-2-0.9-2.1-2
								c-0.1-1.2,0.8-2.2,2-2.3l25.4-1.8c1.2-0.1,2.2,0.8,2.3,2c0.1,1.2-0.8,2.2-2,2.3l-25.4,1.8
								C1119.3,242.2,1119.3,242.2,1119.2,242.2L1119.2,242.2z"/>
						</g>
						<g id="g472">
							<path id="path470" inkscape:connector-curvature="0" class="st29" d="M1120.2,255.2c-1.1,0-2-0.9-2.1-2
								c-0.1-1.2,0.8-2.2,2-2.3l25.4-1.8c1.2-0.1,2.2,0.8,2.3,2c0.1,1.2-0.8,2.2-2,2.3l-25.4,1.8
								C1120.3,255.2,1120.2,255.2,1120.2,255.2L1120.2,255.2z"/>
						</g>
						<g id="g476">
							<path id="path474" inkscape:connector-curvature="0" class="st29" d="M1121.1,268.3c-1.1,0-2.1-0.9-2.1-2
								c-0.1-1.2,0.8-2.2,2-2.3l25.4-1.8c1.2-0.1,2.2,0.8,2.3,2s-0.8,2.2-2,2.3l-25.4,1.8C1121.2,268.3,1121.1,268.3,1121.1,268.3
								L1121.1,268.3z"/>
						</g>
						<g id="g480">
							<path id="path478" inkscape:connector-curvature="0" class="st29" d="M1122,281.3c-1.1,0-2.1-0.9-2.1-2
								c-0.1-1.2,0.8-2.2,2-2.3l25.4-1.8c1.2-0.1,2.2,0.8,2.3,2s-0.8,2.2-2,2.3l-25.4,1.8C1122.1,281.3,1122,281.3,1122,281.3
								L1122,281.3z"/>
						</g>
						<g id="g484">
							<path id="path482" inkscape:connector-curvature="0" class="st29" d="M1122.9,294.4c-1.1,0-2-0.9-2.1-2
								c-0.1-1.2,0.8-2.2,2-2.3l25.4-1.8c1.2-0.1,2.2,0.8,2.3,2c0.1,1.2-0.8,2.2-2,2.3l-25.4,1.8
								C1123,294.4,1122.9,294.4,1122.9,294.4L1122.9,294.4z"/>
						</g>
						<g id="g488">
							<path id="path486" inkscape:connector-curvature="0" class="st29" d="M1121.7,305.5c-0.1-1.2,0.8-2.2,2-2.3l25.4-1.8
								c1.2-0.1,2.2,0.8,2.3,2c0.1,1.2-0.8,2.2-2,2.3l-25.4,1.8c0,0-0.1,0-0.2,0C1122.7,307.5,1121.7,306.6,1121.7,305.5z"/>
						</g>
						<g id="g492">
							<path id="path490" inkscape:connector-curvature="0" class="st29" d="M1124.7,320.5c-1.1,0-2.1-0.9-2.1-2
								c-0.1-1.2,0.8-2.2,2-2.3l25.4-1.8c1.2-0.1,2.2,0.8,2.3,2s-0.8,2.2-2,2.3l-25.4,1.8C1124.8,320.5,1124.8,320.5,1124.7,320.5
								L1124.7,320.5z"/>
						</g>
					</g>
					<g id="g498">
						<path id="path496" inkscape:connector-curvature="0" class="st28" d="M1126.7,329.9l-8.3-115c-0.1-1.1-1-2-2.1-2l0,0
							c-1.2,0-2.2,1-2.1,2.3l8.2,114.7H1126.7z"/>
					</g>
				</g>
				<g id="g574">
					<g id="g570">
						<g id="g520">
							<path id="path502" inkscape:connector-curvature="0" class="st34" d="M1133.1,244.6l12.2,57.3l4.4,0.2
								c0.9-8-3.6-52.2-3.6-52.2L1133.1,244.6z"/>
							<path id="path504" inkscape:connector-curvature="0" class="st18" d="M1122.8,251.8c0.9-2.9,10.4-7.2,10.4-7.2
								s-7.6-31-5.8-32.5c1.7-1.5,8.1-2.2,8.1-2.2l8.9,1.2l6.8,2.3c0.2,0.6-0.3,4.3-0.9,8.7c-0.3,2-0.6,4.2-0.9,6.3
								c-0.8,5.5-1.6,10.4-1.6,10.4s0.4,0.9,0.8,2.4c0.6,2,1.2,4.9,1.3,7.5c0,2.1-0.3,4-1.3,5.3c-3.3,4.3-16.8,5.6-16.8,5.6
								s3.5,6.1,0.6,16.5l-2.9,0C1129.3,276.1,1121.9,254.7,1122.8,251.8z"/>
							<g id="g510">
								<path id="path506" inkscape:connector-curvature="0" class="st36" d="M1138.7,209.9l0.1-0.4l0.7-2.8l3.2-0.5l-0.6,2.9
									l-0.3,1.4l2.5,0.5c0,0-1.2,3.3-4.7,3.2s-4.2-4.4-4.2-4.4L1138.7,209.9z"/>
								<path id="path508" inkscape:connector-curvature="0" class="st37" d="M1139.5,206.8l3.2-0.5l-0.6,2.9
									c-0.7,0.3-1.8,0.6-3.3,0.4L1139.5,206.8z"/>
							</g>
							<path id="path512" inkscape:connector-curvature="0" class="st36" d="M1144.3,201c0,0-0.5,8.6-6.9,7.8
								c-3.2-0.4-2.4-8.9-2.4-8.9L1144.3,201z"/>
							<path id="path514" inkscape:connector-curvature="0" class="st34" d="M1144,200.9l-8.9-1.1l0,4.5c-0.8-0.4-1-4-1-4
								s-1.7-0.2-2.4-7.7c-0.7-7.5,11.3,4,11.3,4c1.8-1.3,4.1,1,4.3,2.7c0.3,1.8-1.3,3.5-2.4,4.7c-0.7,0.8-1.4,1.6-2.2,2.2
								L1144,200.9z"/>
							<g id="g518">
								<path id="path516" inkscape:connector-curvature="0" class="st27" d="M1149.7,304.1h-8.3v-1c0,0,1.3-2,3.2-2.3
									c3.2-0.6,5.1,1.3,5.1,1.3V304.1z"/>
							</g>
						</g>
						<path id="path522" inkscape:connector-curvature="0" class="st18" d="M1147.7,222.3c-0.4-7.3,3.4-8.8,3.4-8.8
							s13.8,16.8,11,27.8l-2.3-0.9l-4.6-1.9c0,0-3.8-4.7-6-10c-0.4-1-0.8-2-1.1-3.1C1147.9,224.3,1147.7,223.3,1147.7,222.3
							L1147.7,222.3z"/>
						<path id="path524" inkscape:connector-curvature="0" class="st38" d="M1148.2,225.3c-2,5.9-5.2,16.4-4.5,20.6
							c0.6,3.1,3.4,3.3,6,2.8c0-2.7-0.7-5.6-1.3-7.5c-0.4-1.5-0.8-2.4-0.8-2.4s0.8-4.9,1.6-10.4c1.8,4.3,4.5,8.1,5.6,9.5h1.9
							l-6.6-15.8l-0.5-1.1C1149.7,221,1149.1,222.7,1148.2,225.3L1148.2,225.3z"/>
						<path id="path526" inkscape:connector-curvature="0" class="st39" d="M1129.3,276.1c0,0-7.4-21.4-6.5-24.3
							c0.9-2.9,10.4-7.2,10.4-7.2l15.3-3.4c1,3.5,2.3,9.9,0,12.9c-3.3,4.3-16.8,5.6-16.8,5.6s3.5,6.1,0.6,16.5L1129.3,276.1
							L1129.3,276.1z"/>
						<g id="g530">
							<path id="path528" inkscape:connector-curvature="0" class="st27" d="M1132.2,278.1h-8.3v-1c0,0,1.3-2,3.2-2.3
								c3.2-0.6,5.1,1.3,5.1,1.3V278.1z"/>
						</g>
						<g id="g562">
							<g id="g538">
								
									<rect id="rect532" x="1117.5" y="177.7" transform="matrix(0.6321 -0.7749 0.7749 0.6321 245.7112 950.1121)" class="st29" width="11.9" height="77.3"/>
								
									<rect id="rect534" x="1120.6" y="176.2" transform="matrix(0.6321 -0.7749 0.7749 0.6321 247.3271 950.5142)" class="st28" width="8.1" height="77.3"/>
								
									<rect id="rect536" x="1123.9" y="174.6" transform="matrix(0.6321 -0.7749 0.7749 0.6321 248.9999 950.9229)" class="st30" width="4" height="77.3"/>
							</g>
							<path id="path540" inkscape:connector-curvature="0" class="st27" d="M1154.2,249.4c0,0-2.3-0.3-3.1-1.1
								c-0.8-0.8-1.4-3.1-1.4-3.1l7.5-9.2c0,0,0.1,0,0.2,0c0.6,0,2.2,0,2.6,0.6c0.5,0.8,0.8,2.4,0.8,2.4s3.9,0.7,4.3,1.8
								c0.4,1.1,0.7,2.9,0.7,2.9l-7.2,8.9c0,0-2,0.2-2.9-0.4c-0.1-0.1-0.2-0.2-0.2-0.3C1154.9,250.8,1154.2,249.4,1154.2,249.4z"/>
							<path id="path542" inkscape:connector-curvature="0" class="st40" d="M1155.7,252.2c2.3-2.4,4.5-5,6.4-7.7
								c0.3-0.5,0.7-1.1,0.5-1.6c-0.4-0.9-1.7-0.7-2.6-0.3c-1.6,0.8-3.7,1.5-4.8,2.6c0.6-0.6,1.5-2.3,2.1-3.1
								c0.6-0.9,1.2-1.8,1.3-2.8c0.1-1.3-0.6-2.2-1.3-3.2c0.6,0,2.2,0,2.6,0.6c0.5,0.8,0.8,2.4,0.8,2.4s3.9,0.7,4.3,1.8
								c0.4,1.1,0.7,2.9,0.7,2.9l-7.2,8.9C1158.5,252.6,1156.5,252.9,1155.7,252.2L1155.7,252.2z"/>
							<g id="g548">
								<path id="path544" inkscape:connector-curvature="0" class="st5" d="M1162.1,256l-3.7-3.5l6.1-7.2l1.3-1.6
									c0,0,5.2,4,5.3,4.3c0,0-3.6,7.8-8.1,8.8L1162.1,256z"/>
								<path id="path546" inkscape:connector-curvature="0" class="st22" d="M1162.1,256c1.1-1.2,2-2.7,2.7-4.2
									c0.6-1.2,1.1-2.4,1-3.8c-0.1-1-0.6-2-1.3-2.8l1.3-1.6c0,0,5.2,4,5.3,4.3c0,0-3.6,7.8-8.1,8.8L1162.1,256z"/>
							</g>
							<polygon id="polygon550" class="st41" points="1080.4,181.2 1082.6,182 1086.6,183.4 1097.3,187.2 1089.7,196.5 
								1088.3,193.9 1084.1,187.2 							"/>
							<path id="path552" inkscape:connector-curvature="0" class="st34" d="M1080.4,181.2l2.2,0.8l4,1.4c-0.4,1.5-1.3,2.8-2.5,3.8
								L1080.4,181.2z"/>
							<g id="g560">
								<polygon id="polygon554" class="st30" points="1092.2,193.5 1091.1,189.9 1094.7,190.4 1094.3,187.7 1097.3,187.2 
									1089.7,196.5 1089.9,194.4 								"/>
								<polygon id="polygon556" class="st28" points="1094.7,190.4 1092.2,193.5 1091.1,189.9 								"/>
								<polygon id="polygon558" class="st29" points="1092.2,193.5 1089.7,196.5 1089.9,194.4 								"/>
							</g>
						</g>
						<g id="g568">
							<path id="path564" inkscape:connector-curvature="0" class="st36" d="M1109.9,213.2c0,0,0.1-6.7,1.7-6.6c1.6,0.1,2,4.2,2,4.2
								s0.3-0.8,0.9-0.7c0.6,0.2-0.7,3.3-0.7,3.3L1109.9,213.2z"/>
							<path id="path566" inkscape:connector-curvature="0" class="st18" d="M1115.5,217.5l-0.9-4.3l-5.3-0.7c0,0,1,8.4,4.4,11.4
								s10.3,0.6,10.3,0.6L1115.5,217.5z"/>
						</g>
					</g>
					<path id="path572" inkscape:connector-curvature="0" class="st36" d="M1155.8,252.2c0,0,1.7-3.9,3.6-3.2
						c2.4,0.9,0.5,4.9,0.5,4.9"/>
				</g>
			</g>
		</g>
		<path id="path580" inkscape:connector-curvature="0" class="st27" d="M1160,206.6L1160,206.6L1160,206.6c-1.2-0.7-2.1-1.9-2.5-3.2
			l-0.3-1.1l-0.3,1.1c-0.4,1.4-1.3,2.5-2.5,3.2l0,0l0,0c1.2,0.7,2.1,1.9,2.5,3.2l0.3,1.1l0.3-1.1
			C1157.9,208.5,1158.8,207.3,1160,206.6z"/>
		<path id="path582" inkscape:connector-curvature="0" class="st27" d="M1158.6,265.3L1158.6,265.3L1158.6,265.3
			c-1.2-0.7-2.1-1.9-2.5-3.2l-0.3-1.1l-0.3,1.1c-0.4,1.4-1.3,2.5-2.5,3.2l0,0l0,0c1.2,0.7,2.1,1.9,2.5,3.2l0.3,1.1l0.3-1.1
			C1156.5,267.1,1157.4,266,1158.6,265.3z"/>
		<path id="path584" inkscape:connector-curvature="0" class="st27" d="M1155.7,196.5L1155.7,196.5L1155.7,196.5
			c-0.7-0.4-1.2-1.1-1.4-1.9l-0.2-0.6l-0.2,0.6c-0.2,0.8-0.8,1.5-1.4,1.9l0,0l0,0c0.7,0.4,1.2,1.1,1.4,1.9l0.2,0.6l0.2-0.6
			C1154.5,197.6,1155,196.9,1155.7,196.5z"/>
		<path id="path586" inkscape:connector-curvature="0" class="st27" d="M1165.4,273.6L1165.4,273.6L1165.4,273.6
			c-0.7-0.4-1.2-1.1-1.4-1.9l-0.2-0.6l-0.2,0.6c-0.2,0.8-0.8,1.5-1.4,1.9l0,0l0,0c0.7,0.4,1.2,1.1,1.4,1.9l0.2,0.6l0.2-0.6
			C1164.2,274.7,1164.7,274,1165.4,273.6z"/>
	</g>
</g>
<g id="g596" transform="translate(2,-47.943049)">
	<path id="path592" inkscape:connector-curvature="0" class="st2" d="M951.9,312L951.9,312c2.4-3.2,1.7-7.7-1.5-10L923,281.8
		c-3.2-2.4-7.7-1.7-10,1.5l0,0c-2.4,3.2-1.7,7.7,1.5,10l27.4,20.3C945.1,315.9,949.6,315.2,951.9,312z"/>
	<path id="path594" inkscape:connector-curvature="0" class="st2" d="M948.4,288.2c2.4-3.2,1.7-7.7-1.5-10l0,0
		c-3.2-2.4-7.7-1.7-10,1.5l-20.3,27.4c-2.4,3.2-1.7,7.7,1.5,10l0,0c3.2,2.4,7.7,1.7,10-1.5L948.4,288.2L948.4,288.2z"/>
</g>
<g id="g602" transform="translate(2,-47.943049)">
	<path id="path598" inkscape:connector-curvature="0" class="st2" d="M1097,172.5L1097,172.5c2.4,0.7,4.9-0.7,5.6-3.1l5.9-20.7
		c0.7-2.4-0.7-4.9-3.1-5.6l0,0c-2.4-0.7-4.9,0.7-5.6,3.1l-5.9,20.7C1093.2,169.3,1094.6,171.8,1097,172.5z"/>
	<path id="path600" inkscape:connector-curvature="0" class="st2" d="M1115.9,161.9L1115.9,161.9c0.7-2.4-0.7-4.9-3.1-5.6l-20.7-5.9
		c-2.4-0.7-4.9,0.7-5.6,3.1l0,0c-0.7,2.4,0.7,4.9,3.1,5.6l20.7,5.9C1112.7,165.7,1115.2,164.3,1115.9,161.9z"/>
</g>
<polygon id="polygon604" class="st42" points="967.3,98.6 996.4,91.3 975.5,69.7 "/>
<polygon id="polygon606" class="st43" points="1149.3,139.4 1150.2,119.5 1132.5,128.7 "/>
<g id="g810" transform="translate(2,-47.943049)">
	<ellipse id="ellipse608" class="st44" cx="761.4" cy="325.3" rx="54" ry="2.8"/>
	<g id="g620">
		
			<rect id="rect610" x="606.8" y="165.1" transform="matrix(0.315 -0.9491 0.9491 0.315 261.6425 736.1651)" class="st45" width="68" height="43.5"/>
		
			<rect id="rect612" x="608.3" y="165.6" transform="matrix(0.315 -0.9491 0.9491 0.315 262.1924 737.9211)" class="st22" width="68" height="43.5"/>
		<polygon id="polygon614" class="st5" points="611,212.8 632.4,148.2 652.2,226.5 		"/>
		
			<rect id="rect616" x="628.5" y="193.6" transform="matrix(0.315 -0.9491 0.9491 0.315 269.6635 761.6682)" class="st27" width="68" height="0.9"/>
		
			<ellipse id="ellipse618" transform="matrix(0.315 -0.9491 0.9491 0.315 289.2258 742.6303)" class="st5" cx="659.1" cy="170.9" rx="9.2" ry="4.6"/>
	</g>
	<g id="g640">
		<path id="path622" inkscape:connector-curvature="0" class="st45" d="M806.2,164.6l6.3,42.4l0.1,0l39.6-9L839.4,157l-5.5,1.2
			c-2.6-7.5-7.9-11.3-14-9.9c-5.6,1.3-8.9,7.6-8.2,15L806.2,164.6z M832.2,163.1c-0.2-0.7,0.1-1.4,0.6-1.9c0,0.1,0.1,0.2,0.1,0.4
			c0.1,0.5,0.6,0.8,1.1,0.7c0.5-0.1,0.8-0.6,0.7-1l0,0c0,0,0-0.1,0-0.1c0-0.1-0.1-0.2-0.1-0.4c0.7,0.2,1.2,0.7,1.4,1.4
			c0,0.1,0,0.3,0,0.4l0,0c0,0.1,0,0.1,0,0.2s0,0.1,0,0.2c0,0.1,0,0.1,0,0.2c0,0.1,0,0.1,0,0.2c0,0.1,0,0.1-0.1,0.2s0,0.1-0.1,0.2
			s-0.1,0.1-0.1,0.1c0,0-0.1,0.1-0.1,0.1c0,0-0.1,0.1-0.1,0.1c0,0.1-0.1,0.1-0.2,0.1c0,0-0.1,0.1-0.1,0.1c-0.1,0-0.1,0.1-0.2,0.1
			c0,0-0.1,0-0.1,0.1c-0.1,0-0.2,0.1-0.4,0.1c-0.1,0-0.2,0.1-0.4,0.1c0,0-0.1,0-0.1,0c-0.1,0-0.2,0-0.2,0c0,0-0.1,0-0.1,0
			c-0.1,0-0.1,0-0.2-0.1c-0.1,0-0.1,0-0.2-0.1c-0.1,0-0.1-0.1-0.2-0.1c0,0-0.1-0.1-0.1-0.1c-0.1,0-0.1-0.1-0.2-0.1
			c0,0-0.1-0.1-0.1-0.1c0,0-0.1-0.1-0.1-0.1c0,0-0.1-0.1-0.1-0.1s-0.1-0.1-0.1-0.2s-0.1-0.1-0.1-0.2
			C832.3,163.3,832.3,163.2,832.2,163.1L832.2,163.1z M820.4,150.1c5.1-1.2,9.4,2.1,11.7,8.5l-18.5,4.2
			C813.1,156.6,815.9,151.2,820.4,150.1L820.4,150.1z M811.7,168.2c0-0.1-0.1-0.2-0.1-0.4c-0.2-0.7,0.1-1.4,0.6-1.9
			c0,0.1,0,0.2,0.1,0.3c0.1,0.5,0.6,0.8,1.1,0.7c0.5-0.1,0.8-0.6,0.7-1.1c0-0.1-0.1-0.3-0.1-0.4c0.7,0.2,1.3,0.7,1.5,1.5
			c0,0.1,0,0.3,0,0.4c0,0.1,0,0.1,0,0.2s0,0.1,0,0.2c0,0.1,0,0.1,0,0.2c0,0.1,0,0.1,0,0.2c0,0.1,0,0.1-0.1,0.2s0,0.1-0.1,0.2
			s-0.1,0.1-0.1,0.1c0,0-0.1,0.1-0.1,0.1c0,0-0.1,0.1-0.1,0.1c0,0.1-0.1,0.1-0.2,0.1c0,0-0.1,0.1-0.1,0.1c-0.1,0-0.1,0.1-0.2,0.1
			c0,0-0.1,0-0.1,0.1c-0.1,0-0.2,0.1-0.4,0.1c-0.1,0-0.2,0.1-0.4,0.1c0,0-0.1,0-0.1,0c-0.1,0-0.2,0-0.2,0c0,0-0.1,0-0.1,0
			c-0.1,0-0.1,0-0.2-0.1c-0.1,0-0.1,0-0.2-0.1c-0.1,0-0.1-0.1-0.2-0.1c0,0-0.1-0.1-0.1-0.1c-0.1,0-0.1-0.1-0.2-0.1
			c0,0-0.1-0.1-0.1-0.1c0,0-0.1-0.1-0.1-0.1c0,0-0.1-0.1-0.1-0.1s-0.1-0.1-0.1-0.2S811.7,168.2,811.7,168.2L811.7,168.2L811.7,168.2
			z"/>
		<path id="path624" inkscape:connector-curvature="0" class="st46" d="M812.5,206.2l39.7-9.1l-12.7-40.9l-33.2,7.6L812.5,206.2z
			 M832.2,162.3c-0.2-1.1,0.4-2.1,1.5-2.4c1.1-0.2,2.1,0.4,2.4,1.5c0.2,1.1-0.4,2.1-1.5,2.4S832.5,163.4,832.2,162.3z M811.6,167.1
			c-0.2-1.1,0.4-2.1,1.5-2.4c1.1-0.2,2.1,0.4,2.4,1.5c0.2,1.1-0.4,2.1-1.5,2.4S811.8,168.1,811.6,167.1z"/>
		<g id="g632">
			<polygon id="polygon626" class="st27" points="806.4,164.5 839.6,157 852.1,197.2 852.2,197.2 839.4,156.2 806.2,163.8 
				812.5,206.2 812.5,206.2 			"/>
			<path id="path628" inkscape:connector-curvature="0" class="st27" d="M814.1,169.3c1.1-0.2,1.7-1.3,1.5-2.4
				c0-0.1-0.1-0.2-0.1-0.4c0,0.9-0.6,1.8-1.5,2s-1.9-0.3-2.2-1.1c0,0.1,0,0.2,0,0.4C812,168.8,813,169.5,814.1,169.3L814.1,169.3z"
				/>
			<path id="path630" inkscape:connector-curvature="0" class="st27" d="M834.8,164.6c1.1-0.2,1.7-1.3,1.5-2.4
				c0-0.1-0.1-0.2-0.1-0.4c0,0.9-0.6,1.8-1.5,2c-0.9,0.2-1.9-0.3-2.2-1.1c0,0.1,0,0.2,0,0.4C832.6,164.1,833.7,164.8,834.8,164.6
				L834.8,164.6z"/>
		</g>
		<g id="g636">
			<path id="path634" inkscape:connector-curvature="0" class="st47" d="M812.2,165.5c-2-8.6,1.5-16.5,7.8-18
				c6.9-1.6,12.7,3.5,14.8,12.8c0.1,0.5-0.2,1-0.7,1.1c-0.5,0.1-1-0.2-1.1-0.7c-1.9-8.4-6.7-12.8-12.5-11.4
				c-5.2,1.2-8.1,8.2-6.4,15.7c0.1,0.5-0.2,1-0.7,1.1S812.3,166,812.2,165.5z"/>
		</g>
		<path id="path638" inkscape:connector-curvature="0" class="st27" d="M820.1,148.3c6.7-1.5,12.4,3.2,14.7,12.2c0,0,0-0.1,0-0.1
			c-2.1-9.4-8-14.4-14.8-12.8c-6.3,1.4-9.8,9.3-7.8,18c0,0,0,0.1,0,0.1C810.6,157.3,814,149.7,820.1,148.3L820.1,148.3z"/>
	</g>
	<g id="g662">
		<path id="path642" inkscape:connector-curvature="0" class="st45" d="M702.7,181l39.2-10.8l0,0l0.1,0l-14.5-40.3l-5.4,1.5
			c-2.9-7.4-8.4-11-14.4-9.3c-5.5,1.5-8.6,8-7.6,15.3l-5.5,1.5L702.7,181z M703.7,142.4c0,0.1-0.1,0.1-0.1,0.1c0,0-0.1,0.1-0.1,0.1
			c-0.1,0.1-0.1,0.1-0.2,0.1c0,0-0.1,0.1-0.1,0.1c-0.1,0.1-0.1,0.1-0.2,0.1c0,0-0.1,0-0.1,0.1c-0.1,0.1-0.2,0.1-0.3,0.1
			s-0.2,0.1-0.4,0.1c0,0-0.1,0-0.1,0c-0.1,0-0.2,0-0.2,0c-0.1,0-0.1,0-0.2,0c-0.1,0-0.1,0-0.2-0.1c-0.1,0-0.1,0-0.2-0.1
			c-0.1,0-0.1-0.1-0.2-0.1c-0.1,0-0.1-0.1-0.2-0.1c-0.1,0-0.1-0.1-0.2-0.1c0,0-0.1-0.1-0.1-0.1c0,0-0.1-0.1-0.1-0.1
			c0-0.1-0.1-0.1-0.1-0.1c0,0-0.1-0.1-0.1-0.1c0-0.1-0.1-0.1-0.1-0.2c-0.1-0.1-0.1-0.2-0.1-0.4c-0.2-0.7,0-1.4,0.5-1.9
			c0,0.1,0.1,0.2,0.1,0.3c0.1,0.5,0.7,0.8,1.2,0.7s0.8-0.7,0.7-1.2c0-0.1-0.1-0.3-0.1-0.4c0.7,0.1,1.3,0.7,1.5,1.4
			c0,0.1,0,0.2,0.1,0.4l0,0c0,0.1,0,0.1,0,0.2c0,0.1,0,0.1,0,0.2c0,0.1,0,0.1,0,0.2c0,0.1,0,0.1,0,0.2c0,0.1,0,0.1-0.1,0.2
			c0,0.1,0,0.1-0.1,0.2C703.7,142.3,703.7,142.4,703.7,142.4L703.7,142.4z M723,134.3c0-0.1-0.1-0.2-0.1-0.4
			c0.7,0.2,1.3,0.7,1.5,1.4c0,0.1,0,0.2,0.1,0.4l0,0c0,0.1,0,0.1,0,0.2c0,0.1,0,0.1,0,0.2c0,0.1,0,0.1,0,0.2c0,0.1,0,0.1,0,0.2
			c0,0.1,0,0.1-0.1,0.2c0,0.1,0,0.1-0.1,0.2c0,0,0,0.1-0.1,0.1c0,0.1-0.1,0.1-0.1,0.2c0,0-0.1,0.1-0.1,0.1c-0.1,0.1-0.1,0.1-0.2,0.1
			c0,0-0.1,0.1-0.1,0.1c-0.1,0.1-0.1,0.1-0.2,0.1c0,0-0.1,0-0.1,0.1c-0.1,0.1-0.2,0.1-0.3,0.1s-0.2,0.1-0.4,0.1c0,0-0.1,0-0.1,0
			c-0.1,0-0.2,0-0.2,0c-0.1,0-0.1,0-0.2,0c-0.1,0-0.1,0-0.2-0.1c-0.1,0-0.1,0-0.2-0.1c-0.1,0-0.1-0.1-0.2-0.1
			c-0.1,0-0.1-0.1-0.2-0.1c-0.1,0-0.1-0.1-0.2-0.1c0,0-0.1-0.1-0.1-0.1c0,0-0.1-0.1-0.1-0.1c0-0.1-0.1-0.1-0.1-0.1
			c0,0-0.1-0.1-0.1-0.1c0-0.1-0.1-0.1-0.1-0.2l0,0c-0.1-0.1-0.1-0.2-0.1-0.4c-0.2-0.7,0-1.4,0.5-1.9c0,0.1,0.1,0.2,0.1,0.4
			c0.1,0.5,0.7,0.8,1.2,0.7C722.8,135.3,723.1,134.8,723,134.3L723,134.3C723,134.3,723,134.3,723,134.3L723,134.3z M720.2,131.9
			l-18.3,5c-0.7-6.3,1.8-11.8,6.2-13C713.2,122.5,717.7,125.5,720.2,131.9z"/>
		<path id="path644" inkscape:connector-curvature="0" class="st48" d="M702.7,180.3l39.3-10.8l-14.5-40.3l-32.9,9L702.7,180.3z
			 M720.6,135.6c-0.3-1.1,0.3-2.1,1.4-2.4s2.1,0.3,2.4,1.4s-0.3,2.1-1.4,2.4S720.9,136.6,720.6,135.6z M700.1,141.2
			c-0.3-1.1,0.3-2.1,1.4-2.4s2.1,0.3,2.4,1.4s-0.3,2.1-1.4,2.4S700.4,142.2,700.1,141.2z"/>
		<g id="g652">
			<polygon id="polygon646" class="st27" points="694.8,138.9 727.7,129.9 741.9,169.5 742,169.5 727.5,129.2 694.6,138.2 
				702.7,180.3 702.8,180.3 			"/>
			<path id="path648" inkscape:connector-curvature="0" class="st27" d="M704.1,140.9c0-0.1-0.1-0.2-0.1-0.4
				c0.1,0.9-0.5,1.8-1.4,2.1s-1.9-0.2-2.3-1c0,0.1,0,0.2,0.1,0.4c0.3,1.1,1.4,1.7,2.4,1.4S704.4,141.9,704.1,140.9z"/>
			<path id="path650" inkscape:connector-curvature="0" class="st27" d="M724.6,135.2c0-0.1-0.1-0.2-0.1-0.4
				c0.1,0.9-0.5,1.8-1.4,2.1s-1.9-0.2-2.3-1c0,0.1,0,0.2,0.1,0.4c0.3,1.1,1.4,1.7,2.4,1.4S724.9,136.3,724.6,135.2z"/>
		</g>
		<g id="g656">
			<path id="path654" inkscape:connector-curvature="0" class="st47" d="M701.8,140.3c-0.5,0.1-1-0.1-1.2-0.7
				c-2.3-8.5,0.7-16.6,7-18.3c6.8-1.9,12.8,2.9,15.3,12.2c0.1,0.5-0.2,1-0.7,1.2s-1-0.2-1.2-0.7c-2.3-8.3-7.3-12.4-13-10.9
				c-5.1,1.4-7.7,8.6-5.7,16C702.6,139.6,702.3,140.1,701.8,140.3L701.8,140.3z"/>
		</g>
		<path id="path658" inkscape:connector-curvature="0" class="st27" d="M723,133.6c0,0,0-0.1,0-0.1c-2.5-9.3-8.6-14-15.3-12.2
			c-6.3,1.7-9.3,9.8-7,18.3c0,0,0,0.1,0,0.1c-2-8.3,1-16,7.2-17.7C714.5,120.2,720.4,124.8,723,133.6z"/>
		<circle id="circle660" class="st22" cx="716.6" cy="154.5" r="10.3"/>
	</g>
	<g id="g676">
		
			<rect id="rect664" x="736.7" y="141.8" transform="matrix(0.3182 -0.948 0.948 0.3182 357.7724 833.4122)" class="st45" width="43.3" height="52.2"/>
		
			<rect id="rect666" x="737.1" y="140.5" transform="matrix(0.3182 -0.948 0.948 0.3182 359.3245 832.9268)" class="st22" width="43.3" height="52.2"/>
		
			<rect id="rect668" x="765.1" y="120.4" transform="matrix(0.3182 -0.948 0.948 0.3182 383.0457 825.6061)" class="st27" width="0.7" height="52.2"/>
		
			<rect id="rect670" x="761.2" y="128.7" transform="matrix(0.3182 -0.948 0.948 0.3182 373.2549 828.6318)" class="st5" width="3.1" height="52.2"/>
		
			<rect id="rect672" x="759.8" y="132.6" transform="matrix(0.3182 -0.948 0.948 0.3182 368.6296 830.0589)" class="st5" width="3.1" height="52.2"/>
		<circle id="circle674" class="st5" cx="769.5" cy="183.3" r="5.9"/>
	</g>
	<g id="g696">
		
			<rect id="rect678" x="748.5" y="206.8" transform="matrix(0.9919 -0.127 0.127 0.9919 -22.3021 99.8009)" class="st49" width="45.9" height="36"/>
		
			<rect id="rect680" x="748.5" y="206" transform="matrix(0.9919 -0.127 0.127 0.9919 -22.2056 99.7946)" class="st48" width="45.9" height="36"/>
		
			<rect id="rect682" x="780.1" y="208" transform="matrix(0.9919 -0.127 0.127 0.9919 -20.5277 101.3716)" class="st22" width="9.1" height="7.4"/>
		
			<rect id="rect684" x="766.8" y="236.3" transform="matrix(0.9919 -0.127 0.127 0.9919 -23.7712 100.9298)" class="st22" width="25.6" height="1.1"/>
		
			<rect id="rect686" x="766.5" y="234.2" transform="matrix(0.9919 -0.127 0.127 0.9919 -23.503 100.8771)" class="st22" width="25.6" height="1.1"/>
		
			<rect id="rect688" x="766.3" y="232" transform="matrix(0.9919 -0.127 0.127 0.9919 -23.2334 100.8255)" class="st22" width="25.6" height="1.1"/>
		
			<rect id="rect690" x="748.4" y="220.8" transform="matrix(0.9919 -0.127 0.127 0.9919 -22.3189 97.5354)" class="st46" width="10.7" height="6"/>
		
			<rect id="rect692" x="748.5" y="223.8" transform="matrix(0.9919 -0.127 0.127 0.9919 -22.5079 97.5716)" class="st50" width="10.7" height="3"/>
		
			<rect id="rect694" x="746.3" y="206.2" transform="matrix(0.9919 -0.127 0.127 0.9919 -20.005 99.3689)" class="st27" width="45.9" height="0.7"/>
	</g>
	<g id="g718">
		
			<rect id="rect698" x="704.3" y="185.8" transform="matrix(0.6116 -0.7912 0.7912 0.6116 103.6725 650.3848)" class="st45" width="20" height="67.6"/>
		
			<rect id="rect700" x="704.8" y="185.1" transform="matrix(0.6116 -0.7912 0.7912 0.6116 104.4905 650.559)" class="st46" width="20" height="67.6"/>
		
			<rect id="rect702" x="706.8" y="189" transform="matrix(0.6116 -0.7912 0.7912 0.6116 100.181 649.6708)" class="st50" width="10" height="67.6"/>
		
			<rect id="rect704" x="736.4" y="233.1" transform="matrix(0.6116 -0.7912 0.7912 0.6116 99.0153 674.9786)" class="st51" width="1.1" height="7.1"/>
		
			<rect id="rect706" x="737.1" y="232.3" transform="matrix(0.6116 -0.7912 0.7912 0.6116 99.9312 675.168)" class="st48" width="1.1" height="7.1"/>
		
			<rect id="rect708" x="691.5" y="198.3" transform="matrix(0.6116 -0.7912 0.7912 0.6116 109.0455 625.9284)" class="st51" width="1.1" height="7.1"/>
		
			<rect id="rect710" x="692.1" y="197.5" transform="matrix(0.6116 -0.7912 0.7912 0.6116 109.9615 626.1177)" class="st48" width="1.1" height="7.1"/>
		<circle id="circle712" class="st22" cx="740.7" cy="232.1" r="2.9"/>
		
			<rect id="rect714" x="730" y="220.5" transform="matrix(0.6116 -0.7912 0.7912 0.6116 105.8043 667.6869)" class="st22" width="5.8" height="11.1"/>
		
			<rect id="rect716" x="720.3" y="177.5" transform="matrix(0.6116 -0.7912 0.7912 0.6116 112.7818 652.2508)" class="st27" width="0.8" height="67.6"/>
	</g>
	<g id="g754">
		<g id="g726" class="st31">
			<path id="path720" inkscape:connector-curvature="0" class="st18" d="M713.5,253.2l11.1,35.9c0.8,2.5,3,4.2,5.5,4.2h59.1l5.1,7
				c1.1,1.6,0.3,2.4-1,2.4h-65.7c-1.2,0-2.2,1-2.2,2.2c0,1.2,1,2.2,2.2,2.2h70.8c3.5,0,4.1-3.3,2.7-5l-7-8.9h7.1
				c2.8,0,5.2-2.1,5.7-5l7.8-44.6c0.2-1,0.1-2-0.2-2.9l8.3-6.9c0.5-0.4,1.2-0.7,1.9-0.7h4.9c0.1,0.2,0.3,0.5,0.5,0.7
				c2,2.5,5.7,2.8,8.1,0.7c2.5-2,2.8-5.7,0.7-8.1c-2-2.5-5.7-2.8-8.1-0.7c-0.5,0.4-0.9,0.9-1.2,1.4h-7c-0.7,0-1.4,0.2-1.9,0.7
				l-10.5,8.7c-0.5-0.1-1.1-0.2-1.7-0.1l-89.9,8.7C714.8,245.6,712.3,249.5,713.5,253.2z M805.2,244.2l1.9-0.2l-1.9,10.9V244.2z
				 M796.4,286v-9.8h4.4v4.2l-1,5.6H796.4L796.4,286z M796.4,261.4h4.4v10.4h-4.4V261.4z M796.4,245.1l4.4-0.4V257h-4.4V245.1z
				 M787.5,276.2h4.4v9.8h-4.4V276.2z M787.5,261.4h4.4v10.4h-4.4V261.4z M787.5,245.9l4.4-0.4V257h-4.4V245.9z M778.6,276.2h4.4
				v9.8h-4.4V276.2z M778.6,261.4h4.4v10.4h-4.4V261.4z M778.6,246.8l4.4-0.4V257h-4.4V246.8z M769.8,276.2h4.4v9.8h-4.4V276.2z
				 M769.8,261.4h4.4v10.4h-4.4V261.4z M769.8,247.6l4.4-0.4v9.8h-4.4V247.6z M760.9,276.2h4.4v9.8h-4.4V276.2z M760.9,261.4h4.4
				v10.4h-4.4V261.4z M760.9,248.5l4.4-0.4v8.9h-4.4V248.5z M752,276.2h4.4v9.8H752V276.2z M752,261.4h4.4v10.4H752V261.4z
				 M752,249.3l4.4-0.4v8.1H752V249.3z M743.2,276.2h4.4v9.8h-4.4V276.2z M743.2,261.4h4.4v10.4h-4.4V261.4z M743.2,250.2l4.4-0.4
				v7.2h-4.4V250.2z M734.3,276.2h4.4v9.8h-4.4V276.2z M734.3,261.4h4.4v10.4h-4.4V261.4z M734.3,251l4.4-0.4v6.4h-4.4V251z
				 M728.3,276.2h1.5v5L728.3,276.2z M723.7,261.4h6.1v10.4H727L723.7,261.4z M720.9,252.3l9-0.9v5.5h-7.5L720.9,252.3z"/>
			<path id="path722" inkscape:connector-curvature="0" class="st18" d="M780.4,317.4c0,4.8,3.9,8.7,8.7,8.7s8.7-3.9,8.7-8.7
				s-3.9-8.7-8.7-8.7S780.4,312.6,780.4,317.4z M785.9,317.4c0-1.8,1.5-3.3,3.3-3.3c1.8,0,3.3,1.5,3.3,3.3s-1.5,3.3-3.3,3.3
				C787.3,320.7,785.9,319.2,785.9,317.4z"/>
			<path id="path724" inkscape:connector-curvature="0" class="st18" d="M731.5,317.4c0,4.8,3.9,8.7,8.7,8.7s8.7-3.9,8.7-8.7
				s-3.9-8.7-8.7-8.7C735.4,308.6,731.5,312.6,731.5,317.4z M737,317.4c0-1.8,1.5-3.3,3.3-3.3c1.8,0,3.3,1.5,3.3,3.3
				s-1.5,3.3-3.3,3.3C738.5,320.7,737,319.2,737,317.4z"/>
		</g>
		<g id="g752">
			<g id="g732">
				<path id="path728" inkscape:connector-curvature="0" class="st27" d="M797.9,317c0-0.1,0-0.3,0-0.4c0-4.8-3.9-8.7-8.7-8.7
					s-8.7,3.9-8.7,8.7c0,0.1,0,0.3,0,0.4c0.2-4.6,4-8.3,8.7-8.3C793.8,308.6,797.7,312.3,797.9,317z"/>
				<path id="path730" inkscape:connector-curvature="0" class="st27" d="M792.4,317.4c0-0.1,0-0.3,0-0.4c-0.2,1.6-1.6,2.9-3.2,2.9
					c-1.7,0-3-1.3-3.2-2.9c0,0.1,0,0.3,0,0.4c0,1.8,1.5,3.3,3.3,3.3C791,320.7,792.4,319.2,792.4,317.4z"/>
			</g>
			<g id="g738">
				<path id="path734" inkscape:connector-curvature="0" class="st27" d="M749,317c0-0.1,0-0.3,0-0.4c0-4.8-3.9-8.7-8.7-8.7
					s-8.7,3.9-8.7,8.7c0,0.1,0,0.3,0,0.4c0.2-4.6,4-8.3,8.7-8.3C745,308.6,748.8,312.3,749,317z"/>
				<path id="path736" inkscape:connector-curvature="0" class="st27" d="M743.5,317.4c0-0.1,0-0.3,0-0.4c-0.2,1.6-1.6,2.9-3.2,2.9
					c-1.7,0-3-1.3-3.2-2.9c0,0.1,0,0.3,0,0.4c0,1.8,1.5,3.3,3.3,3.3C742.1,320.7,743.5,319.2,743.5,317.4z"/>
			</g>
			<g id="g744">
				<path id="path740" inkscape:connector-curvature="0" class="st47" d="M785.9,315.8c0,0.1,0,0.3,0,0.4c0.2-1.6,1.6-2.9,3.2-2.9
					c1.7,0,3,1.3,3.2,2.9c0-0.1,0-0.3,0-0.4c0-1.8-1.5-3.3-3.3-3.3C787.3,312.5,785.9,314,785.9,315.8z"/>
				<path id="path742" inkscape:connector-curvature="0" class="st47" d="M780.4,316.2c0,0.1,0,0.3,0,0.4c0,4.8,3.9,8.7,8.7,8.7
					s8.7-3.9,8.7-8.7c0-0.1,0-0.3,0-0.4c-0.2,4.6-4,8.3-8.7,8.3S780.6,320.8,780.4,316.2z"/>
			</g>
			<g id="g750">
				<path id="path746" inkscape:connector-curvature="0" class="st47" d="M737,315.8c0,0.1,0,0.3,0,0.4c0.2-1.6,1.6-2.9,3.2-2.9
					c1.7,0,3,1.3,3.2,2.9c0-0.1,0-0.3,0-0.4c0-1.8-1.5-3.3-3.3-3.3C738.5,312.5,737,314,737,315.8z"/>
				<path id="path748" inkscape:connector-curvature="0" class="st47" d="M731.5,316.2c0,0.1,0,0.3,0,0.4c0,4.8,3.9,8.7,8.7,8.7
					s8.7-3.9,8.7-8.7c0-0.1,0-0.3,0-0.4c-0.2,4.6-4,8.3-8.7,8.3S731.7,320.8,731.5,316.2z"/>
			</g>
		</g>
	</g>
	<circle id="circle756" class="st49" cx="718.3" cy="196.4" r="3.5"/>
	<circle id="circle758" class="st46" cx="718.3" cy="195.7" r="3.5"/>
	<path id="path760" inkscape:connector-curvature="0" class="st27" d="M718.3,193c1.8,0,3.3,1.4,3.5,3.1c0-0.1,0-0.2,0-0.4
		c0-1.9-1.6-3.5-3.5-3.5c-1.9,0-3.5,1.6-3.5,3.5c0,0.1,0,0.3,0,0.4C715,194.3,716.5,193,718.3,193L718.3,193z"/>
	<circle id="circle762" class="st49" cx="663.3" cy="151.7" r="3.5"/>
	<circle id="circle764" class="st46" cx="663.3" cy="151" r="3.5"/>
	<path id="path766" inkscape:connector-curvature="0" class="st27" d="M663.3,148.3c1.8,0,3.3,1.3,3.5,3.1c0-0.1,0-0.2,0-0.4
		c0-1.9-1.6-3.5-3.5-3.5c-1.9,0-3.5,1.6-3.5,3.5c0,0.1,0,0.3,0,0.4C660,149.6,661.5,148.3,663.3,148.3L663.3,148.3z"/>
	<circle id="circle768" class="st49" cx="799.1" cy="146.9" r="3.5"/>
	<circle id="circle770" class="st46" cx="799.1" cy="146.1" r="3.5"/>
	<path id="path772" inkscape:connector-curvature="0" class="st27" d="M799,143.4c1.8,0,3.3,1.3,3.5,3.1c0-0.1,0-0.2,0-0.4
		c0-1.9-1.6-3.5-3.5-3.5c-1.9,0-3.5,1.6-3.5,3.5c0,0.1,0,0.3,0,0.4C795.8,144.8,797.3,143.4,799,143.4L799,143.4z"/>
	<circle id="circle774" class="st49" cx="685" cy="162.2" r="3.5"/>
	<circle id="circle776" class="st22" cx="685" cy="161.5" r="3.5"/>
	<path id="path778" inkscape:connector-curvature="0" class="st27" d="M685,158.8c1.8,0,3.3,1.3,3.5,3.1c0-0.1,0-0.2,0-0.4
		c0-1.9-1.6-3.5-3.5-3.5c-1.9,0-3.5,1.6-3.5,3.5c0,0.1,0,0.3,0,0.4C681.8,160.1,683.2,158.8,685,158.8L685,158.8z"/>
	<circle id="circle780" class="st49" cx="808.6" cy="215.9" r="3.5"/>
	<circle id="circle782" class="st52" cx="808.6" cy="215.1" r="3.5"/>
	<path id="path784" inkscape:connector-curvature="0" class="st27" d="M808.6,212.4c1.8,0,3.3,1.4,3.5,3.1c0-0.1,0-0.2,0-0.4
		c0-1.9-1.6-3.5-3.5-3.5c-1.9,0-3.5,1.6-3.5,3.5c0,0.1,0,0.3,0,0.4C805.4,213.7,806.8,212.4,808.6,212.4L808.6,212.4z"/>
	<circle id="circle786" class="st49" cx="870.6" cy="134.2" r="3.5"/>
	<circle id="circle788" class="st22" cx="870.6" cy="133.4" r="3.5"/>
	<path id="path790" inkscape:connector-curvature="0" class="st5" d="M870.6,130.7c1.8,0,3.3,1.3,3.5,3.1c0-0.1,0-0.2,0-0.4
		c0-1.9-1.6-3.5-3.5-3.5c-1.9,0-3.5,1.6-3.5,3.5c0,0.1,0,0.3,0,0.4C867.4,132.1,868.9,130.7,870.6,130.7L870.6,130.7z"/>
	<circle id="circle792" class="st49" cx="802.5" cy="122.1" r="3.5"/>
	<circle id="circle794" class="st48" cx="802.5" cy="121.3" r="3.5"/>
	<path id="path796" inkscape:connector-curvature="0" class="st27" d="M802.5,118.6c1.8,0,3.3,1.3,3.5,3.1c0-0.1,0-0.2,0-0.4
		c0-1.9-1.6-3.5-3.5-3.5c-1.9,0-3.5,1.6-3.5,3.5c0,0.1,0,0.3,0,0.4C799.3,119.9,800.7,118.6,802.5,118.6L802.5,118.6z"/>
	<circle id="circle798" class="st49" cx="852.2" cy="207.5" r="3.5"/>
	<circle id="circle800" class="st48" cx="852.2" cy="207.5" r="3.5"/>
	<path id="path802" inkscape:connector-curvature="0" class="st27" d="M852.1,207.5c1.8,0,3.3,1.3,3.5,3.1c0-0.1,0-0.2,0-0.4
		c0-1.9-1.6-3.5-3.5-3.5c-1.9,0-3.5,1.6-3.5,3.5c0,0.1,0,0.3,0,0.4C848.9,208.9,850.4,207.5,852.1,207.5L852.1,207.5z"/>
	<circle id="circle804" class="st49" cx="677.2" cy="184.5" r="3.5"/>
	<circle id="circle806" class="st48" cx="677.2" cy="183.7" r="3.5"/>
	<path id="path808" inkscape:connector-curvature="0" class="st27" d="M677.1,181c1.8,0,3.3,1.3,3.5,3.1c0-0.1,0-0.2,0-0.4
		c0-1.9-1.6-3.5-3.5-3.5c-1.9,0-3.5,1.6-3.5,3.5c0,0.1,0,0.3,0,0.4C673.9,182.4,675.4,181,677.1,181L677.1,181z"/>
</g>
<g id="g1044" transform="translate(2,-47.943049)">
	<g id="g1008">
		<g id="g818">
			<path id="path812" inkscape:connector-curvature="0" class="st53" d="M436.2,190c-33.1-26.2-29.6-74-29.6-74l-49.8,5.7
				c0,0,2.6,52.6,22.3,73.8C398.8,216.7,436.2,190,436.2,190z"/>
			<path id="path814" inkscape:connector-curvature="0" class="st54" d="M451.9,153.1c0,0-15.2,10.8-3.7,21.9s8.5,17.9,8.5,17.9
				c-20.4,5.4-39.4,9.6-54.8,10.6c0,0,3.6-5.5-5.8-24.1c-9.5-18.6,0.7-19.6,0.7-19.6L451.9,153.1z"/>
			<path id="path816" inkscape:connector-curvature="0" class="st55" d="M394.4,175.9c0.8-0.5,1.6-0.9,2.4-1.3
				c14.5-6.9,31-9.2,47.2-7.6c-0.6-7.8,7.9-13.9,7.9-13.9l-55.2,6.8C396.8,159.9,388,160.8,394.4,175.9z"/>
		</g>
		<path id="path820" inkscape:connector-curvature="0" class="st56" d="M510.2,328.3c5.5,5,71.1-23.4,71.1-23.4
			c3.5-1.1,4.5-5.3,1.6-7c0,0-97.7-60.4-105.9-62.9s-83.7-17.3-78.7,10.4C402.9,270.6,447.2,272.1,510.2,328.3L510.2,328.3z"/>
		<g id="g1002">
			<g id="g992">
				<path id="path822" inkscape:connector-curvature="0" class="st57" d="M515.5,303.1c1.8,9.5,1.2,15.5,0.3,22.7l72-23.4
					c5.4-4.3,3.3-15-1.5-21.3L515.5,303.1L515.5,303.1z"/>
				<g id="g832">
					<g id="g830" class="st31">
						<path id="path824" inkscape:connector-curvature="0" class="st58" d="M427.5,198.4c1.7,2,2.7,4.3,3.3,6.8
							c0.5,2.4,0.6,4.9,0,7.2c-0.6,2-1.9,4.5-4.5,4.9c0.2,0,0.3-0.1,0.5-0.1c9.5-1.6,18.9-3.4,28.3-5.1c9.6-1.7,19.2-3.4,28.8-5.2
							c2.3-0.4,3.8-1.8,4.7-3.8c1.6-3.8,1-8.4-0.8-12.1c-1.3-2.9-4.2-6.6-8.2-6.1c-0.8,0.1-1.5,0.3-2.3,0.4
							c-10.7,1.9-21.5,3.9-32.2,5.8c-7.9,1.4-15.8,2.9-23.7,4.3C423.9,195,426.1,196.7,427.5,198.4z"/>
						<g id="g828">
							<path id="path826" inkscape:connector-curvature="0" class="st57" d="M422.8,195.4c4.1,0.5,7.8,5.9,8.4,11.9
								c0.6,6.1-2.2,10.5-6.3,10c-4.1-0.5-7.8-5.9-8.4-11.9C415.9,199.4,418.7,194.9,422.8,195.4L422.8,195.4z"/>
						</g>
					</g>
				</g>
				<path id="path834" inkscape:connector-curvature="0" class="st18" d="M410.9,237.5c-0.6-10,4-23.5,16.5-29.6
					c0.1-0.1,0.2-0.1,0.3-0.2l0,0c1.8,0.9,3.6,1.9,5.4,2.9c37.5,21.2,76.4,58.5,88.7,87.1c0.4,1,0.8,2,1.2,2.9
					c3.5,7.3-1.4,21.8-7.1,25l-0.3-0.3l-47-44.8C446.1,260.9,417.7,266.7,410.9,237.5L410.9,237.5z"/>
				<path id="path836" inkscape:connector-curvature="0" class="st58" d="M428.9,207.6l61.7-13.5c2.8-0.6,5.8,0,8.1,1.6
					c51.4,36,87.7,85.4,87.7,85.4l-62.8,19.5l-0.7,0.2c-35-50.8-94.8-92.6-95.2-93l0,0L428.9,207.6z"/>
				<g id="g840">
					<path id="path838" inkscape:connector-curvature="0" class="st59" d="M427.3,208c0.1-0.1,0.2-0.1,0.3-0.2l1.2-0.3
						c1.4,1.1,60.3,43.7,92.8,90.3c0.9,1.8,7.7,15.2-5.9,27.9l-0.3-0.3c1.2-1.3,2.9-3.4,4.4-6.1c0.1-0.1,0.1-0.2,0.2-0.3
						c4.1-7.7,3.4-16.7-1.8-23.8C494.8,265.7,466.9,237.5,427.3,208L427.3,208z"/>
				</g>
				<path id="path842" inkscape:connector-curvature="0" class="st59" d="M538.2,236c-12.3,5.9-30.5,11.1-52.3,14.7
					c9.9,9.5,30.5,31.5,39,44.2l53.2-16.2C565.2,262.2,545.5,241.1,538.2,236L538.2,236z"/>
				<g id="g876">
					<g id="g850">
						<polygon id="polygon844" class="st60" points="548,248.3 547.9,246.9 538.2,249.7 537.9,251.4 						"/>
						<path id="path846" inkscape:connector-curvature="0" class="st61" d="M531.1,242.1c3.2,2.8,5.8,5.1,7,7.6l-0.3,1.7l-7.4-7.8
							L531.1,242.1L531.1,242.1z"/>
						<path id="path848" inkscape:connector-curvature="0" class="st62" d="M531.1,242.1c1.8,1.7,5.5,5.3,7,7.6l9.8-2.8
							c-2.3-2.9-6.2-6.3-7.5-7.2L531.1,242.1z"/>
					</g>
					<g id="g858">
						<polygon id="polygon852" class="st60" points="535.9,251.7 535.8,250.3 526.1,253.1 525.8,254.8 						"/>
						<path id="path854" inkscape:connector-curvature="0" class="st61" d="M519,245.5c3.2,2.8,5.8,5,7,7.6l-0.3,1.7l-7.4-7.8
							L519,245.5L519,245.5z"/>
						<path id="path856" inkscape:connector-curvature="0" class="st62" d="M519,245.5c1.8,1.7,5.5,5.3,7,7.6l9.8-2.8
							c-2.3-2.9-6.2-6.3-7.5-7.2L519,245.5z"/>
					</g>
					<g id="g866">
						<polygon id="polygon860" class="st60" points="523.8,255.1 523.8,253.7 514,256.5 513.7,258.2 						"/>
						<path id="path862" inkscape:connector-curvature="0" class="st61" d="M507,248.9c3.2,2.8,5.8,5,7,7.6l-0.3,1.7l-7.4-7.8
							L507,248.9L507,248.9z"/>
						<path id="path864" inkscape:connector-curvature="0" class="st62" d="M507,248.9c1.8,1.7,5.5,5.3,7,7.6l9.8-2.8
							c-2.3-2.9-6.2-6.3-7.5-7.2L507,248.9z"/>
					</g>
					<g id="g874">
						<polygon id="polygon868" class="st63" points="511.8,258.5 511.7,257.1 501.9,259.9 501.6,261.6 						"/>
						<path id="path870" inkscape:connector-curvature="0" class="st64" d="M494.9,252.3c3.2,2.8,5.8,5.1,7,7.6l-0.3,1.7l-7.4-7.8
							L494.9,252.3L494.9,252.3z"/>
						<path id="path872" inkscape:connector-curvature="0" class="st22" d="M494.9,252.3c1.8,1.7,5.5,5.3,7,7.6l9.8-2.8
							c-2.3-2.9-6.2-6.3-7.5-7.2L494.9,252.3z"/>
					</g>
				</g>
				<g id="g888">
					<path id="path878" inkscape:connector-curvature="0" class="st18" d="M493.9,198.2c12.9,8.8,27.9,21.1,38.2,32.7l-2.3,0.6
						l-46.5,12.6c-10.7-11.2-25.4-24.5-38.6-33.8c-0.7-0.5-1.5-1-2.2-1.5L493.9,198.2z"/>
					<path id="path880" inkscape:connector-curvature="0" class="st57" d="M493.9,198.2c14.1,9.6,27.2,19.6,38.2,32.7l-2.3,0.6
						l-36.8-31.1L493.9,198.2L493.9,198.2z"/>
					<path id="path882" inkscape:connector-curvature="0" class="st57" d="M492.9,200.4c11.2,7.5,25.5,20,36.8,31.1l-46.5,12.6
						c-10.7-11.2-25.4-24.5-38.6-33.8L492.9,200.4z"/>
					<path id="path884" inkscape:connector-curvature="0" class="st65" d="M444.7,210.3c6,4.3,12.4,9.4,18.5,14.7
						c21.8-0.1,43.5,1.2,64.9,4.8c-5.5-5.4-11.7-10.9-17.7-16.1c-13.5-3.9-27.5-6.6-41.7-8.4L444.7,210.3L444.7,210.3z"/>
					<path id="path886" inkscape:connector-curvature="0" class="st59" d="M493.9,198.2l-0.2,0.5c0,0,22,13,38.5,32.2
						C518.3,212.8,493.9,198.2,493.9,198.2z"/>
				</g>
				<g id="g922">
					<g id="g896">
						<polygon id="polygon890" class="st60" points="556.7,257.9 556.6,256.5 546.8,259.3 546.5,261 						"/>
						<path id="path892" inkscape:connector-curvature="0" class="st61" d="M539.8,251.7c3.2,2.8,5.8,5,7,7.6l-0.3,1.7l-7.4-7.8
							L539.8,251.7L539.8,251.7z"/>
						<path id="path894" inkscape:connector-curvature="0" class="st62" d="M539.8,251.7c1.8,1.7,5.5,5.3,7,7.6l9.8-2.8
							c-2.3-2.9-6.2-6.3-7.5-7.2L539.8,251.7z"/>
					</g>
					<g id="g904">
						<polygon id="polygon898" class="st60" points="544.6,261.3 544.5,259.9 534.7,262.7 534.4,264.4 						"/>
						<path id="path900" inkscape:connector-curvature="0" class="st61" d="M527.7,255.1c3.2,2.8,5.8,5.1,7,7.6l-0.3,1.7l-7.4-7.8
							L527.7,255.1L527.7,255.1z"/>
						<path id="path902" inkscape:connector-curvature="0" class="st62" d="M527.7,255.1c1.8,1.7,5.5,5.3,7,7.6l9.8-2.8
							c-2.3-2.9-6.2-6.3-7.5-7.2L527.7,255.1z"/>
					</g>
					<g id="g912">
						<polygon id="polygon906" class="st60" points="532.5,264.7 532.4,263.3 522.6,266.1 522.4,267.8 						"/>
						<path id="path908" inkscape:connector-curvature="0" class="st61" d="M515.6,258.5c3.2,2.8,5.8,5,7,7.6l-0.3,1.7l-7.4-7.8
							L515.6,258.5L515.6,258.5z"/>
						<path id="path910" inkscape:connector-curvature="0" class="st62" d="M515.6,258.5c1.8,1.7,5.5,5.3,7,7.6l9.8-2.8
							c-2.3-2.9-6.2-6.3-7.5-7.2L515.6,258.5z"/>
					</g>
					<g id="g920">
						<polygon id="polygon914" class="st63" points="520.4,268.1 520.3,266.7 510.6,269.5 510.3,271.2 						"/>
						<path id="path916" inkscape:connector-curvature="0" class="st64" d="M503.5,261.9c3.2,2.8,5.8,5,7,7.6l-0.3,1.7l-7.4-7.8
							L503.5,261.9L503.5,261.9z"/>
						<path id="path918" inkscape:connector-curvature="0" class="st22" d="M503.5,261.9c1.8,1.7,5.5,5.3,7,7.6l9.8-2.8
							c-2.3-2.9-6.2-6.3-7.5-7.2L503.5,261.9z"/>
					</g>
				</g>
				<g id="g956">
					<g id="g930">
						<polygon id="polygon924" class="st60" points="565.1,268.1 565,266.6 555.3,269.4 555,271.1 						"/>
						<path id="path926" inkscape:connector-curvature="0" class="st61" d="M548.2,261.8c3.2,2.8,5.8,5,7,7.6l-0.3,1.7l-7.4-7.8
							L548.2,261.8L548.2,261.8z"/>
						<path id="path928" inkscape:connector-curvature="0" class="st62" d="M548.3,261.8c1.8,1.7,5.5,5.3,7,7.6l9.8-2.8
							c-2.3-2.9-6.2-6.3-7.5-7.2L548.3,261.8z"/>
					</g>
					<g id="g938">
						<polygon id="polygon932" class="st60" points="553.1,271.5 553,270 543.2,272.8 542.9,274.5 						"/>
						<path id="path934" inkscape:connector-curvature="0" class="st61" d="M536.2,265.2c3.2,2.8,5.8,5,7,7.6l-0.3,1.7l-7.4-7.8
							L536.2,265.2L536.2,265.2z"/>
						<path id="path936" inkscape:connector-curvature="0" class="st62" d="M536.2,265.2c1.8,1.7,5.5,5.3,7,7.6l9.8-2.8
							c-2.3-2.9-6.2-6.3-7.5-7.2L536.2,265.2z"/>
					</g>
					<g id="g946">
						<polygon id="polygon940" class="st60" points="541,274.9 540.9,273.4 531.1,276.2 530.8,277.9 						"/>
						<path id="path942" inkscape:connector-curvature="0" class="st61" d="M524.1,268.6c3.2,2.8,5.8,5,7,7.6l-0.3,1.7l-7.4-7.8
							L524.1,268.6L524.1,268.6z"/>
						<path id="path944" inkscape:connector-curvature="0" class="st62" d="M524.1,268.6c1.8,1.7,5.5,5.3,7,7.6l9.8-2.8
							c-2.3-2.9-6.2-6.3-7.5-7.2L524.1,268.6z"/>
					</g>
					<g id="g954">
						<polygon id="polygon948" class="st63" points="528.9,278.3 528.8,276.8 519,279.6 518.8,281.3 						"/>
						<path id="path950" inkscape:connector-curvature="0" class="st64" d="M512,272c3.2,2.8,5.8,5,7,7.6l-0.3,1.7l-7.4-7.8L512,272
							L512,272z"/>
						<path id="path952" inkscape:connector-curvature="0" class="st22" d="M512,272c1.8,1.7,5.5,5.3,7,7.6l9.8-2.8
							c-2.3-2.9-6.2-6.3-7.5-7.2L512,272z"/>
					</g>
				</g>
				<g id="g990">
					<g id="g964">
						<polygon id="polygon958" class="st60" points="573.7,278.1 573.6,276.6 563.9,279.4 563.6,281.1 						"/>
						<path id="path960" inkscape:connector-curvature="0" class="st61" d="M556.8,271.9c3.2,2.8,5.8,5,7,7.6l-0.3,1.7l-7.4-7.8
							L556.8,271.9L556.8,271.9z"/>
						<path id="path962" inkscape:connector-curvature="0" class="st62" d="M556.8,271.9c1.8,1.7,5.5,5.3,7,7.6l9.8-2.8
							c-2.3-2.9-6.2-6.3-7.5-7.2L556.8,271.9z"/>
					</g>
					<g id="g972">
						<polygon id="polygon966" class="st63" points="537.4,288.3 537.4,286.8 527.6,289.6 527.3,291.3 						"/>
						<path id="path968" inkscape:connector-curvature="0" class="st64" d="M520.6,282.1c3.2,2.8,5.8,5,7,7.6l-0.3,1.7l-7.4-7.8
							L520.6,282.1L520.6,282.1z"/>
						<path id="path970" inkscape:connector-curvature="0" class="st22" d="M520.6,282.1c1.8,1.7,5.5,5.3,7,7.6l9.8-2.8
							c-2.3-2.9-6.2-6.3-7.5-7.2L520.6,282.1z"/>
					</g>
					<g id="g980">
						<polygon id="polygon974" class="st63" points="549.3,284.9 549.2,283.4 539.5,286.2 539.2,287.9 						"/>
						<path id="path976" inkscape:connector-curvature="0" class="st64" d="M532.4,278.7c3.2,2.8,5.8,5,7,7.6l-0.3,1.7l-7.4-7.8
							L532.4,278.7L532.4,278.7z"/>
						<path id="path978" inkscape:connector-curvature="0" class="st22" d="M532.4,278.7c1.8,1.7,5.5,5.3,7,7.6l9.8-2.8
							c-2.3-2.9-6.2-6.3-7.5-7.2L532.4,278.7z"/>
					</g>
					<g id="g988">
						<polygon id="polygon982" class="st63" points="561.7,281.7 561.6,280.2 551.9,283.1 551.6,284.8 						"/>
						<path id="path984" inkscape:connector-curvature="0" class="st64" d="M544.8,275.5c3.2,2.8,5.8,5,7,7.6l-0.3,1.7l-7.4-7.8
							L544.8,275.5L544.8,275.5z"/>
						<path id="path986" inkscape:connector-curvature="0" class="st22" d="M544.9,275.5c1.8,1.7,5.5,5.3,7,7.6l9.8-2.8
							c-2.3-2.9-6.2-6.3-7.5-7.2L544.9,275.5z"/>
					</g>
				</g>
			</g>
			<g id="g1000">
				<path id="path994" inkscape:connector-curvature="0" class="st60" d="M507.8,243.3l0.1,1.2c8.9-1.6,12.9-3.7,12.9-3.7l-0.1-1.1
					L507.8,243.3z"/>
				<path id="path996" inkscape:connector-curvature="0" class="st62" d="M504.5,240.2l3.3,3.1c5-0.7,9.4-1.9,12.9-3.6l-2.8-2.8
					L504.5,240.2z"/>
				<polygon id="polygon998" class="st61" points="504.5,240.2 507.8,243.3 507.8,244.5 504.6,241.6 				"/>
			</g>
		</g>
		<path id="path1004" inkscape:connector-curvature="0" class="st66" d="M479.8,186.8l-51.6,9.3c1.8,1.5,2.5,3.5,2.5,3.5l51.5-9.7
			C482.2,187.7,479.8,186.8,479.8,186.8z"/>
		<path id="path1006" inkscape:connector-curvature="0" class="st53" d="M431.2,197.6c-5.9-33.3-34.4-37.7-34.4-37.7
			c16.8-3.2,33.4-7.4,53.4-8.8c25.6,9.6,28.7,37.8,28.7,37.8L431.2,197.6z"/>
	</g>
	<g id="g1042" class="st67">
		<g id="g1012">
			<path id="path1010" inkscape:connector-curvature="0" class="st68" d="M410.3,160.2c0.9,0.4,1.8,0.8,2.7,1.2l38.6-5.4
				c-0.8-0.4-1.6-0.9-2.4-1.3L410.3,160.2z"/>
		</g>
		<g id="g1016">
			<path id="path1014" inkscape:connector-curvature="0" class="st68" d="M417.7,164.2c0.7,0.4,1.3,0.9,1.9,1.4l37.6-5.5
				c-0.6-0.5-1.2-0.9-1.8-1.4L417.7,164.2z"/>
		</g>
		<g id="g1020">
			<path id="path1018" inkscape:connector-curvature="0" class="st68" d="M423.1,168.4c0.5,0.5,1,0.9,1.4,1.4l37.1-5.6
				c-0.4-0.5-0.9-1-1.4-1.4L423.1,168.4z"/>
		</g>
		<g id="g1024">
			<path id="path1022" inkscape:connector-curvature="0" class="st68" d="M427.2,172.8c0.4,0.5,0.8,1,1.1,1.5l36.7-5.7
				c-0.4-0.5-0.7-1-1.1-1.5L427.2,172.8z"/>
		</g>
		<g id="g1028">
			<path id="path1026" inkscape:connector-curvature="0" class="st68" d="M467,171.5l-36.5,5.9c0.3,0.5,0.6,1,0.9,1.5l36.5-5.9
				C467.6,172.4,467.3,171.9,467,171.5z"/>
		</g>
		<g id="g1032">
			<path id="path1030" inkscape:connector-curvature="0" class="st68" d="M470.2,177.5c-0.2-0.5-0.5-1-0.7-1.5l-36.4,6.1
				c0.2,0.5,0.5,1,0.7,1.5L470.2,177.5L470.2,177.5z"/>
		</g>
		<g id="g1036">
			<path id="path1034" inkscape:connector-curvature="0" class="st68" d="M472.1,182.1c-0.2-0.5-0.4-1-0.6-1.5l-36.3,6.2
				c0.2,0.5,0.4,1,0.6,1.5L472.1,182.1L472.1,182.1z"/>
		</g>
		<g id="g1040">
			<path id="path1038" inkscape:connector-curvature="0" class="st68" d="M473.6,186.8c-0.1-0.5-0.3-1-0.5-1.6l-36.3,6.4
				c0.1,0.5,0.3,1.1,0.4,1.6L473.6,186.8L473.6,186.8z"/>
		</g>
	</g>
</g>
<g id="g1060" transform="translate(2,-47.943049)">
	<path id="path1046" inkscape:connector-curvature="0" class="st2" d="M418.9,349.5h-34H94.2v-35.8c15,5.1,31.5,9.5,49.4,12.7
		c110.3,19.9,88.5-10.1,192.8-28.4C386.9,289.2,405.9,328.3,418.9,349.5L418.9,349.5z"/>
	<path id="path1048" inkscape:connector-curvature="0" class="st0" d="M368.9,349.5H94.6v-28.4c14.2,4,29.7,7.5,46.6,10.1
		c104.1,15.8,83.5-8.1,181.8-22.6c47.7-7,65.6,24,77.9,40.9L368.9,349.5z"/>
	<path id="path1050" inkscape:connector-curvature="0" class="st2" d="M315.5,349.1c0,0-26.6-5.2-26.6-17.7
		c0-16.7,38.7-14.2,38.7-31.6s-22.5-27.7-60.8-27.7s-60.8,9.2-60.8,21.5s20.1,15.6,20.1,31S210,349.1,210,349.1L315.5,349.1z"/>
	<path id="path1052" inkscape:connector-curvature="0" class="st3" d="M129.9,349.5c0,0-45.9-37.9-45.9-52.7s26.4-17.8,26.4-33.4
		s-40-28.4-61-10.7s-6.5,37.9,8.9,62.1c15.3,24.3-20.2,34.6-20.2,34.6L129.9,349.5z"/>
	<path id="path1054" inkscape:connector-curvature="0" class="st2" d="M354.3,349.5h-321l0,0c48-75.6,95.4-80.9,121.4-62.3
		C235.1,344.7,290.7,308.3,354.3,349.5z"/>
	<path id="path1056" inkscape:connector-curvature="0" class="st0" d="M334.7,349.5H52.9l0,0c27.1-80.3,80.6-113.6,132-76.9
		c76.7,54.8,89.8,27.1,149.8,59.8V349.5z"/>
	<path id="path1058" inkscape:connector-curvature="0" class="st1" d="M366.9,349.2H94.3l0,0c44.2-43,88.5-81.4,129.9-51.8
		C300.9,352.2,307,316.5,366.9,349.2z"/>
</g>
<g id="g1188" transform="translate(2,-47.943049)">
	<g id="g1080">
		<polygon id="polygon1062" class="st69" points="204.8,215.7 204.8,317.1 93.7,304.5 93.7,206.3 		"/>
		<polygon id="polygon1064" class="st69" points="204.8,215.7 204.8,317.1 282,277 282,185.4 		"/>
		<polygon id="polygon1066" class="st70" points="204.8,215.7 204.8,317.1 282,277 282,185.4 		"/>
		<polygon id="polygon1068" class="st71" points="204.8,215.7 282,185.4 171.8,177.8 93.7,206.3 		"/>
		<polygon id="polygon1070" class="st5" points="156.8,312.1 134.1,309.5 134.1,209.7 156.8,211.6 		"/>
		<polygon id="polygon1072" class="st5" points="255.7,195.6 148.6,186.2 134.1,191.5 240.5,201.7 		"/>
		<polygon id="polygon1074" class="st72" points="240.5,298.5 255.7,290.7 255.7,195.6 240.5,201.7 		"/>
		<polygon id="polygon1076" class="st5" points="229.9,181.8 156.8,211.6 134.1,209.7 212.6,180.6 		"/>
		<polygon id="polygon1078" class="st5" points="240.5,298.5 255.7,290.7 255.7,195.6 240.5,201.7 		"/>
	</g>
	<g id="g1170">
		<g id="g1112">
			<g id="g1084" class="st73">
				<path id="path1082" inkscape:connector-curvature="0" class="st74" d="M214.4,285.2l15.9-7.4v23.5l-15.9,8.1V285.2z
					 M229.7,279.2l-14.6,6.8v22.1l14.6-7.4V279.2z"/>
			</g>
			<g id="g1110" class="st73">
				<g id="g1096">
					<g id="g1088">
						<polygon id="polygon1086" class="st74" points="226,300.1 224.5,300.9 224.5,288.7 226,288 						"/>
					</g>
					<g id="g1094">
						<g id="g1092">
							<polygon id="polygon1090" class="st74" points="225.2,284.3 227.1,288.3 223.4,290.1 							"/>
						</g>
					</g>
				</g>
				<g id="g1108">
					<g id="g1100">
						<polygon id="polygon1098" class="st74" points="220.6,302.8 219,303.6 219,291.3 220.6,290.6 						"/>
					</g>
					<g id="g1106">
						<g id="g1104">
							<polygon id="polygon1102" class="st74" points="219.8,286.8 221.7,290.9 217.9,292.7 							"/>
						</g>
					</g>
				</g>
			</g>
		</g>
		<g id="g1124">
			<g id="g1116" class="st73">
				<path id="path1114" inkscape:connector-curvature="0" class="st74" d="M214.5,226.6l15.9-5.6l0,23.5l-15.9,6.3L214.5,226.6z
					 M229.8,222.2l-14.6,5.1l0,22.1l14.6-5.8L229.8,222.2z"/>
			</g>
			<g id="g1122" class="st73">
				<g id="g1120">
					<path id="path1118" inkscape:connector-curvature="0" class="st74" d="M222,241.8C222,241.9,222,241.9,222,241.8l-2.7,3.7
						l6.4-2.5l-2.6-1.6c0,0,0,0,0-0.1c0-0.1,0-0.3,0-0.4c0-1.9,0-3.9,0-5.8c2.6-1.3,4.6-5.3,4.6-9.3l-6.7,2.4l-0.9,1.5l0.5,0.7
						l-0.5,1.6l-0.3-1.2l-1-0.5l0.6-1.5l-1.9,0.7c0,4,2,6.5,4.6,6c0,1.9,0,3.9,0,5.8C222,241.6,222,241.7,222,241.8z"/>
				</g>
			</g>
		</g>
		<g id="g1168">
			<g id="g1128" class="st73">
				<path id="path1126" inkscape:connector-curvature="0" class="st74" d="M214.5,255.9l15.9-6.5v23.5l-15.9,7.2V255.9z
					 M229.8,250.7l-14.6,5.9v22.1l14.6-6.6V250.7z"/>
			</g>
			<g id="g1166" class="st73">
				<g id="g1140">
					<g id="g1132">
						<path id="path1130" inkscape:connector-curvature="0" class="st74" d="M224.7,260.8c-0.8-1.7-1.9-3.3-2.2-3.3
							c-0.4,0.3-1.4,2.7-2.1,5.1l-1.2-0.4c0.7-2.4,2.1-6.3,3.4-6.7c1.2-0.3,2.7,2.6,3.3,3.8L224.7,260.8L224.7,260.8z"/>
					</g>
					<g id="g1138">
						<g id="g1136">
							<polygon id="polygon1134" class="st74" points="218.8,265.7 221.3,262.2 218.6,261.3 							"/>
						</g>
					</g>
				</g>
				<g id="g1152">
					<g id="g1144">
						<path id="path1142" inkscape:connector-curvature="0" class="st74" d="M220.3,273.4c-1.5,0.7-3.4,1.2-3.8,0
							c-0.5-1.5,0.8-5.8,1.4-7.6l1.2,0.5c-0.8,2.4-1.4,5.1-1.4,5.6c0.3,0.3,2-0.2,3.6-1l0.1,2C221,273,220.7,273.2,220.3,273.4
							L220.3,273.4z"/>
					</g>
					<g id="g1150">
						<g id="g1148">
							<polygon id="polygon1146" class="st74" points="223.5,270.7 220.8,269.9 221,274.3 							"/>
						</g>
					</g>
				</g>
				<g id="g1164">
					<g id="g1156">
						<path id="path1154" inkscape:connector-curvature="0" class="st74" d="M223.9,270c1.6-0.8,3.3-2,3.5-2.5
							c0.1-0.6-0.6-2.5-1.5-4l1.1-1.6c0.9,1.5,2.2,4.3,1.5,6.2c-0.7,1.8-3.4,3.4-4.6,3.9L223.9,270z"/>
					</g>
					<g id="g1162">
						<g id="g1160">
							<polygon id="polygon1158" class="st74" points="225.2,260.6 225.5,264.9 227.9,261.3 							"/>
						</g>
					</g>
				</g>
			</g>
		</g>
	</g>
	<g id="g1186">
		<polygon id="polygon1172" class="st75" points="199.1,306.6 163,302.6 163,267.3 199.1,271.3 		"/>
		<polygon id="polygon1174" class="st76" points="165.7,270.8 196.4,274.2 196.4,303.2 165.7,299.8 		"/>
		<polygon id="polygon1176" class="st74" points="192.7,298.7 169.4,296.3 169.4,293.6 192.7,296 		"/>
		<polygon id="polygon1178" class="st74" points="192.7,294.1 169.4,291.7 169.4,289.1 192.7,291.5 		"/>
		<polygon id="polygon1180" class="st74" points="192.7,289.6 169.4,287.2 169.4,284.5 192.7,286.9 		"/>
		<polygon id="polygon1182" class="st74" points="192.7,285 169.4,282.6 169.4,279.9 192.7,282.4 		"/>
		<polygon id="polygon1184" class="st74" points="192.7,280.5 169.4,278.1 169.4,275.4 192.7,277.8 		"/>
	</g>
</g>
<g id="g1194" transform="translate(2,-47.943049)">
	<path id="path1190" inkscape:connector-curvature="0" class="st2" d="M494.3,171.2L494.3,171.2c-2.4-3.2-1.7-7.7,1.5-10l27.4-20.3
		c3.2-2.3,7.7-1.7,10,1.5l0,0c2.4,3.2,1.7,7.7-1.5,10l-27.4,20.3C501.1,175,496.6,174.3,494.3,171.2z"/>
	<path id="path1192" inkscape:connector-curvature="0" class="st2" d="M499.3,137.3L499.3,137.3c3.2-2.3,7.7-1.7,10,1.5l20.3,27.4
		c2.4,3.2,1.7,7.7-1.5,10l0,0c-3.2,2.3-7.7,1.7-10-1.5l-20.3-27.4C495.5,144.2,496.1,139.7,499.3,137.3z"/>
</g>
<g id="g1200" transform="translate(2,-47.943049)">
	<path id="path1196" inkscape:connector-curvature="0" class="st2" d="M43.7,203.6L43.7,203.6c-2.3-3.2-1.7-7.7,1.5-10l27.4-20.3
		c3.2-2.3,7.7-1.7,10,1.5l0,0c2.3,3.2,1.7,7.7-1.5,10l-27.4,20.3C50.6,207.5,46.1,206.8,43.7,203.6z"/>
	<path id="path1198" inkscape:connector-curvature="0" class="st2" d="M48.8,169.8L48.8,169.8c3.2-2.3,7.7-1.7,10,1.5l20.3,27.4
		c2.3,3.2,1.7,7.7-1.5,10l0,0c-3.2,2.3-7.7,1.7-10-1.5l-20.3-27.4C44.9,176.6,45.6,172.2,48.8,169.8z"/>
</g>
<polygon id="polygon1202" class="st42" points="235.2,107 264.3,99.7 243.4,78.1 "/>
<polygon id="polygon1204" class="st23" points="49.6,224.2 48.7,204.2 66.4,213.4 "/>
</svg>
