<?xml version="1.0" encoding="utf-8"?>
<!-- Generator: Adobe Illustrator 23.0.1, SVG Export Plug-In . SVG Version: 6.00 Build 0)  -->
<svg version="1.1"
	 id="Layer_1" xmlns:cc="http://creativecommons.org/ns#" xmlns:dc="http://purl.org/dc/elements/1.1/" xmlns:inkscape="http://www.inkscape.org/namespaces/inkscape" xmlns:rdf="http://www.w3.org/1999/02/22-rdf-syntax-ns#" xmlns:sodipodi="http://sodipodi.sourceforge.net/DTD/sodipodi-0.dtd" xmlns:svg="http://www.w3.org/2000/svg"
	 xmlns="http://www.w3.org/2000/svg" xmlns:xlink="http://www.w3.org/1999/xlink" x="0px" y="0px" viewBox="0 0 386.7 232.6"
	 style="enable-background:new 0 0 386.7 232.6;" xml:space="preserve">
<style type="text/css">
	.st0{fill:#63C4AF;}
	.st1{fill:#42BC9A;}
	.st2{fill:#4EBE9A;}
	.st3{fill:#41B28F;}
	.st4{fill:#9CD2C5;}
	.st5{fill:none;stroke:#40B28F;stroke-width:11;stroke-miterlimit:10;}
	.st6{fill:none;stroke:#40B28F;stroke-width:5;stroke-miterlimit:10;}
	.st7{fill:none;stroke:#40B28F;stroke-width:3;stroke-miterlimit:10;}
	.st8{fill:#B42577;}
	.st9{fill:#E2D0E3;}
	.st10{fill:#FBBC95;}
	.st11{fill:#EAE2F0;}
	.st12{fill:#F8A37D;}
	.st13{fill:#8E3C27;}
	.st14{fill:#191919;}
	.st15{fill:#110F10;}
	.st16{fill:#303030;}
	.st17{fill:#BCD0EC;}
	.st18{fill:#3B1B1D;}
	.st19{fill:#732D1E;}
	.st20{fill:#D0DEF2;}
	.st21{fill:#3C1A50;}
	.st22{fill:#4B2668;}
	.st23{fill:#04243E;}
	.st24{fill:#321747;}
	.st25{fill:#D42982;}
</style>
<g id="g278" transform="translate(2,-47.943049)">
	<path id="path264" inkscape:connector-curvature="0" class="st0" d="M384.2,280.5h-34H59.5v-35.8c15,5.1,31.5,9.5,49.4,12.7
		c110.3,19.9,88.5-10.1,192.8-28.4C352.2,220.2,371.2,259.3,384.2,280.5L384.2,280.5z"/>
	<path id="path266" inkscape:connector-curvature="0" class="st1" d="M334.2,280.6H59.9v-28.4c14.2,4,29.7,7.5,46.6,10.1
		c104.1,15.8,83.5-8.1,181.9-22.6c47.7-7,65.6,24,77.9,40.9H334.2z"/>
	<path id="path268" inkscape:connector-curvature="0" class="st0" d="M280.8,280.1c0,0-26.6-5.2-26.6-17.7
		c0-16.7,38.7-14.2,38.7-31.6s-22.5-27.7-60.8-27.7s-60.8,9.2-60.8,21.5s20.1,15.6,20.1,31s-16.1,24.5-16.1,24.5L280.8,280.1z"/>
	<path id="path270" inkscape:connector-curvature="0" class="st2" d="M79.6,280.5h91.7c0,0-45.9-62.1-45.9-86.2s26.4-29.1,26.4-54.7
		s-40-46.5-61-17.5c-21,28.9-6.5,61.9,8.9,101.7S79.6,280.5,79.6,280.5L79.6,280.5z"/>
	<path id="path272" inkscape:connector-curvature="0" class="st0" d="M120,218.2c80.5,57.5,136,21.1,199.6,62.3h-321l0,0
		C46.6,205,94,199.6,120,218.2L120,218.2z"/>
	<path id="path274" inkscape:connector-curvature="0" class="st1" d="M341.2,280.5H59.5l0,0c27.1-80.3,80.6-113.6,132-76.9
		c76.7,54.8,89.8,27.1,149.8,59.8L341.2,280.5L341.2,280.5z"/>
	<path id="path276" inkscape:connector-curvature="0" class="st3" d="M332.2,280.2H59.6l0,0c44.2-43,88.5-81.4,129.9-51.8
		C266.2,283.2,272.3,247.5,332.2,280.2z"/>
</g>
<sodipodi:namedview  bordercolor="#666666" borderopacity="1" gridtolerance="10" guidetolerance="10" id="namedview1207" inkscape:current-layer="Layer_1" inkscape:cx="479.44487" inkscape:cy="297.64001" inkscape:pageopacity="0" inkscape:pageshadow="2" inkscape:window-height="694" inkscape:window-maximized="1" inkscape:window-width="1366" inkscape:window-x="0" inkscape:window-y="0" inkscape:zoom="0.35752889" objecttolerance="10" pagecolor="#ffffff" showgrid="false">
	</sodipodi:namedview>
<path id="path42" inkscape:connector-curvature="0" class="st4" d="M386.8,208.3c0,0-16.6-35.3-56.9-35.3
	c-53.6,0-45.7,51.4-101.6,51.4c-55.8,0-89.2-30-89.2-80.8s29.7-80.8,69.1-80.8s50.3,26.8,99.7,26.8s78.8-21.4,78.8-21.4L386.8,208.3
	L386.8,208.3z"/>
<path id="path44" inkscape:connector-curvature="0" class="st0" d="M61.4,232.5h34h290.8v-35.8c-15,5.1-31.5,9.5-49.4,12.7
	C226.5,229.3,248.3,199.3,144,181C93.4,172.2,74.4,211.3,61.4,232.5L61.4,232.5z"/>
<path id="path46" inkscape:connector-curvature="0" class="st1" d="M80.3,232.6h32.1h274.3v-28.4c-14.2,4-29.7,7.5-46.6,10.1
	c-104.1,15.8-83.5-8.1-181.8-22.6C110.5,184.7,92.5,215.7,80.3,232.6L80.3,232.6z"/>
<path id="path48" inkscape:connector-curvature="0" class="st0" d="M386.8,186.3c0,0-10.8-26.6-37.2-26.6c-35,0-29.9,38.6-66.4,38.6
	s-58.3-22.5-58.3-60.8s19.4-60.8,45.2-60.8c25.7,0,32.9,20.1,65.2,20.1s51.5-16.1,51.5-16.1V186.3L386.8,186.3z"/>
<path id="path50" inkscape:connector-curvature="0" class="st2" d="M386.8,49v91.7c0,0-62.1-45.9-86.2-45.9s-29.1,26.4-54.7,26.4
	s-46.5-40-17.5-61c28.9-21,61.9-6.5,101.7,8.9S386.8,49,386.8,49L386.8,49z"/>
<path id="path52" inkscape:connector-curvature="0" class="st0" d="M126.7,232.5h260.1V111.9c-14.8,19.3-34.5,39.7-60.5,58.3
	C245.9,227.6,190.3,191.3,126.7,232.5z"/>
<path id="path54" inkscape:connector-curvature="0" class="st1" d="M104.8,232.1h281.8V49.4c-12.9,28-39.6,71.9-91,108.6
	c-76.7,54.8-130.8,24.3-190.8,57.1L104.8,232.1L104.8,232.1z"/>
<path id="path244" inkscape:connector-curvature="0" class="st3" d="M305,175.6c-76.7,54.8-130.8,24.3-190.7,57h272.6V84.8
	C371.9,111.7,346.5,146,305,175.6L305,175.6z"/>
<g id="g250" transform="translate(2,-47.943049)">
	<path id="path246" inkscape:connector-curvature="0" class="st0" d="M321.3,253L321.3,253c-2.4-3.2-1.7-7.7,1.5-10l27.4-20.3
		c3.2-2.4,7.7-1.7,10,1.5l0,0c2.3,3.2,1.7,7.7-1.5,10l-27.4,20.3C328.2,256.9,323.7,256.2,321.3,253z"/>
	<path id="path248" inkscape:connector-curvature="0" class="st0" d="M326.4,219.2L326.4,219.2c3.2-2.4,7.7-1.7,10,1.5l20.3,27.4
		c2.3,3.2,1.7,7.7-1.5,10l0,0c-3.2,2.4-7.7,1.7-10-1.5l-20.3-27.4C322.5,226,323.2,221.5,326.4,219.2z"/>
</g>
<g id="g256" transform="translate(2,-47.943049)">
	<path id="path252" inkscape:connector-curvature="0" class="st0" d="M147,205.3L147,205.3c-2.4,0.7-4.9-0.7-5.6-3.1l-5.9-20.7
		c-0.7-2.4,0.7-4.9,3.1-5.6l0,0c2.4-0.7,4.9,0.7,5.6,3.1l5.9,20.7C150.8,202.1,149.4,204.6,147,205.3z"/>
	<path id="path254" inkscape:connector-curvature="0" class="st0" d="M133.7,197.9c-2.4,0.7-4.9-0.7-5.6-3.1l0,0
		c-0.7-2.4,0.7-4.9,3.1-5.6l20.7-5.9c2.4-0.7,4.9,0.7,5.6,3.1l0,0c0.7,2.4-0.7,4.9-3.1,5.6L133.7,197.9L133.7,197.9z"/>
</g>
<polygon id="polygon258" class="st5" points="325.9,111.5 296.8,104.1 317.7,82.6 "/>
<polygon id="polygon260" class="st5" points="144.9,103.9 144,84 161.7,93.2 "/>
<g id="g596" transform="translate(2,-47.943049)">
	<path id="path592" inkscape:connector-curvature="0" class="st0" d="M349.5,97.2L349.5,97.2c2.4-3.2,1.7-7.7-1.5-10L320.6,67
		c-3.2-2.4-7.7-1.7-10,1.5l0,0c-2.4,3.2-1.7,7.7,1.5,10l27.4,20.3C342.7,101.1,347.2,100.4,349.5,97.2z"/>
	<path id="path594" inkscape:connector-curvature="0" class="st0" d="M346,73.4c2.4-3.2,1.7-7.7-1.5-10l0,0c-3.2-2.4-7.7-1.7-10,1.5
		l-20.3,27.4c-2.4,3.2-1.7,7.7,1.5,10l0,0c3.2,2.4,7.7,1.7,10-1.5L346,73.4L346,73.4z"/>
</g>
<g id="g602" transform="translate(2,-47.943049)">
	<path id="path598" inkscape:connector-curvature="0" class="st0" d="M26.1,152L26.1,152c2.4,0.7,4.9-0.7,5.6-3.1l5.9-20.7
		c0.7-2.4-0.7-4.9-3.1-5.6l0,0c-2.4-0.7-4.9,0.7-5.6,3.1L23,146.4C22.3,148.8,23.7,151.3,26.1,152z"/>
	<path id="path600" inkscape:connector-curvature="0" class="st0" d="M45,141.4L45,141.4c0.7-2.4-0.7-4.9-3.1-5.6l-20.7-5.9
		c-2.4-0.7-4.9,0.7-5.6,3.1l0,0c-0.7,2.4,0.7,4.9,3.1,5.6l20.7,5.9C41.8,145.2,44.3,143.8,45,141.4z"/>
</g>
<polygon id="polygon604" class="st6" points="42.4,142.2 71.5,134.9 50.6,113.3 "/>
<polygon id="polygon606" class="st7" points="56,72 56.9,52.1 39.2,61.3 "/>
<g id="g242" transform="translate(2,-47.943049)">
	<g id="g138">
		<polygon id="polygon56" class="st8" points="188.3,151.8 174.3,149.6 170.1,123.4 184.2,125.5 		"/>
		<path id="path58" inkscape:connector-curvature="0" class="st9" d="M168.4,116c-6.7-7.8-11.2-16.7-11.2-16.7l3.1-2.6
			c0,0,8.2,7.1,10.7,9.8c2.5,2.8,7.5,8.5,4.5,10.6C172.6,119.3,169.1,116.8,168.4,116z"/>
		<path id="path60" inkscape:connector-curvature="0" class="st10" d="M159.7,101.1c0,0-1.6-1.3-2.2-1c-0.6,0.2-4-2.6-4.5-2.9
			c-0.5-0.2-3.5-1.4-3.5-1.7c0.1-0.6,3,0.5,3.1,0.2c0.2-0.3-4.1-2.6-3.7-3.2c0.3-0.6,4.4,2.2,4.6,2c0.2-0.2-3.8-3.9-3.1-4.4
			c0.6-0.3,3.9,3.6,4.4,3.1c0.2-0.2-3.2-3.9-2.5-4.3c0.5-0.2,5.3,5.2,5.6,5s-1-2.5-0.8-3.3c0.1-0.7,0.9-1,0.9-0.7
			c0,0.5,0.7,2.5,1.5,3.6c0.8,0.9,1.3,3.6,1.2,4.3c-0.1,0.8,0.9,2.6,0.9,2.6L159.7,101.1z"/>
		<polygon id="polygon62" class="st11" points="159.1,102.6 156.7,100 160.9,96.2 163.2,99.2 		"/>
		<path id="path64" inkscape:connector-curvature="0" class="st9" d="M197.2,120.7c0.2-3.9-3.3-5.4-6-6.2c-2.6-0.8-17.5-3.6-19-3.1
			s-2.4,5.2-1.8,6.1s17,6.7,20.4,7C194.1,124.8,197,124,197.2,120.7L197.2,120.7z"/>
		<path id="path66" inkscape:connector-curvature="0" class="st10" d="M199.6,103.3c0,0-0.7,8.8-0.8,9.4c-0.1,0.6-5.5,2.3-6.6,3.6
			c-0.5,0.7-0.5,2.3-0.6,3.3s-1.4,4.7-0.3,9.3c0.1,0.7,0.9,11.4,0.9,14.5s-0.8,15.1,0.1,16.6c0.9,1.5,5.6,5.9,6.2,5.9
			c0.6,0,15.2-5.8,14.4-10.5s-3-12-2-16.8s9.2-19.2,7.7-22.5c-1.3-2.6-7.9-3.9-9.8-5.4c-0.6-0.5-1-10.6-1-10.6L199.6,103.3z"/>
		<path id="path68" inkscape:connector-curvature="0" class="st11" d="M208.9,110.8c0,0,5.9,2.5,7.6,3.5c1.7,0.9,2.9,2.4,2.9,4.7
			s-7.3,19.9-7.5,21s2.1,11.1,0.9,12.1c-0.2,0.2-6.9,0.2-12.8,0.6c-5.1,0.2-7.8,0.5-8.1,0.1c-1.3-2.1,0-8.5-0.3-12
			c-0.3-4-0.3-7.1-0.6-9.6c-0.5-4-0.3-8.8-0.1-9.8s0.6-3.7,1.4-5.1c0.8-1.3,6.6-3.6,6.6-3.6l1.3,3.5L208.9,110.8L208.9,110.8z"/>
		<path id="path70" inkscape:connector-curvature="0" class="st9" d="M215.7,114.8c0,0,2.2,4,2.2,5.9s-4.3,14.3-5.2,16.7
			s2,15.3-0.5,14.9l-19.9,0.5c0,0-1.3-0.5-0.8-7.8c0.6-8.2-0.8-12.3,4-11.9c16,1.6,7.7-9.1,13.6-16.1
			C212.2,113.5,215.7,114.8,215.7,114.8L215.7,114.8z"/>
		<polygon id="polygon72" class="st12" points="199.3,107.1 205.7,110.8 208.5,109.2 208.3,103.9 199.6,103.3 		"/>
		<path id="path74" inkscape:connector-curvature="0" class="st10" d="M202.1,89.3c-3.2,1.5-3.2,5.6-3.2,6.1c0,0.3-1.6,3.6-1.7,4.1
			c-0.1,0.3,0.3,0.8,0.6,0.9c0.2,0-0.8,4.8-0.2,5.3c0.8,0.6,5.8,1.3,6.3,1.2c2.9-0.3,4.5-1,6.4-2.6c2.5-2.1,5.2-5.6,3.3-10.8
			C211.8,88.1,204.9,87.9,202.1,89.3L202.1,89.3z"/>
		<path id="path76" inkscape:connector-curvature="0" class="st13" d="M200.2,90.9c2.3-3.8,6.1-2.9,7.5-2.8c1.3,0.1,6.3,2.2,6.7,7.7
			c0.2,5.4-5.2,10.2-6.3,9.9c-0.3-0.1-1-2.9,1.6-6.8c0.2-0.3-3.9,1.6-4.1,1.3c-0.1-0.5,2.8-3.6,2.1-4.7
			C204.3,89.9,200.2,90.9,200.2,90.9L200.2,90.9z"/>
		<path id="path78" inkscape:connector-curvature="0" class="st10" d="M209.2,98.1c0.7,0.5,0.6,1.8-0.3,3c-0.8,1.3-2.1,1.8-2.8,1.4
			c-0.7-0.5,0.1-2.2,0.9-3.5C207.9,97.9,208.5,97.7,209.2,98.1z"/>
		<g id="g84">
			<rect id="rect80" x="199.5" y="237.4" class="st14" width="5.8" height="1"/>
			<path id="path82" inkscape:connector-curvature="0" class="st15" d="M199.2,230.1c0,0-2.9,1-7.4,5.1c-1.7,1.6-7.1,2.9-7.3,3.5
				c-0.1,0.7,2.9,0.8,4.6,0.8c5.8,0,6.6-1.3,8.8-1.6s4.8-0.3,7-0.3c0.7,0,1.4-2.4,1.4-3.5c-0.1-0.9-0.6-3-1.4-4
				C204.8,229.7,199.2,230.1,199.2,230.1z"/>
		</g>
		<path id="path86" inkscape:connector-curvature="0" class="st14" d="M209.5,157.2c0,0-17.5-5.1-17.5-4c0,1.6-0.5,10.5-0.2,14.3
			c0.6,12,2.3,26.6,2.5,28.8c0.3,3.3,2.5,34.4,2.5,34.4s2,2.4,4.6,2.1s4.4-1,4.4-1s1-13.9,1.4-19.2c0.3-5.3-2.2-13.4-2.4-15.3
			s0.5-3.7,1.5-12.1c1.2-8.4,4.4-19,4-22.3C209.9,159.5,209.5,157.2,209.5,157.2L209.5,157.2z"/>
		<g id="g92">
			<polygon id="polygon88" class="st14" points="212.9,240.1 207.1,240.4 207.1,239.4 212.7,239.1 			"/>
			<path id="path90" inkscape:connector-curvature="0" class="st14" d="M212.1,231.2c-0.2-0.2-5.8,0.6-5.8,0.6s-2.9,1.2-7,5.6
				c-1.6,1.7-6.9,3.3-7,4c0,0.7,3,0.6,4.6,0.6c5.6-0.3,6.4-1.7,8.6-2.2c2.2-0.5,4.8-0.7,6.9-0.8c0.8,0,1.3-2.5,1.2-3.7
				C213.5,234.3,212.9,232.4,212.1,231.2L212.1,231.2z"/>
		</g>
		<path id="path94" inkscape:connector-curvature="0" class="st16" d="M193.6,153.4c0,0,0.9,3.7,1.6,8.2c0.2,1.3,0.7,4.4,0.8,5.3
			c1.4,10.5,1.4,25.8,3.3,30.7c1.3,3.1,4.5,34.3,4.5,34.3s1.6,1.2,4.4,0.9c2.8-0.2,4.4-1.7,4.4-1.7s1.4-13.1,1.7-18.4
			S212,199,211.7,197c-0.2-2-0.2-9.8,0.9-18.2s2.1-14.5,2.2-17.8c0.1-4.1-1.8-9.1-1.8-9.1L193.6,153.4z"/>
		<polygon id="polygon96" class="st17" points="200.1,116.1 200.5,114 204.8,113.3 		"/>
		<polygon id="polygon98" class="st17" points="199.4,113.5 200.1,116.1 198.2,114.5 		"/>
		<polygon id="polygon100" class="st11" points="197.4,115.7 199.4,113.5 198.8,111.8 197.2,113.4 		"/>
		<path id="path102" inkscape:connector-curvature="0" class="st18" d="M213.8,153.7c0,0-3.5,0.6-9.6,0.9
			c-6.2,0.3-12.2,0.2-12.2,0.2v-2.2c0,0,3.6-0.1,9.4-0.3c5.9-0.2,11.7-0.6,11.7-0.6L213.8,153.7z"/>
		<path id="path104" inkscape:connector-curvature="0" class="st19" d="M195.7,154.7v-2c0-0.1-0.1-0.2-0.2-0.2h-2.8
			c-0.1,0-0.2,0.1-0.2,0.2v2c0,0.1,0.1,0.2,0.2,0.2h2.8C195.5,155,195.7,154.9,195.7,154.7z"/>
		<polygon id="polygon110" class="st11" points="208.5,109.2 210.2,111.4 201.8,116.9 200.5,114 		"/>
		<path id="path112" inkscape:connector-curvature="0" class="st11" d="M214.4,114.7c-4,0.9-4.4,5.3-4.5,8.4
			c-0.1,3.1,1.5,20.3,2.3,21.8s5.9,1.2,6.6,0.2c0.7-0.9,1.6-20.7,1.2-24.5C219.4,116.8,217.7,113.9,214.4,114.7L214.4,114.7z"/>
		<path id="path114" inkscape:connector-curvature="0" class="st11" d="M218.8,145.4c-0.1-3.9-4.7-5.1-5.9-5.2
			c-11.3-0.6-22,1.3-22,1.3l-0.2,4.1c0,0,11.7,2.3,15.8,2.8C210.6,148.9,219,149.2,218.8,145.4L218.8,145.4z"/>
		<g id="g126">
			<path id="path116" inkscape:connector-curvature="0" class="st12" d="M183.8,146.8l3.3-0.5c0.5-0.1,0.7-0.5,0.7-0.8l0,0
				c-0.1-0.5-0.5-0.7-0.9-0.7l-3.3,0.5c-0.5,0-0.7,0.5-0.7,0.8l0,0C182.9,146.6,183.4,146.8,183.8,146.8z"/>
			<path id="path118" inkscape:connector-curvature="0" class="st12" d="M183.5,145.4l3.3-0.5c0.5-0.1,0.7-0.5,0.7-0.8l0,0
				c-0.1-0.5-0.5-0.7-0.9-0.7l-3.3,0.5c-0.5,0-0.7,0.5-0.7,0.8l0,0C182.6,145.2,183,145.4,183.5,145.4z"/>
			<path id="path120" inkscape:connector-curvature="0" class="st12" d="M183.3,144.1l3.3-0.5c0.5-0.1,0.7-0.5,0.7-0.8l0,0
				c-0.1-0.5-0.5-0.7-0.9-0.7l-3.4,0.5c-0.5,0-0.7,0.5-0.7,0.8l0,0C182.3,143.8,182.8,144.2,183.3,144.1z"/>
			<path id="path122" inkscape:connector-curvature="0" class="st12" d="M183.1,142.8l3.3-0.5c0.5-0.1,0.7-0.5,0.7-0.8l0,0
				c0-0.5-0.5-0.7-0.9-0.7l-3.3,0.5c-0.5,0-0.7,0.5-0.7,0.8l0,0C182.2,142.6,182.7,142.8,183.1,142.8z"/>
			<path id="path124" inkscape:connector-curvature="0" class="st12" d="M192.4,145.9c0,0-1.6,0.7-3.2,1c-1.6,0.3-5.3-0.1-5.3-0.1
				s0.2-2.4,0.2-3.2c0-0.9-1.5-2.1-1.5-2.1s4-1.3,5.1-1.3s6.4,1.4,6.4,1.4L192.4,145.9z"/>
		</g>
		<polygon id="polygon128" class="st11" points="195.1,146.7 191,146.6 191.2,140.7 195.2,140.8 		"/>
		<path id="path130" inkscape:connector-curvature="0" class="st20" d="M210.2,96.2c0,0-1.4-1.6-1.2-0.3s1,3.6,1.8,4.6
			s1.8,1.5,1.8,1.5l0.6-0.9c0,0-0.9-0.3-1.7-1.3C210.8,98.8,210.2,96.2,210.2,96.2L210.2,96.2z"/>
		<path id="path132" inkscape:connector-curvature="0" class="st11" d="M200.3,89.1c1,2.2,6.7,5.5,8.4,6.3s6.9,2.2,6.9,2.2
			s0.9-2.6,0.7-5.2c-0.2-2.3-2.1-5.9-6.2-6.9C204.1,84.1,200.3,89.1,200.3,89.1L200.3,89.1z"/>
		<path id="path134" inkscape:connector-curvature="0" class="st9" d="M198,88.9c0.2-0.7,2.8-0.3,2.8-0.3s0,1.6,3.9,4.3
			c3.9,2.5,10.6,4.7,10.9,4.8c0.5,0.1,0.6,0.3,0.3,0.6c-0.2,0.2-1,0.5-8.3-3.1C199.2,91,197.8,89.4,198,88.9L198,88.9z"/>
		<path id="path136" inkscape:connector-curvature="0" class="st9" d="M208.3,95c5.5,2.8,7.4,2.6,7.4,2.6s0.9-2.6,0.7-5.2
			c-0.1-2.1-1.4-4.7-4.6-6.3c2.2,1.8,2.5,4.1,2.3,5.6C213.7,94,211.1,95.6,208.3,95z"/>
	</g>
	<g id="g240">
		<g id="g144">
			<polygon id="polygon140" class="st14" points="273.3,240.3 267.8,241.7 267.6,240.7 273,239.3 			"/>
			<path id="path142" inkscape:connector-curvature="0" class="st16" d="M270.9,231.9c-0.2-0.1-5.5,1.6-5.5,1.6s-2.5,1.7-5.8,6.8
				c-1.3,2-5.8-0.6-5.8,4c0,0.7,2.4,0.8,4.4,0.8c5.6,0,5.9-2.9,7.9-3.7c2.1-0.8,4.5-1.6,6.6-2.1c0.7-0.2,0.7-2.6,0.3-3.8
				C272.8,234.7,271.8,232.8,270.9,231.9L270.9,231.9z"/>
		</g>
		<path id="path146" inkscape:connector-curvature="0" class="st21" d="M226.2,109.9c-2.1-3.3-0.8-5.6,1.8-7.4
			c9.1-6.2,18.4-10.4,18.4-10.4l2.5,3.5c0,0-8.2,8.1-11.2,10.5C234.7,108.5,228.3,113.2,226.2,109.9L226.2,109.9z"/>
		<g id="g158">
			<path id="path148" inkscape:connector-curvature="0" class="st12" d="M250.4,88l-2.2,2.1c-0.2,0.2-0.3,0.7,0,1l0,0
				c0.2,0.2,0.7,0.3,1,0l2.3-2.1c0.2-0.2,0.3-0.7,0-1l0,0C251.2,87.8,250.7,87.8,250.4,88z"/>
			<path id="path150" inkscape:connector-curvature="0" class="st12" d="M251.4,88.9l-2.2,2.1c-0.2,0.2-0.3,0.7,0,1l0,0
				c0.2,0.2,0.7,0.3,1,0l2.3-2.1c0.2-0.2,0.3-0.7,0-1l0,0C252.1,88.7,251.7,88.7,251.4,88.9z"/>
			<path id="path152" inkscape:connector-curvature="0" class="st12" d="M252.4,89.8l-2.3,2.1c-0.2,0.2-0.3,0.7,0,1l0,0
				c0.2,0.2,0.7,0.3,1,0l2.2-2.1c0.2-0.2,0.3-0.7,0-1l0,0C253,89.6,252.6,89.6,252.4,89.8z"/>
			<path id="path154" inkscape:connector-curvature="0" class="st12" d="M253.2,90.7l-2.2,2.1c-0.2,0.2-0.3,0.7,0,1l0,0
				c0.2,0.2,0.7,0.3,1,0l2.3-2.1c0.2-0.2,0.3-0.7,0-1l0,0C253.8,90.5,253.4,90.5,253.2,90.7z"/>
			<path id="path156" inkscape:connector-curvature="0" class="st12" d="M244.5,93.2c0,0,0.8-1.4,1.8-2.4c1-1.2,4-2.6,4-2.6
				s1.2,2,1.6,2.8c0.5,0.7,2.2,0.9,2.2,0.9s-2.3,3.1-3.1,3.7c-0.8,0.6-5.5,2.2-5.5,2.2L244.5,93.2z"/>
		</g>
		<polygon id="polygon160" class="st22" points="242.8,93.6 245.8,91.3 249.4,96.2 246.1,98.3 		"/>
		<path id="path162" inkscape:connector-curvature="0" class="st21" d="M247.3,115.9c-2.2-2-15.1-11.3-16.7-11.5
			c-1.6-0.3-4.7,3.9-4.6,5c0.1,1.2,13.4,14,16.2,16c3,2,6.1,2.4,7.8-0.7C252.1,120.9,249.4,117.9,247.3,115.9z"/>
		<path id="path164" inkscape:connector-curvature="0" class="st10" d="M254.2,105.8c0,0-1.2,9-1.3,9.6c-0.1,0.7-5.9,2.1-6.9,3.3
			c-0.6,0.6-0.6,2.3-0.8,3.3s-1.6,4.7-0.9,9.6c0.1,0.7,0.3,11.7,0.1,14.9c-0.2,3.1-1.6,15.3-0.8,16.9c0.8,1.6,5.5,6.3,6,6.4
			c0.6,0,15.9-5.1,15.3-9.9c-0.5-4.8-2.4-12.4-1.2-17.3c1.4-4.8,10.5-19.1,9.1-22.6c-1.2-2.8-7.8-4.4-9.7-6.1
			c-0.6-0.6-0.6-10.8-0.6-10.8L254.2,105.8z"/>
		<path id="path166" inkscape:connector-curvature="0" class="st21" d="M263.3,114c0,0,5.9,3,7.6,3.9s2.9,2.5,2.6,5
			c-0.2,2.3-8.5,20-8.9,21.1s1.8,10.7,0.6,11.5c-0.2,0.2-7.4,0.7-13.5,0.7c-5.3,0-8.6-0.3-8.6-0.3s0.8-8.8,0.7-12.3
			c-0.2-4.1,0-7.4-0.1-9.8c-0.2-4.1,0.2-9,0.5-10s2-5.4,2.8-6.7s5.8-1.7,5.8-1.7l1.2,3.6L263.3,114L263.3,114z"/>
		<path id="path168" inkscape:connector-curvature="0" class="st23" d="M269.6,117.5c0,0,2.2,5.2,2.4,7c0.3,3.6-5.2,14.4-6.2,16.8
			c-1,2.5,1.5,14.7-0.9,14l-18.7,0.5c0,0,8.1-2.3,8.5-4.1c1.3-5-4.8-11.5,3.5-13.7c2.3-0.6,9.3-10.4,11.4-12.9
			C271.7,122.8,269.6,117.5,269.6,117.5L269.6,117.5z"/>
		<polygon id="polygon170" class="st12" points="262.9,106.9 253.6,109.6 260.1,113.8 262.9,112.3 		"/>
		<path id="path172" inkscape:connector-curvature="0" class="st10" d="M252.9,98.3c0,0.5-1.7,3.6-1.8,4.1c-0.1,0.3,0.3,0.8,0.5,0.9
			c0.2,0-0.9,5-0.3,5.4c0.8,0.7,5.9,1.4,6.4,1.4c3-0.2,4.6-0.9,6.7-2.5c2.5-2,5.4-5.8,3.7-11.1c-1.7-5.3-8.8-5.6-11.6-4.4
			C253,93.6,252.9,97.9,252.9,98.3z"/>
		<path id="path174" inkscape:connector-curvature="0" class="st13" d="M254.3,93.9c2.4-3.8,6.3-2.8,7.7-2.6
			c1.4,0.1,6.4,2.4,6.7,8.1c0.1,5.5-5.6,10.5-6.8,9.9c-0.3-0.1-1-3,1.7-6.9c0.2-0.3-4,1.6-4.3,1.2c-0.1-0.5,3-3.6,2.3-4.7
			C258.7,93.1,254.3,93.9,254.3,93.9L254.3,93.9z"/>
		<path id="path176" inkscape:connector-curvature="0" class="st10" d="M261.2,102.5c0.9-1.3,1.5-1.4,2.2-0.9s0.5,1.8-0.3,3.1
			s-2.2,1.8-2.9,1.4C259.5,105.6,260.3,103.8,261.2,102.5L261.2,102.5z"/>
		<g id="g182">
			
				<rect id="rect178" x="246.6" y="240.3" transform="matrix(0.999 -4.440183e-02 4.440183e-02 0.999 -10.4461 11.3111)" class="st14" width="5.6" height="1"/>
			<path id="path180" inkscape:connector-curvature="0" class="st14" d="M251.7,232.8c-0.1-0.2-5.8,0.5-5.8,0.5s-2,0.2-6.1,4.4
				c-1.6,1.6-7.8-0.7-7.8,4c0,0.7,3,1.2,4.6,1.2c5.6-0.2,6.3-1.5,8.5-2c2.2-0.3,4.7-0.6,6.8-0.7c0.7,0,1.3-2.4,1.2-3.5
				C253,235.8,252.5,233.9,251.7,232.8L251.7,232.8z"/>
		</g>
		<path id="path184" inkscape:connector-curvature="0" class="st24" d="M242.5,155.5c-0.1,1.6-1,12.4-1,16.2
			c-0.2,11.7-0.2,26.8-0.2,28.9c0.1,3.2,2,34,2,34s2.4,1.2,5.2,1.3c2.6,0.1,4.8-1,4.8-1s1.2-13,1.3-18.3s-1.4-12.9-1.5-14.9
			s0.6-3.6,2.2-11.7s5.4-18.4,5.3-21.6c-0.1-3.3,0.2-11.5,0.2-11.5L242.5,155.5z"/>
		<path id="path186" inkscape:connector-curvature="0" class="st21" d="M249.1,152.9c0,0-1.8,6.8-1.3,12c0.6,4.6,0.2,4.6,0.7,6.9
			c2.1,10.4,1.2,26.1,3.9,30.5c1.7,2.8,9.9,33.5,9.9,33.5s2.5,0.1,5.2-0.7s4.5-2.5,4.5-2.5s-1.6-13.1-2.3-18.4
			c-0.7-5.3-4.8-13-5.4-14.9c-0.7-1.8,1.5-9,2.1-17.4s1-14.6,0.9-17.8c-0.2-4.1-0.5-5.4-0.5-5.4L249.1,152.9z"/>
		<polygon id="polygon188" class="st23" points="254,119 254.5,116.9 258.9,116.4 		"/>
		<polygon id="polygon190" class="st23" points="253.4,116.3 254,119 252.2,117.1 		"/>
		<path id="path192" inkscape:connector-curvature="0" class="st25" d="M252,115.6c0,0-1.2,3.3-1.5,5.3c-0.8,4.6-0.7,10.1-0.7,10.1
			l-4.5,21.9l-0.5,8.6l-4.7-0.8c0,0,2.4-28,2.6-32.1c0.3-4.1,2.4-10.2,4.8-12.1C248.6,115.7,252,115.6,252,115.6L252,115.6z"/>
		<path id="path194" inkscape:connector-curvature="0" class="st20" d="M262.8,99.3c0.2,1.3,1.2,3.6,2,4.6s1.8,1.5,1.8,1.5l0.6-1
			c0,0-0.9-0.3-1.8-1.3c-0.8-0.9-1.5-3.6-1.5-3.6S262.6,98,262.8,99.3z"/>
		<path id="path196" inkscape:connector-curvature="0" class="st25" d="M253.8,92.7c1.2,2.2,6.9,5.4,8.6,6.1c1.7,0.8,7,2,7,2
			s0.8-2.8,0.6-5.2c-0.2-2.3-1.3-6.2-6-7.3C257.5,86.8,253.8,92.7,253.8,92.7L253.8,92.7z"/>
		<path id="path198" inkscape:connector-curvature="0" class="st8" d="M254.3,92.1c0,0,0,1.6,4.1,4.1c4.1,2.5,10.7,4.5,11.2,4.5
			s0.6,0.2,0.5,0.6c-0.1,0.2-1.3,0.8-8.6-2.5c-8.8-4-9.8-6.7-9.6-7C251.9,91.1,254.3,92.1,254.3,92.1z"/>
		<path id="path200" inkscape:connector-curvature="0" class="st8" d="M262,98.3c5.6,2.6,7.5,2.4,7.5,2.4s0.8-2.8,0.6-5.2
			c-0.2-2.1-1-5.2-4.4-6.7c2.2,1.8,2.2,4.6,2.1,6.1C267.4,97.2,264.9,98.8,262,98.3z"/>
		<polygon id="polygon202" class="st22" points="262.9,112.3 264.6,114.6 255.7,119.9 254.5,116.9 		"/>
		<polygon id="polygon204" class="st22" points="251.3,118.4 253.4,116.3 252.8,114.5 251.3,115.6 		"/>
		<g id="g212">
			<polygon id="polygon206" class="st25" points="265.7,177 252.9,177 254,161.6 265.7,161.8 267,176.2 266.1,176.5 			"/>
			<polygon id="polygon208" class="st24" points="267,176.2 254.2,176.2 254.2,161.6 266.3,161.6 			"/>
			<polygon id="polygon210" class="st8" points="265.7,177 252.9,177 254,161.6 253.8,176.5 266.1,176.5 			"/>
		</g>
		<path id="path214" inkscape:connector-curvature="0" class="st21" d="M268.5,128.6c2,2.5,13.7,15.2,15.3,15.9
			c1.6,0.7,5.4-2.8,5.5-4c0-1.2-11.5-17.6-14.3-20.3c-2.8-2.6-5.9-3.9-8.2-1.2C264.2,122.3,266.5,126,268.5,128.6z"/>
		<path id="path216" inkscape:connector-curvature="0" class="st25" d="M271.1,118c0,0-2.5,4.3-3.2,8.2c-0.8,4.7,1.6,6.9,1.6,6.9
			s-1.5,7.6-1.6,9.2c-0.1,4.4,0.7,19.6,0.7,19.6s-5.9,0.7-14.2,0.3c-4.3-0.1-9.7-0.8-9.7-0.8l0.5-8.6l4.5-21.9c0,0,3-5.1,7.7-9.9
			c2.6-2.8,7.6-6.2,7.6-6.2L271.1,118L271.1,118z"/>
		<path id="path218" inkscape:connector-curvature="0" class="st8" d="M256.5,141.4c-2.1,0.8-2.2,15.7-2.2,21h0.1
			c8.3,0.2,14.2-0.3,14.2-0.3s-0.8-15.2-0.7-19.6c0.1-1.6,1.6-9.2,1.6-9.2s-2.4-2.3-1.6-6.9c0.7-4,4-8.4,4-8.4l-4.1-1.6l1.7,1.3
			c0,0-4,2.4-5.8,10.2C262.1,135.5,259,140.4,256.5,141.4L256.5,141.4z"/>
		<path id="path220" inkscape:connector-curvature="0" class="st20" d="M268.2,156.4c0,0-4.7,0.9-14.7,0.5s-13-1.2-13-1.2l0.2-3
			c0,0,1.3,0.7,10.1,1.2c8.8,0.5,17.2-0.3,17.2-0.3L268.2,156.4z"/>
		<path id="path222" inkscape:connector-curvature="0" class="st20" d="M268.1,150.6c0,0-4.7,0.9-14.7,0.5s-12.4-1-12.4-1l0.3-2.9
			c0,0,0.7,0.5,9.6,0.9c8.9,0.5,17.2-0.2,17.2-0.2L268.1,150.6z"/>
		<path id="path224" inkscape:connector-curvature="0" class="st21" d="M289.2,140.3c-2.5-3-6.8-1.3-7.7-0.6
			c-8.9,6.3-15.9,14.3-15.9,14.3l2.5,3.5c0,0,10.4-5.2,13.7-7.4C285.2,148,291.7,143.3,289.2,140.3L289.2,140.3z"/>
		<g id="g236">
			<path id="path226" inkscape:connector-curvature="0" class="st10" d="M263.5,162.6l2.2-2.3c0.2-0.3,0.2-0.8,0-1l0,0
				c-0.3-0.2-0.8-0.2-1,0l-2.2,2.3c-0.2,0.3-0.2,0.8,0,1l0,0C262.8,162.8,263.3,162.8,263.5,162.6z"/>
			<path id="path228" inkscape:connector-curvature="0" class="st10" d="M262.5,161.7l2.2-2.3c0.2-0.3,0.2-0.8,0-1l0,0
				c-0.3-0.2-0.8-0.2-1,0l-2.2,2.3c-0.2,0.3-0.2,0.8,0,1l0,0C261.7,162,262.1,161.9,262.5,161.7z"/>
			<path id="path230" inkscape:connector-curvature="0" class="st10" d="M261.4,160.8l2.2-2.3c0.2-0.3,0.2-0.8,0-1l0,0
				c-0.3-0.2-0.8-0.2-1,0l-2.2,2.3c-0.2,0.3-0.2,0.8,0,1l0,0C260.6,161.1,261.1,161,261.4,160.8z"/>
			<path id="path232" inkscape:connector-curvature="0" class="st10" d="M260.5,159.7l2.2-2.3c0.2-0.3,0.2-0.8,0-1l0,0
				c-0.3-0.2-0.8-0.2-1,0l-2.2,2.3c-0.2,0.3-0.2,0.8,0,1l0,0C259.7,160.1,260.2,160.1,260.5,159.7z"/>
			<path id="path234" inkscape:connector-curvature="0" class="st10" d="M269.5,156.6c0,0-0.8,1.5-1.8,2.8s-4.1,3.1-4.1,3.1
				s-1.4-2.1-2-2.8s-2.4-0.8-2.4-0.8s2.2-3.5,3-4.1c0.8-0.7,5.8-2.8,5.8-2.8L269.5,156.6z"/>
		</g>
		
			<rect id="rect238" x="266.7" y="151.5" transform="matrix(0.7983 -0.6023 0.6023 0.7983 -38.8423 192.9849)" class="st22" width="3.9" height="6"/>
	</g>
</g>
</svg>
