<?xml version="1.0" encoding="UTF-8" standalone="no"?>
<!-- Created with Inkscape (http://www.inkscape.org/) -->

<svg
   xmlns:dc="http://purl.org/dc/elements/1.1/"
   xmlns:cc="http://creativecommons.org/ns#"
   xmlns:rdf="http://www.w3.org/1999/02/22-rdf-syntax-ns#"
   xmlns:svg="http://www.w3.org/2000/svg"
   xmlns="http://www.w3.org/2000/svg"
   xmlns:sodipodi="http://sodipodi.sourceforge.net/DTD/sodipodi-0.dtd"
   xmlns:inkscape="http://www.inkscape.org/namespaces/inkscape"
   width="80"
   height="80"
   viewBox="0 0 21.16667 21.166666"
   version="1.1"
   id="svg1928"
   inkscape:version="0.92.2 2405546, 2018-03-11"
   sodipodi:docname="TDLTE.svg">
  <defs
     id="defs1922" />
  <sodipodi:namedview
     id="base"
     pagecolor="#ffffff"
     bordercolor="#666666"
     borderopacity="1.0"
     inkscape:pageopacity="0.0"
     inkscape:pageshadow="2"
     inkscape:zoom="3.959798"
     inkscape:cx="48.797381"
     inkscape:cy="49.434008"
     inkscape:document-units="mm"
     inkscape:current-layer="layer1"
     showgrid="false"
     units="px"
     showguides="false"
     inkscape:window-width="1366"
     inkscape:window-height="694"
     inkscape:window-x="0"
     inkscape:window-y="0"
     inkscape:window-maximized="1" />
  <metadata
     id="metadata1925">
    <rdf:RDF>
      <cc:Work
         rdf:about="">
        <dc:format>image/svg+xml</dc:format>
        <dc:type
           rdf:resource="http://purl.org/dc/dcmitype/StillImage" />
        <dc:title></dc:title>
      </cc:Work>
    </rdf:RDF>
  </metadata>
  <g
     inkscape:label="Layer 1"
     inkscape:groupmode="layer"
     id="layer1"
     transform="translate(0,-275.83317)">
    <g
       id="g4890-3-1"
       transform="matrix(0.04393495,0,0,0.04393495,0.44296579,276.00644)"
       style="fill:#ffffff;fill-opacity:1"
       inkscape:export-xdpi="300"
       inkscape:export-ydpi="300">
      <g
         id="g4826-5-5"
         style="fill:#ffffff;fill-opacity:1">
        <g
           id="g4824-1-3"
           style="fill:#ffffff;fill-opacity:1">
          <g
             id="g4822-7-3"
             style="fill:#ffffff;fill-opacity:1">
            <path
               id="path4808-8-8"
               d="m 403.328,3.384 v -0.04 c -2.601,-3.572 -7.604,-4.359 -11.176,-1.758 -3.528,2.569 -4.346,7.49 -1.84,11.063 47.595,66.618 47.595,156.118 0,222.736 -2.582,3.586 -1.768,8.585 1.818,11.167 0.015,0.011 0.031,0.022 0.047,0.033 3.593,2.564 8.583,1.733 11.152,-1.856 51.572,-72.183 51.572,-169.162 -0.001,-241.345 z"
               inkscape:connector-curvature="0"
               style="fill:#ffffff;fill-opacity:1" />
            <path
               id="path4810-9-2"
               d="m 75.841,1.489 c 0,0 -10e-4,0 -10e-4,-0.001 -3.593,-2.564 -8.583,-1.733 -11.152,1.856 -51.573,72.183 -51.573,169.161 0,241.344 2.601,3.572 7.604,4.359 11.176,1.758 3.528,-2.569 4.346,-7.49 1.84,-11.062 C 30.109,168.766 30.109,79.266 77.704,12.648 80.271,9.052 79.437,4.056 75.841,1.489 Z"
               inkscape:connector-curvature="0"
               style="fill:#ffffff;fill-opacity:1" />
            <path
               id="path4812-4-8"
               d="m 126.72,40.704 c 2.706,-3.492 2.069,-8.518 -1.424,-11.224 0,0 0,0 0,0 -3.48,-2.697 -8.486,-2.075 -11.2,1.392 -42.741,54.741 -42.741,131.547 0,186.288 2.715,3.486 7.742,4.111 11.228,1.396 3.486,-2.715 4.111,-7.742 1.396,-11.228 -38.24,-48.959 -38.24,-117.664 0,-166.624 z"
               inkscape:connector-curvature="0"
               style="fill:#ffffff;fill-opacity:1" />
            <path
               id="path4814-1-5"
               d="m 342.722,29.479 c 0,0 -10e-4,0.001 -10e-4,0.001 -3.467,2.714 -4.089,7.72 -1.392,11.2 38.241,48.959 38.241,117.665 0,166.624 -2.715,3.486 -2.09,8.513 1.396,11.228 3.486,2.715 8.513,2.09 11.228,-1.396 42.741,-54.741 42.741,-131.547 0,-186.288 -2.724,-3.479 -7.752,-4.092 -11.231,-1.369 z"
               inkscape:connector-curvature="0"
               style="fill:#ffffff;fill-opacity:1" />
            <path
               id="path4816-6-8"
               d="m 292.248,69.288 c 29.013,30.718 29.013,78.738 0,109.456 -3.029,3.217 -2.876,8.28 0.34,11.309 10e-4,0.001 0.002,0.002 0.004,0.003 3.219,3.027 8.282,2.871 11.308,-0.348 0.001,-0.001 0.002,-0.003 0.004,-0.004 34.804,-36.877 34.804,-94.499 0,-131.376 -3.001,-3.243 -8.063,-3.438 -11.305,-0.437 -3.243,3.001 -3.438,8.063 -0.437,11.305 0.028,0.031 0.057,0.062 0.086,0.092 z"
               inkscape:connector-curvature="0"
               style="fill:#ffffff;fill-opacity:1" />
            <path
               id="path4818-4-0"
               d="m 169.936,192.224 c 4.418,0.002 8.002,-3.578 8.004,-7.996 0.001,-2.038 -0.776,-3.999 -2.172,-5.484 -29.013,-30.718 -29.013,-78.738 0,-109.456 3.052,-3.195 2.936,-8.259 -0.259,-11.311 -3.195,-3.052 -8.259,-2.936 -11.311,0.259 -0.029,0.03 -0.058,0.061 -0.086,0.092 -34.804,36.877 -34.804,94.499 0,131.376 1.511,1.607 3.618,2.519 5.824,2.52 z"
               inkscape:connector-curvature="0"
               style="fill:#ffffff;fill-opacity:1" />
            <path
               id="path4820-3-8"
               d="M 337.768,458.024 259.872,154.272 c 16.852,-14.284 18.933,-39.525 4.649,-56.377 -14.284,-16.852 -39.525,-18.933 -56.377,-4.649 -16.852,14.284 -18.933,39.525 -4.649,56.377 1.419,1.675 2.974,3.23 4.649,4.649 l -77.888,303.752 c -1.101,4.279 1.476,8.64 5.755,9.741 0.004,0.001 0.009,0.002 0.013,0.003 0.649,0.164 1.315,0.247 1.984,0.248 3.65,-0.002 6.835,-2.473 7.744,-6.008 l 2.672,-10.4 c 0.448,-0.127 0.884,-0.293 1.304,-0.496 L 299.272,372.4 322.248,462 c 0.907,3.544 4.102,6.021 7.76,6.016 0.672,0 1.341,-0.083 1.992,-0.248 4.281,-1.093 6.865,-5.45 5.771,-9.731 -0.001,-0.004 -0.002,-0.008 -0.003,-0.013 z M 260.64,221.696 217.136,183.624 222.64,162.168 c 3.678,1.171 7.508,1.793 11.368,1.848 3.859,-0.055 7.69,-0.677 11.368,-1.848 z m -26.632,-121.68 c 13.255,0 24,10.745 24,24 0,13.255 -10.745,24 -24,24 -13.255,0 -24,-10.745 -24,-24 0,-13.255 10.745,-24 24,-24 z m -21.32,100.968 48.184,42.176 -71.2,47.44 z m -58.96,229.928 28.72,-112 97.6,45.536 z m 40.552,-124.128 75.304,-50.208 24.856,96.944 z"
               inkscape:connector-curvature="0"
               style="fill:#ffffff;fill-opacity:1" />
          </g>
        </g>
      </g>
      <g
         id="g4828-5-6"
         style="fill:#ffffff;fill-opacity:1" />
      <g
         id="g4830-4-9"
         style="fill:#ffffff;fill-opacity:1" />
      <g
         id="g4832-8-3"
         style="fill:#ffffff;fill-opacity:1" />
      <g
         id="g4834-7-3"
         style="fill:#ffffff;fill-opacity:1" />
      <g
         id="g4836-3-7"
         style="fill:#ffffff;fill-opacity:1" />
      <g
         id="g4838-3-4"
         style="fill:#ffffff;fill-opacity:1" />
      <g
         id="g4840-5-3"
         style="fill:#ffffff;fill-opacity:1" />
      <g
         id="g4842-0-7"
         style="fill:#ffffff;fill-opacity:1" />
      <g
         id="g4844-1-1"
         style="fill:#ffffff;fill-opacity:1" />
      <g
         id="g4846-4-3"
         style="fill:#ffffff;fill-opacity:1" />
      <g
         id="g4848-5-9"
         style="fill:#ffffff;fill-opacity:1" />
      <g
         id="g4850-7-6"
         style="fill:#ffffff;fill-opacity:1" />
      <g
         id="g4852-0-4"
         style="fill:#ffffff;fill-opacity:1" />
      <g
         id="g4854-7-2"
         style="fill:#ffffff;fill-opacity:1" />
      <g
         id="g4856-8-0"
         style="fill:#ffffff;fill-opacity:1" />
    </g>
  </g>
</svg>
