<?xml version="1.0" encoding="UTF-8" standalone="no"?>
<!-- Created with Inkscape (http://www.inkscape.org/) -->

<svg
   xmlns:dc="http://purl.org/dc/elements/1.1/"
   xmlns:cc="http://creativecommons.org/ns#"
   xmlns:rdf="http://www.w3.org/1999/02/22-rdf-syntax-ns#"
   xmlns:svg="http://www.w3.org/2000/svg"
   xmlns="http://www.w3.org/2000/svg"
   xmlns:sodipodi="http://sodipodi.sourceforge.net/DTD/sodipodi-0.dtd"
   xmlns:inkscape="http://www.inkscape.org/namespaces/inkscape"
   width="80"
   height="80"
   viewBox="0 0 21.16667 21.166666"
   version="1.1"
   id="svg1928"
   inkscape:version="0.92.2 2405546, 2018-03-11"
   sodipodi:docname="Voice.svg">
  <defs
     id="defs1922" />
  <sodipodi:namedview
     id="base"
     pagecolor="#ffffff"
     bordercolor="#666666"
     borderopacity="1.0"
     inkscape:pageopacity="0.0"
     inkscape:pageshadow="2"
     inkscape:zoom="1.4"
     inkscape:cx="167.85714"
     inkscape:cy="92.857143"
     inkscape:document-units="mm"
     inkscape:current-layer="layer1"
     showgrid="false"
     units="px"
     showguides="false"
     inkscape:window-width="1366"
     inkscape:window-height="694"
     inkscape:window-x="0"
     inkscape:window-y="0"
     inkscape:window-maximized="1" />
  <metadata
     id="metadata1925">
    <rdf:RDF>
      <cc:Work
         rdf:about="">
        <dc:format>image/svg+xml</dc:format>
        <dc:type
           rdf:resource="http://purl.org/dc/dcmitype/StillImage" />
        <dc:title></dc:title>
      </cc:Work>
    </rdf:RDF>
  </metadata>
  <g
     inkscape:label="Layer 1"
     inkscape:groupmode="layer"
     id="layer1"
     transform="translate(0,-275.83317)">
    <g
       id="g3625-4-7"
       transform="matrix(0.04899991,0,0,0.04899991,0.42179612,275.99272)"
       style="fill:#ffffff;fill-opacity:1"
       inkscape:export-xdpi="300"
       inkscape:export-ydpi="300">
      <g
         id="g3564-1-2"
         style="fill:#ffffff;fill-opacity:1">
        <g
           id="g3562-3-1"
           style="fill:#ffffff;fill-opacity:1">
          <g
             id="g3560-0-0"
             style="fill:#ffffff;fill-opacity:1">
            <path
               id="path3552-2-1"
               d="m 284.395,215.803 c -0.8,1.2 -0.8,2.4 -1.2,4 -0.4,5.2 3.6,10 8.8,10.4 5.2,0.4 10,-3.6 10.4,-8.8 0,-1.2 0,-2.4 0.4,-4.4 0,-2 0,-3.2 0,-4.4 0,-11.6 -2,-22.8 -5.6,-33.6 -4.8,-14 -13.2,-26.4 -23.2,-36.8 -12.4,-12.4 -27.6,-21.2 -44.8,-26 -8,-2 -16.8,-3.2 -25.2,-3.2 -2.8,0 -5.6,0 -8.8,0.4 -2.8,0.4 -5.6,0.8 -8.4,1.2 -5.2,0.8 -8.8,6 -7.6,10.8 0.8,5.2 6,8.8 10.8,7.6 2.4,-0.4 4.4,-0.8 6.8,-0.8 0.4,0 0.8,0 1.2,0 2,0 4,-0.4 6,-0.4 22,0 42.4,8.8 56.8,23.6 14.4,14.4 23.2,34 23.6,56 v 0.8 c 0,1.6 0,2.8 0,3.6 z"
               inkscape:connector-curvature="0"
               style="fill:#ffffff;fill-opacity:1" />
            <path
               id="path3554-9-3"
               d="m 337.195,224.603 c -0.4,5.2 3.6,10 8.8,10.4 5.2,0.4 10,-3.6 10.4,-8.8 0.4,-4.4 0.4,-8.8 0.4,-13.2 0,-8.8 -0.8,-17.2 -2,-25.6 -5.2,-32 -20.8,-60.8 -42.8,-82.8 -25.2,-25.2 -58.8,-41.6 -96,-44.4 -4,-0.4 -8.4,-0.4 -12.4,-0.4 -4.4,0 -8.8,0 -13.2,0.4 -4.4,0.4 -8.8,0.8 -13.2,1.6 -5.2,0.8 -8.8,6 -7.6,10.8 0.8,5.2 6,8.8 10.8,7.6 2.8,-0.4 5.2,-0.8 8,-1.2 1.2,0 2.4,-0.4 3.6,-0.4 4,-0.4 8,-0.4 11.6,-0.4 13.6,0 26.4,2 38.8,5.6 21.6,6.4 40.8,18 56.4,33.6 12.8,12.8 23.2,28.4 30,45.2 6,15.2 9.6,32 9.6,49.6 0,1.2 0,2.8 0,4 -0.8,3.2 -1.2,5.6 -1.2,8.4 z"
               inkscape:connector-curvature="0"
               style="fill:#ffffff;fill-opacity:1" />
            <path
               id="path3556-6-7"
               d="m 350.795,66.203 c -38,-38 -90,-61.2 -147.6,-61.2 -6,0 -12,0.4 -18,0.8 -6,0.4 -12,1.2 -18,2.4 -5.2,0.8 -8.8,6 -7.6,10.8 0.8,5.2 6,8.8 10.8,7.6 2.8,-0.4 5.2,-0.8 8,-1.2 2.8,-0.4 5.6,-0.8 8.4,-0.8 5.6,-0.4 10.8,-0.8 16.4,-0.8 52,0 99.2,21.2 133.6,55.2 34,34 55.2,81.2 55.2,133.6 0,2.8 0,6 0,8.8 0,2.4 -0.4,4.8 -0.4,7.6 -0.4,5.2 3.6,10 8.8,10.4 5.2,0.4 10,-3.6 10.4,-8.8 0.4,-6 0.8,-12 0.8,-17.6 0,-57.2 -23.2,-109.2 -60.8,-146.8 z"
               inkscape:connector-curvature="0"
               style="fill:#ffffff;fill-opacity:1" />
            <path
               id="path3558-0-7"
               d="m 396.795,308.603 -70.8,-38 c -23.6,-12.8 -24.4,-4.4 -49.2,22 -6,6.4 -17.2,23.2 -30.4,20 -27.6,-6.8 -79.2,-47.2 -96,-65.6 -8,-8.8 -42.4,-50.8 -42.8,-64.4 -0.8,-20.8 44.8,-31.2 30,-70.8 l -31.6,-70.8 c -29.6,-68 -112.4,40.8 -105.6,91.6 17.6,125.2 237.2,327.6 359.6,260.8 27.2,-15.2 64,-68.4 36.8,-84.8 z"
               inkscape:connector-curvature="0"
               style="fill:#ffffff;fill-opacity:1" />
          </g>
        </g>
      </g>
      <g
         id="g3566-9-6"
         style="fill:#ffffff;fill-opacity:1" />
      <g
         id="g3568-3-3"
         style="fill:#ffffff;fill-opacity:1" />
      <g
         id="g3570-5-9"
         style="fill:#ffffff;fill-opacity:1" />
      <g
         id="g3572-4-1"
         style="fill:#ffffff;fill-opacity:1" />
      <g
         id="g3574-3-0"
         style="fill:#ffffff;fill-opacity:1" />
      <g
         id="g3576-6-4"
         style="fill:#ffffff;fill-opacity:1" />
      <g
         id="g3578-4-1"
         style="fill:#ffffff;fill-opacity:1" />
      <g
         id="g3580-3-1"
         style="fill:#ffffff;fill-opacity:1" />
      <g
         id="g3582-1-8"
         style="fill:#ffffff;fill-opacity:1" />
      <g
         id="g3584-9-6"
         style="fill:#ffffff;fill-opacity:1" />
      <g
         id="g3586-1-4"
         style="fill:#ffffff;fill-opacity:1" />
      <g
         id="g3588-0-3"
         style="fill:#ffffff;fill-opacity:1" />
      <g
         id="g3590-9-4"
         style="fill:#ffffff;fill-opacity:1" />
      <g
         id="g3592-4-7"
         style="fill:#ffffff;fill-opacity:1" />
      <g
         id="g3594-5-7"
         style="fill:#ffffff;fill-opacity:1" />
    </g>
  </g>
</svg>
